<svg width="220" height="60" viewBox="0 0 220 60" fill="none" xmlns="http://www.w3.org/2000/svg">
<g clip-path="url(#clip0_66_2264)">
<path d="M85.7124 37.5473V42H71.1537V24.4895H85.3872V28.9422H76.9572V30.9934H84.3616V35.246H76.9572V37.5473H85.7124ZM97.891 41.5247C97.0405 42.0083 95.8814 42.2501 94.4139 42.2501C92.4961 42.2501 91.0202 41.7915 89.9862 40.8743C88.9523 39.9404 88.4353 38.5479 88.4353 36.6968V33.1947H86.5592V29.0673H88.4353V25.24H94.0887V29.0673H96.8904V33.1947H94.0887V36.6468C94.0887 37.0637 94.1971 37.3889 94.4139 37.6224C94.6307 37.8559 94.9142 37.9726 95.2644 37.9726C95.748 37.9726 96.1733 37.8475 96.5402 37.5974L97.891 41.5247ZM108.822 28.0667C110.506 28.0667 111.857 28.5753 112.874 29.5926C113.908 30.6099 114.425 32.1441 114.425 34.1953V42H108.771V35.1709C108.771 33.6033 108.213 32.8195 107.095 32.8195C106.462 32.8195 105.945 33.0446 105.545 33.4949C105.161 33.9285 104.969 34.6206 104.969 35.5712V42H99.3158V23.4389H104.969V29.4175C106.02 28.5169 107.304 28.0667 108.822 28.0667ZM131.683 35.1459C131.683 35.2293 131.658 35.6712 131.608 36.4717H122.102C122.302 36.9887 122.636 37.3889 123.103 37.6724C123.57 37.9392 124.154 38.0727 124.854 38.0727C125.454 38.0727 125.955 37.9976 126.355 37.8475C126.772 37.6974 127.222 37.4389 127.706 37.0721L130.657 40.0488C129.323 41.5164 127.33 42.2501 124.679 42.2501C123.028 42.2501 121.577 41.95 120.326 41.3496C119.075 40.7326 118.108 39.8821 117.425 38.7981C116.741 37.7141 116.399 36.4967 116.399 35.1459C116.399 33.7784 116.732 32.561 117.399 31.4937C118.083 30.4097 119.009 29.5676 120.176 28.9672C121.36 28.3669 122.686 28.0667 124.154 28.0667C125.538 28.0667 126.797 28.3418 127.931 28.8922C129.081 29.4425 129.99 30.2513 130.657 31.3186C131.341 32.3859 131.683 33.6617 131.683 35.1459ZM124.204 31.919C123.62 31.919 123.136 32.0774 122.753 32.3943C122.369 32.7111 122.119 33.1614 122.002 33.7451H126.405C126.288 33.1781 126.038 32.7361 125.654 32.4193C125.271 32.0857 124.787 31.919 124.204 31.919ZM138.845 29.7927C139.846 28.642 141.322 28.0667 143.273 28.0667V33.0697C142.823 33.003 142.406 32.9696 142.022 32.9696C140.088 32.9696 139.12 33.9535 139.12 35.9214V42H133.467V28.3168H138.845V29.7927ZM150.228 42.2501C149.061 42.2501 147.91 42.1251 146.776 41.8749C145.642 41.6248 144.725 41.2996 144.025 40.8993L145.576 37.1721C146.209 37.5557 146.96 37.8559 147.827 38.0727C148.694 38.2894 149.536 38.3978 150.354 38.3978C151.004 38.3978 151.454 38.3478 151.704 38.2478C151.971 38.131 152.105 37.9643 152.105 37.7475C152.105 37.5307 151.938 37.3806 151.604 37.2972C151.287 37.2138 150.762 37.1304 150.028 37.047C148.911 36.9136 147.96 36.7469 147.177 36.5467C146.393 36.3299 145.701 35.9214 145.1 35.321C144.517 34.7207 144.225 33.8618 144.225 32.7445C144.225 31.8606 144.492 31.0685 145.025 30.368C145.559 29.6676 146.351 29.109 147.402 28.692C148.469 28.2751 149.745 28.0667 151.229 28.0667C152.263 28.0667 153.272 28.1667 154.256 28.3669C155.256 28.5503 156.107 28.8255 156.807 29.1923L155.256 32.9196C154.056 32.2525 152.738 31.919 151.304 31.919C150.07 31.919 149.453 32.1358 149.453 32.5694C149.453 32.7862 149.62 32.9446 149.953 33.0446C150.287 33.128 150.812 33.2114 151.529 33.2948C152.647 33.4282 153.589 33.6033 154.356 33.8201C155.14 34.0369 155.823 34.4455 156.407 35.0458C157.008 35.6462 157.308 36.505 157.308 37.6224C157.308 38.4729 157.041 39.2484 156.507 39.9488C155.974 40.6492 155.173 41.2079 154.106 41.6248C153.038 42.0417 151.746 42.2501 150.228 42.2501ZM166.374 42.2501C164.823 42.2501 163.43 41.95 162.196 41.3496C160.979 40.7493 160.02 39.9071 159.32 38.8231C158.636 37.7391 158.294 36.5134 158.294 35.1459C158.294 33.7784 158.636 32.561 159.32 31.4937C160.02 30.4097 160.979 29.5676 162.196 28.9672C163.43 28.3669 164.823 28.0667 166.374 28.0667C168.042 28.0667 169.467 28.4252 170.651 29.1423C171.835 29.8594 172.653 30.8517 173.103 32.1191L168.725 34.2704C168.192 33.0697 167.399 32.4693 166.349 32.4693C165.682 32.4693 165.123 32.7028 164.673 33.1697C164.239 33.6367 164.022 34.2954 164.022 35.1459C164.022 36.0131 164.239 36.6802 164.673 37.1471C165.123 37.614 165.682 37.8475 166.349 37.8475C167.399 37.8475 168.192 37.2472 168.725 36.0464L173.103 38.1977C172.653 39.4652 171.835 40.4574 170.651 41.1745C169.467 41.8916 168.042 42.2501 166.374 42.2501ZM180.538 28.0667C182.94 28.0667 184.774 28.6087 186.041 29.6926C187.309 30.76 187.943 32.4109 187.943 34.6456V42H182.689V40.1989C182.039 41.5664 180.747 42.2501 178.812 42.2501C177.728 42.2501 176.803 42.0667 176.036 41.6998C175.285 41.3163 174.71 40.8076 174.309 40.1739C173.926 39.5235 173.734 38.7981 173.734 37.9976C173.734 36.6468 174.251 35.6212 175.285 34.9208C176.319 34.2204 177.887 33.8701 179.988 33.8701H182.264C182.081 32.8028 181.222 32.2692 179.688 32.2692C179.071 32.2692 178.445 32.3692 177.812 32.5694C177.178 32.7528 176.636 33.0113 176.186 33.3448L174.385 29.6176C175.168 29.134 176.111 28.7588 177.211 28.4919C178.329 28.2084 179.438 28.0667 180.538 28.0667ZM180.513 38.8481C180.913 38.8481 181.272 38.7397 181.589 38.5229C181.906 38.3061 182.139 37.9809 182.289 37.5473V36.5968H180.888C179.738 36.5968 179.162 36.9803 179.162 37.7475C179.162 38.0643 179.279 38.3311 179.513 38.5479C179.763 38.7481 180.096 38.8481 180.513 38.8481ZM199.892 28.0667C201.576 28.0667 202.927 28.5753 203.944 29.5926C204.978 30.6099 205.495 32.1441 205.495 34.1953V42H199.842V35.1709C199.842 33.6033 199.283 32.8195 198.166 32.8195C197.532 32.8195 197.015 33.0446 196.615 33.4949C196.231 33.9285 196.039 34.6206 196.039 35.5712V42H190.386V28.3168H195.764V29.6676C196.298 29.134 196.915 28.7337 197.615 28.4669C198.316 28.2001 199.074 28.0667 199.892 28.0667Z" fill="white"/>
<path d="M85.7124 37.5473H86.3605V36.8993H85.7124V37.5473ZM85.7124 42V42.6481H86.3605V42H85.7124ZM71.1537 42H70.5056V42.6481H71.1537V42ZM71.1537 24.4895V23.8415H70.5056V24.4895H71.1537ZM85.3872 24.4895H86.0353V23.8415H85.3872V24.4895ZM85.3872 28.9422V29.5903H86.0353V28.9422H85.3872ZM76.9572 28.9422V28.2941H76.3091V28.9422H76.9572ZM76.9572 30.9934H76.3091V31.6415H76.9572V30.9934ZM84.3616 30.9934H85.0096V30.3454H84.3616V30.9934ZM84.3616 35.246V35.894H85.0096V35.246H84.3616ZM76.9572 35.246V34.5979H76.3091V35.246H76.9572ZM76.9572 37.5473H76.3091V38.1954H76.9572V37.5473ZM85.0643 37.5473V42H86.3605V37.5473H85.0643ZM85.7124 41.3519H71.1537V42.6481H85.7124V41.3519ZM71.8018 42V24.4895H70.5056V42H71.8018ZM71.1537 25.1376H85.3872V23.8415H71.1537V25.1376ZM84.7391 24.4895V28.9422H86.0353V24.4895H84.7391ZM85.3872 28.2941H76.9572V29.5903H85.3872V28.2941ZM76.3091 28.9422V30.9934H77.6052V28.9422H76.3091ZM76.9572 31.6415H84.3616V30.3454H76.9572V31.6415ZM83.7135 30.9934V35.246H85.0096V30.9934H83.7135ZM84.3616 34.5979H76.9572V35.894H84.3616V34.5979ZM76.3091 35.246V37.5473H77.6052V35.246H76.3091ZM76.9572 38.1954H85.7124V36.8993H76.9572V38.1954ZM97.891 41.5247L98.2113 42.0881L98.6786 41.8223L98.5038 41.3139L97.891 41.5247ZM89.9862 40.8743L89.5518 41.3553L89.5562 41.3591L89.9862 40.8743ZM88.4353 33.1947H89.0834V32.5467H88.4353V33.1947ZM86.5592 33.1947H85.9111V33.8428H86.5592V33.1947ZM86.5592 29.0673V28.4192H85.9111V29.0673H86.5592ZM88.4353 29.0673V29.7153H89.0834V29.0673H88.4353ZM88.4353 25.24V24.5919H87.7873V25.24H88.4353ZM94.0887 25.24H94.7367V24.5919H94.0887V25.24ZM94.0887 29.0673H93.4406V29.7153H94.0887V29.0673ZM96.8904 29.0673H97.5384V28.4192H96.8904V29.0673ZM96.8904 33.1947V33.8428H97.5384V33.1947H96.8904ZM94.0887 33.1947V32.5467H93.4406V33.1947H94.0887ZM94.4139 37.6224L93.939 38.0634L93.939 38.0634L94.4139 37.6224ZM96.5402 37.5974L97.153 37.3866L96.8768 36.5835L96.1751 37.0619L96.5402 37.5974ZM97.5706 40.9614C96.8547 41.3685 95.821 41.6021 94.4139 41.6021V42.8982C95.9418 42.8982 97.2262 42.6482 98.2113 42.0881L97.5706 40.9614ZM94.4139 41.6021C92.5931 41.6021 91.2926 41.1669 90.4163 40.3895L89.5562 41.3591C90.7478 42.4162 92.399 42.8982 94.4139 42.8982V41.6021ZM90.4206 40.3934C89.5635 39.6192 89.0834 38.428 89.0834 36.6968H87.7873C87.7873 38.6679 88.3411 40.2616 89.5519 41.3553L90.4206 40.3934ZM89.0834 36.6968V33.1947H87.7873V36.6968H89.0834ZM88.4353 32.5467H86.5592V33.8428H88.4353V32.5467ZM87.2072 33.1947V29.0673H85.9111V33.1947H87.2072ZM86.5592 29.7153H88.4353V28.4192H86.5592V29.7153ZM89.0834 29.0673V25.24H87.7873V29.0673H89.0834ZM88.4353 25.888H94.0887V24.5919H88.4353V25.888ZM93.4406 25.24V29.0673H94.7367V25.24H93.4406ZM94.0887 29.7153H96.8904V28.4192H94.0887V29.7153ZM96.2423 29.0673V33.1947H97.5384V29.0673H96.2423ZM96.8904 32.5467H94.0887V33.8428H96.8904V32.5467ZM93.4406 33.1947V36.6468H94.7367V33.1947H93.4406ZM93.4406 36.6468C93.4406 37.1754 93.58 37.6767 93.939 38.0634L94.8888 37.1814C94.8142 37.1011 94.7367 36.952 94.7367 36.6468H93.4406ZM93.939 38.0634C94.2913 38.4428 94.7539 38.6206 95.2644 38.6206V37.3245C95.0745 37.3245 94.97 37.2689 94.8888 37.1814L93.939 38.0634ZM95.2644 38.6206C95.8661 38.6206 96.4211 38.4629 96.9052 38.1328L96.1751 37.0619C95.9254 37.2321 95.6299 37.3245 95.2644 37.3245V38.6206ZM95.9273 37.8081L97.2781 41.7355L98.5038 41.3139L97.153 37.3866L95.9273 37.8081ZM112.874 29.5926L112.416 30.0508L112.419 30.0545L112.874 29.5926ZM114.425 42V42.6481H115.073V42H114.425ZM108.771 42H108.123V42.6481H108.771V42ZM105.545 33.4949L105.06 33.0644L105.059 33.0655L105.545 33.4949ZM104.969 42V42.6481H105.617V42H104.969ZM99.3158 42H98.6678V42.6481H99.3158V42ZM99.3158 23.4389V22.7909H98.6678V23.4389H99.3158ZM104.969 23.4389H105.617V22.7909H104.969V23.4389ZM104.969 29.4175H104.321V30.8265L105.391 29.9095L104.969 29.4175ZM108.822 28.7147C110.366 28.7147 111.541 29.1758 112.416 30.0508L113.332 29.1343C112.173 27.9748 110.646 27.4186 108.822 27.4186V28.7147ZM112.419 30.0545C113.286 30.9069 113.777 32.2449 113.777 34.1953H115.073C115.073 32.0433 114.53 30.3128 113.328 29.1306L112.419 30.0545ZM113.777 34.1953V42H115.073V34.1953H113.777ZM114.425 41.3519H108.771V42.6481H114.425V41.3519ZM109.42 42V35.1709H108.123V42H109.42ZM109.42 35.1709C109.42 34.3297 109.273 33.5826 108.88 33.0312C108.458 32.4395 107.825 32.1715 107.095 32.1715V33.4676C107.483 33.4676 107.688 33.5914 107.825 33.7835C107.99 34.016 108.123 34.4445 108.123 35.1709H109.42ZM107.095 32.1715C106.288 32.1715 105.59 32.4678 105.06 33.0644L106.029 33.9255C106.299 33.6215 106.636 33.4676 107.095 33.4676V32.1715ZM105.059 33.0655C104.521 33.6734 104.321 34.5574 104.321 35.5712H105.617C105.617 34.6838 105.801 34.1837 106.03 33.9243L105.059 33.0655ZM104.321 35.5712V42H105.617V35.5712H104.321ZM104.969 41.3519H99.3158V42.6481H104.969V41.3519ZM99.9639 42V23.4389H98.6678V42H99.9639ZM99.3158 24.087H104.969V22.7909H99.3158V24.087ZM104.321 23.4389V29.4175H105.617V23.4389H104.321ZM105.391 29.9095C106.312 29.1197 107.443 28.7147 108.822 28.7147V27.4186C107.165 27.4186 105.727 27.9142 104.547 28.9254L105.391 29.9095ZM131.608 36.4717V37.1198H132.217L132.255 36.5121L131.608 36.4717ZM122.102 36.4717V35.8236H121.157L121.498 36.7056L122.102 36.4717ZM123.103 37.6724L122.767 38.2264L122.774 38.2308L122.781 38.2351L123.103 37.6724ZM126.355 37.8475L126.135 37.2377L126.127 37.2407L126.355 37.8475ZM127.706 37.0721L128.166 36.6157L127.766 36.2127L127.314 36.5558L127.706 37.0721ZM130.657 40.0488L131.137 40.4848L131.551 40.0295L131.118 39.5925L130.657 40.0488ZM120.326 41.3496L120.04 41.9308L120.046 41.9338L120.326 41.3496ZM117.425 38.7981L117.973 38.4523L117.425 38.7981ZM117.399 31.4937L116.851 31.148L116.85 31.1503L117.399 31.4937ZM120.176 28.9672L119.883 28.3892L119.88 28.3909L120.176 28.9672ZM127.931 28.8922L127.648 29.4752L127.651 29.4768L127.931 28.8922ZM130.657 31.3186L130.108 31.6621L130.112 31.6682L130.657 31.3186ZM122.753 32.3943L123.165 32.8939L123.165 32.8939L122.753 32.3943ZM122.002 33.7451L121.367 33.618L121.212 34.3931H122.002V33.7451ZM126.405 33.7451V34.3931H127.2L127.04 33.6144L126.405 33.7451ZM125.654 32.4193L125.229 32.9083L125.235 32.9137L125.242 32.9189L125.654 32.4193ZM131.035 35.1459C131.035 35.144 131.035 35.1503 131.034 35.1706C131.034 35.1888 131.033 35.2134 131.031 35.2448C131.028 35.3077 131.023 35.3936 131.017 35.5033C131.005 35.7223 130.986 36.0315 130.961 36.4313L132.255 36.5121C132.304 35.7289 132.331 35.2558 132.331 35.1459H131.035ZM131.608 35.8236H122.102V37.1198H131.608V35.8236ZM121.498 36.7056C121.749 37.3538 122.175 37.8675 122.767 38.2264L123.439 37.1185C123.096 36.9103 122.856 36.6236 122.707 36.2378L121.498 36.7056ZM122.781 38.2351C123.372 38.5723 124.074 38.7207 124.854 38.7207V37.4246C124.233 37.4246 123.768 37.3062 123.424 37.1097L122.781 38.2351ZM124.854 38.7207C125.503 38.7207 126.086 38.6403 126.582 38.4543L126.127 37.2407C125.823 37.3549 125.406 37.4246 124.854 37.4246V38.7207ZM126.574 38.4573C127.071 38.2784 127.579 37.9813 128.097 37.5884L127.314 36.5558C126.865 36.8965 126.472 37.1164 126.135 37.2378L126.574 38.4573ZM127.245 37.5284L130.197 40.5051L131.118 39.5925L128.166 36.6157L127.245 37.5284ZM130.178 39.6129C129.004 40.904 127.212 41.6021 124.679 41.6021V42.8982C127.449 42.8982 129.642 42.1287 131.137 40.4848L130.178 39.6129ZM124.679 41.6021C123.107 41.6021 121.755 41.3165 120.607 40.7654L120.046 41.9338C121.399 42.5835 122.949 42.8982 124.679 42.8982V41.6021ZM120.613 40.7684C119.46 40.1994 118.587 39.4264 117.973 38.4523L116.876 39.1438C117.629 40.3377 118.691 41.2657 120.04 41.9308L120.613 40.7684ZM117.973 38.4523C117.358 37.4776 117.047 36.3813 117.047 35.1459H115.751C115.751 36.6122 116.124 37.9506 116.876 39.1438L117.973 38.4523ZM117.047 35.1459C117.047 33.889 117.352 32.7926 117.949 31.8372L116.85 31.1503C116.113 32.3294 115.751 33.6679 115.751 35.1459H117.047ZM117.948 31.8395C118.568 30.8559 119.406 30.0923 120.473 29.5435L119.88 28.3909C118.612 29.0429 117.598 29.9636 116.851 31.148L117.948 31.8395ZM120.469 29.5452C121.553 28.9956 122.777 28.7147 124.154 28.7147V27.4186C122.595 27.4186 121.167 27.7381 119.883 28.3892L120.469 29.5452ZM124.154 28.7147C125.449 28.7147 126.61 28.9717 127.648 29.4752L128.214 28.3091C126.983 27.712 125.626 27.4186 124.154 27.4186V28.7147ZM127.651 29.4768C128.692 29.9748 129.507 30.7007 130.108 31.6621L131.207 30.9751C130.474 29.802 129.471 28.9102 128.21 28.3075L127.651 29.4768ZM130.112 31.6682C130.718 32.6144 131.035 33.764 131.035 35.1459H132.331C132.331 33.5593 131.964 32.1575 131.203 30.969L130.112 31.6682ZM124.204 31.2709C123.497 31.2709 122.859 31.4657 122.34 31.8946L123.165 32.8939C123.413 32.6891 123.743 32.567 124.204 32.567V31.2709ZM122.34 31.8946C121.82 32.3241 121.507 32.918 121.367 33.618L122.638 33.8722C122.731 33.4047 122.918 33.0981 123.165 32.8939L122.34 31.8946ZM122.002 34.3931H126.405V33.097H122.002V34.3931ZM127.04 33.6144C126.898 32.9275 126.583 32.3455 126.067 31.9196L125.242 32.9189C125.493 33.1267 125.678 33.4286 125.77 33.8757L127.04 33.6144ZM126.08 31.9302C125.561 31.4791 124.919 31.2709 124.204 31.2709V32.567C124.656 32.567 124.981 32.6924 125.229 32.9083L126.08 31.9302ZM138.845 29.7927H138.197V31.5256L139.334 30.2179L138.845 29.7927ZM143.273 28.0667H143.921V27.4186H143.273V28.0667ZM143.273 33.0697L143.178 33.7107L143.921 33.8208V33.0697H143.273ZM139.12 42V42.6481H139.769V42H139.12ZM133.467 42H132.819V42.6481H133.467V42ZM133.467 28.3168V27.6688H132.819V28.3168H133.467ZM138.845 28.3168H139.493V27.6688H138.845V28.3168ZM139.334 30.2179C140.179 29.2463 141.453 28.7147 143.273 28.7147V27.4186C141.19 27.4186 139.513 28.0377 138.356 29.3675L139.334 30.2179ZM142.625 28.0667V33.0697H143.921V28.0667H142.625ZM143.368 32.4286C142.892 32.3581 142.443 32.3215 142.022 32.3215V33.6177C142.369 33.6177 142.754 33.6478 143.178 33.7107L143.368 32.4286ZM142.022 32.3215C140.952 32.3215 140.031 32.5945 139.384 33.2532C138.738 33.9099 138.472 34.8403 138.472 35.9214H139.769C139.769 35.0346 139.986 34.4891 140.308 34.1619C140.628 33.8367 141.158 33.6177 142.022 33.6177V32.3215ZM138.472 35.9214V42H139.769V35.9214H138.472ZM139.12 41.3519H133.467V42.6481H139.12V41.3519ZM134.115 42V28.3168H132.819V42H134.115ZM133.467 28.9649H138.845V27.6688H133.467V28.9649ZM138.197 28.3168V29.7927H139.493V28.3168H138.197ZM146.776 41.8749L146.637 42.5078L146.776 41.8749ZM144.025 40.8993L143.426 40.6504L143.207 41.1783L143.703 41.462L144.025 40.8993ZM145.576 37.1721L145.911 36.6177L145.267 36.2276L144.977 36.9231L145.576 37.1721ZM147.827 38.0727L147.984 37.4439L147.984 37.4439L147.827 38.0727ZM151.704 38.2478L151.945 38.8495L151.955 38.8456L151.964 38.8415L151.704 38.2478ZM151.604 37.2972L151.439 37.924L151.447 37.9259L151.604 37.2972ZM150.028 37.047L149.952 37.6905L149.955 37.691L150.028 37.047ZM147.177 36.5467L147.004 37.1715L147.016 37.1747L147.177 36.5467ZM145.1 35.321L144.636 35.7728L144.642 35.7793L145.1 35.321ZM145.025 30.368L144.51 29.9753L144.51 29.9753L145.025 30.368ZM147.402 28.692L147.166 28.0884L147.163 28.0897L147.402 28.692ZM154.256 28.3669L154.127 29.002L154.139 29.0043L154.256 28.3669ZM156.807 29.1923L157.406 29.4413L157.634 28.8936L157.108 28.6183L156.807 29.1923ZM155.256 32.9196L154.942 33.4861L155.576 33.8385L155.855 33.1685L155.256 32.9196ZM149.953 33.0446L149.767 33.6654L149.782 33.6697L149.796 33.6734L149.953 33.0446ZM151.529 33.2948L151.606 32.6513L151.604 32.6511L151.529 33.2948ZM154.356 33.8201L154.18 34.4438L154.183 34.4447L154.356 33.8201ZM156.407 35.0458L155.942 35.4976L155.949 35.5041L156.407 35.0458ZM156.507 39.9488L157.023 40.3415L157.023 40.3415L156.507 39.9488ZM154.106 41.6248L154.342 42.2284L154.342 42.2284L154.106 41.6248ZM150.228 41.6021C149.108 41.6021 148.004 41.4821 146.916 41.2421L146.637 42.5078C147.817 42.7681 149.014 42.8982 150.228 42.8982V41.6021ZM146.916 41.2421C145.82 41.0004 144.971 40.6937 144.346 40.3367L143.703 41.462C144.479 41.9055 145.464 42.2492 146.637 42.5078L146.916 41.2421ZM144.623 41.1483L146.174 37.4211L144.977 36.9231L143.426 40.6504L144.623 41.1483ZM145.24 37.7265C145.939 38.1497 146.752 38.472 147.67 38.7014L147.984 37.4439C147.167 37.2397 146.479 36.9616 145.911 36.6177L145.24 37.7265ZM147.67 38.7014C148.584 38.9298 149.479 39.0459 150.354 39.0459V37.7498C149.594 37.7498 148.805 37.6491 147.984 37.4439L147.67 38.7014ZM150.354 39.0459C151.002 39.0459 151.567 39.0008 151.945 38.8495L151.464 37.6461C151.342 37.6949 151.006 37.7498 150.354 37.7498V39.0459ZM151.964 38.8415C152.37 38.6639 152.753 38.313 152.753 37.7475H151.457C151.457 37.7341 151.459 37.7128 151.468 37.6878C151.476 37.6626 151.488 37.6431 151.498 37.6303C151.517 37.6074 151.515 37.6232 151.445 37.654L151.964 38.8415ZM152.753 37.7475C152.753 37.4482 152.628 37.1837 152.413 36.9906C152.22 36.8169 151.981 36.7234 151.761 36.6685L151.447 37.9259C151.5 37.939 151.532 37.9515 151.549 37.9595C151.566 37.9676 151.561 37.9679 151.546 37.954C151.529 37.9386 151.503 37.9096 151.483 37.8655C151.463 37.8209 151.457 37.7786 151.457 37.7475H152.753ZM151.769 36.6705C151.403 36.5742 150.838 36.4868 150.102 36.4031L149.955 37.691C150.687 37.7741 151.171 37.8534 151.439 37.9239L151.769 36.6705ZM150.105 36.4036C149.006 36.2723 148.085 36.1098 147.337 35.9188L147.016 37.1747C147.836 37.3839 148.816 37.5549 149.952 37.6905L150.105 36.4036ZM147.349 35.9221C146.678 35.7365 146.083 35.3876 145.559 34.8628L144.642 35.7793C145.318 36.4552 146.107 36.9234 147.004 37.1713L147.349 35.9221ZM145.565 34.8693C145.134 34.4259 144.873 33.7511 144.873 32.7445H143.577C143.577 33.9725 143.899 35.0154 144.636 35.7728L145.565 34.8693ZM144.873 32.7445C144.873 32.0019 145.094 31.3479 145.541 30.7608L144.51 29.9753C143.89 30.789 143.577 31.7193 143.577 32.7445H144.873ZM145.541 30.7608C145.986 30.1772 146.669 29.68 147.641 29.2944L147.163 28.0897C146.033 28.5379 145.133 29.1581 144.51 29.9753L145.541 30.7608ZM147.638 29.2957C148.611 28.9154 149.803 28.7147 151.229 28.7147V27.4186C149.687 27.4186 148.327 27.6349 147.166 28.0884L147.638 29.2957ZM151.229 28.7147C152.221 28.7147 153.187 28.8107 154.127 29.0019L154.385 27.7318C153.357 27.5228 152.305 27.4186 151.229 27.4186V28.7147ZM154.139 29.0043C155.093 29.1792 155.878 29.437 156.507 29.7664L157.108 28.6183C156.336 28.2139 155.42 27.9214 154.373 27.7294L154.139 29.0043ZM156.209 28.9434L154.658 32.6706L155.855 33.1685L157.406 29.4413L156.209 28.9434ZM155.571 32.3531C154.27 31.6301 152.843 31.2709 151.304 31.2709V32.567C152.633 32.567 153.842 32.8749 154.942 33.4861L155.571 32.3531ZM151.304 31.2709C150.667 31.2709 150.115 31.3246 149.701 31.4702C149.491 31.5439 149.271 31.6566 149.099 31.8388C148.911 32.036 148.805 32.2889 148.805 32.5694H150.101C150.101 32.6331 150.072 32.6963 150.039 32.7309C150.02 32.7505 150.032 32.7276 150.131 32.693C150.333 32.6217 150.707 32.567 151.304 32.567V31.2709ZM148.805 32.5694C148.805 32.8672 148.928 33.1274 149.132 33.3206C149.317 33.4966 149.549 33.5998 149.767 33.6654L150.14 32.4239C150.086 32.4078 150.052 32.3931 150.032 32.3829C150.012 32.3727 150.013 32.3702 150.024 32.3809C150.037 32.3929 150.059 32.4181 150.076 32.4578C150.095 32.4984 150.101 32.5381 150.101 32.5694H148.805ZM149.796 33.6734C150.173 33.7675 150.733 33.8546 151.454 33.9385L151.604 32.6511C150.892 32.5682 150.401 32.4886 150.11 32.4159L149.796 33.6734ZM151.452 33.9383C152.549 34.0692 153.455 34.239 154.18 34.4437L154.532 33.1965C153.722 32.9676 152.745 32.7872 151.606 32.6513L151.452 33.9383ZM154.183 34.4447C154.853 34.6299 155.437 34.9772 155.943 35.4976L156.872 34.5941C156.21 33.9138 155.427 33.4439 154.529 33.1955L154.183 34.4447ZM155.949 35.5041C156.393 35.9481 156.66 36.6206 156.66 37.6224H157.956C157.956 36.3895 157.622 35.3443 156.865 34.5876L155.949 35.5041ZM156.66 37.6224C156.66 38.3257 156.443 38.9642 155.992 39.556L157.023 40.3415C157.639 39.5325 157.956 38.6201 157.956 37.6224H156.66ZM155.992 39.556C155.549 40.1373 154.859 40.6347 153.87 41.0211L154.342 42.2284C155.487 41.781 156.398 41.1611 157.023 40.3415L155.992 39.556ZM153.87 41.0211C152.898 41.4009 151.69 41.6021 150.228 41.6021V42.8982C151.802 42.8982 153.179 42.6825 154.342 42.2284L153.87 41.0211ZM162.196 41.3496L161.91 41.9308L161.913 41.9324L162.196 41.3496ZM159.32 38.8231L158.772 39.1689L158.775 39.1748L159.32 38.8231ZM159.32 31.4937L158.775 31.142L158.774 31.1441L159.32 31.4937ZM162.196 28.9672L161.913 28.3844L161.91 28.386L162.196 28.9672ZM170.651 29.1423L170.316 29.6966L170.316 29.6966L170.651 29.1423ZM173.103 32.1191L173.389 32.7007L173.907 32.4461L173.714 31.9021L173.103 32.1191ZM168.725 34.2704L168.133 34.5336L168.407 35.1491L169.011 34.852L168.725 34.2704ZM164.673 33.1697L164.206 32.7198L164.198 32.7288L164.673 33.1697ZM164.673 37.1471L164.198 37.5881L164.206 37.5969L164.673 37.1471ZM168.725 36.0464L169.011 35.4648L168.407 35.1678L168.133 35.7832L168.725 36.0464ZM173.103 38.1977L173.714 38.4147L173.907 37.8707L173.389 37.6161L173.103 38.1977ZM170.651 41.1745L170.987 41.7288L170.987 41.7288L170.651 41.1745ZM166.374 41.6021C164.908 41.6021 163.615 41.319 162.48 40.7669L161.913 41.9324C163.246 42.581 164.738 42.8982 166.374 42.8982V41.6021ZM162.483 40.7684C161.365 40.217 160.497 39.4518 159.864 38.4714L158.775 39.1748C159.543 40.3624 160.593 41.2815 161.91 41.9308L162.483 40.7684ZM159.868 38.4774C159.254 37.5039 158.942 36.3996 158.942 35.1459H157.646C157.646 36.6272 158.018 37.9743 158.772 39.1688L159.868 38.4774ZM158.942 35.1459C158.942 33.8921 159.254 32.798 159.865 31.8433L158.774 31.1441C158.018 32.3241 157.646 33.6647 157.646 35.1459H158.942ZM159.864 31.8454C160.497 30.865 161.365 30.0998 162.483 29.5484L161.91 28.386C160.593 29.0354 159.543 29.9545 158.775 31.142L159.864 31.8454ZM162.48 29.55C163.615 28.9979 164.908 28.7147 166.374 28.7147V27.4186C164.738 27.4186 163.246 27.7358 161.913 28.3845L162.48 29.55ZM166.374 28.7147C167.948 28.7147 169.252 29.0523 170.316 29.6966L170.987 28.588C169.683 27.7981 168.136 27.4186 166.374 27.4186V28.7147ZM170.316 29.6966C171.376 30.3388 172.094 31.2138 172.492 32.336L173.714 31.9021C173.212 30.4895 172.295 29.38 170.987 28.588L170.316 29.6966ZM172.817 31.5375L168.439 33.6888L169.011 34.852L173.389 32.7007L172.817 31.5375ZM169.317 34.0072C169.02 33.3379 168.629 32.7873 168.122 32.4031C167.607 32.0125 167.007 31.8212 166.349 31.8212V33.1174C166.741 33.1174 167.063 33.2263 167.339 33.4361C167.625 33.6522 167.897 34.0021 168.133 34.5336L169.317 34.0072ZM166.349 31.8212C165.511 31.8212 164.783 32.1223 164.206 32.7199L165.139 33.6196C165.464 33.2833 165.852 33.1174 166.349 33.1174V31.8212ZM164.198 32.7288C163.62 33.3511 163.374 34.1877 163.374 35.1459H164.671C164.671 34.4031 164.858 33.9223 165.148 33.6107L164.198 32.7288ZM163.374 35.1459C163.374 36.1168 163.618 36.9636 164.198 37.5881L165.148 36.7061C164.86 36.3967 164.671 35.9094 164.671 35.1459H163.374ZM164.206 37.5969C164.783 38.1945 165.511 38.4956 166.349 38.4956V37.1995C165.852 37.1995 165.464 37.0336 165.139 36.6973L164.206 37.5969ZM166.349 38.4956C167.007 38.4956 167.607 38.3043 168.122 37.9137C168.629 37.5295 169.02 36.9789 169.317 36.3096L168.133 35.7832C167.897 36.3147 167.625 36.6646 167.339 36.8808C167.063 37.0905 166.741 37.1995 166.349 37.1995V38.4956ZM168.439 36.6281L172.817 38.7793L173.389 37.6161L169.011 35.4648L168.439 36.6281ZM172.492 37.9808C172.094 39.103 171.376 39.978 170.316 40.6202L170.987 41.7288C172.295 40.9368 173.212 39.8273 173.714 38.4147L172.492 37.9808ZM170.316 40.6202C169.252 41.2645 167.948 41.6021 166.374 41.6021V42.8982C168.136 42.8982 169.683 42.5187 170.987 41.7288L170.316 40.6202ZM186.041 29.6926L185.62 30.1852L185.624 30.1884L186.041 29.6926ZM187.943 42V42.6481H188.591V42H187.943ZM182.689 42H182.041V42.6481H182.689V42ZM182.689 40.1989H183.338L182.104 39.9206L182.689 40.1989ZM176.036 41.6998L175.741 42.2769L175.748 42.2808L175.756 42.2845L176.036 41.6998ZM174.309 40.1739L173.751 40.5031L173.756 40.5116L173.762 40.52L174.309 40.1739ZM175.285 34.9208L174.922 34.3842L174.922 34.3842L175.285 34.9208ZM182.264 33.8701V34.5182H183.033L182.903 33.7604L182.264 33.8701ZM177.812 32.5694L177.992 33.1919L177.999 33.1897L178.007 33.1873L177.812 32.5694ZM176.186 33.3448L175.602 33.6268L175.943 34.3313L176.571 33.8656L176.186 33.3448ZM174.385 29.6176L174.044 29.0661L173.547 29.3731L173.801 29.8996L174.385 29.6176ZM177.211 28.4919L177.364 29.1218L177.371 29.1201L177.211 28.4919ZM181.589 38.5229L181.223 37.9881L181.223 37.9881L181.589 38.5229ZM182.289 37.5473L182.902 37.7593L182.937 37.6563V37.5473H182.289ZM182.289 36.5968H182.937V35.9487H182.289V36.5968ZM179.513 38.5479L179.072 39.0228L179.089 39.0391L179.108 39.054L179.513 38.5479ZM180.538 28.7147C182.852 28.7147 184.513 29.2377 185.62 30.1851L186.463 29.2001C185.036 27.9796 183.027 27.4186 180.538 27.4186V28.7147ZM185.624 30.1884C186.699 31.0934 187.295 32.5316 187.295 34.6456H188.591C188.591 32.2903 187.919 30.4265 186.459 29.1969L185.624 30.1884ZM187.295 34.6456V42H188.591V34.6456H187.295ZM187.943 41.3519H182.689V42.6481H187.943V41.3519ZM183.338 42V40.1989H182.041V42H183.338ZM182.104 39.9206C181.593 40.9957 180.58 41.6021 178.812 41.6021V42.8982C180.914 42.8982 182.485 42.1371 183.275 40.4773L182.104 39.9206ZM178.812 41.6021C177.799 41.6021 176.974 41.4305 176.315 41.1152L175.756 42.2845C176.631 42.7029 177.657 42.8982 178.812 42.8982V41.6021ZM176.33 41.1228C175.67 40.7854 175.188 40.3515 174.857 39.8279L173.762 40.52C174.231 41.2638 174.9 41.8471 175.741 42.2769L176.33 41.1228ZM174.868 39.8447C174.547 39.3001 174.382 38.6895 174.382 37.9976H173.086C173.086 38.9066 173.305 39.7469 173.751 40.5031L174.868 39.8447ZM174.382 37.9976C174.382 36.841 174.809 36.026 175.649 35.4573L174.922 34.3842C173.693 35.2164 173.086 36.4526 173.086 37.9976H174.382ZM175.649 35.4573C176.524 34.864 177.937 34.5182 179.988 34.5182V33.2221C177.836 33.2221 176.114 33.5767 174.922 34.3842L175.649 35.4573ZM179.988 34.5182H182.264V33.2221H179.988V34.5182ZM182.903 33.7604C182.782 33.0588 182.423 32.4911 181.825 32.119C181.252 31.7634 180.518 31.6211 179.688 31.6211V32.9172C180.392 32.9172 180.854 33.0418 181.14 33.2199C181.4 33.3814 181.563 33.6142 181.626 33.9799L182.903 33.7604ZM179.688 31.6211C179 31.6211 178.308 31.7329 177.616 31.9514L178.007 33.1873C178.582 33.0056 179.142 32.9172 179.688 32.9172V31.6211ZM177.631 31.9469C176.936 32.148 176.322 32.4373 175.8 32.8241L176.571 33.8656C176.95 33.5853 177.419 33.3576 177.992 33.1919L177.631 31.9469ZM176.769 33.0629L174.968 29.3356L173.801 29.8996L175.602 33.6268L176.769 33.0629ZM174.725 30.1691C175.439 29.7284 176.315 29.376 177.364 29.1217L177.059 27.8621C175.906 28.1415 174.898 28.5395 174.044 29.0661L174.725 30.1691ZM177.371 29.1201C178.438 28.8492 179.494 28.7147 180.538 28.7147V27.4186C179.381 27.4186 178.219 27.5677 177.052 27.8638L177.371 29.1201ZM180.513 39.4962C181.038 39.4962 181.525 39.3516 181.955 39.0578L181.223 37.9881C181.019 38.1279 180.789 38.2001 180.513 38.2001V39.4962ZM181.955 39.0578C182.407 38.7481 182.715 38.2978 182.902 37.7593L181.677 37.3354C181.563 37.664 181.404 37.8641 181.223 37.9881L181.955 39.0578ZM182.937 37.5473V36.5968H181.641V37.5473H182.937ZM182.289 35.9487H180.888V37.2448H182.289V35.9487ZM180.888 35.9487C180.262 35.9487 179.678 36.0495 179.234 36.3452C178.744 36.6719 178.514 37.1751 178.514 37.7475H179.81C179.81 37.5527 179.868 37.4806 179.953 37.4237C180.085 37.3358 180.365 37.2448 180.888 37.2448V35.9487ZM178.514 37.7475C178.514 38.2456 178.707 38.6842 179.072 39.0228L179.954 38.073C179.851 37.9781 179.81 37.883 179.81 37.7475H178.514ZM179.108 39.054C179.503 39.3706 179.994 39.4962 180.513 39.4962V38.2001C180.199 38.2001 180.022 38.1255 179.917 38.0419L179.108 39.054ZM203.944 29.5926L203.486 30.0508L203.489 30.0545L203.944 29.5926ZM205.495 42V42.6481H206.143V42H205.495ZM199.842 42H199.193V42.6481H199.842V42ZM196.615 33.4949L196.13 33.0644L196.129 33.0655L196.615 33.4949ZM196.039 42V42.6481H196.687V42H196.039ZM190.386 42H189.738V42.6481H190.386V42ZM190.386 28.3168V27.6688H189.738V28.3168H190.386ZM195.764 28.3168H196.412V27.6688H195.764V28.3168ZM195.764 29.6676H195.116V31.2322L196.222 30.1259L195.764 29.6676ZM197.615 28.4669L197.846 29.0725L197.846 29.0725L197.615 28.4669ZM199.892 28.7147C201.436 28.7147 202.611 29.1758 203.486 30.0508L204.402 29.1343C203.243 27.9748 201.716 27.4186 199.892 27.4186V28.7147ZM203.489 30.0545C204.356 30.9069 204.847 32.2449 204.847 34.1953H206.143C206.143 32.0433 205.6 30.3128 204.398 29.1306L203.489 30.0545ZM204.847 34.1953V42H206.143V34.1953H204.847ZM205.495 41.3519H199.842V42.6481H205.495V41.3519ZM200.49 42V35.1709H199.193V42H200.49ZM200.49 35.1709C200.49 34.3297 200.343 33.5826 199.95 33.0312C199.528 32.4395 198.895 32.1715 198.166 32.1715V33.4676C198.553 33.4676 198.758 33.5914 198.895 33.7835C199.06 34.016 199.193 34.4445 199.193 35.1709H200.49ZM198.166 32.1715C197.358 32.1715 196.661 32.4678 196.13 33.0644L197.099 33.9255C197.369 33.6215 197.706 33.4676 198.166 33.4676V32.1715ZM196.129 33.0655C195.592 33.6734 195.391 34.5574 195.391 35.5712H196.687C196.687 34.6838 196.871 34.1837 197.1 33.9243L196.129 33.0655ZM195.391 35.5712V42H196.687V35.5712H195.391ZM196.039 41.3519H190.386V42.6481H196.039V41.3519ZM191.034 42V28.3168H189.738V42H191.034ZM190.386 28.9649H195.764V27.6688H190.386V28.9649ZM195.116 28.3168V29.6676H196.412V28.3168H195.116ZM196.222 30.1259C196.692 29.6564 197.231 29.3066 197.846 29.0725L197.384 27.8613C196.598 28.1609 195.904 28.6116 195.306 29.2094L196.222 30.1259ZM197.846 29.0725C198.466 28.8362 199.146 28.7147 199.892 28.7147V27.4186C199.003 27.4186 198.165 27.564 197.384 27.8613L197.846 29.0725Z" fill="#21252D"/>
<path d="M23.1065 28.8751C23.1065 27.8133 23.9788 26.9411 25.0387 26.9411H28.2977C29.3595 26.9411 30.2686 27.8133 30.2686 28.9138V41.2044C30.6477 41.0903 31.1022 40.9762 31.634 40.8621C32.3535 40.6726 32.8853 40.0285 32.8853 39.2685V24.0188C32.8853 22.9571 33.7576 22.0462 34.8562 22.0462H38.1152C39.177 22.0462 40.086 22.9184 40.086 24.0188V38.1699C40.086 38.1699 40.8828 37.8277 41.6778 37.4872C42.285 37.2222 42.6641 36.6536 42.6641 35.9691V19.089C42.6641 18.0272 43.5364 17.1163 44.5982 17.1163H47.8571C48.9189 17.1163 49.7912 17.9885 49.7912 19.089V33.0119C52.5956 30.9637 55.4774 28.4979 57.7519 25.5388C58.4346 24.6666 58.6241 23.5275 58.245 22.4657C54.0752 10.4787 40.9619 4.10428 28.9841 8.27784C17.0063 12.4514 10.6392 25.5757 14.8073 37.5645C15.2618 38.9299 15.8691 40.2199 16.5886 41.4712C17.1572 42.4576 18.219 43.0262 19.3562 42.9121C19.9635 42.8735 20.7217 42.798 21.6675 42.6839C22.5011 42.6085 23.1084 41.8871 23.1084 41.0517L23.1065 28.8751Z" fill="white"/>
<path d="M23.0293 48.602C33.3013 56.075 47.6676 53.7987 55.1333 43.5194C57.9764 39.574 59.5295 34.8318 59.5295 29.9774C59.5295 29.4456 59.4909 28.9156 59.4541 28.3838C51.0794 40.9394 35.5757 46.8188 23.0293 48.602Z" fill="white"/>
</g>
<defs>
<clipPath id="clip0_66_2264">
<rect width="220" height="60" fill="white"/>
</clipPath>
</defs>
</svg>
