<svg width="220" height="60" viewBox="0 0 220 60" fill="none" xmlns="http://www.w3.org/2000/svg">
<g clip-path="url(#clip0_73_1345)">
<path d="M71.1537 24.4895H77.0572V37.4223H84.9619V42H71.1537V24.4895ZM86.4175 28.3168H92.0709V42H86.4175V28.3168ZM89.2442 27.2162C88.2269 27.2162 87.4014 26.9493 86.7677 26.4157C86.1507 25.8654 85.8422 25.1733 85.8422 24.3394C85.8422 23.5056 86.1507 22.8219 86.7677 22.2882C87.4014 21.7379 88.2269 21.4627 89.2442 21.4627C90.2781 21.4627 91.1036 21.7212 91.7207 22.2382C92.3377 22.7552 92.6462 23.4222 92.6462 24.2394C92.6462 25.1066 92.3377 25.8237 91.7207 26.3907C91.1036 26.941 90.2781 27.2162 89.2442 27.2162ZM104.082 28.0667C105.767 28.0667 107.118 28.5753 108.135 29.5926C109.169 30.6099 109.686 32.1441 109.686 34.1953V42H104.032V35.1709C104.032 33.6033 103.474 32.8195 102.356 32.8195C101.723 32.8195 101.206 33.0446 100.805 33.4949C100.422 33.9285 100.23 34.6206 100.23 35.5712V42H94.5767V28.3168H99.9549V29.6676C100.489 29.134 101.106 28.7337 101.806 28.4669C102.506 28.2001 103.265 28.0667 104.082 28.0667ZM118.695 37.7975L117.794 38.7731V42H112.141V23.4389H117.794V32.2942L121.722 28.3168H128.401L122.747 34.2454L128.851 42H122.022L118.695 37.7975ZM143.897 35.1459C143.897 35.2293 143.872 35.6712 143.822 36.4717H134.317C134.517 36.9887 134.85 37.3889 135.317 37.6724C135.784 37.9392 136.368 38.0727 137.068 38.0727C137.669 38.0727 138.169 37.9976 138.569 37.8475C138.986 37.6974 139.436 37.4389 139.92 37.0721L142.872 40.0488C141.538 41.5164 139.545 42.2501 136.893 42.2501C135.242 42.2501 133.791 41.95 132.541 41.3496C131.29 40.7326 130.323 39.8821 129.639 38.7981C128.955 37.7141 128.613 36.4967 128.613 35.1459C128.613 33.7784 128.947 32.561 129.614 31.4937C130.298 30.4097 131.223 29.5676 132.39 28.9672C133.575 28.3669 134.9 28.0667 136.368 28.0667C137.752 28.0667 139.011 28.3418 140.145 28.8922C141.296 29.4425 142.205 30.2513 142.872 31.3186C143.555 32.3859 143.897 33.6617 143.897 35.1459ZM136.418 31.919C135.834 31.919 135.351 32.0774 134.967 32.3943C134.583 32.7111 134.333 33.1614 134.217 33.7451H138.619C138.502 33.1781 138.252 32.7361 137.869 32.4193C137.485 32.0857 137.002 31.919 136.418 31.919ZM160.815 23.4389V42H155.437V40.8743C154.62 41.7915 153.369 42.2501 151.685 42.2501C150.484 42.2501 149.375 41.9666 148.358 41.3996C147.357 40.816 146.557 39.9821 145.957 38.8981C145.373 37.8142 145.081 36.5634 145.081 35.1459C145.081 33.7284 145.373 32.486 145.957 31.4187C146.557 30.3347 147.357 29.5092 148.358 28.9422C149.375 28.3585 150.484 28.0667 151.685 28.0667C153.203 28.0667 154.362 28.4586 155.162 29.2424V23.4389H160.815ZM153.036 37.8475C153.686 37.8475 154.22 37.614 154.637 37.1471C155.054 36.6635 155.262 35.9964 155.262 35.1459C155.262 34.2954 155.054 33.6367 154.637 33.1697C154.22 32.7028 153.686 32.4693 153.036 32.4693C152.385 32.4693 151.852 32.7028 151.435 33.1697C151.018 33.6367 150.809 34.2954 150.809 35.1459C150.809 35.9964 151.018 36.6635 151.435 37.1471C151.852 37.614 152.385 37.8475 153.036 37.8475ZM163.319 28.3168H168.972V42H163.319V28.3168ZM166.146 27.2162C165.128 27.2162 164.303 26.9493 163.669 26.4157C163.052 25.8654 162.744 25.1733 162.744 24.3394C162.744 23.5056 163.052 22.8219 163.669 22.2882C164.303 21.7379 165.128 21.4627 166.146 21.4627C167.18 21.4627 168.005 21.7212 168.622 22.2382C169.239 22.7552 169.548 23.4222 169.548 24.2394C169.548 25.1066 169.239 25.8237 168.622 26.3907C168.005 26.941 167.18 27.2162 166.146 27.2162ZM180.984 28.0667C182.668 28.0667 184.019 28.5753 185.036 29.5926C186.07 30.6099 186.587 32.1441 186.587 34.1953V42H180.934V35.1709C180.934 33.6033 180.375 32.8195 179.258 32.8195C178.624 32.8195 178.107 33.0446 177.707 33.4949C177.323 33.9285 177.131 34.6206 177.131 35.5712V42H171.478V28.3168H176.856V29.6676C177.39 29.134 178.007 28.7337 178.707 28.4669C179.408 28.2001 180.167 28.0667 180.984 28.0667Z" fill="white"/>
<path d="M71.1537 24.4895V23.8415H70.5056V24.4895H71.1537ZM77.0572 24.4895H77.7053V23.8415H77.0572V24.4895ZM77.0572 37.4223H76.4092V38.0703H77.0572V37.4223ZM84.9619 37.4223H85.61V36.7742H84.9619V37.4223ZM84.9619 42V42.6481H85.61V42H84.9619ZM71.1537 42H70.5056V42.6481H71.1537V42ZM71.1537 25.1376H77.0572V23.8415H71.1537V25.1376ZM76.4092 24.4895V37.4223H77.7053V24.4895H76.4092ZM77.0572 38.0703H84.9619V36.7742H77.0572V38.0703ZM84.3139 37.4223V42H85.61V37.4223H84.3139ZM84.9619 41.3519H71.1537V42.6481H84.9619V41.3519ZM71.8018 42V24.4895H70.5056V42H71.8018ZM86.4175 28.3168V27.6688H85.7694V28.3168H86.4175ZM92.0709 28.3168H92.7189V27.6688H92.0709V28.3168ZM92.0709 42V42.6481H92.7189V42H92.0709ZM86.4175 42H85.7694V42.6481H86.4175V42ZM86.7677 26.4157L86.3364 26.8993L86.3432 26.9055L86.3503 26.9114L86.7677 26.4157ZM86.7677 22.2882L87.1916 22.7784L87.1926 22.7775L86.7677 22.2882ZM91.7207 22.2382L91.3045 22.7349L91.3045 22.7349L91.7207 22.2382ZM91.7207 26.3907L92.1521 26.8744L92.1592 26.8679L91.7207 26.3907ZM86.4175 28.9649H92.0709V27.6688H86.4175V28.9649ZM91.4228 28.3168V42H92.7189V28.3168H91.4228ZM92.0709 41.3519H86.4175V42.6481H92.0709V41.3519ZM87.0656 42V28.3168H85.7694V42H87.0656ZM89.2442 26.5681C88.3436 26.5681 87.6771 26.3343 87.1851 25.92L86.3503 26.9114C87.1257 27.5644 88.1102 27.8642 89.2442 27.8642V26.5681ZM87.1991 25.932C86.7212 25.5059 86.4902 24.9903 86.4902 24.3394H85.1941C85.1941 25.3562 85.5801 26.2248 86.3364 26.8993L87.1991 25.932ZM86.4902 24.3394C86.4902 23.689 86.7205 23.1859 87.1916 22.7784L86.3438 21.7981C85.5808 22.4579 85.1941 23.3222 85.1941 24.3394H86.4902ZM87.1926 22.7775C87.6847 22.3502 88.3485 22.1108 89.2442 22.1108V20.8147C88.1054 20.8147 87.1181 21.1256 86.3428 21.7989L87.1926 22.7775ZM89.2442 22.1108C90.1701 22.1108 90.834 22.3407 91.3045 22.7349L92.1369 21.7414C91.3733 21.1017 90.3862 20.8147 89.2442 20.8147V22.1108ZM91.3045 22.7349C91.772 23.1266 91.9982 23.6106 91.9982 24.2394H93.2943C93.2943 23.2339 92.9034 22.3837 92.1369 21.7414L91.3045 22.7349ZM91.9982 24.2394C91.9982 24.9324 91.7605 25.474 91.2822 25.9135L92.1592 26.8679C92.9149 26.1734 93.2943 25.2808 93.2943 24.2394H91.9982ZM91.2893 25.907C90.8186 26.3268 90.1604 26.5681 89.2442 26.5681V27.8642C90.3959 27.8642 91.3886 27.5552 92.152 26.8743L91.2893 25.907ZM108.135 29.5926L107.677 30.0508L107.68 30.0545L108.135 29.5926ZM109.686 42V42.6481H110.334V42H109.686ZM104.032 42H103.384V42.6481H104.032V42ZM100.805 33.4949L100.321 33.0644L100.32 33.0655L100.805 33.4949ZM100.23 42V42.6481H100.878V42H100.23ZM94.5767 42H93.9286V42.6481H94.5767V42ZM94.5767 28.3168V27.6688H93.9286V28.3168H94.5767ZM99.9549 28.3168H100.603V27.6688H99.9549V28.3168ZM99.9549 29.6676H99.3068V31.2322L100.413 30.1259L99.9549 29.6676ZM101.806 28.4669L102.037 29.0725L102.037 29.0725L101.806 28.4669ZM104.082 28.7147C105.626 28.7147 106.801 29.1758 107.677 30.0508L108.593 29.1343C107.434 27.9748 105.907 27.4186 104.082 27.4186V28.7147ZM107.68 30.0545C108.547 30.9069 109.038 32.2449 109.038 34.1953H110.334C110.334 32.0433 109.791 30.3128 108.589 29.1306L107.68 30.0545ZM109.038 34.1953V42H110.334V34.1953H109.038ZM109.686 41.3519H104.032V42.6481H109.686V41.3519ZM104.68 42V35.1709H103.384V42H104.68ZM104.68 35.1709C104.68 34.3297 104.534 33.5826 104.141 33.0312C103.719 32.4395 103.086 32.1715 102.356 32.1715V33.4676C102.744 33.4676 102.949 33.5914 103.086 33.7835C103.251 34.016 103.384 34.4445 103.384 35.1709H104.68ZM102.356 32.1715C101.548 32.1715 100.851 32.4678 100.321 33.0644L101.29 33.9255C101.56 33.6215 101.897 33.4676 102.356 33.4676V32.1715ZM100.32 33.0655C99.7823 33.6734 99.582 34.5574 99.582 35.5712H100.878C100.878 34.6838 101.061 34.1837 101.291 33.9243L100.32 33.0655ZM99.582 35.5712V42H100.878V35.5712H99.582ZM100.23 41.3519H94.5767V42.6481H100.23V41.3519ZM95.2247 42V28.3168H93.9286V42H95.2247ZM94.5767 28.9649H99.9549V27.6688H94.5767V28.9649ZM99.3068 28.3168V29.6676H100.603V28.3168H99.3068ZM100.413 30.1259C100.883 29.6564 101.422 29.3066 102.037 29.0725L101.575 27.8613C100.789 28.1609 100.094 28.6116 99.4966 29.2094L100.413 30.1259ZM102.037 29.0725C102.657 28.8362 103.337 28.7147 104.082 28.7147V27.4186C103.193 27.4186 102.356 27.564 101.575 27.8613L102.037 29.0725ZM118.695 37.7975L119.203 37.3952L118.733 36.8011L118.219 37.3579L118.695 37.7975ZM117.794 38.7731L117.318 38.3335L117.146 38.5197V38.7731H117.794ZM117.794 42V42.6481H118.442V42H117.794ZM112.141 42H111.493V42.6481H112.141V42ZM112.141 23.4389V22.7909H111.493V23.4389H112.141ZM117.794 23.4389H118.442V22.7909H117.794V23.4389ZM117.794 32.2942H117.146V33.8729L118.255 32.7495L117.794 32.2942ZM121.722 28.3168V27.6688H121.451L121.26 27.8615L121.722 28.3168ZM128.401 28.3168L128.87 28.7641L129.914 27.6688H128.401V28.3168ZM122.747 34.2454L122.278 33.7981L121.891 34.2047L122.238 34.6462L122.747 34.2454ZM128.851 42V42.6481H130.186L129.36 41.5992L128.851 42ZM122.022 42L121.514 42.4023L121.708 42.6481H122.022V42ZM118.219 37.3579L117.318 38.3335L118.27 39.2126L119.171 38.2371L118.219 37.3579ZM117.146 38.7731V42H118.442V38.7731H117.146ZM117.794 41.3519H112.141V42.6481H117.794V41.3519ZM112.789 42V23.4389H111.493V42H112.789ZM112.141 24.087H117.794V22.7909H112.141V24.087ZM117.146 23.4389V32.2942H118.442V23.4389H117.146ZM118.255 32.7495L122.183 28.7722L121.26 27.8615L117.333 31.8389L118.255 32.7495ZM121.722 28.9649H128.401V27.6688H121.722V28.9649ZM127.932 27.8696L122.278 33.7981L123.216 34.6926L128.87 28.7641L127.932 27.8696ZM122.238 34.6462L128.342 42.4008L129.36 41.5992L123.256 33.8445L122.238 34.6462ZM128.851 41.3519H122.022V42.6481H128.851V41.3519ZM122.53 41.5977L119.203 37.3952L118.187 38.1997L121.514 42.4023L122.53 41.5977ZM143.822 36.4717V37.1198H144.431L144.469 36.5121L143.822 36.4717ZM134.317 36.4717V35.8236H133.371L133.712 36.7056L134.317 36.4717ZM135.317 37.6724L134.981 38.2264L134.988 38.2308L134.996 38.2351L135.317 37.6724ZM138.569 37.8475L138.35 37.2377L138.342 37.2407L138.569 37.8475ZM139.92 37.0721L140.38 36.6157L139.981 36.2127L139.528 36.5558L139.92 37.0721ZM142.872 40.0488L143.351 40.4848L143.765 40.0295L143.332 39.5925L142.872 40.0488ZM132.541 41.3496L132.254 41.9308L132.26 41.9338L132.541 41.3496ZM129.639 38.7981L130.187 38.4523L129.639 38.7981ZM129.614 31.4937L129.066 31.148L129.064 31.1503L129.614 31.4937ZM132.39 28.9672L132.097 28.3892L132.094 28.3909L132.39 28.9672ZM140.145 28.8922L139.862 29.4752L139.866 29.4768L140.145 28.8922ZM142.872 31.3186L142.322 31.6621L142.326 31.6682L142.872 31.3186ZM134.967 32.3943L135.38 32.8939L135.38 32.8939L134.967 32.3943ZM134.217 33.7451L133.581 33.618L133.426 34.3931H134.217V33.7451ZM138.619 33.7451V34.3931H139.414L139.254 33.6144L138.619 33.7451ZM137.869 32.4193L137.444 32.9083L137.45 32.9137L137.456 32.9189L137.869 32.4193ZM143.249 35.1459C143.249 35.144 143.249 35.1503 143.249 35.1706C143.248 35.1888 143.247 35.2134 143.245 35.2448C143.242 35.3077 143.238 35.3936 143.232 35.5033C143.219 35.7223 143.201 36.0315 143.176 36.4313L144.469 36.5121C144.518 35.7289 144.545 35.2558 144.545 35.1459H143.249ZM143.822 35.8236H134.317V37.1198H143.822V35.8236ZM133.712 36.7056C133.963 37.3538 134.39 37.8675 134.981 38.2264L135.654 37.1185C135.311 36.9103 135.07 36.6236 134.921 36.2378L133.712 36.7056ZM134.996 38.2351C135.586 38.5723 136.288 38.7207 137.068 38.7207V37.4246C136.447 37.4246 135.983 37.3062 135.639 37.1097L134.996 38.2351ZM137.068 38.7207C137.717 38.7207 138.301 38.6403 138.797 38.4543L138.342 37.2407C138.037 37.3549 137.62 37.4246 137.068 37.4246V38.7207ZM138.789 38.4573C139.285 38.2784 139.794 37.9813 140.312 37.5884L139.528 36.5558C139.079 36.8965 138.687 37.1164 138.35 37.2378L138.789 38.4573ZM139.46 37.5284L142.412 40.5051L143.332 39.5925L140.38 36.6157L139.46 37.5284ZM142.392 39.6129C141.218 40.904 139.427 41.6021 136.893 41.6021V42.8982C139.663 42.8982 141.857 42.1287 143.351 40.4848L142.392 39.6129ZM136.893 41.6021C135.321 41.6021 133.969 41.3165 132.821 40.7654L132.26 41.9338C133.613 42.5835 135.163 42.8982 136.893 42.8982V41.6021ZM132.827 40.7684C131.674 40.1994 130.801 39.4264 130.187 38.4523L129.091 39.1438C129.844 40.3377 130.906 41.2657 132.254 41.9308L132.827 40.7684ZM130.187 38.4523C129.572 37.4776 129.261 36.3813 129.261 35.1459H127.965C127.965 36.6122 128.338 37.9506 129.091 39.1438L130.187 38.4523ZM129.261 35.1459C129.261 33.889 129.566 32.7926 130.163 31.8372L129.064 31.1503C128.327 32.3294 127.965 33.6679 127.965 35.1459H129.261ZM130.162 31.8395C130.782 30.8559 131.62 30.0923 132.687 29.5435L132.094 28.3909C130.826 29.0429 129.813 29.9636 129.066 31.148L130.162 31.8395ZM132.684 29.5452C133.768 28.9956 134.991 28.7147 136.368 28.7147V27.4186C134.809 27.4186 133.382 27.7381 132.097 28.3892L132.684 29.5452ZM136.368 28.7147C137.664 28.7147 138.825 28.9717 139.862 29.4752L140.428 28.3091C139.197 27.712 137.84 27.4186 136.368 27.4186V28.7147ZM139.866 29.4768C140.907 29.9748 141.721 30.7007 142.322 31.6621L143.421 30.9751C142.688 29.802 141.685 28.9102 140.425 28.3075L139.866 29.4768ZM142.326 31.6682C142.932 32.6144 143.249 33.764 143.249 35.1459H144.545C144.545 33.5593 144.179 32.1575 143.417 30.969L142.326 31.6682ZM136.418 31.2709C135.711 31.2709 135.073 31.4657 134.554 31.8946L135.38 32.8939C135.628 32.6891 135.957 32.567 136.418 32.567V31.2709ZM134.554 31.8946C134.034 32.3241 133.721 32.918 133.581 33.618L134.852 33.8722C134.946 33.4047 135.133 33.0981 135.38 32.8939L134.554 31.8946ZM134.217 34.3931H138.619V33.097H134.217V34.3931ZM139.254 33.6144C139.113 32.9275 138.797 32.3455 138.281 31.9196L137.456 32.9189C137.708 33.1267 137.892 33.4286 137.984 33.8757L139.254 33.6144ZM138.294 31.9302C137.775 31.4791 137.133 31.2709 136.418 31.2709V32.567C136.87 32.567 137.195 32.6924 137.444 32.9083L138.294 31.9302ZM160.815 23.4389H161.464V22.7909H160.815V23.4389ZM160.815 42V42.6481H161.464V42H160.815ZM155.437 42H154.789V42.6481H155.437V42ZM155.437 40.8743H156.085V39.1727L154.953 40.4432L155.437 40.8743ZM148.358 41.3996L148.031 41.9595L148.043 41.9657L148.358 41.3996ZM145.957 38.8981L145.386 39.2054L145.39 39.2121L145.957 38.8981ZM145.957 31.4187L145.39 31.1047L145.388 31.1077L145.957 31.4187ZM148.358 28.9422L148.678 29.506L148.681 29.5043L148.358 28.9422ZM155.162 29.2424L154.709 29.7054L155.81 30.7839V29.2424H155.162ZM155.162 23.4389V22.7909H154.514V23.4389H155.162ZM154.637 37.1471L155.12 37.5788L155.128 37.5702L154.637 37.1471ZM151.435 33.1697L150.951 32.7381L150.951 32.7381L151.435 33.1697ZM151.435 37.1471L150.944 37.5703L150.951 37.5787L151.435 37.1471ZM160.167 23.4389V42H161.464V23.4389H160.167ZM160.815 41.3519H155.437V42.6481H160.815V41.3519ZM156.085 42V40.8743H154.789V42H156.085ZM154.953 40.4432C154.3 41.1768 153.256 41.6021 151.685 41.6021V42.8982C153.483 42.8982 154.94 42.4063 155.921 41.3054L154.953 40.4432ZM151.685 41.6021C150.591 41.6021 149.591 41.3451 148.674 40.8336L148.043 41.9657C149.159 42.5882 150.377 42.8982 151.685 42.8982V41.6021ZM148.685 40.8399C147.792 40.3191 147.071 39.5735 146.524 38.5842L145.39 39.2121C146.042 40.3908 146.923 41.3128 148.031 41.9594L148.685 40.8399ZM146.527 38.5909C146.002 37.6148 145.729 36.4725 145.729 35.1459H144.433C144.433 36.6543 144.744 38.0136 145.386 39.2054L146.527 38.5909ZM145.729 35.1459C145.729 33.819 146.002 32.6869 146.525 31.7296L145.388 31.1077C144.744 32.2851 144.433 33.6378 144.433 35.1459H145.729ZM146.524 31.7327C147.071 30.7448 147.789 30.0096 148.678 29.506L148.039 28.3784C146.926 29.0088 146.043 29.9246 145.39 31.1047L146.524 31.7327ZM148.681 29.5043C149.597 28.9783 150.595 28.7147 151.685 28.7147V27.4186C150.374 27.4186 149.153 27.7387 148.036 28.3801L148.681 29.5043ZM151.685 28.7147C153.095 28.7147 154.067 29.0772 154.709 29.7054L155.615 28.7793C154.656 27.8399 153.311 27.4186 151.685 27.4186V28.7147ZM155.81 29.2424V23.4389H154.514V29.2424H155.81ZM155.162 24.087H160.815V22.7909H155.162V24.087ZM153.036 38.4956C153.863 38.4956 154.575 38.1894 155.12 37.5787L154.153 36.7155C153.865 37.0387 153.51 37.1995 153.036 37.1995V38.4956ZM155.128 37.5702C155.675 36.9347 155.91 36.0996 155.91 35.1459H154.614C154.614 35.8932 154.432 36.3922 154.146 36.724L155.128 37.5702ZM155.91 35.1459C155.91 34.1938 155.676 33.3607 155.12 32.7381L154.153 33.6013C154.431 33.9126 154.614 34.397 154.614 35.1459H155.91ZM155.12 32.7381C154.575 32.1275 153.863 31.8212 153.036 31.8212V33.1174C153.51 33.1174 153.865 33.2781 154.153 33.6013L155.12 32.7381ZM153.036 31.8212C152.209 31.8212 151.497 32.1275 150.951 32.7381L151.918 33.6013C152.207 33.2781 152.562 33.1174 153.036 33.1174V31.8212ZM150.951 32.7381C150.396 33.3607 150.161 34.1938 150.161 35.1459H151.458C151.458 34.397 151.64 33.9126 151.918 33.6013L150.951 32.7381ZM150.161 35.1459C150.161 36.0996 150.396 36.9347 150.944 37.5702L151.926 36.724C151.64 36.3922 151.458 35.8932 151.458 35.1459H150.161ZM150.951 37.5787C151.497 38.1894 152.209 38.4956 153.036 38.4956V37.1995C152.562 37.1995 152.207 37.0387 151.918 36.7155L150.951 37.5787ZM163.319 28.3168V27.6688H162.671V28.3168H163.319ZM168.972 28.3168H169.62V27.6688H168.972V28.3168ZM168.972 42V42.6481H169.62V42H168.972ZM163.319 42H162.671V42.6481H163.319V42ZM163.669 26.4157L163.238 26.8993L163.245 26.9055L163.252 26.9114L163.669 26.4157ZM163.669 22.2882L164.093 22.7784L164.094 22.7775L163.669 22.2882ZM168.622 22.2382L168.206 22.7349L168.206 22.7349L168.622 22.2382ZM168.622 26.3907L169.053 26.8744L169.061 26.8679L168.622 26.3907ZM163.319 28.9649H168.972V27.6688H163.319V28.9649ZM168.324 28.3168V42H169.62V28.3168H168.324ZM168.972 41.3519H163.319V42.6481H168.972V41.3519ZM163.967 42V28.3168H162.671V42H163.967ZM166.146 26.5681C165.245 26.5681 164.579 26.3343 164.087 25.92L163.252 26.9114C164.027 27.5644 165.012 27.8642 166.146 27.8642V26.5681ZM164.1 25.932C163.623 25.5059 163.392 24.9903 163.392 24.3394H162.096C162.096 25.3562 162.482 26.2248 163.238 26.8993L164.1 25.932ZM163.392 24.3394C163.392 23.689 163.622 23.1859 164.093 22.7784L163.245 21.7981C162.482 22.4579 162.096 23.3222 162.096 24.3394H163.392ZM164.094 22.7775C164.586 22.3502 165.25 22.1108 166.146 22.1108V20.8147C165.007 20.8147 164.02 21.1256 163.244 21.7989L164.094 22.7775ZM166.146 22.1108C167.072 22.1108 167.735 22.3407 168.206 22.7349L169.038 21.7414C168.275 21.1017 167.288 20.8147 166.146 20.8147V22.1108ZM168.206 22.7349C168.673 23.1266 168.9 23.6106 168.9 24.2394H170.196C170.196 23.2339 169.805 22.3837 169.038 21.7414L168.206 22.7349ZM168.9 24.2394C168.9 24.9324 168.662 25.474 168.184 25.9135L169.061 26.8679C169.816 26.1734 170.196 25.2808 170.196 24.2394H168.9ZM168.191 25.907C167.72 26.3268 167.062 26.5681 166.146 26.5681V27.8642C167.297 27.8642 168.29 27.5552 169.053 26.8743L168.191 25.907ZM185.036 29.5926L184.578 30.0508L184.582 30.0545L185.036 29.5926ZM186.587 42V42.6481H187.235V42H186.587ZM180.934 42H180.286V42.6481H180.934V42ZM177.707 33.4949L177.222 33.0644L177.221 33.0655L177.707 33.4949ZM177.131 42V42.6481H177.78V42H177.131ZM171.478 42H170.83V42.6481H171.478V42ZM171.478 28.3168V27.6688H170.83V28.3168H171.478ZM176.856 28.3168H177.504V27.6688H176.856V28.3168ZM176.856 29.6676H176.208V31.2322L177.315 30.1259L176.856 29.6676ZM178.707 28.4669L178.938 29.0725L178.938 29.0725L178.707 28.4669ZM180.984 28.7147C182.528 28.7147 183.703 29.1758 184.578 30.0508L185.494 29.1343C184.335 27.9748 182.808 27.4186 180.984 27.4186V28.7147ZM184.582 30.0545C185.448 30.9069 185.939 32.2449 185.939 34.1953H187.235C187.235 32.0433 186.692 30.3128 185.491 29.1306L184.582 30.0545ZM185.939 34.1953V42H187.235V34.1953H185.939ZM186.587 41.3519H180.934V42.6481H186.587V41.3519ZM181.582 42V35.1709H180.286V42H181.582ZM181.582 35.1709C181.582 34.3297 181.435 33.5826 181.042 33.0312C180.621 32.4395 179.987 32.1715 179.258 32.1715V33.4676C179.646 33.4676 179.85 33.5914 179.987 33.7835C180.153 34.016 180.286 34.4445 180.286 35.1709H181.582ZM179.258 32.1715C178.45 32.1715 177.753 32.4678 177.222 33.0644L178.191 33.9255C178.461 33.6215 178.798 33.4676 179.258 33.4676V32.1715ZM177.221 33.0655C176.684 33.6734 176.483 34.5574 176.483 35.5712H177.78C177.78 34.6838 177.963 34.1837 178.192 33.9243L177.221 33.0655ZM176.483 35.5712V42H177.78V35.5712H176.483ZM177.131 41.3519H171.478V42.6481H177.131V41.3519ZM172.126 42V28.3168H170.83V42H172.126ZM171.478 28.9649H176.856V27.6688H171.478V28.9649ZM176.208 28.3168V29.6676H177.504V28.3168H176.208ZM177.315 30.1259C177.784 29.6564 178.324 29.3066 178.938 29.0725L178.477 27.8613C177.69 28.1609 176.996 28.6116 176.398 29.2094L177.315 30.1259ZM178.938 29.0725C179.558 28.8362 180.238 28.7147 180.984 28.7147V27.4186C180.095 27.4186 179.257 27.564 178.477 27.8613L178.938 29.0725Z" fill="#21252D"/>
<path d="M56.019 7.00413H17.6387C17.144 6.98095 16.6496 7.05556 16.1837 7.22371C15.7179 7.39187 15.2898 7.65024 14.924 7.98402C14.5581 8.31783 14.2617 8.72052 14.0517 9.16901C13.8417 9.61753 13.7221 10.103 13.7 10.5978V49.0645C13.729 50.0998 14.1533 51.085 14.8857 51.8172C15.6182 52.5498 16.6032 52.9741 17.6387 53.0032H56.019C57.0256 52.9583 57.9746 52.5207 58.6625 51.7845C59.3505 51.0482 59.7225 50.0719 59.699 49.0645V10.5978C59.7073 10.1162 59.617 9.63811 59.4339 9.19267C59.2508 8.74726 58.9785 8.34393 58.6338 8.00742C58.2894 7.67094 57.8797 7.4084 57.4301 7.23587C56.9804 7.06335 56.5003 6.98449 56.019 7.00413ZM28.0747 45.3558H21.3761V24.8576H28.0747V45.3558ZM24.8835 21.7525C24.4161 21.7688 23.9503 21.6883 23.5155 21.516C23.0807 21.3436 22.6862 21.0833 22.3568 20.7512C22.0274 20.4191 21.7703 20.0225 21.6015 19.5863C21.4327 19.1501 21.356 18.6837 21.3761 18.2164C21.3554 17.744 21.4337 17.2726 21.6059 16.8323C21.7782 16.392 22.0405 15.9925 22.3762 15.6596C22.7119 15.3266 23.1134 15.0675 23.5551 14.8988C23.9968 14.7302 24.4689 14.6557 24.941 14.6802C25.4084 14.6639 25.8742 14.7445 26.309 14.9168C26.7438 15.0891 27.1383 15.3495 27.4677 15.6816C27.7971 16.0137 28.0542 16.4102 28.223 16.8465C28.3918 17.2827 28.4685 17.7491 28.4484 18.2164C28.4691 18.6887 28.3908 19.1602 28.2186 19.6004C28.0463 20.0408 27.784 20.4402 27.4483 20.7732C27.1126 21.1061 26.7111 21.3653 26.2694 21.5339C25.8277 21.7026 25.3557 21.777 24.8835 21.7525ZM52.0516 45.3558H45.3243V34.1436C45.3243 31.4699 44.3756 29.6299 41.9894 29.6299C41.2482 29.6363 40.5269 29.8717 39.9249 30.3041C39.3226 30.7365 38.8689 31.3446 38.6257 32.0449C38.4388 32.5698 38.3606 33.1273 38.3957 33.6836V45.3558H31.7833V24.8576H38.3957V27.7325C38.9836 26.6524 39.8585 25.756 40.9239 25.1419C41.9894 24.5281 43.2037 24.2207 44.4331 24.2537C48.7742 24.2537 52.0516 27.1287 52.0516 33.2524V45.3558Z" fill="white"/>
</g>
<defs>
<clipPath id="clip0_73_1345">
<rect width="220" height="60" fill="white"/>
</clipPath>
</defs>
</svg>
