<svg width="220" height="60" viewBox="0 0 220 60" fill="none" xmlns="http://www.w3.org/2000/svg">
<g clip-path="url(#clip0_73_1328)">
<path d="M82.7356 32.7695H87.8637V40.1739C86.8297 40.891 85.629 41.4413 84.2615 41.8249C82.894 42.2085 81.5516 42.4002 80.2341 42.4002C78.3663 42.4002 76.6903 42.0167 75.2061 41.2496C73.7219 40.4657 72.5545 39.3818 71.704 37.9976C70.8702 36.5968 70.4533 35.0125 70.4533 33.2448C70.4533 31.477 70.8702 29.9011 71.704 28.5169C72.5545 27.1161 73.7302 26.0321 75.2311 25.265C76.7487 24.4812 78.4581 24.0893 80.3592 24.0893C82.0769 24.0893 83.6111 24.3811 84.9619 24.9648C86.3294 25.5318 87.4634 26.3657 88.364 27.4663L84.5867 30.7933C83.4861 29.5092 82.1769 28.8672 80.6594 28.8672C79.3586 28.8672 78.3246 29.2591 77.5575 30.0429C76.7904 30.8267 76.4068 31.894 76.4068 33.2448C76.4068 34.5622 76.7821 35.6212 77.5325 36.4217C78.2996 37.2221 79.3169 37.6224 80.5843 37.6224C81.3348 37.6224 82.0519 37.4806 82.7356 37.1971V32.7695ZM90.2039 28.3168H95.8573V42H90.2039V28.3168ZM93.0306 27.2162C92.0134 27.2162 91.1879 26.9493 90.5542 26.4157C89.9371 25.8654 89.6286 25.1733 89.6286 24.3394C89.6286 23.5056 89.9371 22.8219 90.5542 22.2882C91.1879 21.7379 92.0134 21.4627 93.0306 21.4627C94.0646 21.4627 94.8901 21.7212 95.5071 22.2382C96.1241 22.7552 96.4327 23.4222 96.4327 24.2394C96.4327 25.1066 96.1241 25.8237 95.5071 26.3907C94.8901 26.941 94.0646 27.2162 93.0306 27.2162ZM108.444 41.5247C107.594 42.0083 106.435 42.2501 104.967 42.2501C103.049 42.2501 101.573 41.7915 100.539 40.8743C99.5055 39.9404 98.9885 38.5479 98.9885 36.6968V33.1947H97.1124V29.0673H98.9885V25.24H104.642V29.0673H107.444V33.1947H104.642V36.6468C104.642 37.0637 104.75 37.3889 104.967 37.6224C105.184 37.8559 105.467 37.9726 105.818 37.9726C106.301 37.9726 106.726 37.8475 107.093 37.5974L108.444 41.5247ZM119.375 28.0667C121.059 28.0667 122.41 28.5753 123.427 29.5926C124.461 30.6099 124.978 32.1441 124.978 34.1953V42H119.325V35.1709C119.325 33.6033 118.766 32.8195 117.649 32.8195C117.015 32.8195 116.498 33.0446 116.098 33.4949C115.714 33.9285 115.522 34.6206 115.522 35.5712V42H109.869V23.4389H115.522V29.4175C116.573 28.5169 117.857 28.0667 119.375 28.0667ZM142.392 28.3168V42H137.014V40.6992C136.514 41.2162 135.93 41.6081 135.263 41.8749C134.596 42.1251 133.887 42.2501 133.137 42.2501C131.402 42.2501 130.01 41.7248 128.959 40.6742C127.909 39.6069 127.383 38.0059 127.383 35.8713V28.3168H133.037V34.8958C133.037 35.8296 133.187 36.4967 133.487 36.897C133.787 37.2972 134.229 37.4973 134.813 37.4973C135.363 37.4973 135.822 37.2805 136.188 36.8469C136.555 36.3967 136.739 35.6962 136.739 34.7457V28.3168H142.392ZM154.03 28.0667C155.231 28.0667 156.332 28.3585 157.332 28.9422C158.349 29.5092 159.15 30.3347 159.734 31.4187C160.334 32.486 160.634 33.7284 160.634 35.1459C160.634 36.5634 160.334 37.8142 159.734 38.8981C159.15 39.9821 158.349 40.816 157.332 41.3996C156.332 41.9666 155.231 42.2501 154.03 42.2501C152.346 42.2501 151.095 41.7915 150.278 40.8743V42H144.9V23.4389H150.553V29.2424C151.354 28.4586 152.513 28.0667 154.03 28.0667ZM152.679 37.8475C153.33 37.8475 153.863 37.614 154.28 37.1471C154.697 36.6635 154.906 35.9964 154.906 35.1459C154.906 34.2954 154.697 33.6367 154.28 33.1697C153.863 32.7028 153.33 32.4693 152.679 32.4693C152.029 32.4693 151.495 32.7028 151.078 33.1697C150.661 33.6367 150.453 34.2954 150.453 35.1459C150.453 35.9964 150.661 36.6635 151.078 37.1471C151.495 37.614 152.029 37.8475 152.679 37.8475Z" fill="white"/>
<path d="M82.7356 32.7695V32.1214H82.0876V32.7695H82.7356ZM87.8637 32.7695H88.5117V32.1214H87.8637V32.7695ZM87.8637 40.1739L88.233 40.7064L88.5117 40.5131V40.1739H87.8637ZM75.2061 41.2496L74.9035 41.8226L74.9086 41.8253L75.2061 41.2496ZM71.704 37.9976L71.1471 38.3291L71.1519 38.3369L71.704 37.9976ZM71.704 28.5169L71.1501 28.1806L71.1489 28.1825L71.704 28.5169ZM75.2311 25.265L75.5261 25.8421L75.5285 25.8408L75.2311 25.265ZM84.9619 24.9648L84.7049 25.5598L84.7137 25.5635L84.9619 24.9648ZM88.364 27.4663L88.7923 27.9526L89.2613 27.5396L88.8655 27.0559L88.364 27.4663ZM84.5867 30.7933L84.0947 31.2151L84.5222 31.7138L85.0151 31.2796L84.5867 30.7933ZM77.5575 30.0429L78.0207 30.4961L78.0207 30.4961L77.5575 30.0429ZM77.5325 36.4217L77.0597 36.8649L77.0646 36.8701L77.5325 36.4217ZM82.7356 37.1971L82.9838 37.7958L83.3837 37.63V37.1971H82.7356ZM82.7356 33.4175H87.8637V32.1214H82.7356V33.4175ZM87.2156 32.7695V40.1739H88.5117V32.7695H87.2156ZM87.4944 39.6414C86.5267 40.3125 85.3934 40.8343 84.0865 41.2009L84.4365 42.4489C85.8646 42.0483 87.1327 41.4695 88.233 40.7064L87.4944 39.6414ZM84.0865 41.2009C82.7716 41.5697 81.488 41.7522 80.2341 41.7522V43.0483C81.6152 43.0483 83.0165 42.8472 84.4365 42.4489L84.0865 41.2009ZM80.2341 41.7522C78.4575 41.7522 76.8855 41.3881 75.5037 40.6738L74.9086 41.8253C76.4952 42.6453 78.2752 43.0483 80.2341 43.0483V41.7522ZM75.5087 40.6765C74.1236 39.945 73.0439 38.9403 72.2562 37.6583L71.1519 38.3369C72.0652 39.8233 73.3202 40.9865 74.9035 41.8226L75.5087 40.6765ZM72.2609 37.6661C71.4917 36.374 71.1013 34.906 71.1013 33.2448H69.8052C69.8052 35.119 70.2486 36.8196 71.1472 38.3291L72.2609 37.6661ZM71.1013 33.2448C71.1013 31.5835 71.4918 30.1252 72.2591 28.8513L71.1489 28.1825C70.2486 29.677 69.8052 31.3706 69.8052 33.2448H71.1013ZM72.258 28.8533C73.0443 27.5582 74.1289 26.5561 75.5261 25.8421L74.9362 24.6879C73.3315 25.5081 72.0648 26.674 71.1501 28.1806L72.258 28.8533ZM75.5285 25.8408C76.9442 25.1096 78.5497 24.7374 80.3592 24.7374V23.4412C78.3665 23.4412 76.5533 23.8528 74.9337 24.6892L75.5285 25.8408ZM80.3592 24.7374C82.0031 24.7374 83.4477 25.0165 84.7049 25.5597L85.219 24.3699C83.7746 23.7458 82.1507 23.4412 80.3592 23.4412V24.7374ZM84.7137 25.5635C85.9867 26.0913 87.0323 26.8621 87.8624 27.8767L88.8655 27.0559C87.8946 25.8692 86.6721 24.9724 85.2102 24.3662L84.7137 25.5635ZM87.9356 26.98L84.1584 30.307L85.0151 31.2796L88.7923 27.9526L87.9356 26.98ZM85.0788 30.3716C83.8708 28.9623 82.3892 28.2191 80.6594 28.2191V29.5152C81.9647 29.5152 83.1013 30.0561 84.0947 31.2151L85.0788 30.3716ZM80.6594 28.2191C79.2193 28.2191 78.0059 28.6583 77.0944 29.5896L78.0207 30.4961C78.6434 29.8598 79.4979 29.5152 80.6594 29.5152V28.2191ZM77.0944 29.5896C76.1825 30.5212 75.7588 31.766 75.7588 33.2448H77.0549C77.0549 32.0219 77.3983 31.1321 78.0207 30.4961L77.0944 29.5896ZM75.7588 33.2448C75.7588 34.6919 76.1748 35.921 77.0597 36.8649L78.0053 35.9784C77.3893 35.3214 77.0549 34.4326 77.0549 33.2448H75.7588ZM77.0646 36.8701C77.9719 37.8168 79.1679 38.2704 80.5843 38.2704V36.9743C79.4659 36.9743 78.6274 36.6275 78.0004 35.9733L77.0646 36.8701ZM80.5843 38.2704C81.4188 38.2704 82.2203 38.1124 82.9838 37.7958L82.4874 36.5985C81.8835 36.8489 81.2508 36.9743 80.5843 36.9743V38.2704ZM83.3837 37.1971V32.7695H82.0876V37.1971H83.3837ZM90.2039 28.3168V27.6688H89.5559V28.3168H90.2039ZM95.8573 28.3168H96.5054V27.6688H95.8573V28.3168ZM95.8573 42V42.6481H96.5054V42H95.8573ZM90.2039 42H89.5559V42.6481H90.2039V42ZM90.5542 26.4157L90.1228 26.8993L90.1297 26.9055L90.1367 26.9114L90.5542 26.4157ZM90.5542 22.2882L90.9781 22.7784L90.9791 22.7775L90.5542 22.2882ZM95.5071 22.2382L95.0909 22.7349L95.0909 22.7349L95.5071 22.2382ZM95.5071 26.3907L95.9385 26.8744L95.9456 26.8679L95.5071 26.3907ZM90.2039 28.9649H95.8573V27.6688H90.2039V28.9649ZM95.2093 28.3168V42H96.5054V28.3168H95.2093ZM95.8573 41.3519H90.2039V42.6481H95.8573V41.3519ZM90.852 42V28.3168H89.5559V42H90.852ZM93.0306 26.5681C92.13 26.5681 91.4636 26.3343 90.9716 25.92L90.1367 26.9114C90.9122 27.5644 91.8967 27.8642 93.0306 27.8642V26.5681ZM90.9855 25.932C90.5077 25.5059 90.2767 24.9903 90.2767 24.3394H88.9805C88.9805 25.3562 89.3666 26.2248 90.1228 26.8993L90.9855 25.932ZM90.2767 24.3394C90.2767 23.689 90.507 23.1859 90.9781 22.7784L90.1302 21.7981C89.3673 22.4579 88.9805 23.3222 88.9805 24.3394H90.2767ZM90.9791 22.7775C91.4712 22.3502 92.1349 22.1108 93.0306 22.1108V20.8147C91.8918 20.8147 90.9046 21.1256 90.1292 21.7989L90.9791 22.7775ZM93.0306 22.1108C93.9566 22.1108 94.6204 22.3407 95.0909 22.7349L95.9233 21.7414C95.1597 21.1017 94.1726 20.8147 93.0306 20.8147V22.1108ZM95.0909 22.7349C95.5584 23.1266 95.7846 23.6106 95.7846 24.2394H97.0807C97.0807 23.2339 96.6899 22.3837 95.9233 21.7414L95.0909 22.7349ZM95.7846 24.2394C95.7846 24.9324 95.5469 25.474 95.0686 25.9135L95.9456 26.8679C96.7014 26.1734 97.0807 25.2808 97.0807 24.2394H95.7846ZM95.0758 25.907C94.6051 26.3268 93.9469 26.5681 93.0306 26.5681V27.8642C94.1823 27.8642 95.1751 27.5552 95.9385 26.8743L95.0758 25.907ZM108.444 41.5247L108.764 42.0881L109.232 41.8223L109.057 41.3139L108.444 41.5247ZM100.539 40.8743L100.105 41.3553L100.109 41.3591L100.539 40.8743ZM98.9885 33.1947H99.6365V32.5467H98.9885V33.1947ZM97.1124 33.1947H96.4643V33.8428H97.1124V33.1947ZM97.1124 29.0673V28.4192H96.4643V29.0673H97.1124ZM98.9885 29.0673V29.7153H99.6365V29.0673H98.9885ZM98.9885 25.24V24.5919H98.3404V25.24H98.9885ZM104.642 25.24H105.29V24.5919H104.642V25.24ZM104.642 29.0673H103.994V29.7153H104.642V29.0673ZM107.444 29.0673H108.092V28.4192H107.444V29.0673ZM107.444 33.1947V33.8428H108.092V33.1947H107.444ZM104.642 33.1947V32.5467H103.994V33.1947H104.642ZM104.967 37.6224L104.492 38.0634L104.492 38.0634L104.967 37.6224ZM107.093 37.5974L107.706 37.3866L107.43 36.5835L106.728 37.0619L107.093 37.5974ZM108.124 40.9614C107.408 41.3685 106.374 41.6021 104.967 41.6021V42.8982C106.495 42.8982 107.779 42.6482 108.764 42.0881L108.124 40.9614ZM104.967 41.6021C103.146 41.6021 101.846 41.1669 100.969 40.3895L100.109 41.3591C101.301 42.4162 102.952 42.8982 104.967 42.8982V41.6021ZM100.974 40.3934C100.117 39.6192 99.6365 38.428 99.6365 36.6968H98.3404C98.3404 38.6679 98.8942 40.2616 100.105 41.3553L100.974 40.3934ZM99.6365 36.6968V33.1947H98.3404V36.6968H99.6365ZM98.9885 32.5467H97.1124V33.8428H98.9885V32.5467ZM97.7604 33.1947V29.0673H96.4643V33.1947H97.7604ZM97.1124 29.7153H98.9885V28.4192H97.1124V29.7153ZM99.6365 29.0673V25.24H98.3404V29.0673H99.6365ZM98.9885 25.888H104.642V24.5919H98.9885V25.888ZM103.994 25.24V29.0673H105.29V25.24H103.994ZM104.642 29.7153H107.444V28.4192H104.642V29.7153ZM106.795 29.0673V33.1947H108.092V29.0673H106.795ZM107.444 32.5467H104.642V33.8428H107.444V32.5467ZM103.994 33.1947V36.6468H105.29V33.1947H103.994ZM103.994 36.6468C103.994 37.1754 104.133 37.6767 104.492 38.0634L105.442 37.1814C105.367 37.1011 105.29 36.952 105.29 36.6468H103.994ZM104.492 38.0634C104.844 38.4428 105.307 38.6206 105.818 38.6206V37.3245C105.628 37.3245 105.523 37.2689 105.442 37.1814L104.492 38.0634ZM105.818 38.6206C106.419 38.6206 106.974 38.4629 107.458 38.1328L106.728 37.0619C106.479 37.2321 106.183 37.3245 105.818 37.3245V38.6206ZM106.481 37.8081L107.831 41.7355L109.057 41.3139L107.706 37.3866L106.481 37.8081ZM123.427 29.5926L122.969 30.0508L122.973 30.0545L123.427 29.5926ZM124.978 42V42.6481H125.626V42H124.978ZM119.325 42H118.677V42.6481H119.325V42ZM116.098 33.4949L115.613 33.0644L115.612 33.0655L116.098 33.4949ZM115.522 42V42.6481H116.17V42H115.522ZM109.869 42H109.221V42.6481H109.869V42ZM109.869 23.4389V22.7909H109.221V23.4389H109.869ZM115.522 23.4389H116.17V22.7909H115.522V23.4389ZM115.522 29.4175H114.874V30.8265L115.944 29.9095L115.522 29.4175ZM119.375 28.7147C120.919 28.7147 122.094 29.1758 122.969 30.0508L123.885 29.1343C122.726 27.9748 121.199 27.4186 119.375 27.4186V28.7147ZM122.973 30.0545C123.839 30.9069 124.33 32.2449 124.33 34.1953H125.626C125.626 32.0433 125.083 30.3128 123.882 29.1306L122.973 30.0545ZM124.33 34.1953V42H125.626V34.1953H124.33ZM124.978 41.3519H119.325V42.6481H124.978V41.3519ZM119.973 42V35.1709H118.677V42H119.973ZM119.973 35.1709C119.973 34.3297 119.826 33.5826 119.433 33.0312C119.012 32.4395 118.378 32.1715 117.649 32.1715V33.4676C118.036 33.4676 118.241 33.5914 118.378 33.7835C118.544 34.016 118.677 34.4445 118.677 35.1709H119.973ZM117.649 32.1715C116.841 32.1715 116.144 32.4678 115.613 33.0644L116.582 33.9255C116.852 33.6215 117.189 33.4676 117.649 33.4676V32.1715ZM115.612 33.0655C115.075 33.6734 114.874 34.5574 114.874 35.5712H116.17C116.17 34.6838 116.354 34.1837 116.583 33.9243L115.612 33.0655ZM114.874 35.5712V42H116.17V35.5712H114.874ZM115.522 41.3519H109.869V42.6481H115.522V41.3519ZM110.517 42V23.4389H109.221V42H110.517ZM109.869 24.087H115.522V22.7909H109.869V24.087ZM114.874 23.4389V29.4175H116.17V23.4389H114.874ZM115.944 29.9095C116.866 29.1197 117.996 28.7147 119.375 28.7147V27.4186C117.719 27.4186 116.28 27.9142 115.101 28.9254L115.944 29.9095ZM142.392 28.3168H143.04V27.6688H142.392V28.3168ZM142.392 42V42.6481H143.04V42H142.392ZM137.014 42H136.366V42.6481H137.014V42ZM137.014 40.6992H137.662V39.0977L136.548 40.2486L137.014 40.6992ZM135.263 41.8749L135.49 42.4819L135.504 42.4766L135.263 41.8749ZM128.959 40.6742L128.497 41.1288L128.501 41.1325L128.959 40.6742ZM127.383 28.3168V27.6688H126.735V28.3168H127.383ZM133.037 28.3168H133.685V27.6688H133.037V28.3168ZM133.487 36.897L134.005 36.5081L134.005 36.5081L133.487 36.897ZM136.188 36.8469L136.683 37.2656L136.691 37.2563L136.188 36.8469ZM136.739 28.3168V27.6688H136.091V28.3168H136.739ZM141.744 28.3168V42H143.04V28.3168H141.744ZM142.392 41.3519H137.014V42.6481H142.392V41.3519ZM137.662 42V40.6992H136.366V42H137.662ZM136.548 40.2486C136.111 40.7 135.604 41.0404 135.022 41.2732L135.504 42.4766C136.256 42.1758 136.916 41.7324 137.48 41.1499L136.548 40.2486ZM135.035 41.2681C134.445 41.4896 133.814 41.6021 133.137 41.6021V42.8982C133.961 42.8982 134.747 42.7606 135.49 42.4817L135.035 41.2681ZM133.137 41.6021C131.543 41.6021 130.326 41.1247 129.417 40.216L128.501 41.1325C129.693 42.3249 131.261 42.8982 133.137 42.8982V41.6021ZM129.421 40.2196C128.532 39.317 128.031 37.9086 128.031 35.8713H126.735C126.735 38.1033 127.285 39.8968 128.497 41.1288L129.421 40.2196ZM128.031 35.8713V28.3168H126.735V35.8713H128.031ZM127.383 28.9649H133.037V27.6688H127.383V28.9649ZM132.389 28.3168V34.8958H133.685V28.3168H132.389ZM132.389 34.8958C132.389 35.8648 132.538 36.7113 132.968 37.2858L134.005 36.5081C133.836 36.2821 133.685 35.7945 133.685 34.8958H132.389ZM132.968 37.2858C133.412 37.8778 134.064 38.1454 134.813 38.1454V36.8493C134.394 36.8493 134.162 36.7166 134.005 36.5081L132.968 37.2858ZM134.813 38.1454C135.561 38.1454 136.198 37.8393 136.683 37.2655L135.694 36.4283C135.445 36.7218 135.165 36.8493 134.813 36.8493V38.1454ZM136.691 37.2563C137.196 36.6369 137.387 35.7574 137.387 34.7457H136.091C136.091 35.6351 135.915 36.1564 135.686 36.4376L136.691 37.2563ZM137.387 34.7457V28.3168H136.091V34.7457H137.387ZM136.739 28.9649H142.392V27.6688H136.739V28.9649ZM157.332 28.9422L157.006 29.5021L157.017 29.5083L157.332 28.9422ZM159.734 31.4187L159.163 31.726L159.169 31.7364L159.734 31.4187ZM159.734 38.8981L159.167 38.5841L159.163 38.5909L159.734 38.8981ZM157.332 41.3996L157.652 41.9635L157.655 41.9617L157.332 41.3996ZM150.278 40.8743L150.762 40.4432L149.63 39.1727V40.8743H150.278ZM150.278 42V42.6481H150.926V42H150.278ZM144.9 42H144.252V42.6481H144.9V42ZM144.9 23.4389V22.7909H144.252V23.4389H144.9ZM150.553 23.4389H151.201V22.7909H150.553V23.4389ZM150.553 29.2424H149.905V30.7839L151.006 29.7054L150.553 29.2424ZM154.28 37.1471L154.764 37.5788L154.771 37.5702L154.28 37.1471ZM151.078 37.1471L150.587 37.5703L150.595 37.5787L151.078 37.1471ZM154.03 28.7147C155.121 28.7147 156.108 28.9783 157.006 29.502L157.659 28.3824C156.555 27.7388 155.341 27.4186 154.03 27.4186V28.7147ZM157.017 29.5083C157.92 30.0116 158.634 30.7443 159.163 31.7259L160.304 31.1114C159.665 29.9251 158.779 29.0068 157.648 28.3761L157.017 29.5083ZM159.169 31.7364C159.706 32.6923 159.986 33.822 159.986 35.1459H161.282C161.282 33.6348 160.961 32.2796 160.298 31.101L159.169 31.7364ZM159.986 35.1459C159.986 36.4696 159.707 37.6094 159.167 38.5842L160.3 39.2121C160.961 38.019 161.282 36.6573 161.282 35.1459H159.986ZM159.163 38.5909C158.634 39.574 157.917 40.3171 157.01 40.8375L157.655 41.9617C158.782 41.3148 159.666 40.3903 160.304 39.2054L159.163 38.5909ZM157.013 40.8358C156.114 41.3451 155.124 41.6021 154.03 41.6021V42.8982C155.338 42.8982 156.549 42.5882 157.652 41.9635L157.013 40.8358ZM154.03 41.6021C152.459 41.6021 151.415 41.1768 150.762 40.4432L149.794 41.3054C150.775 42.4063 152.232 42.8982 154.03 42.8982V41.6021ZM149.63 40.8743V42H150.926V40.8743H149.63ZM150.278 41.3519H144.9V42.6481H150.278V41.3519ZM145.548 42V23.4389H144.252V42H145.548ZM144.9 24.087H150.553V22.7909H144.9V24.087ZM149.905 23.4389V29.2424H151.201V23.4389H149.905ZM151.006 29.7054C151.648 29.0772 152.621 28.7147 154.03 28.7147V27.4186C152.405 27.4186 151.059 27.8399 150.1 28.7793L151.006 29.7054ZM152.679 38.4956C153.506 38.4956 154.219 38.1894 154.764 37.5787L153.797 36.7155C153.508 37.0387 153.153 37.1995 152.679 37.1995V38.4956ZM154.771 37.5702C155.319 36.9347 155.554 36.0996 155.554 35.1459H154.258C154.258 35.8932 154.075 36.3922 153.789 36.724L154.771 37.5702ZM155.554 35.1459C155.554 34.1938 155.32 33.3607 154.764 32.7381L153.797 33.6013C154.075 33.9126 154.258 34.397 154.258 35.1459H155.554ZM154.764 32.7381C154.219 32.1275 153.506 31.8212 152.679 31.8212V33.1174C153.153 33.1174 153.508 33.2781 153.797 33.6013L154.764 32.7381ZM152.679 31.8212C151.853 31.8212 151.14 32.1275 150.595 32.7381L151.562 33.6013C151.85 33.2781 152.205 33.1174 152.679 33.1174V31.8212ZM150.595 32.7381C150.039 33.3607 149.805 34.1938 149.805 35.1459H151.101C151.101 34.397 151.284 33.9126 151.562 33.6013L150.595 32.7381ZM149.805 35.1459C149.805 36.0996 150.04 36.9347 150.588 37.5702L151.569 36.724C151.283 36.3922 151.101 35.8932 151.101 35.1459H149.805ZM150.595 37.5787C151.14 38.1894 151.853 38.4956 152.679 38.4956V37.1995C152.205 37.1995 151.85 37.0387 151.562 36.7155L150.595 37.5787Z" fill="#21252D"/>
<path fill-rule="evenodd" clip-rule="evenodd" d="M36.7 7C49.4029 7 59.7 17.5568 59.7 30.5817C59.7 40.9984 53.1174 49.8351 43.9841 52.9562C42.818 53.1885 42.404 52.4521 42.404 51.8242C42.404 51.0468 42.4316 48.5076 42.4316 45.352C42.4316 43.1533 41.6956 41.7182 40.8699 40.9868C45.992 40.4026 51.374 38.4083 51.374 29.3509C51.374 26.7749 50.4816 24.6728 49.005 23.0214C49.2442 22.4257 50.0331 20.0271 48.7796 16.7795C48.7796 16.7795 46.8522 16.1476 42.4615 19.1974C40.6238 18.6753 38.655 18.4126 36.7 18.4034C34.745 18.4126 32.7785 18.6753 30.9431 19.1974C26.5478 16.1476 24.6158 16.7795 24.6158 16.7795C23.3669 20.0271 24.1558 22.4257 24.3927 23.0214C22.923 24.6728 22.0237 26.7749 22.0237 29.3509C22.0237 38.3853 27.3942 40.4102 32.5025 41.0059C31.8447 41.5947 31.249 42.6334 31.042 44.1583C29.731 44.7609 26.4006 45.8038 24.349 42.1997C24.349 42.1997 23.1323 39.9339 20.8231 39.7683C20.8231 39.7683 18.5806 39.7385 20.6667 41.2013C20.6667 41.2013 22.1732 41.9258 23.2197 44.6513C23.2197 44.6513 24.5698 48.8602 30.9684 47.4342C30.9799 49.4053 31.0006 51.263 31.0006 51.8242C31.0006 52.4475 30.5774 53.1769 29.4297 52.9584C20.2895 49.8419 13.7 41.0007 13.7 30.5817C13.7 17.5568 23.9994 7 36.7 7Z" fill="white"/>
</g>
<defs>
<clipPath id="clip0_73_1328">
<rect width="220" height="60" fill="white"/>
</clipPath>
</defs>
</svg>
