<svg width="280" height="60" viewBox="0 0 280 60" fill="none" xmlns="http://www.w3.org/2000/svg">
<g clip-path="url(#clip0_29_303)">
<path fill-rule="evenodd" clip-rule="evenodd" d="M18.654 13.8858C17.9216 10.077 20.8514 6.56122 24.6602 6.56122C28.0295 6.56122 30.8129 9.34457 30.8129 12.7139V20.3315C31.6919 20.3315 32.5708 20.185 33.4498 20.185C34.3287 20.185 35.0612 20.185 35.9401 20.3315V12.7139C35.9401 9.34457 38.7235 6.56122 42.0928 6.56122C45.9016 6.56122 48.8315 10.077 48.2455 13.8858L46.6341 22.8219C52.3473 25.3123 56.7421 29.707 56.7421 35.1272V38.4966C56.7421 43.0378 53.8122 46.8466 49.5639 49.337C45.3157 51.9739 39.7489 53.4388 33.4498 53.4388C27.1506 53.4388 21.5839 51.9739 17.3356 49.337C13.2338 46.8466 10.304 43.0378 10.304 38.4966V35.1272C10.304 29.707 14.5522 25.3123 20.2654 22.8219L18.654 13.8858ZM44.4367 23.9938L46.3411 13.4464C46.7806 10.8095 44.8762 8.31913 42.0928 8.31913C39.7489 8.31913 37.8445 10.2235 37.8445 12.5674V22.2359C37.2586 22.0894 36.5261 22.0894 35.9401 22.0894C35.0612 22.0894 34.3287 21.9429 33.4498 21.9429C32.5708 21.9429 31.6919 21.9429 30.8129 22.0894C30.2269 22.0894 29.4945 22.2359 28.9085 22.2359V12.7139C28.9085 10.37 27.0041 8.46562 24.6602 8.46562C22.0234 8.46562 19.9725 10.956 20.5584 13.5929L22.4628 24.1403C16.3101 26.4842 12.2084 30.586 12.2084 35.2737V38.6431C12.2084 45.8212 21.7304 51.6809 33.4498 51.6809C45.1692 51.6809 54.6912 45.8212 54.6912 38.6431V35.2737C54.8377 30.4395 50.7359 26.3377 44.4367 23.9938Z" fill="#21252D"/>
<path d="M54.8377 38.4965C54.8377 45.6747 45.3157 51.5344 33.5963 51.5344C21.8769 51.5344 12.3549 45.6747 12.3549 38.4965V35.1272H54.9842V38.4965H54.8377Z" fill="#A0A0A0"/>
<path fill-rule="evenodd" clip-rule="evenodd" d="M20.5584 13.5928C19.9725 10.9559 22.0234 8.46558 24.6602 8.46558C27.0041 8.46558 28.9085 10.37 28.9085 12.7139V22.3824C30.3734 22.2359 31.8384 22.0894 33.4498 22.0894C34.9147 22.0894 36.3796 22.2359 37.8445 22.3824V12.7139C37.8445 10.37 39.7489 8.46558 42.0928 8.46558C44.7297 8.46558 46.7806 10.9559 46.3411 13.5928L44.4367 24.1403C50.5894 26.4841 54.8377 30.5859 54.8377 35.2737C54.8377 42.4518 45.3157 48.3115 33.5963 48.3115C21.8769 48.3115 12.3549 42.4518 12.3549 35.2737C12.3549 30.5859 16.4566 26.4841 22.6093 24.1403L20.5584 13.5928Z" fill="white"/>
<path d="M27.59 34.2482C27.59 36.1526 26.5646 37.7641 25.2462 37.7641C23.9277 37.7641 22.9023 36.1526 22.9023 34.2482C22.9023 32.3438 23.9277 30.7324 25.2462 30.7324C26.5646 30.7324 27.59 32.3438 27.59 34.2482Z" fill="#21252D"/>
<path d="M43.8507 34.2482C43.8507 36.1526 42.8253 37.7641 41.5068 37.7641C40.1884 37.7641 39.163 36.1526 39.163 34.2482C39.163 32.3438 40.1884 30.7324 41.5068 30.7324C42.8253 30.7324 43.8507 32.3438 43.8507 34.2482Z" fill="#21252D"/>
</g>
<path d="M79.8559 24.4895C81.4735 24.4895 82.8827 24.7564 84.0834 25.29C85.2841 25.8237 86.2097 26.5908 86.8601 27.5914C87.5105 28.592 87.8357 29.7594 87.8357 31.0935C87.8357 32.4276 87.5105 33.595 86.8601 34.5956C86.2097 35.5962 85.2841 36.3633 84.0834 36.897C82.8827 37.4306 81.4735 37.6974 79.8559 37.6974H77.3294V42H71.4259V24.4895H79.8559ZM79.4807 33.1447C80.2811 33.1447 80.8815 32.9696 81.2817 32.6194C81.682 32.2525 81.8821 31.7439 81.8821 31.0935C81.8821 30.4431 81.682 29.9428 81.2817 29.5926C80.8815 29.2257 80.2811 29.0423 79.4807 29.0423H77.3294V33.1447H79.4807ZM95.6032 28.0667C98.0046 28.0667 99.8391 28.6087 101.106 29.6926C102.374 30.76 103.008 32.4109 103.008 34.6456V42H97.7545V40.1989C97.1041 41.5664 95.8116 42.2501 93.8772 42.2501C92.7932 42.2501 91.8676 42.0667 91.1005 41.6998C90.3501 41.3163 89.7747 40.8076 89.3745 40.1739C88.9909 39.5235 88.7991 38.7981 88.7991 37.9976C88.7991 36.6468 89.3161 35.6212 90.3501 34.9208C91.384 34.2204 92.9516 33.8701 95.0529 33.8701H97.3292C97.1458 32.8028 96.2869 32.2692 94.7527 32.2692C94.1356 32.2692 93.5103 32.3692 92.8766 32.5694C92.2428 32.7528 91.7009 33.0113 91.2506 33.3448L89.4495 29.6176C90.2333 29.134 91.1755 28.7588 92.2762 28.4919C93.3935 28.2084 94.5025 28.0667 95.6032 28.0667ZM95.5782 38.8481C95.9784 38.8481 96.337 38.7397 96.6538 38.5229C96.9707 38.3061 97.2041 37.9809 97.3542 37.5473V36.5968H95.9534C94.8027 36.5968 94.2274 36.9803 94.2274 37.7475C94.2274 38.0643 94.3441 38.3311 94.5776 38.5479C94.8277 38.7481 95.1613 38.8481 95.5782 38.8481ZM114.957 28.0667C116.641 28.0667 117.992 28.5753 119.009 29.5926C120.043 30.6099 120.56 32.1441 120.56 34.1953V42H114.907V35.1709C114.907 33.6033 114.348 32.8195 113.231 32.8195C112.597 32.8195 112.08 33.0446 111.68 33.4949C111.296 33.9285 111.104 34.6206 111.104 35.5712V42H105.451V28.3168H110.829V29.6676C111.363 29.134 111.98 28.7337 112.68 28.4669C113.381 28.2001 114.139 28.0667 114.957 28.0667ZM130.614 42.2501C129.063 42.2501 127.67 41.95 126.436 41.3496C125.219 40.7493 124.26 39.9071 123.56 38.8231C122.876 37.7391 122.534 36.5134 122.534 35.1459C122.534 33.7784 122.876 32.561 123.56 31.4937C124.26 30.4097 125.219 29.5676 126.436 28.9672C127.67 28.3669 129.063 28.0667 130.614 28.0667C132.281 28.0667 133.707 28.4252 134.891 29.1423C136.075 29.8594 136.893 30.8517 137.343 32.1191L132.965 34.2704C132.432 33.0697 131.639 32.4693 130.589 32.4693C129.922 32.4693 129.363 32.7028 128.913 33.1697C128.479 33.6367 128.262 34.2954 128.262 35.1459C128.262 36.0131 128.479 36.6802 128.913 37.1471C129.363 37.614 129.922 37.8475 130.589 37.8475C131.639 37.8475 132.432 37.2472 132.965 36.0464L137.343 38.1977C136.893 39.4652 136.075 40.4574 134.891 41.1745C133.707 41.8916 132.281 42.2501 130.614 42.2501ZM144.778 28.0667C147.18 28.0667 149.014 28.6087 150.281 29.6926C151.549 30.76 152.182 32.4109 152.182 34.6456V42H146.929V40.1989C146.279 41.5664 144.987 42.2501 143.052 42.2501C141.968 42.2501 141.043 42.0667 140.275 41.6998C139.525 41.3163 138.95 40.8076 138.549 40.1739C138.166 39.5235 137.974 38.7981 137.974 37.9976C137.974 36.6468 138.491 35.6212 139.525 34.9208C140.559 34.2204 142.126 33.8701 144.228 33.8701H146.504C146.321 32.8028 145.462 32.2692 143.928 32.2692C143.311 32.2692 142.685 32.3692 142.051 32.5694C141.418 32.7528 140.876 33.0113 140.425 33.3448L138.624 29.6176C139.408 29.134 140.35 28.7588 141.451 28.4919C142.568 28.2084 143.677 28.0667 144.778 28.0667ZM144.753 38.8481C145.153 38.8481 145.512 38.7397 145.829 38.5229C146.146 38.3061 146.379 37.9809 146.529 37.5473V36.5968H145.128C143.978 36.5968 143.402 36.9803 143.402 37.7475C143.402 38.0643 143.519 38.3311 143.752 38.5479C144.003 38.7481 144.336 38.8481 144.753 38.8481ZM161.18 37.7975L160.279 38.7731V42H154.626V23.4389H160.279V32.2942L164.206 28.3168H170.885L165.232 34.2454L171.336 42H164.507L161.18 37.7975ZM186.382 35.1459C186.382 35.2293 186.357 35.6712 186.307 36.4717H176.802C177.002 36.9887 177.335 37.3889 177.802 37.6724C178.269 37.9392 178.853 38.0727 179.553 38.0727C180.154 38.0727 180.654 37.9976 181.054 37.8475C181.471 37.6974 181.921 37.4389 182.405 37.0721L185.357 40.0488C184.022 41.5164 182.03 42.2501 179.378 42.2501C177.727 42.2501 176.276 41.95 175.025 41.3496C173.775 40.7326 172.807 39.8821 172.124 38.7981C171.44 37.7141 171.098 36.4967 171.098 35.1459C171.098 33.7784 171.432 32.561 172.099 31.4937C172.782 30.4097 173.708 29.5676 174.875 28.9672C176.059 28.3669 177.385 28.0667 178.853 28.0667C180.237 28.0667 181.496 28.3418 182.63 28.8922C183.781 29.4425 184.69 30.2513 185.357 31.3186C186.04 32.3859 186.382 33.6617 186.382 35.1459ZM178.903 31.919C178.319 31.919 177.835 32.0774 177.452 32.3943C177.068 32.7111 176.818 33.1614 176.701 33.7451H181.104C180.987 33.1781 180.737 32.7361 180.354 32.4193C179.97 32.0857 179.486 31.919 178.903 31.919ZM194.87 42.4002C193.419 42.4002 192.002 42.2418 190.618 41.925C189.25 41.5914 188.125 41.1495 187.241 40.5992L189.142 36.2966C189.976 36.7802 190.91 37.1721 191.944 37.4723C192.978 37.7558 193.97 37.8975 194.92 37.8975C195.737 37.8975 196.321 37.8225 196.671 37.6724C197.022 37.5056 197.197 37.2638 197.197 36.947C197.197 36.5801 196.963 36.3049 196.496 36.1215C196.046 35.938 195.296 35.7379 194.245 35.5211C192.894 35.2376 191.768 34.9374 190.868 34.6206C189.967 34.2871 189.184 33.7534 188.517 33.0196C187.849 32.2692 187.516 31.2602 187.516 29.9928C187.516 28.8922 187.824 27.8916 188.441 26.991C189.059 26.0905 189.976 25.3817 191.193 24.8648C192.427 24.3478 193.92 24.0893 195.671 24.0893C196.872 24.0893 198.047 24.2227 199.198 24.4895C200.365 24.7397 201.391 25.1149 202.275 25.6152L200.499 29.8928C198.781 29.0256 197.155 28.592 195.621 28.592C194.103 28.592 193.344 28.9589 193.344 29.6926C193.344 30.0429 193.57 30.3097 194.02 30.4931C194.47 30.6599 195.212 30.8433 196.246 31.0435C197.58 31.2936 198.706 31.5854 199.623 31.919C200.54 32.2358 201.333 32.7611 202 33.4949C202.683 34.2287 203.025 35.2293 203.025 36.4967C203.025 37.5974 202.717 38.598 202.1 39.4985C201.483 40.3824 200.557 41.0911 199.323 41.6248C198.106 42.1418 196.621 42.4002 194.87 42.4002ZM227.701 28.3168L222.949 42H217.445L215.369 35.6712L213.218 42H207.715L202.962 28.3168H208.315L210.666 35.5461L213.118 28.3168H217.921L220.297 35.6212L222.748 28.3168H227.701ZM234.431 28.0667C236.833 28.0667 238.667 28.6087 239.935 29.6926C241.202 30.76 241.836 32.4109 241.836 34.6456V42H236.583V40.1989C235.932 41.5664 234.64 42.2501 232.705 42.2501C231.621 42.2501 230.696 42.0667 229.929 41.6998C229.178 41.3163 228.603 40.8076 228.203 40.1739C227.819 39.5235 227.627 38.7981 227.627 37.9976C227.627 36.6468 228.144 35.6212 229.178 34.9208C230.212 34.2204 231.78 33.8701 233.881 33.8701H236.157C235.974 32.8028 235.115 32.2692 233.581 32.2692C232.964 32.2692 232.338 32.3692 231.705 32.5694C231.071 32.7528 230.529 33.0113 230.079 33.3448L228.278 29.6176C229.061 29.134 230.004 28.7588 231.104 28.4919C232.222 28.2084 233.331 28.0667 234.431 28.0667ZM234.406 38.8481C234.806 38.8481 235.165 38.7397 235.482 38.5229C235.799 38.3061 236.032 37.9809 236.182 37.5473V36.5968H234.781C233.631 36.5968 233.055 36.9803 233.055 37.7475C233.055 38.0643 233.172 38.3311 233.406 38.5479C233.656 38.7481 233.989 38.8481 234.406 38.8481ZM253.409 28.0667C254.61 28.0667 255.711 28.3585 256.711 28.9422C257.729 29.5092 258.529 30.3347 259.113 31.4187C259.713 32.5027 260.013 33.7534 260.013 35.1709C260.013 36.5884 259.713 37.8392 259.113 38.9232C258.529 39.9905 257.729 40.816 256.711 41.3996C255.711 41.9666 254.61 42.2501 253.409 42.2501C251.892 42.2501 250.733 41.8582 249.932 41.0744V46.8529H244.279V28.3168H249.657V29.4425C250.474 28.5253 251.725 28.0667 253.409 28.0667ZM252.059 37.8475C252.709 37.8475 253.243 37.614 253.66 37.1471C254.076 36.6802 254.285 36.0214 254.285 35.1709C254.285 34.3204 254.076 33.6617 253.66 33.1947C253.243 32.7111 252.709 32.4693 252.059 32.4693C251.408 32.4693 250.875 32.7111 250.458 33.1947C250.041 33.6617 249.832 34.3204 249.832 35.1709C249.832 36.0214 250.041 36.6802 250.458 37.1471C250.875 37.614 251.408 37.8475 252.059 37.8475Z" fill="white"/>
<path d="M84.0834 25.29L83.8202 25.8822L83.8202 25.8822L84.0834 25.29ZM86.8601 27.5914L86.3167 27.9446L86.3167 27.9446L86.8601 27.5914ZM86.8601 34.5956L86.3167 34.2424L86.3167 34.2424L86.8601 34.5956ZM84.0834 36.897L83.8202 36.3048L83.8202 36.3048L84.0834 36.897ZM77.3294 37.6974V37.0494H76.6813V37.6974H77.3294ZM77.3294 42V42.6481H77.9774V42H77.3294ZM71.4259 42H70.7778V42.6481H71.4259V42ZM71.4259 24.4895V23.8415H70.7778V24.4895H71.4259ZM81.2817 32.6194L81.7085 33.1071L81.7141 33.1022L81.7196 33.0971L81.2817 32.6194ZM81.2817 29.5926L80.8438 30.0703L80.8494 30.0754L80.855 30.0803L81.2817 29.5926ZM77.3294 29.0423V28.3942H76.6813V29.0423H77.3294ZM77.3294 33.1447H76.6813V33.7928H77.3294V33.1447ZM79.8559 25.1376C81.4033 25.1376 82.7192 25.3929 83.8202 25.8822L84.3466 24.6978C83.0462 24.1199 81.5438 23.8415 79.8559 23.8415V25.1376ZM83.8202 25.8822C84.9184 26.3703 85.7415 27.0596 86.3167 27.9446L87.4034 27.2382C86.6779 26.122 85.6499 25.277 84.3466 24.6978L83.8202 25.8822ZM86.3167 27.9446C86.8909 28.8279 87.1876 29.8694 87.1876 31.0935H88.4837C88.4837 29.6493 88.13 28.356 87.4034 27.2382L86.3167 27.9446ZM87.1876 31.0935C87.1876 32.3175 86.8909 33.359 86.3167 34.2424L87.4034 34.9488C88.13 33.8309 88.4837 32.5377 88.4837 31.0935H87.1876ZM86.3167 34.2424C85.7415 35.1274 84.9184 35.8167 83.8202 36.3048L84.3466 37.4892C85.6499 36.9099 86.6779 36.065 87.4034 34.9488L86.3167 34.2424ZM83.8202 36.3048C82.7192 36.7941 81.4033 37.0494 79.8559 37.0494V38.3455C81.5438 38.3455 83.0462 38.0671 84.3466 37.4892L83.8202 36.3048ZM79.8559 37.0494H77.3294V38.3455H79.8559V37.0494ZM76.6813 37.6974V42H77.9774V37.6974H76.6813ZM77.3294 41.3519H71.4259V42.6481H77.3294V41.3519ZM72.0739 42V24.4895H70.7778V42H72.0739ZM71.4259 25.1376H79.8559V23.8415H71.4259V25.1376ZM79.4807 33.7928C80.3614 33.7928 81.1429 33.602 81.7085 33.1071L80.855 32.1317C80.6201 32.3372 80.2009 32.4967 79.4807 32.4967V33.7928ZM81.7196 33.0971C82.2801 32.5834 82.5302 31.8865 82.5302 31.0935H81.234C81.234 31.6013 81.0839 31.9216 80.8438 32.1417L81.7196 33.0971ZM82.5302 31.0935C82.5302 30.3015 82.2802 29.6051 81.7085 29.1049L80.855 30.0803C81.0838 30.2805 81.234 30.5847 81.234 31.0935H82.5302ZM81.7196 29.1149C81.1539 28.5963 80.3677 28.3942 79.4807 28.3942V29.6903C80.1945 29.6903 80.6091 29.8551 80.8438 30.0703L81.7196 29.1149ZM79.4807 28.3942H77.3294V29.6903H79.4807V28.3942ZM76.6813 29.0423V33.1447H77.9774V29.0423H76.6813ZM77.3294 33.7928H79.4807V32.4967H77.3294V33.7928ZM101.106 29.6926L100.685 30.1852L100.689 30.1884L101.106 29.6926ZM103.008 42V42.6481H103.656V42H103.008ZM97.7545 42H97.1064V42.6481H97.7545V42ZM97.7545 40.1989H98.4025L97.1692 39.9206L97.7545 40.1989ZM91.1005 41.6998L90.8056 42.2769L90.8132 42.2808L90.8209 42.2845L91.1005 41.6998ZM89.3745 40.1739L88.8163 40.5031L88.8213 40.5116L88.8265 40.52L89.3745 40.1739ZM90.3501 34.9208L89.9866 34.3842L89.9866 34.3842L90.3501 34.9208ZM97.3292 33.8701V34.5182H98.0982L97.9679 33.7604L97.3292 33.8701ZM92.8766 32.5694L93.0568 33.1919L93.0643 33.1897L93.0717 33.1873L92.8766 32.5694ZM91.2506 33.3448L90.6671 33.6268L91.0075 34.3313L91.6363 33.8656L91.2506 33.3448ZM89.4495 29.6176L89.1092 29.0661L88.6116 29.3731L88.866 29.8996L89.4495 29.6176ZM92.2762 28.4919L92.4289 29.1218L92.4356 29.1201L92.2762 28.4919ZM96.6538 38.5229L96.2879 37.9881L96.2879 37.9881L96.6538 38.5229ZM97.3542 37.5473L97.9666 37.7593L98.0023 37.6563V37.5473H97.3542ZM97.3542 36.5968H98.0023V35.9487H97.3542V36.5968ZM94.5776 38.5479L94.1366 39.0228L94.1541 39.0391L94.1727 39.054L94.5776 38.5479ZM95.6032 28.7147C97.9169 28.7147 99.5775 29.2377 100.685 30.1851L101.528 29.2001C100.101 27.9796 98.0924 27.4186 95.6032 27.4186V28.7147ZM100.689 30.1884C101.764 31.0934 102.36 32.5316 102.36 34.6456H103.656C103.656 32.2903 102.984 30.4265 101.524 29.1969L100.689 30.1884ZM102.36 34.6456V42H103.656V34.6456H102.36ZM103.008 41.3519H97.7545V42.6481H103.008V41.3519ZM98.4025 42V40.1989H97.1064V42H98.4025ZM97.1692 39.9206C96.6579 40.9957 95.6448 41.6021 93.8772 41.6021V42.8982C95.9785 42.8982 97.5503 42.1371 98.3397 40.4773L97.1692 39.9206ZM93.8772 41.6021C92.8642 41.6021 92.0394 41.4305 91.3801 41.1152L90.8209 42.2845C91.6959 42.7029 92.7221 42.8982 93.8772 42.8982V41.6021ZM91.3954 41.1228C90.7353 40.7854 90.2531 40.3515 89.9224 39.8279L88.8265 40.52C89.2963 41.2638 89.9648 41.8471 90.8056 42.2769L91.3954 41.1228ZM89.9327 39.8447C89.6115 39.3001 89.4472 38.6895 89.4472 37.9976H88.1511C88.1511 38.9066 88.3703 39.7469 88.8163 40.5031L89.9327 39.8447ZM89.4472 37.9976C89.4472 36.841 89.8741 36.026 90.7135 35.4573L89.9866 34.3842C88.7581 35.2164 88.1511 36.4526 88.1511 37.9976H89.4472ZM90.7135 35.4573C91.5893 34.864 93.0019 34.5182 95.0529 34.5182V33.2221C92.9013 33.2221 91.1787 33.5767 89.9866 34.3842L90.7135 35.4573ZM95.0529 34.5182H97.3292V33.2221H95.0529V34.5182ZM97.9679 33.7604C97.8473 33.0588 97.4885 32.4911 96.8895 32.119C96.3173 31.7634 95.5827 31.6211 94.7527 31.6211V32.9172C95.4569 32.9172 95.9188 33.0418 96.2055 33.2199C96.4654 33.3814 96.6277 33.6142 96.6905 33.9799L97.9679 33.7604ZM94.7527 31.6211C94.0645 31.6211 93.3734 31.7329 92.6814 31.9514L93.0717 33.1873C93.6471 33.0056 94.2068 32.9172 94.7527 32.9172V31.6211ZM92.6964 31.9469C92.0015 32.148 91.3869 32.4373 90.8648 32.8241L91.6363 33.8656C92.0148 33.5853 92.4842 33.3576 93.0568 33.1919L92.6964 31.9469ZM91.8341 33.0629L90.033 29.3356L88.866 29.8996L90.6671 33.6268L91.8341 33.0629ZM89.7898 30.1691C90.504 29.7284 91.3799 29.376 92.4289 29.1217L92.1235 27.8621C90.9712 28.1415 89.9626 28.5395 89.1092 29.0661L89.7898 30.1691ZM92.4356 29.1201C93.5033 28.8492 94.5588 28.7147 95.6032 28.7147V27.4186C94.4463 27.4186 93.2838 27.5677 92.1168 27.8638L92.4356 29.1201ZM95.5782 39.4962C96.1031 39.4962 96.5904 39.3516 97.0198 39.0578L96.2879 37.9881C96.0836 38.1279 95.8537 38.2001 95.5782 38.2001V39.4962ZM97.0198 39.0578C97.4723 38.7481 97.7802 38.2978 97.9666 37.7593L96.7418 37.3354C96.6281 37.664 96.4691 37.8641 96.2879 37.9881L97.0198 39.0578ZM98.0023 37.5473V36.5968H96.7062V37.5473H98.0023ZM97.3542 35.9487H95.9534V37.2448H97.3542V35.9487ZM95.9534 35.9487C95.3265 35.9487 94.743 36.0495 94.2994 36.3452C93.8094 36.6719 93.5793 37.1751 93.5793 37.7475H94.8754C94.8754 37.5527 94.933 37.4806 95.0184 37.4237C95.1501 37.3358 95.4296 37.2448 95.9534 37.2448V35.9487ZM93.5793 37.7475C93.5793 38.2456 93.7719 38.6842 94.1366 39.0228L95.0185 38.073C94.9163 37.9781 94.8754 37.883 94.8754 37.7475H93.5793ZM94.1727 39.054C94.5685 39.3706 95.0589 39.4962 95.5782 39.4962V38.2001C95.2636 38.2001 95.087 38.1255 94.9824 38.0419L94.1727 39.054ZM119.009 29.5926L118.551 30.0508L118.554 30.0545L119.009 29.5926ZM120.56 42V42.6481H121.208V42H120.56ZM114.907 42H114.258V42.6481H114.907V42ZM111.68 33.4949L111.195 33.0644L111.194 33.0655L111.68 33.4949ZM111.104 42V42.6481H111.752V42H111.104ZM105.451 42H104.803V42.6481H105.451V42ZM105.451 28.3168V27.6688H104.803V28.3168H105.451ZM110.829 28.3168H111.477V27.6688H110.829V28.3168ZM110.829 29.6676H110.181V31.2322L111.287 30.1259L110.829 29.6676ZM112.68 28.4669L112.911 29.0725L112.911 29.0725L112.68 28.4669ZM114.957 28.7147C116.501 28.7147 117.676 29.1758 118.551 30.0508L119.467 29.1343C118.308 27.9748 116.781 27.4186 114.957 27.4186V28.7147ZM118.554 30.0545C119.421 30.9069 119.912 32.2449 119.912 34.1953H121.208C121.208 32.0433 120.665 30.3128 119.463 29.1306L118.554 30.0545ZM119.912 34.1953V42H121.208V34.1953H119.912ZM120.56 41.3519H114.907V42.6481H120.56V41.3519ZM115.555 42V35.1709H114.258V42H115.555ZM115.555 35.1709C115.555 34.3297 115.408 33.5826 115.015 33.0312C114.593 32.4395 113.96 32.1715 113.231 32.1715V33.4676C113.618 33.4676 113.823 33.5914 113.96 33.7835C114.125 34.016 114.258 34.4445 114.258 35.1709H115.555ZM113.231 32.1715C112.423 32.1715 111.726 32.4678 111.195 33.0644L112.164 33.9255C112.434 33.6215 112.771 33.4676 113.231 33.4676V32.1715ZM111.194 33.0655C110.657 33.6734 110.456 34.5574 110.456 35.5712H111.752C111.752 34.6838 111.936 34.1837 112.165 33.9243L111.194 33.0655ZM110.456 35.5712V42H111.752V35.5712H110.456ZM111.104 41.3519H105.451V42.6481H111.104V41.3519ZM106.099 42V28.3168H104.803V42H106.099ZM105.451 28.9649H110.829V27.6688H105.451V28.9649ZM110.181 28.3168V29.6676H111.477V28.3168H110.181ZM111.287 30.1259C111.757 29.6564 112.296 29.3066 112.911 29.0725L112.449 27.8613C111.663 28.1609 110.969 28.6116 110.371 29.2094L111.287 30.1259ZM112.911 29.0725C113.531 28.8362 114.211 28.7147 114.957 28.7147V27.4186C114.068 27.4186 113.23 27.564 112.449 27.8613L112.911 29.0725ZM126.436 41.3496L126.15 41.9308L126.153 41.9324L126.436 41.3496ZM123.56 38.8231L123.011 39.1689L123.015 39.1748L123.56 38.8231ZM123.56 31.4937L123.015 31.142L123.014 31.1441L123.56 31.4937ZM126.436 28.9672L126.153 28.3844L126.15 28.386L126.436 28.9672ZM134.891 29.1423L134.556 29.6966L134.556 29.6966L134.891 29.1423ZM137.343 32.1191L137.629 32.7007L138.147 32.4461L137.953 31.9021L137.343 32.1191ZM132.965 34.2704L132.373 34.5336L132.647 35.1491L133.251 34.852L132.965 34.2704ZM128.913 33.1697L128.446 32.7198L128.438 32.7288L128.913 33.1697ZM128.913 37.1471L128.438 37.5881L128.446 37.5969L128.913 37.1471ZM132.965 36.0464L133.251 35.4648L132.647 35.1678L132.373 35.7832L132.965 36.0464ZM137.343 38.1977L137.953 38.4147L138.147 37.8707L137.629 37.6161L137.343 38.1977ZM134.891 41.1745L135.227 41.7288L135.227 41.7288L134.891 41.1745ZM130.614 41.6021C129.148 41.6021 127.855 41.319 126.72 40.7669L126.153 41.9324C127.486 42.581 128.977 42.8982 130.614 42.8982V41.6021ZM126.723 40.7684C125.605 40.217 124.737 39.4518 124.104 38.4714L123.015 39.1748C123.783 40.3624 124.833 41.2815 126.15 41.9308L126.723 40.7684ZM124.108 38.4774C123.494 37.5039 123.182 36.3996 123.182 35.1459H121.886C121.886 36.6272 122.258 37.9743 123.011 39.1688L124.108 38.4774ZM123.182 35.1459C123.182 33.8921 123.494 32.798 124.105 31.8433L123.014 31.1441C122.258 32.3241 121.886 33.6647 121.886 35.1459H123.182ZM124.104 31.8454C124.737 30.865 125.605 30.0998 126.723 29.5484L126.15 28.386C124.833 29.0354 123.783 29.9545 123.015 31.142L124.104 31.8454ZM126.72 29.55C127.855 28.9979 129.148 28.7147 130.614 28.7147V27.4186C128.977 27.4186 127.486 27.7358 126.153 28.3845L126.72 29.55ZM130.614 28.7147C132.187 28.7147 133.492 29.0523 134.556 29.6966L135.227 28.588C133.923 27.7981 132.375 27.4186 130.614 27.4186V28.7147ZM134.556 29.6966C135.616 30.3388 136.333 31.2138 136.732 32.336L137.953 31.9021C137.452 30.4895 136.535 29.38 135.227 28.588L134.556 29.6966ZM137.057 31.5375L132.679 33.6888L133.251 34.852L137.629 32.7007L137.057 31.5375ZM133.557 34.0072C133.26 33.3379 132.869 32.7873 132.362 32.4031C131.847 32.0125 131.247 31.8212 130.589 31.8212V33.1174C130.981 33.1174 131.303 33.2263 131.579 33.4361C131.865 33.6522 132.137 34.0021 132.373 34.5336L133.557 34.0072ZM130.589 31.8212C129.751 31.8212 129.022 32.1223 128.446 32.7199L129.379 33.6196C129.704 33.2833 130.092 33.1174 130.589 33.1174V31.8212ZM128.438 32.7288C127.86 33.3511 127.614 34.1877 127.614 35.1459H128.91C128.91 34.4031 129.098 33.9223 129.388 33.6107L128.438 32.7288ZM127.614 35.1459C127.614 36.1168 127.858 36.9636 128.438 37.5881L129.388 36.7061C129.1 36.3967 128.91 35.9094 128.91 35.1459H127.614ZM128.446 37.5969C129.022 38.1945 129.751 38.4956 130.589 38.4956V37.1995C130.092 37.1995 129.704 37.0336 129.379 36.6973L128.446 37.5969ZM130.589 38.4956C131.247 38.4956 131.847 38.3043 132.362 37.9137C132.869 37.5295 133.26 36.9789 133.557 36.3096L132.373 35.7832C132.137 36.3147 131.865 36.6646 131.579 36.8808C131.303 37.0905 130.981 37.1995 130.589 37.1995V38.4956ZM132.679 36.6281L137.057 38.7793L137.629 37.6161L133.251 35.4648L132.679 36.6281ZM136.732 37.9808C136.333 39.103 135.616 39.978 134.556 40.6202L135.227 41.7288C136.535 40.9368 137.452 39.8273 137.953 38.4147L136.732 37.9808ZM134.556 40.6202C133.492 41.2645 132.187 41.6021 130.614 41.6021V42.8982C132.375 42.8982 133.923 42.5187 135.227 41.7288L134.556 40.6202ZM150.281 29.6926L149.86 30.1852L149.864 30.1884L150.281 29.6926ZM152.182 42V42.6481H152.831V42H152.182ZM146.929 42H146.281V42.6481H146.929V42ZM146.929 40.1989H147.577L146.344 39.9206L146.929 40.1989ZM140.275 41.6998L139.98 42.2769L139.988 42.2808L139.996 42.2845L140.275 41.6998ZM138.549 40.1739L137.991 40.5031L137.996 40.5116L138.001 40.52L138.549 40.1739ZM139.525 34.9208L139.161 34.3842L139.161 34.3842L139.525 34.9208ZM146.504 33.8701V34.5182H147.273L147.143 33.7604L146.504 33.8701ZM142.051 32.5694L142.232 33.1919L142.239 33.1897L142.247 33.1873L142.051 32.5694ZM140.425 33.3448L139.842 33.6268L140.182 34.3313L140.811 33.8656L140.425 33.3448ZM138.624 29.6176L138.284 29.0661L137.787 29.3731L138.041 29.8996L138.624 29.6176ZM141.451 28.4919L141.604 29.1218L141.61 29.1201L141.451 28.4919ZM145.829 38.5229L145.463 37.9881L145.463 37.9881L145.829 38.5229ZM146.529 37.5473L147.142 37.7593L147.177 37.6563V37.5473H146.529ZM146.529 36.5968H147.177V35.9487H146.529V36.5968ZM143.752 38.5479L143.311 39.0228L143.329 39.0391L143.348 39.054L143.752 38.5479ZM144.778 28.7147C147.092 28.7147 148.752 29.2377 149.86 30.1851L150.703 29.2001C149.275 27.9796 147.267 27.4186 144.778 27.4186V28.7147ZM149.864 30.1884C150.939 31.0934 151.534 32.5316 151.534 34.6456H152.831C152.831 32.2903 152.159 30.4265 150.699 29.1969L149.864 30.1884ZM151.534 34.6456V42H152.831V34.6456H151.534ZM152.182 41.3519H146.929V42.6481H152.182V41.3519ZM147.577 42V40.1989H146.281V42H147.577ZM146.344 39.9206C145.833 40.9957 144.82 41.6021 143.052 41.6021V42.8982C145.153 42.8982 146.725 42.1371 147.515 40.4773L146.344 39.9206ZM143.052 41.6021C142.039 41.6021 141.214 41.4305 140.555 41.1152L139.996 42.2845C140.871 42.7029 141.897 42.8982 143.052 42.8982V41.6021ZM140.57 41.1228C139.91 40.7854 139.428 40.3515 139.097 39.8279L138.001 40.52C138.471 41.2638 139.14 41.8471 139.98 42.2769L140.57 41.1228ZM139.108 39.8447C138.786 39.3001 138.622 38.6895 138.622 37.9976H137.326C137.326 38.9066 137.545 39.7469 137.991 40.5031L139.108 39.8447ZM138.622 37.9976C138.622 36.841 139.049 36.026 139.888 35.4573L139.161 34.3842C137.933 35.2164 137.326 36.4526 137.326 37.9976H138.622ZM139.888 35.4573C140.764 34.864 142.177 34.5182 144.228 34.5182V33.2221C142.076 33.2221 140.354 33.5767 139.161 34.3842L139.888 35.4573ZM144.228 34.5182H146.504V33.2221H144.228V34.5182ZM147.143 33.7604C147.022 33.0588 146.663 32.4911 146.064 32.119C145.492 31.7634 144.758 31.6211 143.928 31.6211V32.9172C144.632 32.9172 145.094 33.0418 145.38 33.2199C145.64 33.3814 145.803 33.6142 145.865 33.9799L147.143 33.7604ZM143.928 31.6211C143.239 31.6211 142.548 31.7329 141.856 31.9514L142.247 33.1873C142.822 33.0056 143.382 32.9172 143.928 32.9172V31.6211ZM141.871 31.9469C141.176 32.148 140.562 32.4373 140.04 32.8241L140.811 33.8656C141.19 33.5853 141.659 33.3576 142.232 33.1919L141.871 31.9469ZM141.009 33.0629L139.208 29.3356L138.041 29.8996L139.842 33.6268L141.009 33.0629ZM138.965 30.1691C139.679 29.7284 140.555 29.376 141.604 29.1217L141.298 27.8621C140.146 28.1415 139.137 28.5395 138.284 29.0661L138.965 30.1691ZM141.61 29.1201C142.678 28.8492 143.734 28.7147 144.778 28.7147V27.4186C143.621 27.4186 142.459 27.5677 141.292 27.8638L141.61 29.1201ZM144.753 39.4962C145.278 39.4962 145.765 39.3516 146.195 39.0578L145.463 37.9881C145.258 38.1279 145.029 38.2001 144.753 38.2001V39.4962ZM146.195 39.0578C146.647 38.7481 146.955 38.2978 147.142 37.7593L145.917 37.3354C145.803 37.664 145.644 37.8641 145.463 37.9881L146.195 39.0578ZM147.177 37.5473V36.5968H145.881V37.5473H147.177ZM146.529 35.9487H145.128V37.2448H146.529V35.9487ZM145.128 35.9487C144.501 35.9487 143.918 36.0495 143.474 36.3452C142.984 36.6719 142.754 37.1751 142.754 37.7475H144.05C144.05 37.5527 144.108 37.4806 144.193 37.4237C144.325 37.3358 144.604 37.2448 145.128 37.2448V35.9487ZM142.754 37.7475C142.754 38.2456 142.947 38.6842 143.311 39.0228L144.193 38.073C144.091 37.9781 144.05 37.883 144.05 37.7475H142.754ZM143.348 39.054C143.743 39.3706 144.234 39.4962 144.753 39.4962V38.2001C144.439 38.2001 144.262 38.1255 144.157 38.0419L143.348 39.054ZM161.18 37.7975L161.688 37.3952L161.217 36.8011L160.703 37.3579L161.18 37.7975ZM160.279 38.7731L159.803 38.3335L159.631 38.5197V38.7731H160.279ZM160.279 42V42.6481H160.927V42H160.279ZM154.626 42H153.978V42.6481H154.626V42ZM154.626 23.4389V22.7909H153.978V23.4389H154.626ZM160.279 23.4389H160.927V22.7909H160.279V23.4389ZM160.279 32.2942H159.631V33.8729L160.74 32.7495L160.279 32.2942ZM164.206 28.3168V27.6688H163.936L163.745 27.8615L164.206 28.3168ZM170.885 28.3168L171.354 28.7641L172.399 27.6688H170.885V28.3168ZM165.232 34.2454L164.763 33.7981L164.375 34.2047L164.723 34.6462L165.232 34.2454ZM171.336 42V42.6481H172.671L171.845 41.5992L171.336 42ZM164.507 42L163.999 42.4023L164.193 42.6481H164.507V42ZM160.703 37.3579L159.803 38.3335L160.755 39.2126L161.656 38.2371L160.703 37.3579ZM159.631 38.7731V42H160.927V38.7731H159.631ZM160.279 41.3519H154.626V42.6481H160.279V41.3519ZM155.274 42V23.4389H153.978V42H155.274ZM154.626 24.087H160.279V22.7909H154.626V24.087ZM159.631 23.4389V32.2942H160.927V23.4389H159.631ZM160.74 32.7495L164.668 28.7722L163.745 27.8615L159.818 31.8389L160.74 32.7495ZM164.206 28.9649H170.885V27.6688H164.206V28.9649ZM170.416 27.8696L164.763 33.7981L165.701 34.6926L171.354 28.7641L170.416 27.8696ZM164.723 34.6462L170.827 42.4008L171.845 41.5992L165.741 33.8445L164.723 34.6462ZM171.336 41.3519H164.507V42.6481H171.336V41.3519ZM165.015 41.5977L161.688 37.3952L160.672 38.1997L163.999 42.4023L165.015 41.5977ZM186.307 36.4717V37.1198H186.916L186.954 36.5121L186.307 36.4717ZM176.802 36.4717V35.8236H175.856L176.197 36.7056L176.802 36.4717ZM177.802 37.6724L177.466 38.2264L177.473 38.2308L177.481 38.2351L177.802 37.6724ZM181.054 37.8475L180.835 37.2377L180.827 37.2407L181.054 37.8475ZM182.405 37.0721L182.865 36.6157L182.465 36.2127L182.013 36.5558L182.405 37.0721ZM185.357 40.0488L185.836 40.4848L186.25 40.0295L185.817 39.5925L185.357 40.0488ZM175.025 41.3496L174.739 41.9308L174.745 41.9338L175.025 41.3496ZM172.124 38.7981L172.672 38.4523L172.124 38.7981ZM172.099 31.4937L171.551 31.148L171.549 31.1503L172.099 31.4937ZM174.875 28.9672L174.582 28.3892L174.579 28.3909L174.875 28.9672ZM182.63 28.8922L182.347 29.4752L182.35 29.4768L182.63 28.8922ZM185.357 31.3186L184.807 31.6621L184.811 31.6682L185.357 31.3186ZM177.452 32.3943L177.865 32.8939L177.865 32.8939L177.452 32.3943ZM176.701 33.7451L176.066 33.618L175.911 34.3931H176.701V33.7451ZM181.104 33.7451V34.3931H181.899L181.739 33.6144L181.104 33.7451ZM180.354 32.4193L179.928 32.9083L179.935 32.9137L179.941 32.9189L180.354 32.4193ZM185.734 35.1459C185.734 35.144 185.734 35.1503 185.733 35.1706C185.733 35.1888 185.732 35.2134 185.73 35.2448C185.727 35.3077 185.723 35.3936 185.716 35.5033C185.704 35.7223 185.685 36.0315 185.66 36.4313L186.954 36.5121C187.003 35.7289 187.03 35.2558 187.03 35.1459H185.734ZM186.307 35.8236H176.802V37.1198H186.307V35.8236ZM176.197 36.7056C176.448 37.3538 176.875 37.8675 177.466 38.2264L178.138 37.1185C177.796 36.9103 177.555 36.6236 177.406 36.2378L176.197 36.7056ZM177.481 38.2351C178.071 38.5723 178.773 38.7207 179.553 38.7207V37.4246C178.932 37.4246 178.467 37.3062 178.124 37.1097L177.481 38.2351ZM179.553 38.7207C180.202 38.7207 180.786 38.6403 181.282 38.4543L180.827 37.2407C180.522 37.3549 180.105 37.4246 179.553 37.4246V38.7207ZM181.274 38.4573C181.77 38.2784 182.278 37.9813 182.797 37.5884L182.013 36.5558C181.564 36.8965 181.172 37.1164 180.835 37.2378L181.274 38.4573ZM181.945 37.5284L184.896 40.5051L185.817 39.5925L182.865 36.6157L181.945 37.5284ZM184.877 39.6129C183.703 40.904 181.912 41.6021 179.378 41.6021V42.8982C182.148 42.8982 184.342 42.1287 185.836 40.4848L184.877 39.6129ZM179.378 41.6021C177.806 41.6021 176.454 41.3165 175.306 40.7654L174.745 41.9338C176.098 42.5835 177.648 42.8982 179.378 42.8982V41.6021ZM175.312 40.7684C174.159 40.1994 173.286 39.4264 172.672 38.4523L171.576 39.1438C172.329 40.3377 173.391 41.2657 174.739 41.9308L175.312 40.7684ZM172.672 38.4523C172.057 37.4776 171.746 36.3813 171.746 35.1459H170.45C170.45 36.6122 170.823 37.9506 171.576 39.1438L172.672 38.4523ZM171.746 35.1459C171.746 33.889 172.051 32.7926 172.648 31.8372L171.549 31.1503C170.812 32.3294 170.45 33.6679 170.45 35.1459H171.746ZM172.647 31.8395C173.267 30.8559 174.105 30.0923 175.172 29.5435L174.579 28.3909C173.311 29.0429 172.298 29.9636 171.551 31.148L172.647 31.8395ZM175.168 29.5452C176.252 28.9956 177.476 28.7147 178.853 28.7147V27.4186C177.294 27.4186 175.866 27.7381 174.582 28.3892L175.168 29.5452ZM178.853 28.7147C180.149 28.7147 181.31 28.9717 182.347 29.4752L182.913 28.3091C181.682 27.712 180.325 27.4186 178.853 27.4186V28.7147ZM182.35 29.4768C183.392 29.9748 184.206 30.7007 184.807 31.6621L185.906 30.9751C185.173 29.802 184.17 28.9102 182.91 28.3075L182.35 29.4768ZM184.811 31.6682C185.417 32.6144 185.734 33.764 185.734 35.1459H187.03C187.03 33.5593 186.664 32.1575 185.902 30.969L184.811 31.6682ZM178.903 31.2709C178.196 31.2709 177.558 31.4657 177.039 31.8946L177.865 32.8939C178.113 32.6891 178.442 32.567 178.903 32.567V31.2709ZM177.039 31.8946C176.519 32.3241 176.206 32.918 176.066 33.618L177.337 33.8722C177.43 33.4047 177.617 33.0981 177.865 32.8939L177.039 31.8946ZM176.701 34.3931H181.104V33.097H176.701V34.3931ZM181.739 33.6144C181.597 32.9275 181.282 32.3455 180.766 31.9196L179.941 32.9189C180.192 33.1267 180.377 33.4286 180.469 33.8757L181.739 33.6144ZM180.779 31.9302C180.26 31.4791 179.618 31.2709 178.903 31.2709V32.567C179.355 32.567 179.68 32.6924 179.928 32.9083L180.779 31.9302ZM190.618 41.925L190.464 42.5546L190.473 42.5567L190.618 41.925ZM187.241 40.5992L186.648 40.3372L186.421 40.8519L186.898 41.1493L187.241 40.5992ZM189.142 36.2966L189.467 35.736L188.841 35.3732L188.549 36.0347L189.142 36.2966ZM191.944 37.4723L191.763 38.0947L191.772 38.0973L191.944 37.4723ZM196.671 37.6724L196.927 38.2681L196.938 38.263L196.95 38.2575L196.671 37.6724ZM196.496 36.1215L196.252 36.7217L196.259 36.7247L196.496 36.1215ZM194.245 35.5211L194.112 36.1554L194.114 36.1558L194.245 35.5211ZM190.868 34.6206L190.643 35.2284L190.653 35.2319L190.868 34.6206ZM188.517 33.0196L188.032 33.4502L188.037 33.4556L188.517 33.0196ZM188.441 26.991L188.976 27.3573L188.976 27.3573L188.441 26.991ZM191.193 24.8648L190.943 24.267L190.94 24.2683L191.193 24.8648ZM199.198 24.4895L199.051 25.1209L199.062 25.1232L199.198 24.4895ZM202.275 25.6152L202.873 25.8637L203.093 25.3339L202.594 25.0512L202.275 25.6152ZM200.499 29.8928L200.207 30.4713L200.83 30.7858L201.097 30.1413L200.499 29.8928ZM194.02 30.4931L193.775 31.0933L193.785 31.0972L193.795 31.1008L194.02 30.4931ZM196.246 31.0435L196.123 31.6797L196.127 31.6804L196.246 31.0435ZM199.623 31.919L199.402 32.5281L199.412 32.5315L199.623 31.919ZM202 33.4949L201.52 33.9309L201.525 33.9367L202 33.4949ZM202.1 39.4985L202.631 39.8695L202.634 39.8648L202.1 39.4985ZM199.323 41.6248L199.576 42.2213L199.58 42.2196L199.323 41.6248ZM194.87 41.7522C193.467 41.7522 192.098 41.599 190.762 41.2932L190.473 42.5567C191.906 42.8846 193.372 43.0483 194.87 43.0483V41.7522ZM190.771 41.2954C189.449 40.9728 188.392 40.5528 187.583 40.049L186.898 41.1493C187.857 41.7462 189.052 42.2101 190.464 42.5546L190.771 41.2954ZM187.834 40.8611L189.735 36.5585L188.549 36.0347L186.648 40.3372L187.834 40.8611ZM188.817 36.8572C189.701 37.37 190.684 37.7815 191.763 38.0947L192.124 36.8499C191.135 36.5627 190.25 36.1904 189.467 35.736L188.817 36.8572ZM191.772 38.0973C192.855 38.3942 193.905 38.5456 194.92 38.5456V37.2495C194.035 37.2495 193.1 37.1174 192.115 36.8473L191.772 38.0973ZM194.92 38.5456C195.748 38.5456 196.446 38.4739 196.927 38.2681L196.416 37.0768C196.196 37.1711 195.727 37.2495 194.92 37.2495V38.5456ZM196.95 38.2575C197.195 38.141 197.423 37.9773 197.59 37.7461C197.763 37.5076 197.845 37.233 197.845 36.947H196.549C196.549 36.9659 196.546 36.9746 196.545 36.9767C196.545 36.9785 196.544 36.9809 196.54 36.9859C196.533 36.9965 196.498 37.037 196.393 37.0873L196.95 38.2575ZM197.845 36.947C197.845 36.6128 197.734 36.303 197.516 36.0462C197.308 35.8014 197.03 35.6347 196.733 35.5183L196.259 36.7247C196.43 36.7917 196.502 36.8543 196.527 36.8847C196.539 36.8982 196.542 36.9065 196.544 36.9105C196.545 36.9147 196.549 36.9252 196.549 36.947H197.845ZM196.741 35.5213C196.231 35.3137 195.43 35.104 194.376 34.8864L194.114 36.1558C195.161 36.3718 195.861 36.5624 196.252 36.7216L196.741 35.5213ZM194.378 34.8869C193.044 34.6069 191.948 34.3136 191.083 34.0093L190.653 35.2319C191.589 35.5613 192.744 35.8684 194.112 36.1554L194.378 34.8869ZM191.093 34.0129C190.293 33.7166 189.596 33.2433 188.996 32.5837L188.037 33.4556C188.772 34.2636 189.642 34.8575 190.643 35.2283L191.093 34.0129ZM189.001 32.5891C188.465 31.9859 188.164 31.1446 188.164 29.9928H186.868C186.868 31.3759 187.234 32.5524 188.032 33.4502L189.001 32.5891ZM188.164 29.9928C188.164 29.0218 188.434 28.1491 188.976 27.3573L187.907 26.6247C187.215 27.6341 186.868 28.7626 186.868 29.9928H188.164ZM188.976 27.3573C189.51 26.5785 190.319 25.9402 191.446 25.4613L190.94 24.2683C189.633 24.8233 188.607 25.6024 187.907 26.6247L188.976 27.3573ZM191.444 25.4625C192.578 24.9873 193.98 24.7374 195.671 24.7374V23.4412C193.859 23.4412 192.276 23.7083 190.943 24.267L191.444 25.4625ZM195.671 24.7374C196.823 24.7374 197.95 24.8653 199.052 25.1208L199.344 23.8582C198.145 23.5801 196.92 23.4412 195.671 23.4412V24.7374ZM199.062 25.1232C200.176 25.3619 201.138 25.7164 201.956 26.1792L202.594 25.0512C201.644 24.5134 200.554 24.1174 199.334 23.8559L199.062 25.1232ZM201.676 25.3667L199.9 29.6443L201.097 30.1413L202.873 25.8637L201.676 25.3667ZM200.791 29.3143C199.005 28.4127 197.279 27.9439 195.621 27.9439V29.24C197.031 29.24 198.557 29.6385 200.207 30.4713L200.791 29.3143ZM195.621 27.9439C194.83 27.9439 194.143 28.0361 193.631 28.2837C193.367 28.4118 193.126 28.5921 192.953 28.8433C192.776 29.0996 192.696 29.3913 192.696 29.6926H193.992C193.992 29.6272 194.007 29.5978 194.02 29.5789C194.037 29.5549 194.081 29.506 194.196 29.4506C194.442 29.3313 194.893 29.24 195.621 29.24V27.9439ZM192.696 29.6926C192.696 30.0202 192.806 30.3226 193.018 30.5733C193.219 30.8121 193.489 30.9767 193.775 31.0933L194.264 29.893C194.1 29.8261 194.032 29.7656 194.009 29.7375C193.998 29.7252 193.996 29.7189 193.995 29.7175C193.995 29.7162 193.992 29.7095 193.992 29.6926H192.696ZM193.795 31.1008C194.298 31.2874 195.085 31.4788 196.123 31.6797L196.369 30.4072C195.339 30.2078 194.642 30.0324 194.245 29.8854L193.795 31.1008ZM196.127 31.6804C197.438 31.9264 198.528 32.2102 199.402 32.528L199.845 31.3099C198.884 30.9607 197.722 30.6608 196.366 30.4065L196.127 31.6804ZM199.412 32.5315C200.224 32.8121 200.924 33.2756 201.52 33.9308L202.479 33.059C201.741 32.2467 200.857 31.6596 199.835 31.3064L199.412 32.5315ZM201.525 33.9367C202.07 34.5212 202.377 35.3482 202.377 36.4967H203.673C203.673 35.1103 203.297 33.9362 202.474 33.0531L201.525 33.9367ZM202.377 36.4967C202.377 37.4678 202.108 38.3405 201.565 39.1322L202.634 39.8648C203.326 38.8555 203.673 37.727 203.673 36.4967H202.377ZM201.568 39.1275C201.035 39.8911 200.217 40.5323 199.066 41.03L199.58 42.2196C200.897 41.65 201.93 40.8737 202.631 39.8695L201.568 39.1275ZM199.07 41.0283C197.954 41.5021 196.561 41.7522 194.87 41.7522V43.0483C196.682 43.0483 198.257 42.7814 199.576 42.2213L199.07 41.0283ZM227.701 28.3168L228.314 28.5295L228.613 27.6688H227.701V28.3168ZM222.949 42V42.6481H223.41L223.561 42.2126L222.949 42ZM217.445 42L216.83 42.202L216.976 42.6481H217.445V42ZM215.369 35.6712L215.985 35.4692L215.38 33.6255L214.756 35.4627L215.369 35.6712ZM213.218 42V42.6481H213.682L213.831 42.2086L213.218 42ZM207.715 42L207.102 42.2126L207.254 42.6481H207.715V42ZM202.962 28.3168V27.6688H202.051L202.349 28.5295L202.962 28.3168ZM208.315 28.3168L208.931 28.1164L208.786 27.6688H208.315V28.3168ZM210.666 35.5461L210.05 35.7466L210.653 37.6019L211.28 35.7543L210.666 35.5461ZM213.118 28.3168V27.6688H212.653L212.504 28.1087L213.118 28.3168ZM217.921 28.3168L218.537 28.1163L218.391 27.6688H217.921V28.3168ZM220.297 35.6212L219.681 35.8217L220.287 37.6865L220.911 35.8274L220.297 35.6212ZM222.748 28.3168V27.6688H222.282L222.134 28.1106L222.748 28.3168ZM227.089 28.1042L222.336 41.7874L223.561 42.2126L228.314 28.5295L227.089 28.1042ZM222.949 41.3519H217.445V42.6481H222.949V41.3519ZM218.061 41.798L215.985 35.4692L214.753 35.8732L216.83 42.202L218.061 41.798ZM214.756 35.4627L212.604 41.7914L213.831 42.2086L215.983 35.8798L214.756 35.4627ZM213.218 41.3519H207.715V42.6481H213.218V41.3519ZM208.327 41.7874L203.574 28.1042L202.349 28.5295L207.102 42.2126L208.327 41.7874ZM202.962 28.9649H208.315V27.6688H202.962V28.9649ZM207.699 28.5173L210.05 35.7466L211.283 35.3457L208.931 28.1164L207.699 28.5173ZM211.28 35.7543L213.731 28.5249L212.504 28.1087L210.053 35.338L211.28 35.7543ZM213.118 28.9649H217.921V27.6688H213.118V28.9649ZM217.304 28.5173L219.681 35.8217L220.913 35.4207L218.537 28.1163L217.304 28.5173ZM220.911 35.8274L223.363 28.523L222.134 28.1106L219.683 35.415L220.911 35.8274ZM222.748 28.9649H227.701V27.6688H222.748V28.9649ZM239.935 29.6926L239.513 30.1852L239.517 30.1884L239.935 29.6926ZM241.836 42V42.6481H242.484V42H241.836ZM236.583 42H235.934V42.6481H236.583V42ZM236.583 40.1989H237.231L235.997 39.9206L236.583 40.1989ZM229.929 41.6998L229.634 42.2769L229.641 42.2808L229.649 42.2845L229.929 41.6998ZM228.203 40.1739L227.644 40.5031L227.649 40.5116L227.655 40.52L228.203 40.1739ZM229.178 34.9208L228.815 34.3842L228.815 34.3842L229.178 34.9208ZM236.157 33.8701V34.5182H236.926L236.796 33.7604L236.157 33.8701ZM231.705 32.5694L231.885 33.1919L231.892 33.1897L231.9 33.1873L231.705 32.5694ZM230.079 33.3448L229.495 33.6268L229.836 34.3313L230.464 33.8656L230.079 33.3448ZM228.278 29.6176L227.937 29.0661L227.44 29.3731L227.694 29.8996L228.278 29.6176ZM231.104 28.4919L231.257 29.1218L231.264 29.1201L231.104 28.4919ZM235.482 38.5229L235.116 37.9881L235.116 37.9881L235.482 38.5229ZM236.182 37.5473L236.795 37.7593L236.83 37.6563V37.5473H236.182ZM236.182 36.5968H236.83V35.9487H236.182V36.5968ZM233.406 38.5479L232.965 39.0228L232.982 39.0391L233.001 39.054L233.406 38.5479ZM234.431 28.7147C236.745 28.7147 238.406 29.2377 239.513 30.1851L240.356 29.2001C238.929 27.9796 236.92 27.4186 234.431 27.4186V28.7147ZM239.517 30.1884C240.592 31.0934 241.188 32.5316 241.188 34.6456H242.484C242.484 32.2903 241.812 30.4265 240.352 29.1969L239.517 30.1884ZM241.188 34.6456V42H242.484V34.6456H241.188ZM241.836 41.3519H236.583V42.6481H241.836V41.3519ZM237.231 42V40.1989H235.934V42H237.231ZM235.997 39.9206C235.486 40.9957 234.473 41.6021 232.705 41.6021V42.8982C234.807 42.8982 236.378 42.1371 237.168 40.4773L235.997 39.9206ZM232.705 41.6021C231.692 41.6021 230.867 41.4305 230.208 41.1152L229.649 42.2845C230.524 42.7029 231.55 42.8982 232.705 42.8982V41.6021ZM230.224 41.1228C229.563 40.7854 229.081 40.3515 228.75 39.8279L227.655 40.52C228.124 41.2638 228.793 41.8471 229.634 42.2769L230.224 41.1228ZM228.761 39.8447C228.44 39.3001 228.275 38.6895 228.275 37.9976H226.979C226.979 38.9066 227.198 39.7469 227.644 40.5031L228.761 39.8447ZM228.275 37.9976C228.275 36.841 228.702 36.026 229.542 35.4573L228.815 34.3842C227.586 35.2164 226.979 36.4526 226.979 37.9976H228.275ZM229.542 35.4573C230.417 34.864 231.83 34.5182 233.881 34.5182V33.2221C231.729 33.2221 230.007 33.5767 228.815 34.3842L229.542 35.4573ZM233.881 34.5182H236.157V33.2221H233.881V34.5182ZM236.796 33.7604C236.675 33.0588 236.317 32.4911 235.718 32.119C235.145 31.7634 234.411 31.6211 233.581 31.6211V32.9172C234.285 32.9172 234.747 33.0418 235.034 33.2199C235.293 33.3814 235.456 33.6142 235.519 33.9799L236.796 33.7604ZM233.581 31.6211C232.893 31.6211 232.201 31.7329 231.509 31.9514L231.9 33.1873C232.475 33.0056 233.035 32.9172 233.581 32.9172V31.6211ZM231.524 31.9469C230.83 32.148 230.215 32.4373 229.693 32.8241L230.464 33.8656C230.843 33.5853 231.312 33.3576 231.885 33.1919L231.524 31.9469ZM230.662 33.0629L228.861 29.3356L227.694 29.8996L229.495 33.6268L230.662 33.0629ZM228.618 30.1691C229.332 29.7284 230.208 29.376 231.257 29.1217L230.952 27.8621C229.799 28.1415 228.791 28.5395 227.937 29.0661L228.618 30.1691ZM231.264 29.1201C232.331 28.8492 233.387 28.7147 234.431 28.7147V27.4186C233.274 27.4186 232.112 27.5677 230.945 27.8638L231.264 29.1201ZM234.406 39.4962C234.931 39.4962 235.418 39.3516 235.848 39.0578L235.116 37.9881C234.912 38.1279 234.682 38.2001 234.406 38.2001V39.4962ZM235.848 39.0578C236.3 38.7481 236.608 38.2978 236.795 37.7593L235.57 37.3354C235.456 37.664 235.297 37.8641 235.116 37.9881L235.848 39.0578ZM236.83 37.5473V36.5968H235.534V37.5473H236.83ZM236.182 35.9487H234.781V37.2448H236.182V35.9487ZM234.781 35.9487C234.155 35.9487 233.571 36.0495 233.127 36.3452C232.637 36.6719 232.407 37.1751 232.407 37.7475H233.703C233.703 37.5527 233.761 37.4806 233.846 37.4237C233.978 37.3358 234.258 37.2448 234.781 37.2448V35.9487ZM232.407 37.7475C232.407 38.2456 232.6 38.6842 232.965 39.0228L233.847 38.073C233.744 37.9781 233.703 37.883 233.703 37.7475H232.407ZM233.001 39.054C233.397 39.3706 233.887 39.4962 234.406 39.4962V38.2001C234.092 38.2001 233.915 38.1255 233.81 38.0419L233.001 39.054ZM256.711 28.9422L256.385 29.5021L256.396 29.5083L256.711 28.9422ZM259.113 31.4187L258.542 31.7259L258.546 31.7327L259.113 31.4187ZM259.113 38.9232L258.546 38.6092L258.544 38.6122L259.113 38.9232ZM256.711 41.3996L257.031 41.9635L257.034 41.9617L256.711 41.3996ZM249.932 41.0744L250.386 40.6114L249.284 39.5329V41.0744H249.932ZM249.932 46.8529V47.501H250.58V46.8529H249.932ZM244.279 46.8529H243.631V47.501H244.279V46.8529ZM244.279 28.3168V27.6688H243.631V28.3168H244.279ZM249.657 28.3168H250.305V27.6688H249.657V28.3168ZM249.657 29.4425H249.009V31.1441L250.141 29.8736L249.657 29.4425ZM253.66 37.1471L254.143 37.5787L254.143 37.5787L253.66 37.1471ZM253.66 33.1947L253.169 33.6179L253.176 33.6264L253.66 33.1947ZM250.458 33.1947L250.941 33.6264L250.948 33.6179L250.458 33.1947ZM250.458 37.1471L249.974 37.5787L249.974 37.5787L250.458 37.1471ZM253.409 28.7147C254.5 28.7147 255.487 28.9783 256.385 29.502L257.038 28.3824C255.934 27.7388 254.72 27.4186 253.409 27.4186V28.7147ZM256.396 29.5083C257.299 30.0116 258.014 30.7443 258.542 31.7259L259.683 31.1114C259.045 29.9251 258.158 29.0068 257.027 28.3761L256.396 29.5083ZM258.546 31.7327C259.086 32.7075 259.365 33.8472 259.365 35.1709H260.661C260.661 33.6596 260.341 32.2979 259.68 31.1047L258.546 31.7327ZM259.365 35.1709C259.365 36.4946 259.086 37.6344 258.546 38.6092L259.68 39.2371C260.341 38.044 260.661 36.6823 260.661 35.1709H259.365ZM258.544 38.6122C258.016 39.5788 257.299 40.3156 256.389 40.8375L257.034 41.9617C258.159 41.3163 259.043 40.4021 259.681 39.2341L258.544 38.6122ZM256.392 40.8358C255.493 41.3451 254.503 41.6021 253.409 41.6021V42.8982C254.717 42.8982 255.928 42.5882 257.031 41.9635L256.392 40.8358ZM253.409 41.6021C252 41.6021 251.027 41.2396 250.386 40.6114L249.479 41.5375C250.438 42.4769 251.784 42.8982 253.409 42.8982V41.6021ZM249.284 41.0744V46.8529H250.58V41.0744H249.284ZM249.932 46.2048H244.279V47.501H249.932V46.2048ZM244.927 46.8529V28.3168H243.631V46.8529H244.927ZM244.279 28.9649H249.657V27.6688H244.279V28.9649ZM249.009 28.3168V29.4425H250.305V28.3168H249.009ZM250.141 29.8736C250.795 29.14 251.838 28.7147 253.409 28.7147V27.4186C251.612 27.4186 250.154 27.9105 249.173 29.0114L250.141 29.8736ZM252.059 38.4956C252.885 38.4956 253.598 38.1894 254.143 37.5787L253.176 36.7155C252.888 37.0387 252.533 37.1995 252.059 37.1995V38.4956ZM254.143 37.5787C254.699 36.9561 254.933 36.123 254.933 35.1709H253.637C253.637 35.9198 253.454 36.4042 253.176 36.7155L254.143 37.5787ZM254.933 35.1709C254.933 34.2188 254.699 33.3857 254.143 32.7631L253.176 33.6264C253.454 33.9376 253.637 34.422 253.637 35.1709H254.933ZM254.15 32.7716C253.608 32.1421 252.893 31.8212 252.059 31.8212V33.1174C252.524 33.1174 252.877 33.2801 253.169 33.6179L254.15 32.7716ZM252.059 31.8212C251.224 31.8212 250.509 32.1421 249.967 32.7716L250.948 33.6179C251.24 33.2801 251.593 33.1174 252.059 33.1174V31.8212ZM249.974 32.7631C249.418 33.3857 249.184 34.2188 249.184 35.1709H250.48C250.48 34.422 250.663 33.9376 250.941 33.6264L249.974 32.7631ZM249.184 35.1709C249.184 36.123 249.418 36.9561 249.974 37.5787L250.941 36.7155C250.663 36.4042 250.48 35.9198 250.48 35.1709H249.184ZM249.974 37.5787C250.519 38.1894 251.232 38.4956 252.059 38.4956V37.1995C251.585 37.1995 251.23 37.0387 250.941 36.7155L249.974 37.5787Z" fill="#21252D"/>
<defs>
<clipPath id="clip0_29_303">
<rect width="46.4381" height="46.8776" fill="white" transform="translate(10.304 6.56122)"/>
</clipPath>
</defs>
</svg>
