<svg width="207" height="60" viewBox="0 0 207 60" fill="none" xmlns="http://www.w3.org/2000/svg">
<g clip-path="url(#clip0_29_364)">
<path d="M71.4259 24.4895H80.056C82.0072 24.4895 83.7249 24.8481 85.2091 25.5652C86.71 26.2656 87.869 27.2745 88.6862 28.592C89.52 29.9094 89.9369 31.4604 89.9369 33.2448C89.9369 35.0292 89.52 36.5801 88.6862 37.8975C87.869 39.215 86.71 40.2323 85.2091 40.9494C83.7249 41.6498 82.0072 42 80.056 42H71.4259V24.4895ZM79.8059 37.3972C81.0733 37.3972 82.0822 37.0387 82.8327 36.3216C83.5998 35.5878 83.9834 34.5622 83.9834 33.2448C83.9834 31.9273 83.5998 30.91 82.8327 30.1929C82.0822 29.4592 81.0733 29.0923 79.8059 29.0923H77.3294V37.3972H79.8059ZM106.476 35.1459C106.476 35.2293 106.451 35.6712 106.401 36.4717H96.8954C97.0955 36.9887 97.429 37.3889 97.896 37.6724C98.3629 37.9392 98.9466 38.0727 99.647 38.0727C100.247 38.0727 100.748 37.9976 101.148 37.8475C101.565 37.6974 102.015 37.4389 102.499 37.0721L105.45 40.0488C104.116 41.5164 102.123 42.2501 99.4719 42.2501C97.8209 42.2501 96.3701 41.95 95.1193 41.3496C93.8686 40.7326 92.9013 39.8821 92.2176 38.7981C91.5338 37.7141 91.192 36.4967 91.192 35.1459C91.192 33.7784 91.5255 32.561 92.1926 31.4937C92.8763 30.4097 93.8019 29.5676 94.9692 28.9672C96.1533 28.3669 97.479 28.0667 98.9466 28.0667C100.331 28.0667 101.59 28.3418 102.724 28.8922C103.875 29.4425 104.783 30.2513 105.45 31.3186C106.134 32.3859 106.476 33.6617 106.476 35.1459ZM98.9966 31.919C98.4129 31.919 97.9293 32.0774 97.5458 32.3943C97.1622 32.7111 96.912 33.1614 96.7953 33.7451H101.198C101.081 33.1781 100.831 32.7361 100.447 32.4193C100.064 32.0857 99.5803 31.919 98.9966 31.919ZM116.524 42L114.648 39.0733L112.547 42H106.418L111.596 35.2209L106.568 28.3168H112.947L114.898 31.2186L116.949 28.3168H122.878L117.85 34.9708L123.003 42H116.524ZM127.994 29.0673H122.866V24.4895H139.026V29.0673H133.898V42H127.994V29.0673ZM146.245 42.2501C144.728 42.2501 143.36 41.95 142.143 41.3496C140.942 40.7326 140 39.8904 139.316 38.8231C138.632 37.7391 138.29 36.5134 138.29 35.1459C138.29 33.7784 138.632 32.561 139.316 31.4937C140 30.4097 140.942 29.5676 142.143 28.9672C143.36 28.3669 144.728 28.0667 146.245 28.0667C147.779 28.0667 149.147 28.3669 150.348 28.9672C151.565 29.5676 152.507 30.4097 153.174 31.4937C153.858 32.561 154.2 33.7784 154.2 35.1459C154.2 36.5134 153.858 37.7391 153.174 38.8231C152.507 39.8904 151.565 40.7326 150.348 41.3496C149.147 41.95 147.779 42.2501 146.245 42.2501ZM146.245 37.8475C146.896 37.8475 147.429 37.614 147.846 37.1471C148.263 36.6635 148.471 35.9964 148.471 35.1459C148.471 34.2954 148.263 33.6367 147.846 33.1697C147.429 32.7028 146.896 32.4693 146.245 32.4693C145.595 32.4693 145.061 32.7028 144.644 33.1697C144.227 33.6367 144.019 34.2954 144.019 35.1459C144.019 35.9964 144.227 36.6635 144.644 37.1471C145.061 37.614 145.595 37.8475 146.245 37.8475ZM163.199 42.2501C161.681 42.2501 160.314 41.95 159.096 41.3496C157.895 40.7326 156.953 39.8904 156.27 38.8231C155.586 37.7391 155.244 36.5134 155.244 35.1459C155.244 33.7784 155.586 32.561 156.27 31.4937C156.953 30.4097 157.895 29.5676 159.096 28.9672C160.314 28.3669 161.681 28.0667 163.199 28.0667C164.733 28.0667 166.1 28.3669 167.301 28.9672C168.519 29.5676 169.461 30.4097 170.128 31.4937C170.812 32.561 171.153 33.7784 171.153 35.1459C171.153 36.5134 170.812 37.7391 170.128 38.8231C169.461 39.8904 168.519 40.7326 167.301 41.3496C166.1 41.95 164.733 42.2501 163.199 42.2501ZM163.199 37.8475C163.849 37.8475 164.383 37.614 164.8 37.1471C165.217 36.6635 165.425 35.9964 165.425 35.1459C165.425 34.2954 165.217 33.6367 164.8 33.1697C164.383 32.7028 163.849 32.4693 163.199 32.4693C162.548 32.4693 162.015 32.7028 161.598 33.1697C161.181 33.6367 160.972 34.2954 160.972 35.1459C160.972 35.9964 161.181 36.6635 161.598 37.1471C162.015 37.614 162.548 37.8475 163.199 37.8475ZM172.923 23.4389H178.576V42H172.923V23.4389ZM186.435 42.2501C185.268 42.2501 184.117 42.1251 182.983 41.8749C181.849 41.6248 180.932 41.2996 180.231 40.8993L181.782 37.1721C182.416 37.5557 183.167 37.8559 184.034 38.0727C184.901 38.2894 185.743 38.3978 186.56 38.3978C187.211 38.3978 187.661 38.3478 187.911 38.2478C188.178 38.131 188.311 37.9643 188.311 37.7475C188.311 37.5307 188.145 37.3806 187.811 37.2972C187.494 37.2138 186.969 37.1304 186.235 37.047C185.118 36.9136 184.167 36.7469 183.383 36.5467C182.6 36.3299 181.907 35.9214 181.307 35.321C180.723 34.7207 180.432 33.8618 180.432 32.7445C180.432 31.8606 180.698 31.0685 181.232 30.368C181.766 29.6676 182.558 29.109 183.609 28.692C184.676 28.2751 185.952 28.0667 187.436 28.0667C188.47 28.0667 189.479 28.1667 190.463 28.3669C191.463 28.5503 192.314 28.8255 193.014 29.1923L191.463 32.9196C190.262 32.2525 188.945 31.919 187.511 31.919C186.277 31.919 185.66 32.1358 185.66 32.5694C185.66 32.7862 185.827 32.9446 186.16 33.0446C186.494 33.128 187.019 33.2114 187.736 33.2948C188.853 33.4282 189.796 33.6033 190.563 33.8201C191.346 34.0369 192.03 34.4455 192.614 35.0458C193.214 35.6462 193.514 36.505 193.514 37.6224C193.514 38.4729 193.248 39.2484 192.714 39.9488C192.18 40.6492 191.38 41.2079 190.313 41.6248C189.245 42.0417 187.953 42.2501 186.435 42.2501Z" fill="white"/>
<path d="M71.4259 24.4895V23.8415H70.7778V24.4895H71.4259ZM85.2091 25.5652L84.9271 26.1488L84.935 26.1524L85.2091 25.5652ZM88.6862 28.592L88.1354 28.9336L88.1386 28.9386L88.6862 28.592ZM88.6862 37.8975L88.1385 37.551L88.1354 37.556L88.6862 37.8975ZM85.2091 40.9494L85.4857 41.5355L85.4885 41.5341L85.2091 40.9494ZM71.4259 42H70.7778V42.6481H71.4259V42ZM82.8327 36.3216L83.2804 36.7901L83.2806 36.7899L82.8327 36.3216ZM82.8327 30.1929L82.3796 30.6563L82.3848 30.6614L82.3901 30.6664L82.8327 30.1929ZM77.3294 29.0923V28.4442H76.6813V29.0923H77.3294ZM77.3294 37.3972H76.6813V38.0453H77.3294V37.3972ZM71.4259 25.1376H80.056V23.8415H71.4259V25.1376ZM80.056 25.1376C81.9273 25.1376 83.5456 25.4812 84.9272 26.1487L85.491 24.9817C83.9042 24.215 82.087 23.8415 80.056 23.8415V25.1376ZM84.935 26.1524C86.33 26.8034 87.3893 27.7306 88.1354 28.9336L89.2369 28.2504C88.3487 26.8185 87.09 25.7278 85.4831 24.9779L84.935 26.1524ZM88.1386 28.9386C88.8977 30.138 89.2889 31.5649 89.2889 33.2448H90.585C90.585 31.3558 90.1423 29.6809 89.2338 28.2454L88.1386 28.9386ZM89.2889 33.2448C89.2889 34.9246 88.8977 36.3515 88.1386 37.551L89.2338 38.2441C90.1423 36.8086 90.585 35.1337 90.585 33.2448H89.2889ZM88.1354 37.556C87.3884 38.7603 86.3273 39.6969 84.9297 40.3646L85.4885 41.5341C87.0927 40.7677 88.3496 39.6697 89.2369 38.2391L88.1354 37.556ZM84.9325 40.3633C83.5496 41.0159 81.9294 41.3519 80.056 41.3519V42.6481C82.085 42.6481 83.9001 42.2837 85.4857 41.5354L84.9325 40.3633ZM80.056 41.3519H71.4259V42.6481H80.056V41.3519ZM72.0739 42V24.4895H70.7778V42H72.0739ZM79.8059 38.0453C81.2011 38.0453 82.3839 37.6468 83.2804 36.7901L82.385 35.8531C81.7806 36.4306 80.9455 36.7492 79.8059 36.7492V38.0453ZM83.2806 36.7899C84.2051 35.9057 84.6314 34.6936 84.6314 33.2448H83.3353C83.3353 34.4308 82.9945 35.27 82.3847 35.8533L83.2806 36.7899ZM84.6314 33.2448C84.6314 31.7966 84.2052 30.5889 83.2752 29.7195L82.3901 30.6664C82.9944 31.2312 83.3353 32.058 83.3353 33.2448H84.6314ZM83.2857 29.7296C82.3898 28.8536 81.2052 28.4442 79.8059 28.4442V29.7403C80.9413 29.7403 81.7746 30.0647 82.3796 30.6563L83.2857 29.7296ZM79.8059 28.4442H77.3294V29.7403H79.8059V28.4442ZM76.6813 29.0923V37.3972H77.9774V29.0923H76.6813ZM77.3294 38.0453H79.8059V36.7492H77.3294V38.0453ZM106.401 36.4717V37.1198H107.01L107.048 36.5121L106.401 36.4717ZM96.8954 36.4717V35.8236H95.9496L96.291 36.7056L96.8954 36.4717ZM97.896 37.6724L97.5596 38.2264L97.567 38.2308L97.5744 38.2351L97.896 37.6724ZM101.148 37.8475L100.928 37.2377L100.92 37.2407L101.148 37.8475ZM102.499 37.0721L102.959 36.6157L102.559 36.2127L102.107 36.5558L102.499 37.0721ZM105.45 40.0488L105.93 40.4848L106.344 40.0295L105.911 39.5925L105.45 40.0488ZM95.1193 41.3496L94.8326 41.9308L94.8389 41.9338L95.1193 41.3496ZM92.2176 38.7981L92.7657 38.4523L92.2176 38.7981ZM92.1926 31.4937L91.6444 31.148L91.643 31.1503L92.1926 31.4937ZM94.9692 28.9672L94.6761 28.3892L94.6728 28.3909L94.9692 28.9672ZM102.724 28.8922L102.441 29.4752L102.444 29.4768L102.724 28.8922ZM105.45 31.3186L104.901 31.6621L104.905 31.6682L105.45 31.3186ZM97.5458 32.3943L97.9585 32.8939L97.9585 32.8939L97.5458 32.3943ZM96.7953 33.7451L96.1598 33.618L96.0048 34.3931H96.7953V33.7451ZM101.198 33.7451V34.3931H101.993L101.833 33.6144L101.198 33.7451ZM100.447 32.4193L100.022 32.9083L100.028 32.9137L100.035 32.9189L100.447 32.4193ZM105.828 35.1459C105.828 35.144 105.828 35.1503 105.827 35.1706C105.827 35.1888 105.826 35.2134 105.824 35.2448C105.821 35.3077 105.817 35.3936 105.81 35.5033C105.798 35.7223 105.779 36.0315 105.754 36.4313L107.048 36.5121C107.097 35.7289 107.124 35.2558 107.124 35.1459H105.828ZM106.401 35.8236H96.8954V37.1198H106.401V35.8236ZM96.291 36.7056C96.5419 37.3538 96.9686 37.8675 97.5596 38.2264L98.2323 37.1185C97.8895 36.9103 97.6491 36.6236 97.4997 36.2378L96.291 36.7056ZM97.5744 38.2351C98.1646 38.5723 98.867 38.7207 99.647 38.7207V37.4246C99.0262 37.4246 98.5612 37.3062 98.2175 37.1097L97.5744 38.2351ZM99.647 38.7207C100.296 38.7207 100.879 38.6403 101.375 38.4543L100.92 37.2407C100.616 37.3549 100.199 37.4246 99.647 37.4246V38.7207ZM101.367 38.4573C101.864 38.2784 102.372 37.9813 102.89 37.5884L102.107 36.5558C101.658 36.8965 101.265 37.1164 100.928 37.2378L101.367 38.4573ZM102.039 37.5284L104.99 40.5051L105.911 39.5925L102.959 36.6157L102.039 37.5284ZM104.971 39.6129C103.797 40.904 102.005 41.6021 99.4719 41.6021V42.8982C102.242 42.8982 104.436 42.1287 105.93 40.4848L104.971 39.6129ZM99.4719 41.6021C97.8997 41.6021 96.5479 41.3165 95.3997 40.7654L94.8389 41.9338C96.1922 42.5835 97.7421 42.8982 99.4719 42.8982V41.6021ZM95.406 40.7684C94.2527 40.1994 93.3801 39.4264 92.7657 38.4523L91.6694 39.1438C92.4225 40.3377 93.4845 41.2657 94.8326 41.9308L95.406 40.7684ZM92.7657 38.4523C92.1508 37.4776 91.84 36.3813 91.84 35.1459H90.5439C90.5439 36.6122 90.9168 37.9506 91.6694 39.1438L92.7657 38.4523ZM91.84 35.1459C91.84 33.889 92.145 32.7926 92.7421 31.8372L91.643 31.1503C90.906 32.3294 90.5439 33.6679 90.5439 35.1459H91.84ZM92.7407 31.8395C93.3611 30.8559 94.1986 30.0923 95.2656 29.5435L94.6728 28.3909C93.4051 29.0429 92.3915 29.9636 91.6444 31.148L92.7407 31.8395ZM95.2623 29.5452C96.3463 28.9956 97.57 28.7147 98.9466 28.7147V27.4186C97.3881 27.4186 95.9603 27.7381 94.6761 28.3892L95.2623 29.5452ZM98.9466 28.7147C100.242 28.7147 101.403 28.9717 102.441 29.4752L103.007 28.3091C101.776 27.712 100.419 27.4186 98.9466 27.4186V28.7147ZM102.444 29.4768C103.485 29.9748 104.3 30.7007 104.901 31.6621L106 30.9751C105.267 29.802 104.264 28.9102 103.003 28.3075L102.444 29.4768ZM104.905 31.6682C105.511 32.6144 105.828 33.764 105.828 35.1459H107.124C107.124 33.5593 106.758 32.1575 105.996 30.969L104.905 31.6682ZM98.9966 31.2709C98.2896 31.2709 97.6522 31.4657 97.133 31.8946L97.9585 32.8939C98.2064 32.6891 98.5362 32.567 98.9966 32.567V31.2709ZM97.133 31.8946C96.6131 32.3241 96.2998 32.918 96.1598 33.618L97.4308 33.8722C97.5243 33.4047 97.7112 33.0981 97.9585 32.8939L97.133 31.8946ZM96.7953 34.3931H101.198V33.097H96.7953V34.3931ZM101.833 33.6144C101.691 32.9275 101.376 32.3455 100.86 31.9196L100.035 32.9189C100.286 33.1267 100.471 33.4286 100.563 33.8757L101.833 33.6144ZM100.873 31.9302C100.354 31.4791 99.712 31.2709 98.9966 31.2709V32.567C99.4487 32.567 99.774 32.6924 100.022 32.9083L100.873 31.9302ZM116.524 42L115.978 42.3497L116.17 42.6481H116.524V42ZM114.648 39.0733L115.193 38.7235L114.678 37.9198L114.121 38.6953L114.648 39.0733ZM112.547 42V42.6481H112.879L113.073 42.378L112.547 42ZM106.418 42L105.903 41.6066L105.107 42.6481H106.418V42ZM111.596 35.2209L112.111 35.6143L112.404 35.2302L112.12 34.8394L111.596 35.2209ZM106.568 28.3168V27.6688H105.294L106.044 28.6983L106.568 28.3168ZM112.947 28.3168L113.485 27.9552L113.292 27.6688H112.947V28.3168ZM114.898 31.2186L114.36 31.5802L114.885 32.3601L115.427 31.5926L114.898 31.2186ZM116.949 28.3168V27.6688H116.614L116.42 27.9427L116.949 28.3168ZM122.878 28.3168L123.395 28.7075L124.18 27.6688H122.878V28.3168ZM117.85 34.9708L117.333 34.5801L117.042 34.9649L117.327 35.354L117.85 34.9708ZM123.003 42V42.6481H124.281L123.525 41.6168L123.003 42ZM117.069 41.6503L115.193 38.7235L114.102 39.423L115.978 42.3497L117.069 41.6503ZM114.121 38.6953L112.02 41.622L113.073 42.378L115.174 39.4512L114.121 38.6953ZM112.547 41.3519H106.418V42.6481H112.547V41.3519ZM106.933 42.3934L112.111 35.6143L111.081 34.8276L105.903 41.6066L106.933 42.3934ZM112.12 34.8394L107.092 27.9353L106.044 28.6983L111.072 35.6025L112.12 34.8394ZM106.568 28.9649H112.947V27.6688H106.568V28.9649ZM112.409 28.6784L114.36 31.5802L115.436 30.8569L113.485 27.9552L112.409 28.6784ZM115.427 31.5926L117.478 28.6909L116.42 27.9427L114.369 30.8445L115.427 31.5926ZM116.949 28.9649H122.878V27.6688H116.949V28.9649ZM122.361 27.9261L117.333 34.5801L118.367 35.3615L123.395 28.7075L122.361 27.9261ZM117.327 35.354L122.48 42.3832L123.525 41.6168L118.372 34.5876L117.327 35.354ZM123.003 41.3519H116.524V42.6481H123.003V41.3519ZM127.994 29.0673H128.642V28.4192H127.994V29.0673ZM122.866 29.0673H122.218V29.7153H122.866V29.0673ZM122.866 24.4895V23.8415H122.218V24.4895H122.866ZM139.026 24.4895H139.674V23.8415H139.026V24.4895ZM139.026 29.0673V29.7153H139.674V29.0673H139.026ZM133.898 29.0673V28.4192H133.249V29.0673H133.898ZM133.898 42V42.6481H134.546V42H133.898ZM127.994 42H127.346V42.6481H127.994V42ZM127.994 28.4192H122.866V29.7153H127.994V28.4192ZM123.514 29.0673V24.4895H122.218V29.0673H123.514ZM122.866 25.1376H139.026V23.8415H122.866V25.1376ZM138.378 24.4895V29.0673H139.674V24.4895H138.378ZM139.026 28.4192H133.898V29.7153H139.026V28.4192ZM133.249 29.0673V42H134.546V29.0673H133.249ZM133.898 41.3519H127.994V42.6481H133.898V41.3519ZM128.642 42V29.0673H127.346V42H128.642ZM142.143 41.3496L141.846 41.9261L141.856 41.9308L142.143 41.3496ZM139.316 38.8231L138.768 39.1689L138.77 39.1727L139.316 38.8231ZM139.316 31.4937L139.862 31.8433L139.864 31.8395L139.316 31.4937ZM142.143 28.9672L141.856 28.386L141.853 28.3876L142.143 28.9672ZM150.348 28.9672L150.058 29.5469L150.061 29.5484L150.348 28.9672ZM153.174 31.4937L152.622 31.8334L152.629 31.8433L153.174 31.4937ZM153.174 38.8231L152.626 38.4774L152.625 38.4796L153.174 38.8231ZM150.348 41.3496L150.637 41.9293L150.641 41.9277L150.348 41.3496ZM147.846 37.1471L148.33 37.5788L148.337 37.5702L147.846 37.1471ZM144.644 37.1471L144.153 37.5703L144.161 37.5787L144.644 37.1471ZM146.245 41.6021C144.815 41.6021 143.548 41.3198 142.429 40.7684L141.856 41.9308C143.173 42.5801 144.64 42.8982 146.245 42.8982V41.6021ZM142.439 40.7732C141.333 40.2049 140.48 39.4382 139.862 38.4735L138.77 39.1727C139.52 40.3426 140.551 41.2602 141.847 41.926L142.439 40.7732ZM139.864 38.4774C139.25 37.5039 138.938 36.3996 138.938 35.1459H137.642C137.642 36.6272 138.014 37.9743 138.768 39.1688L139.864 38.4774ZM138.938 35.1459C138.938 33.8921 139.25 32.798 139.862 31.8433L138.77 31.1441C138.014 32.3241 137.642 33.6647 137.642 35.1459H138.938ZM139.864 31.8395C140.482 30.8604 141.332 30.0969 142.433 29.5469L141.853 28.3876C140.552 29.0382 139.518 29.9591 138.768 31.148L139.864 31.8395ZM142.429 29.5484C143.548 28.997 144.815 28.7147 146.245 28.7147V27.4186C144.64 27.4186 143.173 27.7367 141.856 28.386L142.429 29.5484ZM146.245 28.7147C147.693 28.7147 148.959 28.9975 150.058 29.5469L150.637 28.3876C149.335 27.7362 147.866 27.4186 146.245 27.4186V28.7147ZM150.061 29.5484C151.177 30.0986 152.024 30.8603 152.622 31.8334L153.726 31.1541C152.991 29.9592 151.953 29.0366 150.634 28.386L150.061 29.5484ZM152.629 31.8433C153.24 32.798 153.552 33.8921 153.552 35.1459H154.848C154.848 33.6647 154.476 32.3241 153.72 31.1441L152.629 31.8433ZM153.552 35.1459C153.552 36.3996 153.24 37.5039 152.626 38.4774L153.722 39.1688C154.476 37.9743 154.848 36.6272 154.848 35.1459H153.552ZM152.625 38.4796C152.026 39.4384 151.176 40.2032 150.055 40.7716L150.641 41.9277C151.954 41.2619 152.989 40.3424 153.724 39.1666L152.625 38.4796ZM150.058 40.77C148.959 41.3193 147.693 41.6021 146.245 41.6021V42.8982C147.866 42.8982 149.335 42.5806 150.637 41.9292L150.058 40.77ZM146.245 38.4956C147.072 38.4956 147.784 38.1894 148.33 37.5787L147.363 36.7155C147.074 37.0387 146.719 37.1995 146.245 37.1995V38.4956ZM148.337 37.5702C148.885 36.9347 149.12 36.0996 149.12 35.1459H147.823C147.823 35.8932 147.641 36.3922 147.355 36.724L148.337 37.5702ZM149.12 35.1459C149.12 34.1938 148.885 33.3607 148.33 32.7381L147.363 33.6013C147.641 33.9126 147.823 34.397 147.823 35.1459H149.12ZM148.33 32.7381C147.784 32.1275 147.072 31.8212 146.245 31.8212V33.1174C146.719 33.1174 147.074 33.2781 147.363 33.6013L148.33 32.7381ZM146.245 31.8212C145.418 31.8212 144.706 32.1275 144.161 32.7381L145.128 33.6013C145.416 33.2781 145.771 33.1174 146.245 33.1174V31.8212ZM144.161 32.7381C143.605 33.3607 143.371 34.1938 143.371 35.1459H144.667C144.667 34.397 144.85 33.9126 145.128 33.6013L144.161 32.7381ZM143.371 35.1459C143.371 36.0996 143.605 36.9347 144.153 37.5702L145.135 36.724C144.849 36.3922 144.667 35.8932 144.667 35.1459H143.371ZM144.161 37.5787C144.706 38.1894 145.418 38.4956 146.245 38.4956V37.1995C145.771 37.1995 145.416 37.0387 145.128 36.7155L144.161 37.5787ZM159.096 41.3496L158.8 41.9261L158.81 41.9308L159.096 41.3496ZM156.27 38.8231L155.721 39.1689L155.724 39.1727L156.27 38.8231ZM156.27 31.4937L156.815 31.8433L156.818 31.8395L156.27 31.4937ZM159.096 28.9672L158.81 28.386L158.806 28.3876L159.096 28.9672ZM167.301 28.9672L167.011 29.5469L167.014 29.5484L167.301 28.9672ZM170.128 31.4937L169.576 31.8334L169.582 31.8433L170.128 31.4937ZM170.128 38.8231L169.58 38.4774L169.578 38.4796L170.128 38.8231ZM167.301 41.3496L167.591 41.9293L167.594 41.9277L167.301 41.3496ZM164.8 37.1471L165.283 37.5788L165.29 37.5702L164.8 37.1471ZM161.598 37.1471L161.107 37.5703L161.114 37.5787L161.598 37.1471ZM163.199 41.6021C161.769 41.6021 160.501 41.3198 159.383 40.7684L158.81 41.9308C160.126 42.5801 161.594 42.8982 163.199 42.8982V41.6021ZM159.392 40.7732C158.287 40.2049 157.433 39.4382 156.815 38.4735L155.724 39.1727C156.473 40.3426 157.504 41.2602 158.8 41.926L159.392 40.7732ZM156.818 38.4774C156.204 37.5039 155.892 36.3996 155.892 35.1459H154.596C154.596 36.6272 154.968 37.9743 155.721 39.1688L156.818 38.4774ZM155.892 35.1459C155.892 33.8921 156.204 32.798 156.815 31.8433L155.724 31.1441C154.968 32.3241 154.596 33.6647 154.596 35.1459H155.892ZM156.818 31.8395C157.435 30.8604 158.286 30.0969 159.386 29.5469L158.806 28.3876C157.505 29.0382 156.471 29.9591 155.721 31.148L156.818 31.8395ZM159.383 29.5484C160.501 28.997 161.769 28.7147 163.199 28.7147V27.4186C161.594 27.4186 160.126 27.7367 158.81 28.386L159.383 29.5484ZM163.199 28.7147C164.647 28.7147 165.913 28.9975 167.011 29.5469L167.591 28.3876C166.288 27.7362 164.819 27.4186 163.199 27.4186V28.7147ZM167.014 29.5484C168.13 30.0986 168.977 30.8603 169.576 31.8334L170.68 31.1541C169.944 29.9592 168.907 29.0366 167.588 28.386L167.014 29.5484ZM169.582 31.8433C170.194 32.798 170.505 33.8921 170.505 35.1459H171.801C171.801 33.6647 171.429 32.3241 170.673 31.1441L169.582 31.8433ZM170.505 35.1459C170.505 36.3996 170.194 37.5039 169.58 38.4774L170.676 39.1688C171.429 37.9743 171.801 36.6272 171.801 35.1459H170.505ZM169.578 38.4796C168.979 39.4384 168.129 40.2032 167.008 40.7716L167.594 41.9277C168.908 41.2619 169.942 40.3424 170.677 39.1666L169.578 38.4796ZM167.011 40.77C165.913 41.3193 164.647 41.6021 163.199 41.6021V42.8982C164.819 42.8982 166.288 42.5806 167.591 41.9292L167.011 40.77ZM163.199 38.4956C164.025 38.4956 164.738 38.1894 165.283 37.5787L164.316 36.7155C164.028 37.0387 163.673 37.1995 163.199 37.1995V38.4956ZM165.29 37.5702C165.838 36.9347 166.073 36.0996 166.073 35.1459H164.777C164.777 35.8932 164.595 36.3922 164.309 36.724L165.29 37.5702ZM166.073 35.1459C166.073 34.1938 165.839 33.3607 165.283 32.7381L164.316 33.6013C164.594 33.9126 164.777 34.397 164.777 35.1459H166.073ZM165.283 32.7381C164.738 32.1275 164.025 31.8212 163.199 31.8212V33.1174C163.673 33.1174 164.028 33.2781 164.316 33.6013L165.283 32.7381ZM163.199 31.8212C162.372 31.8212 161.66 32.1275 161.114 32.7381L162.081 33.6013C162.37 33.2781 162.725 33.1174 163.199 33.1174V31.8212ZM161.114 32.7381C160.558 33.3607 160.324 34.1938 160.324 35.1459H161.62C161.62 34.397 161.803 33.9126 162.081 33.6013L161.114 32.7381ZM160.324 35.1459C160.324 36.0996 160.559 36.9347 161.107 37.5702L162.089 36.724C161.803 36.3922 161.62 35.8932 161.62 35.1459H160.324ZM161.114 37.5787C161.66 38.1894 162.372 38.4956 163.199 38.4956V37.1995C162.725 37.1995 162.37 37.0387 162.081 36.7155L161.114 37.5787ZM172.923 23.4389V22.7909H172.275V23.4389H172.923ZM178.576 23.4389H179.224V22.7909H178.576V23.4389ZM178.576 42V42.6481H179.224V42H178.576ZM172.923 42H172.275V42.6481H172.923V42ZM172.923 24.087H178.576V22.7909H172.923V24.087ZM177.928 23.4389V42H179.224V23.4389H177.928ZM178.576 41.3519H172.923V42.6481H178.576V41.3519ZM173.571 42V23.4389H172.275V42H173.571ZM182.983 41.8749L182.844 42.5078L182.983 41.8749ZM180.231 40.8993L179.633 40.6504L179.413 41.1783L179.91 41.462L180.231 40.8993ZM181.782 37.1721L182.118 36.6177L181.474 36.2276L181.184 36.9231L181.782 37.1721ZM184.034 38.0727L184.191 37.4439L184.191 37.4439L184.034 38.0727ZM187.911 38.2478L188.152 38.8495L188.161 38.8456L188.171 38.8415L187.911 38.2478ZM187.811 37.2972L187.646 37.924L187.654 37.9259L187.811 37.2972ZM186.235 37.047L186.158 37.6905L186.162 37.691L186.235 37.047ZM183.383 36.5467L183.211 37.1715L183.223 37.1747L183.383 36.5467ZM181.307 35.321L180.842 35.7728L180.849 35.7793L181.307 35.321ZM181.232 30.368L180.717 29.9753L180.717 29.9753L181.232 30.368ZM183.609 28.692L183.373 28.0884L183.369 28.0897L183.609 28.692ZM190.463 28.3669L190.333 29.002L190.346 29.0043L190.463 28.3669ZM193.014 29.1923L193.612 29.4413L193.84 28.8936L193.315 28.6183L193.014 29.1923ZM191.463 32.9196L191.148 33.4861L191.783 33.8385L192.062 33.1685L191.463 32.9196ZM186.16 33.0446L185.974 33.6654L185.988 33.6697L186.003 33.6734L186.16 33.0446ZM187.736 33.2948L187.813 32.6513L187.811 32.6511L187.736 33.2948ZM190.563 33.8201L190.386 34.4438L190.39 34.4447L190.563 33.8201ZM192.614 35.0458L192.149 35.4976L192.156 35.5041L192.614 35.0458ZM192.714 39.9488L193.229 40.3415L193.229 40.3415L192.714 39.9488ZM190.313 41.6248L190.548 42.2284L190.548 42.2284L190.313 41.6248ZM186.435 41.6021C185.315 41.6021 184.211 41.4821 183.123 41.2421L182.844 42.5078C184.024 42.7681 185.221 42.8982 186.435 42.8982V41.6021ZM183.123 41.2421C182.027 41.0004 181.178 40.6937 180.553 40.3367L179.91 41.462C180.686 41.9055 181.671 42.2492 182.844 42.5078L183.123 41.2421ZM180.83 41.1483L182.381 37.4211L181.184 36.9231L179.633 40.6504L180.83 41.1483ZM181.447 37.7265C182.146 38.1497 182.959 38.472 183.877 38.7014L184.191 37.4439C183.374 37.2397 182.686 36.9616 182.118 36.6177L181.447 37.7265ZM183.877 38.7014C184.79 38.9298 185.685 39.0459 186.56 39.0459V37.7498C185.801 37.7498 185.011 37.6491 184.191 37.4439L183.877 38.7014ZM186.56 39.0459C187.209 39.0459 187.774 39.0008 188.152 38.8495L187.67 37.6461C187.548 37.6949 187.213 37.7498 186.56 37.7498V39.0459ZM188.171 38.8415C188.577 38.6639 188.959 38.313 188.959 37.7475H187.663C187.663 37.7341 187.666 37.7128 187.674 37.6878C187.683 37.6626 187.695 37.6431 187.705 37.6303C187.724 37.6074 187.722 37.6232 187.651 37.654L188.171 38.8415ZM188.959 37.7475C188.959 37.4482 188.834 37.1837 188.62 36.9906C188.427 36.8169 188.188 36.7234 187.968 36.6685L187.654 37.9259C187.706 37.939 187.739 37.9515 187.756 37.9595C187.773 37.9676 187.768 37.9679 187.753 37.954C187.736 37.9386 187.71 37.9096 187.69 37.8655C187.67 37.8209 187.663 37.7786 187.663 37.7475H188.959ZM187.976 36.6705C187.61 36.5742 187.044 36.4868 186.308 36.4031L186.162 37.691C186.893 37.7741 187.378 37.8534 187.646 37.9239L187.976 36.6705ZM186.312 36.4036C185.213 36.2723 184.292 36.1098 183.544 35.9188L183.223 37.1747C184.043 37.3839 185.023 37.5549 186.158 37.6905L186.312 36.4036ZM183.556 35.9221C182.885 35.7365 182.29 35.3876 181.765 34.8628L180.849 35.7793C181.525 36.4552 182.314 36.9234 183.211 37.1713L183.556 35.9221ZM181.772 34.8693C181.341 34.4259 181.08 33.7511 181.08 32.7445H179.784C179.784 33.9725 180.106 35.0154 180.842 35.7728L181.772 34.8693ZM181.08 32.7445C181.08 32.0019 181.3 31.3479 181.748 30.7608L180.717 29.9753C180.097 30.789 179.784 31.7193 179.784 32.7445H181.08ZM181.748 30.7608C182.192 30.1772 182.876 29.68 183.848 29.2944L183.369 28.0897C182.24 28.5379 181.339 29.1581 180.717 29.9753L181.748 30.7608ZM183.844 29.2957C184.818 28.9154 186.01 28.7147 187.436 28.7147V27.4186C185.894 27.4186 184.534 27.6349 183.373 28.0884L183.844 29.2957ZM187.436 28.7147C188.428 28.7147 189.393 28.8107 190.333 29.0019L190.592 27.7318C189.564 27.5228 188.512 27.4186 187.436 27.4186V28.7147ZM190.346 29.0043C191.3 29.1792 192.085 29.437 192.713 29.7664L193.315 28.6183C192.543 28.2139 191.627 27.9214 190.579 27.7294L190.346 29.0043ZM192.416 28.9434L190.865 32.6706L192.062 33.1685L193.612 29.4413L192.416 28.9434ZM191.778 32.3531C190.477 31.6301 189.05 31.2709 187.511 31.2709V32.567C188.84 32.567 190.048 32.8749 191.148 33.4861L191.778 32.3531ZM187.511 31.2709C186.874 31.2709 186.322 31.3246 185.908 31.4702C185.698 31.5439 185.478 31.6566 185.305 31.8388C185.118 32.036 185.012 32.2889 185.012 32.5694H186.308C186.308 32.6331 186.278 32.6963 186.246 32.7309C186.227 32.7505 186.239 32.7276 186.337 32.693C186.54 32.6217 186.914 32.567 187.511 32.567V31.2709ZM185.012 32.5694C185.012 32.8672 185.135 33.1274 185.338 33.3206C185.524 33.4966 185.755 33.5998 185.974 33.6654L186.346 32.4239C186.293 32.4078 186.258 32.3931 186.239 32.3829C186.219 32.3727 186.22 32.3702 186.231 32.3809C186.244 32.3929 186.266 32.4181 186.283 32.4578C186.301 32.4984 186.308 32.5381 186.308 32.5694H185.012ZM186.003 33.6734C186.379 33.7675 186.94 33.8546 187.661 33.9385L187.811 32.6511C187.098 32.5682 186.608 32.4886 186.317 32.4159L186.003 33.6734ZM187.659 33.9383C188.755 34.0692 189.662 34.239 190.386 34.4437L190.739 33.1965C189.929 32.9676 188.951 32.7872 187.813 32.6513L187.659 33.9383ZM190.39 34.4447C191.059 34.6299 191.643 34.9772 192.149 35.4976L193.079 34.5941C192.417 33.9138 191.634 33.4439 190.735 33.1955L190.39 34.4447ZM192.156 35.5041C192.6 35.9481 192.866 36.6206 192.866 37.6224H194.162C194.162 36.3895 193.829 35.3443 193.072 34.5876L192.156 35.5041ZM192.866 37.6224C192.866 38.3257 192.649 38.9642 192.198 39.556L193.229 40.3415C193.846 39.5325 194.162 38.6201 194.162 37.6224H192.866ZM192.198 39.556C191.756 40.1373 191.066 40.6347 190.077 41.0211L190.548 42.2284C191.694 41.781 192.605 41.1611 193.229 40.3415L192.198 39.556ZM190.077 41.0211C189.105 41.4009 187.897 41.6021 186.435 41.6021V42.8982C188.009 42.8982 189.386 42.6825 190.548 42.2284L190.077 41.0211Z" fill="#21252D"/>
<path fill-rule="evenodd" clip-rule="evenodd" d="M28.422 6.54216C25.2753 8.18435 22.6891 9.57087 22.6989 9.62988C22.6989 9.77738 30.2609 13.6026 30.5264 13.5928C30.6444 13.5928 31.5294 13.1798 32.4931 12.6881L34.2434 11.7932L36.1511 12.7766L38.0588 13.7599L41.1859 12.3537C45.8863 10.2395 46.3779 10.0035 46.2993 9.93471C46.2009 9.82654 44.5096 8.92186 39.9272 6.51266C37.7146 5.35231 35.5709 4.2018 35.1579 3.97563C34.7449 3.73962 34.3516 3.56262 34.2828 3.56262C34.2139 3.56262 31.5687 4.89997 28.422 6.54216ZM14.606 13.7009L11.3216 15.3923V22.8264C11.3216 26.9171 11.3609 30.2605 11.4199 30.2605C11.4691 30.2605 13.0818 29.5623 15.0092 28.7068L18.5 27.1531V19.3158L20.2012 20.2402C21.5189 20.958 22.8268 21.666 24.1444 22.3839L26.3865 23.5934L27.3797 23.1411C28.009 22.8559 28.6285 22.5707 29.248 22.2855C29.7299 22.0594 30.9099 21.5284 31.8736 21.1055C32.8372 20.6827 33.7223 20.25 33.8501 20.1517C34.0173 20.0239 31.9719 18.893 26.2881 15.9725C22.0008 13.7698 18.3525 11.9801 18.1854 11.9899C18.0182 11.9997 16.4055 12.7667 14.606 13.7009ZM46.8794 14.1729C44.6472 15.1858 42.8182 16.0511 42.8182 16.1003C42.8182 16.1495 44.0376 16.8771 45.5224 17.713C47.0171 18.5488 48.2266 19.2765 48.2266 19.3355C48.2266 19.3945 46.9089 20.0337 45.2962 20.7515C43.6836 21.4792 39.6125 23.3181 36.2396 24.8423L24.9606 29.9458C22.1188 31.2242 19.5621 32.3845 19.2769 32.5124C13.485 35.1379 11.8821 35.8656 11.6658 35.9934C11.4494 36.1212 11.4003 36.8489 11.3609 40.5168L11.3118 44.8927L14.2421 46.3874L17.1725 47.8821L21.2436 46.0432C23.4758 45.0304 25.3146 44.1552 25.3146 44.0864C25.3146 44.0175 24.9016 43.752 24.4001 43.4865C23.8986 43.221 22.8563 42.631 22.0794 42.1787C21.3124 41.7263 20.5454 41.3133 20.3782 41.2543C20.2111 41.1953 20.0734 41.1068 20.0734 41.038C20.0734 40.979 21.8631 40.1235 24.0559 39.15C28.304 37.2521 31.5491 35.7869 38.521 32.6304C41.6382 31.2242 44.7554 29.8082 47.8825 28.402C50.626 27.163 53.812 25.7174 54.9625 25.1864L57.0571 24.2227L57.1062 19.7977L57.1554 15.3726L54.1857 13.8583C52.5533 13.0224 51.1472 12.3341 51.0783 12.3341C50.9997 12.3341 49.1116 13.1699 46.8794 14.1729ZM56.2704 30.1425C55.8279 30.3588 54.9625 30.762 54.343 31.0373C53.7235 31.3127 52.5435 31.8437 51.7273 32.2174L50.2425 32.8959L50.213 36.7801C50.1933 38.914 50.1146 40.6545 50.036 40.6446C49.859 40.6151 47.0761 39.1893 44.2736 37.6848C42.2479 36.6031 42.12 36.5539 41.648 36.7899C41.3727 36.9276 39.7305 37.6651 37.9998 38.4223C36.2691 39.1893 34.7941 39.858 34.7253 39.9268C34.6564 39.9858 38.1375 41.8738 42.474 44.1257L50.3408 48.2164L53.7039 46.4759C55.5526 45.522 57.1259 44.6469 57.1947 44.5387C57.3619 44.2929 57.3422 29.7197 57.1849 29.7393C57.1161 29.7492 56.7031 29.9262 56.2704 30.1425ZM37.6458 47.2429C37.0656 47.4887 36.4756 47.7444 35.8954 48.0001C34.1353 48.7573 34.4794 48.7868 32.3849 47.7444C30.9885 47.0462 30.3887 46.8397 30.1232 46.9381C29.9265 47.0167 28.245 47.7739 26.3766 48.6196C24.5181 49.4653 22.9251 50.1634 22.8464 50.1634C22.0598 50.1634 23.3676 50.9403 28.3827 53.4675L34.2631 56.4372L36.7411 55.2178C38.0981 54.5492 40.8515 53.202 42.8379 52.2285C44.8341 51.255 46.4369 50.4388 46.4074 50.3994C46.3779 50.3699 44.7062 49.5144 42.6904 48.4917L39.0323 46.6431L37.6458 47.2429Z" fill="white"/>
</g>
<defs>
<clipPath id="clip0_29_364">
<rect width="207" height="60" fill="white"/>
</clipPath>
</defs>
</svg>
