<svg width="227" height="60" viewBox="0 0 227 60" fill="none" xmlns="http://www.w3.org/2000/svg">
<path d="M80.2091 42.4002C78.358 42.4002 76.6903 42.0167 75.2061 41.2496C73.7219 40.4657 72.5545 39.3818 71.704 37.9976C70.8702 36.5968 70.4533 35.0125 70.4533 33.2448C70.4533 31.477 70.8702 29.9011 71.704 28.5169C72.5545 27.1161 73.7219 26.0321 75.2061 25.265C76.6903 24.4812 78.358 24.0893 80.2091 24.0893C81.9101 24.0893 83.4277 24.3895 84.7618 24.9898C86.096 25.5902 87.1966 26.4574 88.0638 27.5914L84.3366 30.9184C83.2526 29.5509 81.9768 28.8672 80.5093 28.8672C79.2752 28.8672 78.283 29.2674 77.5325 30.0679C76.7821 30.8517 76.4068 31.9106 76.4068 33.2448C76.4068 34.5789 76.7821 35.6462 77.5325 36.4467C78.283 37.2305 79.2752 37.6224 80.5093 37.6224C81.9768 37.6224 83.2526 36.9386 84.3366 35.5712L88.0638 38.8981C87.1966 40.0322 86.096 40.8993 84.7618 41.4997C83.4277 42.1001 81.9101 42.4002 80.2091 42.4002ZM96.4561 42.2501C94.9385 42.2501 93.5711 41.95 92.3537 41.3496C91.1529 40.7326 90.2107 39.8904 89.527 38.8231C88.8432 37.7391 88.5014 36.5134 88.5014 35.1459C88.5014 33.7784 88.8432 32.561 89.527 31.4937C90.2107 30.4097 91.1529 29.5676 92.3537 28.9672C93.5711 28.3669 94.9385 28.0667 96.4561 28.0667C97.9904 28.0667 99.3579 28.3669 100.559 28.9672C101.776 29.5676 102.718 30.4097 103.385 31.4937C104.069 32.561 104.411 33.7784 104.411 35.1459C104.411 36.5134 104.069 37.7391 103.385 38.8231C102.718 39.8904 101.776 40.7326 100.559 41.3496C99.3579 41.95 97.9904 42.2501 96.4561 42.2501ZM96.4561 37.8475C97.1065 37.8475 97.6402 37.614 98.0571 37.1471C98.474 36.6635 98.6824 35.9964 98.6824 35.1459C98.6824 34.2954 98.474 33.6367 98.0571 33.1697C97.6402 32.7028 97.1065 32.4693 96.4561 32.4693C95.8057 32.4693 95.2721 32.7028 94.8552 33.1697C94.4382 33.6367 94.2298 34.2954 94.2298 35.1459C94.2298 35.9964 94.4382 36.6635 94.8552 37.1471C95.2721 37.614 95.8057 37.8475 96.4561 37.8475ZM106.18 28.3168H111.834V42H106.18V28.3168ZM109.007 27.2162C107.99 27.2162 107.164 26.9493 106.53 26.4157C105.913 25.8654 105.605 25.1733 105.605 24.3394C105.605 23.5056 105.913 22.8219 106.53 22.2882C107.164 21.7379 107.99 21.4627 109.007 21.4627C110.041 21.4627 110.866 21.7212 111.483 22.2382C112.1 22.7552 112.409 23.4222 112.409 24.2394C112.409 25.1066 112.1 25.8237 111.483 26.3907C110.866 26.941 110.041 27.2162 109.007 27.2162ZM123.845 28.0667C125.529 28.0667 126.88 28.5753 127.898 29.5926C128.932 30.6099 129.448 32.1441 129.448 34.1953V42H123.795V35.1709C123.795 33.6033 123.236 32.8195 122.119 32.8195C121.485 32.8195 120.968 33.0446 120.568 33.4949C120.185 33.9285 119.993 34.6206 119.993 35.5712V42H114.339V28.3168H119.718V29.6676C120.251 29.134 120.868 28.7337 121.569 28.4669C122.269 28.2001 123.028 28.0667 123.845 28.0667ZM147.432 28.3168V39.2734C147.432 41.8749 146.707 43.8261 145.256 45.1269C143.822 46.4443 141.77 47.103 139.102 47.103C137.735 47.103 136.459 46.953 135.275 46.6528C134.091 46.3693 133.082 45.9524 132.248 45.402L134.149 41.5497C134.683 41.95 135.358 42.2752 136.175 42.5253C136.993 42.7755 137.776 42.9005 138.527 42.9005C139.661 42.9005 140.486 42.6587 141.003 42.1751C141.52 41.6915 141.779 40.9827 141.779 40.0488V39.7987C140.928 40.7659 139.669 41.2496 138.001 41.2496C136.834 41.2496 135.742 40.9827 134.724 40.4491C133.724 39.8987 132.923 39.1233 132.323 38.1227C131.723 37.1054 131.423 35.9464 131.423 34.6456C131.423 33.3448 131.723 32.1941 132.323 31.1935C132.923 30.1929 133.724 29.4258 134.724 28.8922C135.742 28.3418 136.834 28.0667 138.001 28.0667C139.869 28.0667 141.22 28.667 142.054 29.8678V28.3168H147.432ZM139.502 36.8469C140.169 36.8469 140.72 36.6468 141.153 36.2466C141.604 35.8296 141.829 35.296 141.829 34.6456C141.829 33.9952 141.604 33.4699 141.153 33.0697C140.72 32.6694 140.169 32.4693 139.502 32.4693C138.819 32.4693 138.252 32.6694 137.801 33.0697C137.368 33.4699 137.151 33.9952 137.151 34.6456C137.151 35.296 137.376 35.8296 137.826 36.2466C138.277 36.6468 138.835 36.8469 139.502 36.8469ZM164.491 35.1459C164.491 35.2293 164.466 35.6712 164.416 36.4717H154.91C155.11 36.9887 155.444 37.3889 155.911 37.6724C156.378 37.9392 156.961 38.0727 157.662 38.0727C158.262 38.0727 158.762 37.9976 159.163 37.8475C159.579 37.6974 160.03 37.4389 160.513 37.0721L163.465 40.0488C162.131 41.5164 160.138 42.2501 157.487 42.2501C155.836 42.2501 154.385 41.95 153.134 41.3496C151.883 40.7326 150.916 39.8821 150.232 38.7981C149.548 37.7141 149.207 36.4967 149.207 35.1459C149.207 33.7784 149.54 32.561 150.207 31.4937C150.891 30.4097 151.816 29.5676 152.984 28.9672C154.168 28.3669 155.494 28.0667 156.961 28.0667C158.345 28.0667 159.604 28.3418 160.738 28.8922C161.889 29.4425 162.798 30.2513 163.465 31.3186C164.149 32.3859 164.491 33.6617 164.491 35.1459ZM157.011 31.919C156.428 31.919 155.944 32.0774 155.56 32.3943C155.177 32.7111 154.927 33.1614 154.81 33.7451H159.213C159.096 33.1781 158.846 32.7361 158.462 32.4193C158.079 32.0857 157.595 31.919 157.011 31.919ZM173.629 42.2501C172.078 42.2501 170.686 41.95 169.452 41.3496C168.234 40.7493 167.275 39.9071 166.575 38.8231C165.891 37.7391 165.549 36.5134 165.549 35.1459C165.549 33.7784 165.891 32.561 166.575 31.4937C167.275 30.4097 168.234 29.5676 169.452 28.9672C170.686 28.3669 172.078 28.0667 173.629 28.0667C175.297 28.0667 176.723 28.4252 177.907 29.1423C179.091 29.8594 179.908 30.8517 180.358 32.1191L175.981 34.2704C175.447 33.0697 174.655 32.4693 173.604 32.4693C172.937 32.4693 172.378 32.7028 171.928 33.1697C171.495 33.6367 171.278 34.2954 171.278 35.1459C171.278 36.0131 171.495 36.6802 171.928 37.1471C172.378 37.614 172.937 37.8475 173.604 37.8475C174.655 37.8475 175.447 37.2472 175.981 36.0464L180.358 38.1977C179.908 39.4652 179.091 40.4574 177.907 41.1745C176.723 41.8916 175.297 42.2501 173.629 42.2501ZM188.219 37.7975L187.318 38.7731V42H181.665V23.4389H187.318V32.2942L191.246 28.3168H197.925L192.271 34.2454L198.375 42H191.546L188.219 37.7975ZM206.092 42.2501C204.574 42.2501 203.207 41.95 201.989 41.3496C200.789 40.7326 199.847 39.8904 199.163 38.8231C198.479 37.7391 198.137 36.5134 198.137 35.1459C198.137 33.7784 198.479 32.561 199.163 31.4937C199.847 30.4097 200.789 29.5676 201.989 28.9672C203.207 28.3669 204.574 28.0667 206.092 28.0667C207.626 28.0667 208.994 28.3669 210.194 28.9672C211.412 29.5676 212.354 30.4097 213.021 31.4937C213.705 32.561 214.047 33.7784 214.047 35.1459C214.047 36.5134 213.705 37.7391 213.021 38.8231C212.354 39.8904 211.412 40.7326 210.194 41.3496C208.994 41.95 207.626 42.2501 206.092 42.2501ZM206.092 37.8475C206.742 37.8475 207.276 37.614 207.693 37.1471C208.11 36.6635 208.318 35.9964 208.318 35.1459C208.318 34.2954 208.11 33.6367 207.693 33.1697C207.276 32.7028 206.742 32.4693 206.092 32.4693C205.442 32.4693 204.908 32.7028 204.491 33.1697C204.074 33.6367 203.866 34.2954 203.866 35.1459C203.866 35.9964 204.074 36.6635 204.491 37.1471C204.908 37.614 205.442 37.8475 206.092 37.8475Z" fill="white"/>
<path d="M75.2061 41.2496L74.9035 41.8226L74.9086 41.8253L75.2061 41.2496ZM71.704 37.9976L71.1471 38.3291L71.1519 38.3369L71.704 37.9976ZM71.704 28.5169L71.1501 28.1806L71.1489 28.1825L71.704 28.5169ZM75.2061 25.265L75.5037 25.8407L75.5087 25.8381L75.2061 25.265ZM84.7618 24.9898L84.4959 25.5808L84.4959 25.5808L84.7618 24.9898ZM88.0638 27.5914L88.4954 28.0749L88.9435 27.6749L88.5786 27.1977L88.0638 27.5914ZM84.3366 30.9184L83.8287 31.3209L84.2555 31.8594L84.7681 31.4018L84.3366 30.9184ZM77.5325 30.0679L78.0006 30.5161L78.0053 30.5111L77.5325 30.0679ZM77.5325 36.4467L77.0597 36.8899L77.0644 36.8949L77.5325 36.4467ZM84.3366 35.5712L84.7681 35.0877L84.2555 34.6301L83.8287 35.1686L84.3366 35.5712ZM88.0638 38.8981L88.5786 39.2918L88.9435 38.8147L88.4954 38.4147L88.0638 38.8981ZM84.7618 41.4997L84.4959 40.9087L84.4959 40.9087L84.7618 41.4997ZM80.2091 41.7522C78.4502 41.7522 76.8863 41.3885 75.5037 40.6738L74.9086 41.8253C76.4943 42.6449 78.2658 43.0483 80.2091 43.0483V41.7522ZM75.5087 40.6765C74.1236 39.945 73.0439 38.9403 72.2562 37.6583L71.1519 38.3369C72.0652 39.8233 73.3202 40.9865 74.9035 41.8226L75.5087 40.6765ZM72.2609 37.6661C71.4917 36.374 71.1013 34.906 71.1013 33.2448H69.8052C69.8052 35.119 70.2486 36.8196 71.1472 38.3291L72.2609 37.6661ZM71.1013 33.2448C71.1013 31.5835 71.4918 30.1252 72.2591 28.8513L71.1489 28.1825C70.2486 29.677 69.8052 31.3706 69.8052 33.2448H71.1013ZM72.258 28.8533C73.0454 27.5563 74.1231 26.5542 75.5037 25.8407L74.9086 24.6893C73.3207 25.51 72.0637 26.6759 71.1501 28.1806L72.258 28.8533ZM75.5087 25.8381C76.8904 25.1084 78.4524 24.7374 80.2091 24.7374V23.4412C78.2636 23.4412 76.4903 23.854 74.9035 24.6919L75.5087 25.8381ZM80.2091 24.7374C81.8332 24.7374 83.2579 25.0237 84.4959 25.5808L85.0278 24.3989C83.5975 23.7552 81.987 23.4412 80.2091 23.4412V24.7374ZM84.4959 25.5808C85.7345 26.1382 86.7488 26.9386 87.549 27.9851L88.5786 27.1977C87.6444 25.9761 86.4574 25.0422 85.0278 24.3989L84.4959 25.5808ZM87.6322 27.1079L83.905 30.4349L84.7681 31.4018L88.4954 28.0749L87.6322 27.1079ZM84.8444 30.5158C83.6635 29.026 82.213 28.2191 80.5093 28.2191V29.5152C81.7406 29.5152 82.8417 30.0758 83.8287 31.3209L84.8444 30.5158ZM80.5093 28.2191C79.1207 28.2191 77.9486 28.6765 77.0597 29.6246L78.0053 30.5111C78.6173 29.8583 79.4297 29.5152 80.5093 29.5152V28.2191ZM77.0644 29.6197C76.1732 30.5505 75.7588 31.7841 75.7588 33.2448H77.0549C77.0549 32.0372 77.3909 31.1529 78.0006 30.516L77.0644 29.6197ZM75.7588 33.2448C75.7588 34.706 76.1734 35.9445 77.0597 36.8899L78.0053 36.0034C77.3907 35.3479 77.0549 34.4518 77.0549 33.2448H75.7588ZM77.0644 36.8949C77.9543 37.8243 79.125 38.2704 80.5093 38.2704V36.9743C79.4254 36.9743 78.6116 36.6366 78.0006 35.9985L77.0644 36.8949ZM80.5093 38.2704C82.213 38.2704 83.6635 37.4636 84.8444 35.9737L83.8287 35.1686C82.8417 36.4137 81.7406 36.9743 80.5093 36.9743V38.2704ZM83.905 36.0546L87.6322 39.3816L88.4954 38.4147L84.7681 35.0877L83.905 36.0546ZM87.549 38.5045C86.7488 39.5509 85.7345 40.3513 84.4959 40.9087L85.0278 42.0907C86.4574 41.4473 87.6444 40.5134 88.5786 39.2918L87.549 38.5045ZM84.4959 40.9087C83.2579 41.4658 81.8332 41.7522 80.2091 41.7522V43.0483C81.987 43.0483 83.5975 42.7343 85.0278 42.0907L84.4959 40.9087ZM92.3537 41.3496L92.0574 41.9261L92.067 41.9308L92.3537 41.3496ZM89.527 38.8231L88.9788 39.1689L88.9813 39.1727L89.527 38.8231ZM89.527 31.4937L90.0727 31.8433L90.0751 31.8395L89.527 31.4937ZM92.3537 28.9672L92.067 28.386L92.0638 28.3876L92.3537 28.9672ZM100.559 28.9672L100.269 29.5469L100.272 29.5484L100.559 28.9672ZM103.385 31.4937L102.833 31.8334L102.84 31.8433L103.385 31.4937ZM103.385 38.8231L102.837 38.4774L102.836 38.4796L103.385 38.8231ZM100.559 41.3496L100.848 41.9293L100.852 41.9277L100.559 41.3496ZM98.0571 37.1471L98.5406 37.5788L98.5479 37.5702L98.0571 37.1471ZM94.8552 37.1471L94.3642 37.5703L94.3718 37.5787L94.8552 37.1471ZM96.4561 41.6021C95.0261 41.6021 93.7585 41.3198 92.6403 40.7684L92.067 41.9308C93.3836 42.5801 94.851 42.8982 96.4561 42.8982V41.6021ZM92.6499 40.7732C91.544 40.2049 90.6907 39.4382 90.0727 38.4735L88.9813 39.1727C89.7308 40.3426 90.7619 41.2602 92.0575 41.926L92.6499 40.7732ZM90.0751 38.4774C89.4611 37.5039 89.1494 36.3996 89.1494 35.1459H87.8533C87.8533 36.6272 88.2254 37.9743 88.9789 39.1688L90.0751 38.4774ZM89.1494 35.1459C89.1494 33.8921 89.4611 32.798 90.0727 31.8433L88.9813 31.1441C88.2254 32.3241 87.8533 33.6647 87.8533 35.1459H89.1494ZM90.0751 31.8395C90.6927 30.8604 91.5434 30.0969 92.6435 29.5469L92.0638 28.3876C90.7625 29.0382 89.7288 29.9591 88.9789 31.148L90.0751 31.8395ZM92.6403 29.5484C93.7585 28.997 95.0261 28.7147 96.4561 28.7147V27.4186C94.851 27.4186 93.3836 27.7367 92.067 28.386L92.6403 29.5484ZM96.4561 28.7147C97.9042 28.7147 99.1701 28.9975 100.269 29.5469L100.848 28.3876C99.5456 27.7362 98.0765 27.4186 96.4561 27.4186V28.7147ZM100.272 29.5484C101.388 30.0986 102.235 30.8603 102.833 31.8334L103.937 31.1541C103.202 29.9592 102.164 29.0366 100.845 28.386L100.272 29.5484ZM102.84 31.8433C103.451 32.798 103.763 33.8921 103.763 35.1459H105.059C105.059 33.6647 104.687 32.3241 103.931 31.1441L102.84 31.8433ZM103.763 35.1459C103.763 36.3996 103.451 37.5039 102.837 38.4774L103.933 39.1688C104.687 37.9743 105.059 36.6272 105.059 35.1459H103.763ZM102.836 38.4796C102.236 39.4384 101.387 40.2032 100.266 40.7716L100.852 41.9277C102.165 41.2619 103.2 40.3424 103.935 39.1666L102.836 38.4796ZM100.269 40.77C99.1701 41.3193 97.9042 41.6021 96.4561 41.6021V42.8982C98.0765 42.8982 99.5456 42.5806 100.848 41.9292L100.269 40.77ZM96.4561 38.4956C97.2829 38.4956 97.9953 38.1894 98.5405 37.5787L97.5737 36.7155C97.285 37.0387 96.9301 37.1995 96.4561 37.1995V38.4956ZM98.5479 37.5702C99.0958 36.9347 99.3305 36.0996 99.3305 35.1459H98.0344C98.0344 35.8932 97.8522 36.3922 97.5662 36.724L98.5479 37.5702ZM99.3305 35.1459C99.3305 34.1938 99.0964 33.3607 98.5405 32.7381L97.5737 33.6013C97.8516 33.9126 98.0344 34.397 98.0344 35.1459H99.3305ZM98.5405 32.7381C97.9953 32.1275 97.2829 31.8212 96.4561 31.8212V33.1174C96.9301 33.1174 97.285 33.2781 97.5737 33.6013L98.5405 32.7381ZM96.4561 31.8212C95.6293 31.8212 94.917 32.1275 94.3718 32.7381L95.3386 33.6013C95.6272 33.2781 95.9822 33.1174 96.4561 33.1174V31.8212ZM94.3718 32.7381C93.8158 33.3607 93.5817 34.1938 93.5817 35.1459H94.8778C94.8778 34.397 95.0607 33.9126 95.3386 33.6013L94.3718 32.7381ZM93.5817 35.1459C93.5817 36.0996 93.8165 36.9347 94.3643 37.5702L95.346 36.724C95.06 36.3922 94.8778 35.8932 94.8778 35.1459H93.5817ZM94.3718 37.5787C94.917 38.1894 95.6293 38.4956 96.4561 38.4956V37.1995C95.9822 37.1995 95.6272 37.0387 95.3386 36.7155L94.3718 37.5787ZM106.18 28.3168V27.6688H105.532V28.3168H106.18ZM111.834 28.3168H112.482V27.6688H111.834V28.3168ZM111.834 42V42.6481H112.482V42H111.834ZM106.18 42H105.532V42.6481H106.18V42ZM106.53 26.4157L106.099 26.8993L106.106 26.9055L106.113 26.9114L106.53 26.4157ZM106.53 22.2882L106.954 22.7784L106.955 22.7775L106.53 22.2882ZM111.483 22.2382L111.067 22.7349L111.067 22.7349L111.483 22.2382ZM111.483 26.3907L111.915 26.8744L111.922 26.8679L111.483 26.3907ZM106.18 28.9649H111.834V27.6688H106.18V28.9649ZM111.186 28.3168V42H112.482V28.3168H111.186ZM111.834 41.3519H106.18V42.6481H111.834V41.3519ZM106.828 42V28.3168H105.532V42H106.828ZM109.007 26.5681C108.106 26.5681 107.44 26.3343 106.948 25.92L106.113 26.9114C106.889 27.5644 107.873 27.8642 109.007 27.8642V26.5681ZM106.962 25.932C106.484 25.5059 106.253 24.9903 106.253 24.3394H104.957C104.957 25.3562 105.343 26.2248 106.099 26.8993L106.962 25.932ZM106.253 24.3394C106.253 23.689 106.483 23.1859 106.954 22.7784L106.107 21.7981C105.344 22.4579 104.957 23.3222 104.957 24.3394H106.253ZM106.955 22.7775C107.448 22.3502 108.111 22.1108 109.007 22.1108V20.8147C107.868 20.8147 106.881 21.1256 106.106 21.7989L106.955 22.7775ZM109.007 22.1108C109.933 22.1108 110.597 22.3407 111.067 22.7349L111.9 21.7414C111.136 21.1017 110.149 20.8147 109.007 20.8147V22.1108ZM111.067 22.7349C111.535 23.1266 111.761 23.6106 111.761 24.2394H113.057C113.057 23.2339 112.666 22.3837 111.9 21.7414L111.067 22.7349ZM111.761 24.2394C111.761 24.9324 111.523 25.474 111.045 25.9135L111.922 26.8679C112.678 26.1734 113.057 25.2808 113.057 24.2394H111.761ZM111.052 25.907C110.581 26.3268 109.923 26.5681 109.007 26.5681V27.8642C110.159 27.8642 111.151 27.5552 111.915 26.8743L111.052 25.907ZM127.898 29.5926L127.439 30.0508L127.443 30.0545L127.898 29.5926ZM129.448 42V42.6481H130.097V42H129.448ZM123.795 42H123.147V42.6481H123.795V42ZM120.568 33.4949L120.084 33.0644L120.083 33.0655L120.568 33.4949ZM119.993 42V42.6481H120.641V42H119.993ZM114.339 42H113.691V42.6481H114.339V42ZM114.339 28.3168V27.6688H113.691V28.3168H114.339ZM119.718 28.3168H120.366V27.6688H119.718V28.3168ZM119.718 29.6676H119.07V31.2322L120.176 30.1259L119.718 29.6676ZM121.569 28.4669L121.799 29.0725L121.799 29.0725L121.569 28.4669ZM123.845 28.7147C125.389 28.7147 126.564 29.1758 127.439 30.0508L128.356 29.1343C127.196 27.9748 125.67 27.4186 123.845 27.4186V28.7147ZM127.443 30.0545C128.309 30.9069 128.8 32.2449 128.8 34.1953H130.097C130.097 32.0433 129.554 30.3128 128.352 29.1306L127.443 30.0545ZM128.8 34.1953V42H130.097V34.1953H128.8ZM129.448 41.3519H123.795V42.6481H129.448V41.3519ZM124.443 42V35.1709H123.147V42H124.443ZM124.443 35.1709C124.443 34.3297 124.297 33.5826 123.904 33.0312C123.482 32.4395 122.849 32.1715 122.119 32.1715V33.4676C122.507 33.4676 122.711 33.5914 122.848 33.7835C123.014 34.016 123.147 34.4445 123.147 35.1709H124.443ZM122.119 32.1715C121.311 32.1715 120.614 32.4678 120.084 33.0644L121.053 33.9255C121.323 33.6215 121.66 33.4676 122.119 33.4676V32.1715ZM120.083 33.0655C119.545 33.6734 119.345 34.5574 119.345 35.5712H120.641C120.641 34.6838 120.824 34.1837 121.054 33.9243L120.083 33.0655ZM119.345 35.5712V42H120.641V35.5712H119.345ZM119.993 41.3519H114.339V42.6481H119.993V41.3519ZM114.988 42V28.3168H113.691V42H114.988ZM114.339 28.9649H119.718V27.6688H114.339V28.9649ZM119.07 28.3168V29.6676H120.366V28.3168H119.07ZM120.176 30.1259C120.645 29.6564 121.185 29.3066 121.799 29.0725L121.338 27.8613C120.552 28.1609 119.857 28.6116 119.259 29.2094L120.176 30.1259ZM121.799 29.0725C122.42 28.8362 123.1 28.7147 123.845 28.7147V27.4186C122.956 27.4186 122.119 27.564 121.338 27.8613L121.799 29.0725ZM147.432 28.3168H148.08V27.6688H147.432V28.3168ZM145.256 45.1269L144.823 44.6443L144.817 44.6496L145.256 45.1269ZM135.275 46.6528L135.434 46.0245L135.426 46.0225L135.275 46.6528ZM132.248 45.402L131.667 45.1152L131.414 45.628L131.891 45.9429L132.248 45.402ZM134.149 41.5497L134.538 41.0313L133.913 40.5629L133.568 41.2629L134.149 41.5497ZM136.175 42.5253L135.986 43.145L135.986 43.145L136.175 42.5253ZM141.003 42.1751L140.561 41.7018L140.561 41.7018L141.003 42.1751ZM141.779 39.7987H142.427V38.0803L141.292 39.3708L141.779 39.7987ZM134.724 40.4491L134.412 41.017L134.423 41.023L134.724 40.4491ZM132.323 38.1227L131.765 38.4521L131.767 38.4561L132.323 38.1227ZM132.323 31.1935L132.879 31.527L132.879 31.527L132.323 31.1935ZM134.724 28.8922L135.029 29.464L135.033 29.4622L134.724 28.8922ZM142.054 29.8678L141.522 30.2374L142.702 31.9371V29.8678H142.054ZM142.054 28.3168V27.6688H141.406V28.3168H142.054ZM141.153 36.2466L141.593 36.7228L141.594 36.7221L141.153 36.2466ZM141.153 33.0697L140.714 33.5459L140.723 33.554L141.153 33.0697ZM137.801 33.0697L137.371 32.5852L137.362 32.5935L137.801 33.0697ZM137.826 36.2466L137.386 36.7222L137.396 36.7309L137.826 36.2466ZM146.784 28.3168V39.2734H148.08V28.3168H146.784ZM146.784 39.2734C146.784 41.7556 146.095 43.504 144.823 44.6443L145.688 45.6094C147.318 44.1482 148.08 41.9942 148.08 39.2734H146.784ZM144.817 44.6496C143.541 45.8221 141.669 46.455 139.102 46.455V47.7511C141.872 47.7511 144.102 47.0665 145.694 45.6041L144.817 44.6496ZM139.102 46.455C137.782 46.455 136.56 46.3101 135.434 46.0246L135.116 47.281C136.357 47.5958 137.687 47.7511 139.102 47.7511V46.455ZM135.426 46.0225C134.3 45.7529 133.364 45.362 132.605 44.8612L131.891 45.9429C132.8 46.5428 133.882 46.9857 135.124 47.283L135.426 46.0225ZM132.829 45.6888L134.73 41.8365L133.568 41.2629L131.667 45.1152L132.829 45.6888ZM133.76 42.0682C134.368 42.5241 135.116 42.8788 135.986 43.145L136.365 41.9056C135.6 41.6716 134.997 41.3759 134.538 41.0313L133.76 42.0682ZM135.986 43.145C136.856 43.4114 137.704 43.5486 138.527 43.5486V42.2525C137.849 42.2525 137.129 42.1395 136.365 41.9056L135.986 43.145ZM138.527 43.5486C139.731 43.5486 140.754 43.2954 141.446 42.6484L140.561 41.7018C140.218 42.0221 139.591 42.2525 138.527 42.2525V43.5486ZM141.446 42.6484C142.132 42.0065 142.427 41.1021 142.427 40.0488H141.131C141.131 40.8634 140.908 41.3765 140.561 41.7018L141.446 42.6484ZM142.427 40.0488V39.7987H141.131V40.0488H142.427ZM141.292 39.3708C140.599 40.1594 139.541 40.6015 138.001 40.6015V41.8976C139.797 41.8976 141.258 41.3724 142.265 40.2266L141.292 39.3708ZM138.001 40.6015C136.937 40.6015 135.948 40.3593 135.026 39.8752L134.423 41.023C135.535 41.6061 136.731 41.8976 138.001 41.8976V40.6015ZM135.037 39.8812C134.139 39.3874 133.421 38.6938 132.879 37.7893L131.767 38.4561C132.425 39.5527 133.309 40.4101 134.412 41.0169L135.037 39.8812ZM132.881 37.7933C132.346 36.8857 132.071 35.8426 132.071 34.6456H130.774C130.774 36.0502 131.1 37.3251 131.765 38.4521L132.881 37.7933ZM132.071 34.6456C132.071 33.4484 132.346 32.4156 132.879 31.527L131.767 30.8601C131.1 31.9727 130.774 33.2412 130.774 34.6456H132.071ZM132.879 31.527C133.421 30.624 134.136 29.9407 135.029 29.464L134.42 28.3204C133.312 28.9109 132.426 29.7619 131.767 30.8601L132.879 31.527ZM135.033 29.4622C135.955 28.9636 136.941 28.7147 138.001 28.7147V27.4186C136.727 27.4186 135.529 27.7201 134.416 28.3222L135.033 29.4622ZM138.001 28.7147C139.723 28.7147 140.842 29.2589 141.522 30.2374L142.586 29.4981C141.598 28.0751 140.016 27.4186 138.001 27.4186V28.7147ZM142.702 29.8678V28.3168H141.406V29.8678H142.702ZM142.054 28.9649H147.432V27.6688H142.054V28.9649ZM139.502 37.495C140.309 37.495 141.024 37.2481 141.593 36.7228L140.714 35.7704C140.416 36.0455 140.029 36.1989 139.502 36.1989V37.495ZM141.594 36.7221C142.185 36.1745 142.477 35.4644 142.477 34.6456H141.181C141.181 35.1276 141.022 35.4848 140.713 35.771L141.594 36.7221ZM142.477 34.6456C142.477 33.8267 142.184 33.1191 141.584 32.5853L140.723 33.554C141.023 33.8207 141.181 34.1637 141.181 34.6456H142.477ZM141.593 32.5935C141.024 32.0681 140.309 31.8212 139.502 31.8212V33.1174C140.029 33.1174 140.416 33.2707 140.714 33.5459L141.593 32.5935ZM139.502 31.8212C138.683 31.8212 137.956 32.0653 137.371 32.5853L138.232 33.554C138.547 33.2735 138.954 33.1174 139.502 33.1174V31.8212ZM137.362 32.5935C136.781 33.1297 136.503 33.8349 136.503 34.6456H137.799C137.799 34.1555 137.955 33.8101 138.241 33.5459L137.362 32.5935ZM136.503 34.6456C136.503 35.4644 136.795 36.1745 137.386 36.7221L138.267 35.771C137.957 35.4848 137.799 35.1276 137.799 34.6456H136.503ZM137.396 36.7309C137.978 37.2482 138.695 37.495 139.502 37.495V36.1989C138.976 36.1989 138.576 36.0454 138.257 35.7622L137.396 36.7309ZM164.416 36.4717V37.1198H165.024L165.062 36.5121L164.416 36.4717ZM154.91 36.4717V35.8236H153.964L154.306 36.7056L154.91 36.4717ZM155.911 37.6724L155.574 38.2264L155.582 38.2308L155.589 38.2351L155.911 37.6724ZM159.163 37.8475L158.943 37.2377L158.935 37.2407L159.163 37.8475ZM160.513 37.0721L160.974 36.6157L160.574 36.2127L160.122 36.5558L160.513 37.0721ZM163.465 40.0488L163.945 40.4848L164.359 40.0295L163.925 39.5925L163.465 40.0488ZM153.134 41.3496L152.847 41.9308L152.853 41.9338L153.134 41.3496ZM150.232 38.7981L150.78 38.4523L150.232 38.7981ZM150.207 31.4937L149.659 31.148L149.658 31.1503L150.207 31.4937ZM152.984 28.9672L152.691 28.3892L152.687 28.3909L152.984 28.9672ZM160.738 28.8922L160.456 29.4752L160.459 29.4768L160.738 28.8922ZM163.465 31.3186L162.916 31.6621L162.919 31.6682L163.465 31.3186ZM155.56 32.3943L155.973 32.8939L155.973 32.8939L155.56 32.3943ZM154.81 33.7451L154.174 33.618L154.019 34.3931H154.81V33.7451ZM159.213 33.7451V34.3931H160.008L159.847 33.6144L159.213 33.7451ZM158.462 32.4193L158.037 32.9083L158.043 32.9137L158.049 32.9189L158.462 32.4193ZM163.843 35.1459C163.843 35.144 163.843 35.1503 163.842 35.1706C163.841 35.1888 163.84 35.2134 163.839 35.2448C163.836 35.3077 163.831 35.3936 163.825 35.5033C163.813 35.7223 163.794 36.0315 163.769 36.4313L165.062 36.5121C165.111 35.7289 165.139 35.2558 165.139 35.1459H163.843ZM164.416 35.8236H154.91V37.1198H164.416V35.8236ZM154.306 36.7056C154.557 37.3538 154.983 37.8675 155.574 38.2264L156.247 37.1185C155.904 36.9103 155.664 36.6236 155.514 36.2378L154.306 36.7056ZM155.589 38.2351C156.179 38.5723 156.882 38.7207 157.662 38.7207V37.4246C157.041 37.4246 156.576 37.3062 156.232 37.1097L155.589 38.2351ZM157.662 38.7207C158.311 38.7207 158.894 38.6403 159.39 38.4543L158.935 37.2407C158.63 37.3549 158.213 37.4246 157.662 37.4246V38.7207ZM159.382 38.4573C159.879 38.2784 160.387 37.9813 160.905 37.5884L160.122 36.5558C159.672 36.8965 159.28 37.1164 158.943 37.2378L159.382 38.4573ZM160.053 37.5284L163.005 40.5051L163.925 39.5925L160.974 36.6157L160.053 37.5284ZM162.986 39.6129C161.812 40.904 160.02 41.6021 157.487 41.6021V42.8982C160.256 42.8982 162.45 42.1287 163.945 40.4848L162.986 39.6129ZM157.487 41.6021C155.914 41.6021 154.563 41.3165 153.414 40.7654L152.853 41.9338C154.207 42.5835 155.757 42.8982 157.487 42.8982V41.6021ZM153.421 40.7684C152.267 40.1994 151.395 39.4264 150.78 38.4523L149.684 39.1438C150.437 40.3377 151.499 41.2657 152.847 41.9308L153.421 40.7684ZM150.78 38.4523C150.165 37.4776 149.855 36.3813 149.855 35.1459H148.559C148.559 36.6122 148.931 37.9506 149.684 39.1438L150.78 38.4523ZM149.855 35.1459C149.855 33.889 150.16 32.7926 150.757 31.8372L149.658 31.1503C148.921 32.3294 148.559 33.6679 148.559 35.1459H149.855ZM150.755 31.8395C151.376 30.8559 152.213 30.0923 153.28 29.5435L152.687 28.3909C151.42 29.0429 150.406 29.9636 149.659 31.148L150.755 31.8395ZM153.277 29.5452C154.361 28.9956 155.585 28.7147 156.961 28.7147V27.4186C155.403 27.4186 153.975 27.7381 152.691 28.3892L153.277 29.5452ZM156.961 28.7147C158.257 28.7147 159.418 28.9717 160.456 29.4752L161.021 28.3091C159.791 27.712 158.434 27.4186 156.961 27.4186V28.7147ZM160.459 29.4768C161.5 29.9748 162.315 30.7007 162.916 31.6621L164.015 30.9751C163.281 29.802 162.278 28.9102 161.018 28.3075L160.459 29.4768ZM162.919 31.6682C163.526 32.6144 163.843 33.764 163.843 35.1459H165.139C165.139 33.5593 164.772 32.1575 164.011 30.969L162.919 31.6682ZM157.011 31.2709C156.304 31.2709 155.667 31.4657 155.148 31.8946L155.973 32.8939C156.221 32.6891 156.551 32.567 157.011 32.567V31.2709ZM155.148 31.8946C154.628 32.3241 154.314 32.918 154.174 33.618L155.445 33.8722C155.539 33.4047 155.726 33.0981 155.973 32.8939L155.148 31.8946ZM154.81 34.3931H159.213V33.097H154.81V34.3931ZM159.847 33.6144C159.706 32.9275 159.39 32.3455 158.875 31.9196L158.049 32.9189C158.301 33.1267 158.486 33.4286 158.578 33.8757L159.847 33.6144ZM158.887 31.9302C158.369 31.4791 157.727 31.2709 157.011 31.2709V32.567C157.463 32.567 157.789 32.6924 158.037 32.9083L158.887 31.9302ZM169.452 41.3496L169.165 41.9308L169.168 41.9324L169.452 41.3496ZM166.575 38.8231L166.027 39.1689L166.031 39.1748L166.575 38.8231ZM166.575 31.4937L166.031 31.142L166.029 31.1441L166.575 31.4937ZM169.452 28.9672L169.168 28.3844L169.165 28.386L169.452 28.9672ZM177.907 29.1423L177.571 29.6966L177.571 29.6966L177.907 29.1423ZM180.358 32.1191L180.644 32.7007L181.162 32.4461L180.969 31.9021L180.358 32.1191ZM175.981 34.2704L175.388 34.5336L175.662 35.1491L176.266 34.852L175.981 34.2704ZM171.928 33.1697L171.462 32.7198L171.453 32.7288L171.928 33.1697ZM171.928 37.1471L171.453 37.5881L171.462 37.5969L171.928 37.1471ZM175.981 36.0464L176.266 35.4648L175.662 35.1678L175.388 35.7832L175.981 36.0464ZM180.358 38.1977L180.969 38.4147L181.162 37.8707L180.644 37.6161L180.358 38.1977ZM177.907 41.1745L178.242 41.7288L178.242 41.7288L177.907 41.1745ZM173.629 41.6021C172.164 41.6021 170.87 41.319 169.735 40.7669L169.168 41.9324C170.501 42.581 171.993 42.8982 173.629 42.8982V41.6021ZM169.738 40.7684C168.62 40.217 167.753 39.4518 167.119 38.4714L166.031 39.1748C166.798 40.3624 167.848 41.2815 169.165 41.9308L169.738 40.7684ZM167.123 38.4774C166.509 37.5039 166.197 36.3996 166.197 35.1459H164.901C164.901 36.6272 165.273 37.9743 166.027 39.1688L167.123 38.4774ZM166.197 35.1459C166.197 33.8921 166.509 32.798 167.121 31.8433L166.029 31.1441C165.273 32.3241 164.901 33.6647 164.901 35.1459H166.197ZM167.119 31.8454C167.753 30.865 168.62 30.0998 169.738 29.5484L169.165 28.386C167.848 29.0354 166.798 29.9545 166.031 31.142L167.119 31.8454ZM169.735 29.55C170.87 28.9979 172.164 28.7147 173.629 28.7147V27.4186C171.993 27.4186 170.501 27.7358 169.168 28.3845L169.735 29.55ZM173.629 28.7147C175.203 28.7147 176.507 29.0523 177.571 29.6966L178.242 28.588C176.938 27.7981 175.391 27.4186 173.629 27.4186V28.7147ZM177.571 29.6966C178.631 30.3388 179.349 31.2138 179.748 32.336L180.969 31.9021C180.467 30.4895 179.55 29.38 178.242 28.588L177.571 29.6966ZM180.072 31.5375L175.695 33.6888L176.266 34.852L180.644 32.7007L180.072 31.5375ZM176.573 34.0072C176.275 33.3379 175.885 32.7873 175.378 32.4031C174.862 32.0125 174.262 31.8212 173.604 31.8212V33.1174C173.997 33.1174 174.318 33.2263 174.595 33.4361C174.88 33.6522 175.152 34.0021 175.388 34.5336L176.573 34.0072ZM173.604 31.8212C172.767 31.8212 172.038 32.1223 171.462 32.7199L172.395 33.6196C172.719 33.2833 173.107 33.1174 173.604 33.1174V31.8212ZM171.453 32.7288C170.875 33.3511 170.63 34.1877 170.63 35.1459H171.926C171.926 34.4031 172.114 33.9223 172.403 33.6107L171.453 32.7288ZM170.63 35.1459C170.63 36.1168 170.873 36.9636 171.453 37.5881L172.403 36.7061C172.116 36.3967 171.926 35.9094 171.926 35.1459H170.63ZM171.462 37.5969C172.038 38.1945 172.767 38.4956 173.604 38.4956V37.1995C173.107 37.1995 172.719 37.0336 172.395 36.6973L171.462 37.5969ZM173.604 38.4956C174.262 38.4956 174.862 38.3043 175.378 37.9137C175.885 37.5295 176.275 36.9789 176.573 36.3096L175.388 35.7832C175.152 36.3147 174.88 36.6646 174.595 36.8808C174.318 37.0905 173.997 37.1995 173.604 37.1995V38.4956ZM175.695 36.6281L180.072 38.7793L180.644 37.6161L176.266 35.4648L175.695 36.6281ZM179.748 37.9808C179.349 39.103 178.631 39.978 177.571 40.6202L178.242 41.7288C179.55 40.9368 180.467 39.8273 180.969 38.4147L179.748 37.9808ZM177.571 40.6202C176.507 41.2645 175.203 41.6021 173.629 41.6021V42.8982C175.391 42.8982 176.938 42.5187 178.242 41.7288L177.571 40.6202ZM188.219 37.7975L188.727 37.3952L188.257 36.8011L187.743 37.3579L188.219 37.7975ZM187.318 38.7731L186.842 38.3335L186.67 38.5197V38.7731H187.318ZM187.318 42V42.6481H187.966V42H187.318ZM181.665 42H181.017V42.6481H181.665V42ZM181.665 23.4389V22.7909H181.017V23.4389H181.665ZM187.318 23.4389H187.966V22.7909H187.318V23.4389ZM187.318 32.2942H186.67V33.8729L187.779 32.7495L187.318 32.2942ZM191.246 28.3168V27.6688H190.975L190.784 27.8615L191.246 28.3168ZM197.925 28.3168L198.394 28.7641L199.438 27.6688H197.925V28.3168ZM192.271 34.2454L191.802 33.7981L191.414 34.2047L191.762 34.6462L192.271 34.2454ZM198.375 42V42.6481H199.71L198.884 41.5992L198.375 42ZM191.546 42L191.038 42.4023L191.232 42.6481H191.546V42ZM187.743 37.3579L186.842 38.3335L187.794 39.2126L188.695 38.2371L187.743 37.3579ZM186.67 38.7731V42H187.966V38.7731H186.67ZM187.318 41.3519H181.665V42.6481H187.318V41.3519ZM182.313 42V23.4389H181.017V42H182.313ZM181.665 24.087H187.318V22.7909H181.665V24.087ZM186.67 23.4389V32.2942H187.966V23.4389H186.67ZM187.779 32.7495L191.707 28.7722L190.784 27.8615L186.857 31.8389L187.779 32.7495ZM191.246 28.9649H197.925V27.6688H191.246V28.9649ZM197.456 27.8696L191.802 33.7981L192.74 34.6926L198.394 28.7641L197.456 27.8696ZM191.762 34.6462L197.866 42.4008L198.884 41.5992L192.78 33.8445L191.762 34.6462ZM198.375 41.3519H191.546V42.6481H198.375V41.3519ZM192.054 41.5977L188.727 37.3952L187.711 38.1997L191.038 42.4023L192.054 41.5977ZM201.989 41.3496L201.693 41.9261L201.703 41.9308L201.989 41.3496ZM199.163 38.8231L198.615 39.1689L198.617 39.1727L199.163 38.8231ZM199.163 31.4937L199.708 31.8433L199.711 31.8395L199.163 31.4937ZM201.989 28.9672L201.703 28.386L201.7 28.3876L201.989 28.9672ZM210.194 28.9672L209.905 29.5469L209.908 29.5484L210.194 28.9672ZM213.021 31.4937L212.469 31.8334L212.475 31.8433L213.021 31.4937ZM213.021 38.8231L212.473 38.4774L212.472 38.4796L213.021 38.8231ZM210.194 41.3496L210.484 41.9293L210.487 41.9277L210.194 41.3496ZM207.693 37.1471L208.176 37.5788L208.184 37.5702L207.693 37.1471ZM204.491 37.1471L204 37.5703L204.008 37.5787L204.491 37.1471ZM206.092 41.6021C204.662 41.6021 203.394 41.3198 202.276 40.7684L201.703 41.9308C203.019 42.5801 204.487 42.8982 206.092 42.8982V41.6021ZM202.286 40.7732C201.18 40.2049 200.327 39.4382 199.708 38.4735L198.617 39.1727C199.367 40.3426 200.398 41.2602 201.693 41.926L202.286 40.7732ZM199.711 38.4774C199.097 37.5039 198.785 36.3996 198.785 35.1459H197.489C197.489 36.6272 197.861 37.9743 198.615 39.1688L199.711 38.4774ZM198.785 35.1459C198.785 33.8921 199.097 32.798 199.708 31.8433L198.617 31.1441C197.861 32.3241 197.489 33.6647 197.489 35.1459H198.785ZM199.711 31.8395C200.328 30.8604 201.179 30.0969 202.279 29.5469L201.7 28.3876C200.398 29.0382 199.365 29.9591 198.615 31.148L199.711 31.8395ZM202.276 29.5484C203.394 28.997 204.662 28.7147 206.092 28.7147V27.4186C204.487 27.4186 203.019 27.7367 201.703 28.386L202.276 29.5484ZM206.092 28.7147C207.54 28.7147 208.806 28.9975 209.905 29.5469L210.484 28.3876C209.181 27.7362 207.712 27.4186 206.092 27.4186V28.7147ZM209.908 29.5484C211.023 30.0986 211.87 30.8603 212.469 31.8334L213.573 31.1541C212.838 29.9592 211.8 29.0366 210.481 28.386L209.908 29.5484ZM212.475 31.8433C213.087 32.798 213.399 33.8921 213.399 35.1459H214.695C214.695 33.6647 214.323 32.3241 213.567 31.1441L212.475 31.8433ZM213.399 35.1459C213.399 36.3996 213.087 37.5039 212.473 38.4774L213.569 39.1688C214.323 37.9743 214.695 36.6272 214.695 35.1459H213.399ZM212.472 38.4796C211.872 39.4384 211.023 40.2032 209.901 40.7716L210.487 41.9277C211.801 41.2619 212.836 40.3424 213.571 39.1666L212.472 38.4796ZM209.905 40.77C208.806 41.3193 207.54 41.6021 206.092 41.6021V42.8982C207.712 42.8982 209.181 42.5806 210.484 41.9292L209.905 40.77ZM206.092 38.4956C206.919 38.4956 207.631 38.1894 208.176 37.5787L207.209 36.7155C206.921 37.0387 206.566 37.1995 206.092 37.1995V38.4956ZM208.184 37.5702C208.732 36.9347 208.966 36.0996 208.966 35.1459H207.67C207.67 35.8932 207.488 36.3922 207.202 36.724L208.184 37.5702ZM208.966 35.1459C208.966 34.1938 208.732 33.3607 208.176 32.7381L207.209 33.6013C207.487 33.9126 207.67 34.397 207.67 35.1459H208.966ZM208.176 32.7381C207.631 32.1275 206.919 31.8212 206.092 31.8212V33.1174C206.566 33.1174 206.921 33.2781 207.209 33.6013L208.176 32.7381ZM206.092 31.8212C205.265 31.8212 204.553 32.1275 204.008 32.7381L204.974 33.6013C205.263 33.2781 205.618 33.1174 206.092 33.1174V31.8212ZM204.008 32.7381C203.452 33.3607 203.218 34.1938 203.218 35.1459H204.514C204.514 34.397 204.696 33.9126 204.974 33.6013L204.008 32.7381ZM203.218 35.1459C203.218 36.0996 203.452 36.9347 204 37.5702L204.982 36.724C204.696 36.3922 204.514 35.8932 204.514 35.1459H203.218ZM204.008 37.5787C204.553 38.1894 205.265 38.4956 206.092 38.4956V37.1995C205.618 37.1995 205.263 37.0387 204.974 36.7155L204.008 37.5787Z" fill="#21252D"/>
<path d="M42.7209 21.6696C42.6701 21.5212 42.6122 21.3797 42.5446 21.2458C42.6338 21.3978 42.6917 21.54 42.7209 21.6696Z" fill="white"/>
<path d="M36.5962 8.00023C23.8943 8.05808 13.6438 18.4006 13.7002 31.1039C13.7581 43.8058 24.102 54.0562 36.8039 53.9998C49.5058 53.9419 59.7562 43.5994 59.6998 30.8975C59.6419 18.1942 49.2995 7.94446 36.5962 8.00023ZM33.6847 29.8722C31.4124 29.8722 29.5708 28.0321 29.5708 25.7604C29.5708 23.4902 31.4124 21.6487 33.6847 21.6487C35.9549 21.6487 37.7964 23.4902 37.7964 25.7604C37.7964 28.0328 35.9549 29.8722 33.6847 29.8722ZM36.9635 34.3171L36.9851 34.2907L37.0081 34.2642C38.1819 35.0211 39.5209 35.2881 40.8599 35.3278C42.2002 35.3627 43.5657 35.2616 44.9089 34.9912C46.2507 34.7124 47.5701 34.3004 48.8443 33.7742C49.5601 33.4793 50.2704 33.1573 50.9479 32.7781C50.9528 32.7746 50.9563 32.7732 50.9612 32.7697C51.3836 32.516 51.7955 32.2491 52.1991 31.9737C52.2862 31.911 52.3719 31.8455 52.4563 31.7779L52.466 31.7897L52.5009 31.8308C51.4672 32.7725 50.2356 33.4716 48.9823 34.0878C47.7158 34.6845 46.3956 35.1724 45.0323 35.5258C43.6738 35.8771 42.2539 36.1427 40.818 36.0123C39.4059 35.8868 37.9149 35.3927 36.9635 34.3171ZM47.5172 29.8722C47.5158 29.3794 47.9131 28.98 48.4045 28.9772C48.8973 28.9758 49.2967 29.371 49.2995 29.8645C49.3009 30.3559 48.9035 30.7581 48.4121 30.7595C47.9214 30.7609 47.5206 30.3636 47.5172 29.8722ZM40.4723 51.9324C39.5836 45.7086 45.0197 39.6131 48.0845 36.4933C48.7802 35.7858 49.855 34.8113 50.8559 33.7762C54.8345 30.0569 55.6257 25.612 47.4844 23.3892C45.9412 22.9424 44.3422 22.3095 42.7209 21.6696C42.67 21.5211 42.6122 21.3796 42.5446 21.2458C42.3585 20.9259 42.0337 20.5565 41.5402 20.1375C40.4814 19.2189 38.4935 19.244 36.7767 19.6496C34.8787 19.2028 33.0058 19.0446 31.2074 19.4747C23.3331 21.6445 22.0666 25.4858 21.76 30.1127C21.3431 35.1131 21.0985 38.8394 19.2061 43.0983C16.8431 39.6905 15.4505 35.5572 15.4324 31.0955C15.3801 19.3499 24.8589 9.78601 36.6045 9.73303C48.3501 9.68006 57.9147 19.1589 57.967 30.9045C58.0151 41.3954 50.4551 50.1487 40.4723 51.9324Z" fill="white"/>
<path d="M36.5766 25.7981C36.5766 27.3957 35.2809 28.69 33.6847 28.69C32.0871 28.69 30.7913 27.3957 30.7913 25.7981C30.7913 24.2005 32.0871 22.9061 33.6847 22.9061C35.2802 22.9068 36.5766 24.2005 36.5766 25.7981Z" fill="white"/>
</svg>
