<svg width="210" height="60" viewBox="0 0 210 60" fill="none" xmlns="http://www.w3.org/2000/svg">
<g clip-path="url(#clip0_29_317)">
<path d="M75.2281 29.0673H70.1001V24.4895H86.2597V29.0673H81.1317V42H75.2281V29.0673ZM100.809 35.1459C100.809 35.2293 100.784 35.6712 100.734 36.4717H91.2279C91.428 36.9887 91.7616 37.3889 92.2285 37.6724C92.6955 37.9392 93.2791 38.0727 93.9796 38.0727C94.5799 38.0727 95.0802 37.9976 95.4805 37.8475C95.8974 37.6974 96.3476 37.4389 96.8313 37.0721L99.783 40.0488C98.4489 41.5164 96.456 42.2501 93.8045 42.2501C92.1535 42.2501 90.7026 41.95 89.4519 41.3496C88.2011 40.7326 87.2339 39.8821 86.5501 38.7981C85.8664 37.7141 85.5245 36.4967 85.5245 35.1459C85.5245 33.7784 85.858 32.561 86.5251 31.4937C87.2088 30.4097 88.1344 29.5676 89.3018 28.9672C90.4858 28.3669 91.8116 28.0667 93.2791 28.0667C94.6633 28.0667 95.9224 28.3418 97.0564 28.8922C98.2071 29.4425 99.116 30.2513 99.783 31.3186C100.467 32.3859 100.809 33.6617 100.809 35.1459ZM93.3292 31.919C92.7455 31.919 92.2619 32.0774 91.8783 32.3943C91.4947 32.7111 91.2446 33.1614 91.1279 33.7451H95.5305C95.4138 33.1781 95.1636 32.7361 94.78 32.4193C94.3965 32.0857 93.9129 31.919 93.3292 31.919ZM102.593 23.4389H108.246V42H102.593V23.4389ZM125.311 35.1459C125.311 35.2293 125.286 35.6712 125.236 36.4717H115.73C115.93 36.9887 116.264 37.3889 116.73 37.6724C117.197 37.9392 117.781 38.0727 118.482 38.0727C119.082 38.0727 119.582 37.9976 119.982 37.8475C120.399 37.6974 120.85 37.4389 121.333 37.0721L124.285 40.0488C122.951 41.5164 120.958 42.2501 118.306 42.2501C116.655 42.2501 115.205 41.95 113.954 41.3496C112.703 40.7326 111.736 39.8821 111.052 38.7981C110.368 37.7141 110.026 36.4967 110.026 35.1459C110.026 33.7784 110.36 32.561 111.027 31.4937C111.711 30.4097 112.636 29.5676 113.804 28.9672C114.988 28.3669 116.314 28.0667 117.781 28.0667C119.165 28.0667 120.424 28.3418 121.558 28.8922C122.709 29.4425 123.618 30.2513 124.285 31.3186C124.969 32.3859 125.311 33.6617 125.311 35.1459ZM117.831 31.919C117.247 31.919 116.764 32.0774 116.38 32.3943C115.997 32.7111 115.747 33.1614 115.63 33.7451H120.032C119.916 33.1781 119.666 32.7361 119.282 32.4193C118.898 32.0857 118.415 31.919 117.831 31.919ZM142.379 28.3168V39.2734C142.379 41.8749 141.653 43.8261 140.202 45.1269C138.768 46.4443 136.717 47.103 134.049 47.103C132.681 47.103 131.406 46.953 130.222 46.6528C129.037 46.3693 128.029 45.9524 127.195 45.402L129.096 41.5497C129.63 41.95 130.305 42.2752 131.122 42.5253C131.939 42.7755 132.723 42.9005 133.473 42.9005C134.607 42.9005 135.433 42.6587 135.95 42.1751C136.467 41.6915 136.725 40.9827 136.725 40.0488V39.7987C135.875 40.7659 134.616 41.2496 132.948 41.2496C131.781 41.2496 130.688 40.9827 129.671 40.4491C128.671 39.8987 127.87 39.1233 127.27 38.1227C126.669 37.1054 126.369 35.9464 126.369 34.6456C126.369 33.3448 126.669 32.1941 127.27 31.1935C127.87 30.1929 128.671 29.4258 129.671 28.8922C130.688 28.3418 131.781 28.0667 132.948 28.0667C134.816 28.0667 136.167 28.667 137.001 29.8678V28.3168H142.379ZM134.449 36.8469C135.116 36.8469 135.666 36.6468 136.1 36.2466C136.55 35.8296 136.775 35.296 136.775 34.6456C136.775 33.9952 136.55 33.4699 136.1 33.0697C135.666 32.6694 135.116 32.4693 134.449 32.4693C133.765 32.4693 133.198 32.6694 132.748 33.0697C132.314 33.4699 132.098 33.9952 132.098 34.6456C132.098 35.296 132.323 35.8296 132.773 36.2466C133.223 36.6468 133.782 36.8469 134.449 36.8469ZM150.257 29.7927C151.258 28.642 152.733 28.0667 154.685 28.0667V33.0697C154.234 33.003 153.817 32.9696 153.434 32.9696C151.499 32.9696 150.532 33.9535 150.532 35.9214V42H144.879V28.3168H150.257V29.7927ZM162.293 28.0667C164.695 28.0667 166.529 28.6087 167.797 29.6926C169.064 30.76 169.698 32.4109 169.698 34.6456V42H164.445V40.1989C163.794 41.5664 162.502 42.2501 160.567 42.2501C159.483 42.2501 158.558 42.0667 157.791 41.6998C157.04 41.3163 156.465 40.8076 156.065 40.1739C155.681 39.5235 155.489 38.7981 155.489 37.9976C155.489 36.6468 156.006 35.6212 157.04 34.9208C158.074 34.2204 159.642 33.8701 161.743 33.8701H164.019C163.836 32.8028 162.977 32.2692 161.443 32.2692C160.826 32.2692 160.201 32.3692 159.567 32.5694C158.933 32.7528 158.391 33.0113 157.941 33.3448L156.14 29.6176C156.924 29.134 157.866 28.7588 158.966 28.4919C160.084 28.2084 161.193 28.0667 162.293 28.0667ZM162.268 38.8481C162.669 38.8481 163.027 38.7397 163.344 38.5229C163.661 38.3061 163.894 37.9809 164.044 37.5473V36.5968H162.644C161.493 36.5968 160.918 36.9803 160.918 37.7475C160.918 38.0643 161.034 38.3311 161.268 38.5479C161.518 38.7481 161.851 38.8481 162.268 38.8481ZM190.252 28.0667C191.903 28.0667 193.22 28.5753 194.204 29.5926C195.205 30.6099 195.705 32.1441 195.705 34.1953V42H190.052V35.1709C190.052 33.6033 189.543 32.8195 188.526 32.8195C187.992 32.8195 187.559 33.0196 187.225 33.4199C186.908 33.8201 186.75 34.4538 186.75 35.321V42H181.096V35.1709C181.096 33.6033 180.588 32.8195 179.571 32.8195C179.037 32.8195 178.603 33.0196 178.27 33.4199C177.953 33.8201 177.794 34.4538 177.794 35.321V42H172.141V28.3168H177.519V29.5926C178.537 28.5753 179.829 28.0667 181.397 28.0667C182.314 28.0667 183.139 28.2418 183.873 28.592C184.607 28.9255 185.207 29.4425 185.674 30.1429C186.225 29.4759 186.892 28.9672 187.675 28.617C188.459 28.2501 189.318 28.0667 190.252 28.0667Z" fill="white"/>
<path d="M75.2281 29.0673H75.8762V28.4192H75.2281V29.0673ZM70.1001 29.0673H69.452V29.7153H70.1001V29.0673ZM70.1001 24.4895V23.8415H69.452V24.4895H70.1001ZM86.2597 24.4895H86.9078V23.8415H86.2597V24.4895ZM86.2597 29.0673V29.7153H86.9078V29.0673H86.2597ZM81.1317 29.0673V28.4192H80.4836V29.0673H81.1317ZM81.1317 42V42.6481H81.7797V42H81.1317ZM75.2281 42H74.5801V42.6481H75.2281V42ZM75.2281 28.4192H70.1001V29.7153H75.2281V28.4192ZM70.7481 29.0673V24.4895H69.452V29.0673H70.7481ZM70.1001 25.1376H86.2597V23.8415H70.1001V25.1376ZM85.6117 24.4895V29.0673H86.9078V24.4895H85.6117ZM86.2597 28.4192H81.1317V29.7153H86.2597V28.4192ZM80.4836 29.0673V42H81.7797V29.0673H80.4836ZM81.1317 41.3519H75.2281V42.6481H81.1317V41.3519ZM75.8762 42V29.0673H74.5801V42H75.8762ZM100.734 36.4717V37.1198H101.342L101.38 36.5121L100.734 36.4717ZM91.2279 36.4717V35.8236H90.2821L90.6236 36.7056L91.2279 36.4717ZM92.2285 37.6724L91.8922 38.2264L91.8995 38.2308L91.907 38.2351L92.2285 37.6724ZM95.4805 37.8475L95.2609 37.2377L95.2529 37.2407L95.4805 37.8475ZM96.8313 37.0721L97.2914 36.6157L96.8918 36.2127L96.4396 36.5558L96.8313 37.0721ZM99.783 40.0488L100.263 40.4848L100.676 40.0295L100.243 39.5925L99.783 40.0488ZM89.4519 41.3496L89.1651 41.9308L89.1714 41.9338L89.4519 41.3496ZM86.5501 38.7981L87.0982 38.4523L86.5501 38.7981ZM86.5251 31.4937L85.977 31.148L85.9756 31.1503L86.5251 31.4937ZM89.3018 28.9672L89.0087 28.3892L89.0054 28.3909L89.3018 28.9672ZM97.0564 28.8922L96.7735 29.4752L96.7768 29.4768L97.0564 28.8922ZM99.783 31.3186L99.2334 31.6621L99.2373 31.6682L99.783 31.3186ZM91.8783 32.3943L92.291 32.8939L92.291 32.8939L91.8783 32.3943ZM91.1279 33.7451L90.4924 33.618L90.3374 34.3931H91.1279V33.7451ZM95.5305 33.7451V34.3931H96.3256L96.1652 33.6144L95.5305 33.7451ZM94.78 32.4193L94.3548 32.9083L94.361 32.9137L94.3673 32.9189L94.78 32.4193ZM100.161 35.1459C100.161 35.144 100.161 35.1503 100.16 35.1706C100.159 35.1888 100.158 35.2134 100.157 35.2448C100.154 35.3077 100.149 35.3936 100.143 35.5033C100.13 35.7223 100.112 36.0315 100.087 36.4313L101.38 36.5121C101.429 35.7289 101.457 35.2558 101.457 35.1459H100.161ZM100.734 35.8236H91.2279V37.1198H100.734V35.8236ZM90.6236 36.7056C90.8745 37.3538 91.3011 37.8675 91.8922 38.2264L92.5648 37.1185C92.222 36.9103 91.9816 36.6236 91.8323 36.2378L90.6236 36.7056ZM91.907 38.2351C92.4971 38.5723 93.1996 38.7207 93.9796 38.7207V37.4246C93.3587 37.4246 92.8938 37.3062 92.55 37.1097L91.907 38.2351ZM93.9796 38.7207C94.6286 38.7207 95.212 38.6403 95.708 38.4543L95.2529 37.2407C94.9484 37.3549 94.5312 37.4246 93.9796 37.4246V38.7207ZM95.7 38.4573C96.1968 38.2784 96.7049 37.9813 97.2229 37.5884L96.4396 36.5558C95.9904 36.8965 95.598 37.1164 95.261 37.2378L95.7 38.4573ZM96.3711 37.5284L99.3229 40.5051L100.243 39.5925L97.2914 36.6157L96.3711 37.5284ZM99.3035 39.6129C98.1297 40.904 96.3379 41.6021 93.8045 41.6021V42.8982C96.5742 42.8982 98.7681 42.1287 100.263 40.4848L99.3035 39.6129ZM93.8045 41.6021C92.2323 41.6021 90.8804 41.3165 89.7323 40.7654L89.1714 41.9338C90.5248 42.5835 92.0746 42.8982 93.8045 42.8982V41.6021ZM89.7386 40.7684C88.5852 40.1994 87.7126 39.4264 87.0982 38.4523L86.002 39.1438C86.7551 40.3377 87.817 41.2657 89.1651 41.9308L89.7386 40.7684ZM87.0982 38.4523C86.4834 37.4776 86.1726 36.3813 86.1726 35.1459H84.8765C84.8765 36.6122 85.2494 37.9506 86.002 39.1438L87.0982 38.4523ZM86.1726 35.1459C86.1726 33.889 86.4775 32.7926 87.0747 31.8372L85.9756 31.1503C85.2386 32.3294 84.8765 33.6679 84.8765 35.1459H86.1726ZM87.0732 31.8395C87.6936 30.8559 88.5312 30.0923 89.5982 29.5435L89.0054 28.3909C87.7376 29.0429 86.7241 29.9636 85.977 31.148L87.0732 31.8395ZM89.5948 29.5452C90.6788 28.9956 91.9025 28.7147 93.2791 28.7147V27.4186C91.7207 27.4186 90.2928 27.7381 89.0087 28.3892L89.5948 29.5452ZM93.2791 28.7147C94.575 28.7147 95.736 28.9717 96.7735 29.4752L97.3393 28.3091C96.1088 27.712 94.7516 27.4186 93.2791 27.4186V28.7147ZM96.7768 29.4768C97.818 29.9748 98.6326 30.7007 99.2335 31.6621L100.333 30.9751C99.5993 29.802 98.5962 28.9102 97.336 28.3075L96.7768 29.4768ZM99.2373 31.6682C99.8435 32.6144 100.161 33.764 100.161 35.1459H101.457C101.457 33.5593 101.09 32.1575 100.329 30.969L99.2373 31.6682ZM93.3292 31.2709C92.6222 31.2709 91.9848 31.4657 91.4656 31.8946L92.291 32.8939C92.539 32.6891 92.8688 32.567 93.3292 32.567V31.2709ZM91.4656 31.8946C90.9457 32.3241 90.6324 32.918 90.4924 33.618L91.7633 33.8722C91.8568 33.4047 92.0438 33.0981 92.291 32.8939L91.4656 31.8946ZM91.1279 34.3931H95.5305V33.097H91.1279V34.3931ZM96.1652 33.6144C96.0238 32.9275 95.7083 32.3455 95.1928 31.9196L94.3673 32.9189C94.6189 33.1267 94.8037 33.4286 94.8957 33.8757L96.1652 33.6144ZM95.2053 31.9302C94.6864 31.4791 94.0445 31.2709 93.3292 31.2709V32.567C93.7812 32.567 94.1065 32.6924 94.3548 32.9083L95.2053 31.9302ZM102.593 23.4389V22.7909H101.945V23.4389H102.593ZM108.246 23.4389H108.894V22.7909H108.246V23.4389ZM108.246 42V42.6481H108.894V42H108.246ZM102.593 42H101.945V42.6481H102.593V42ZM102.593 24.087H108.246V22.7909H102.593V24.087ZM107.598 23.4389V42H108.894V23.4389H107.598ZM108.246 41.3519H102.593V42.6481H108.246V41.3519ZM103.241 42V23.4389H101.945V42H103.241ZM125.236 36.4717V37.1198H125.844L125.882 36.5121L125.236 36.4717ZM115.73 36.4717V35.8236H114.784L115.126 36.7056L115.73 36.4717ZM116.73 37.6724L116.394 38.2264L116.401 38.2308L116.409 38.2351L116.73 37.6724ZM119.982 37.8475L119.763 37.2377L119.755 37.2407L119.982 37.8475ZM121.333 37.0721L121.793 36.6157L121.394 36.2127L120.942 36.5558L121.333 37.0721ZM124.285 40.0488L124.764 40.4848L125.178 40.0295L124.745 39.5925L124.285 40.0488ZM113.954 41.3496L113.667 41.9308L113.673 41.9338L113.954 41.3496ZM111.052 38.7981L111.6 38.4523L111.052 38.7981ZM111.027 31.4937L110.479 31.148L110.478 31.1503L111.027 31.4937ZM113.804 28.9672L113.511 28.3892L113.507 28.3909L113.804 28.9672ZM121.558 28.8922L121.275 29.4752L121.279 29.4768L121.558 28.8922ZM124.285 31.3186L123.735 31.6621L123.739 31.6682L124.285 31.3186ZM116.38 32.3943L116.793 32.8939L116.793 32.8939L116.38 32.3943ZM115.63 33.7451L114.994 33.618L114.839 34.3931H115.63V33.7451ZM120.032 33.7451V34.3931H120.828L120.667 33.6144L120.032 33.7451ZM119.282 32.4193L118.857 32.9083L118.863 32.9137L118.869 32.9189L119.282 32.4193ZM124.663 35.1459C124.663 35.144 124.663 35.1503 124.662 35.1706C124.661 35.1888 124.66 35.2134 124.659 35.2448C124.656 35.3077 124.651 35.3936 124.645 35.5033C124.632 35.7223 124.614 36.0315 124.589 36.4313L125.882 36.5121C125.931 35.7289 125.959 35.2558 125.959 35.1459H124.663ZM125.236 35.8236H115.73V37.1198H125.236V35.8236ZM115.126 36.7056C115.376 37.3538 115.803 37.8675 116.394 38.2264L117.067 37.1185C116.724 36.9103 116.484 36.6236 116.334 36.2378L115.126 36.7056ZM116.409 38.2351C116.999 38.5723 117.702 38.7207 118.482 38.7207V37.4246C117.861 37.4246 117.396 37.3062 117.052 37.1097L116.409 38.2351ZM118.482 38.7207C119.131 38.7207 119.714 38.6403 120.21 38.4543L119.755 37.2407C119.45 37.3549 119.033 37.4246 118.482 37.4246V38.7207ZM120.202 38.4573C120.699 38.2784 121.207 37.9813 121.725 37.5884L120.942 36.5558C120.492 36.8965 120.1 37.1164 119.763 37.2378L120.202 38.4573ZM120.873 37.5284L123.825 40.5051L124.745 39.5925L121.793 36.6157L120.873 37.5284ZM123.805 39.6129C122.632 40.904 120.84 41.6021 118.306 41.6021V42.8982C121.076 42.8982 123.27 42.1287 124.764 40.4848L123.805 39.6129ZM118.306 41.6021C116.734 41.6021 115.382 41.3165 114.234 40.7654L113.673 41.9338C115.027 42.5835 116.577 42.8982 118.306 42.8982V41.6021ZM114.241 40.7684C113.087 40.1994 112.215 39.4264 111.6 38.4523L110.504 39.1438C111.257 40.3377 112.319 41.2657 113.667 41.9308L114.241 40.7684ZM111.6 38.4523C110.985 37.4776 110.675 36.3813 110.675 35.1459H109.378C109.378 36.6122 109.751 37.9506 110.504 39.1438L111.6 38.4523ZM110.675 35.1459C110.675 33.889 110.979 32.7926 111.577 31.8372L110.478 31.1503C109.741 32.3294 109.378 33.6679 109.378 35.1459H110.675ZM111.575 31.8395C112.196 30.8559 113.033 30.0923 114.1 29.5435L113.507 28.3909C112.24 29.0429 111.226 29.9636 110.479 31.148L111.575 31.8395ZM114.097 29.5452C115.181 28.9956 116.404 28.7147 117.781 28.7147V27.4186C116.223 27.4186 114.795 27.7381 113.511 28.3892L114.097 29.5452ZM117.781 28.7147C119.077 28.7147 120.238 28.9717 121.275 29.4752L121.841 28.3091C120.611 27.712 119.254 27.4186 117.781 27.4186V28.7147ZM121.279 29.4768C122.32 29.9748 123.135 30.7007 123.735 31.6621L124.835 30.9751C124.101 29.802 123.098 28.9102 121.838 28.3075L121.279 29.4768ZM123.739 31.6682C124.345 32.6144 124.663 33.764 124.663 35.1459H125.959C125.959 33.5593 125.592 32.1575 124.831 30.969L123.739 31.6682ZM117.831 31.2709C117.124 31.2709 116.487 31.4657 115.968 31.8946L116.793 32.8939C117.041 32.6891 117.371 32.567 117.831 32.567V31.2709ZM115.968 31.8946C115.448 32.3241 115.134 32.918 114.994 33.618L116.265 33.8722C116.359 33.4047 116.546 33.0981 116.793 32.8939L115.968 31.8946ZM115.63 34.3931H120.032V33.097H115.63V34.3931ZM120.667 33.6144C120.526 32.9275 120.21 32.3455 119.695 31.9196L118.869 32.9189C119.121 33.1267 119.306 33.4286 119.398 33.8757L120.667 33.6144ZM119.707 31.9302C119.188 31.4791 118.546 31.2709 117.831 31.2709V32.567C118.283 32.567 118.608 32.6924 118.857 32.9083L119.707 31.9302ZM142.379 28.3168H143.027V27.6688H142.379V28.3168ZM140.202 45.1269L139.77 44.6443L139.764 44.6496L140.202 45.1269ZM130.222 46.6528L130.381 46.0245L130.372 46.0225L130.222 46.6528ZM127.195 45.402L126.614 45.1152L126.361 45.628L126.838 45.9429L127.195 45.402ZM129.096 41.5497L129.485 41.0313L128.86 40.5629L128.515 41.2629L129.096 41.5497ZM131.122 42.5253L130.932 43.145L130.932 43.145L131.122 42.5253ZM135.95 42.1751L135.507 41.7018L135.507 41.7018L135.95 42.1751ZM136.725 39.7987H137.373V38.0803L136.239 39.3708L136.725 39.7987ZM129.671 40.4491L129.359 41.017L129.37 41.023L129.671 40.4491ZM127.27 38.1227L126.712 38.4521L126.714 38.4561L127.27 38.1227ZM127.27 31.1935L127.825 31.527L127.825 31.527L127.27 31.1935ZM129.671 28.8922L129.976 29.464L129.98 29.4622L129.671 28.8922ZM137.001 29.8678L136.468 30.2374L137.649 31.9371V29.8678H137.001ZM137.001 28.3168V27.6688H136.353V28.3168H137.001ZM136.1 36.2466L136.54 36.7228L136.54 36.7221L136.1 36.2466ZM136.1 33.0697L135.66 33.5459L135.669 33.554L136.1 33.0697ZM132.748 33.0697L132.317 32.5852L132.308 32.5935L132.748 33.0697ZM132.773 36.2466L132.333 36.7222L132.343 36.7309L132.773 36.2466ZM141.731 28.3168V39.2734H143.027V28.3168H141.731ZM141.731 39.2734C141.731 41.7556 141.042 43.504 139.77 44.6443L140.635 45.6094C142.265 44.1482 143.027 41.9942 143.027 39.2734H141.731ZM139.764 44.6496C138.488 45.8221 136.615 46.455 134.049 46.455V47.7511C136.819 47.7511 139.049 47.0665 140.641 45.6041L139.764 44.6496ZM134.049 46.455C132.729 46.455 131.507 46.3101 130.381 46.0246L130.062 47.281C131.304 47.5958 132.634 47.7511 134.049 47.7511V46.455ZM130.372 46.0225C129.246 45.7529 128.31 45.362 127.552 44.8612L126.838 45.9429C127.747 46.5428 128.829 46.9857 130.071 47.283L130.372 46.0225ZM127.776 45.6888L129.677 41.8365L128.515 41.2629L126.614 45.1152L127.776 45.6888ZM128.707 42.0682C129.315 42.5241 130.063 42.8788 130.932 43.145L131.312 41.9056C130.547 41.6716 129.944 41.3759 129.485 41.0313L128.707 42.0682ZM130.932 43.145C131.803 43.4114 132.651 43.5486 133.473 43.5486V42.2525C132.796 42.2525 132.076 42.1395 131.312 41.9056L130.932 43.145ZM133.473 43.5486C134.678 43.5486 135.701 43.2954 136.393 42.6484L135.507 41.7018C135.165 42.0221 134.537 42.2525 133.473 42.2525V43.5486ZM136.393 42.6484C137.079 42.0065 137.373 41.1021 137.373 40.0488H136.077C136.077 40.8634 135.855 41.3765 135.507 41.7018L136.393 42.6484ZM137.373 40.0488V39.7987H136.077V40.0488H137.373ZM136.239 39.3708C135.545 40.1594 134.488 40.6015 132.948 40.6015V41.8976C134.744 41.8976 136.205 41.3724 137.212 40.2266L136.239 39.3708ZM132.948 40.6015C131.884 40.6015 130.895 40.3593 129.972 39.8752L129.37 41.023C130.482 41.6061 131.678 41.8976 132.948 41.8976V40.6015ZM129.984 39.8812C129.086 39.3874 128.368 38.6938 127.825 37.7893L126.714 38.4561C127.372 39.5527 128.256 40.4101 129.359 41.0169L129.984 39.8812ZM127.828 37.7933C127.292 36.8857 127.017 35.8426 127.017 34.6456H125.721C125.721 36.0502 126.047 37.3251 126.712 38.4521L127.828 37.7933ZM127.017 34.6456C127.017 33.4484 127.292 32.4156 127.825 31.527L126.714 30.8601C126.047 31.9727 125.721 33.2412 125.721 34.6456H127.017ZM127.825 31.527C128.367 30.624 129.082 29.9407 129.976 29.464L129.366 28.3204C128.259 28.9109 127.373 29.7619 126.714 30.8601L127.825 31.527ZM129.98 29.4622C130.901 28.9636 131.887 28.7147 132.948 28.7147V27.4186C131.674 27.4186 130.476 27.7201 129.363 28.3222L129.98 29.4622ZM132.948 28.7147C134.669 28.7147 135.789 29.2589 136.468 30.2374L137.533 29.4981C136.545 28.0751 134.962 27.4186 132.948 27.4186V28.7147ZM137.649 29.8678V28.3168H136.353V29.8678H137.649ZM137.001 28.9649H142.379V27.6688H137.001V28.9649ZM134.449 37.495C135.256 37.495 135.97 37.2481 136.54 36.7228L135.66 35.7704C135.362 36.0455 134.976 36.1989 134.449 36.1989V37.495ZM136.54 36.7221C137.132 36.1745 137.423 35.4644 137.423 34.6456H136.127C136.127 35.1276 135.969 35.4848 135.66 35.771L136.54 36.7221ZM137.423 34.6456C137.423 33.8267 137.131 33.1191 136.531 32.5853L135.669 33.554C135.969 33.8207 136.127 34.1637 136.127 34.6456H137.423ZM136.54 32.5935C135.97 32.0681 135.256 31.8212 134.449 31.8212V33.1174C134.976 33.1174 135.362 33.2707 135.66 33.5459L136.54 32.5935ZM134.449 31.8212C133.63 31.8212 132.902 32.0653 132.317 32.5853L133.179 33.554C133.494 33.2735 133.901 33.1174 134.449 33.1174V31.8212ZM132.308 32.5935C131.728 33.1297 131.45 33.8349 131.45 34.6456H132.746C132.746 34.1555 132.901 33.8101 133.188 33.5459L132.308 32.5935ZM131.45 34.6456C131.45 35.4644 131.741 36.1745 132.333 36.7221L133.213 35.771C132.904 35.4848 132.746 35.1276 132.746 34.6456H131.45ZM132.343 36.7309C132.924 37.2482 133.642 37.495 134.449 37.495V36.1989C133.922 36.1989 133.522 36.0454 133.204 35.7622L132.343 36.7309ZM150.257 29.7927H149.609V31.5256L150.746 30.2179L150.257 29.7927ZM154.685 28.0667H155.333V27.4186H154.685V28.0667ZM154.685 33.0697L154.59 33.7107L155.333 33.8208V33.0697H154.685ZM150.532 42V42.6481H151.18V42H150.532ZM144.879 42H144.231V42.6481H144.879V42ZM144.879 28.3168V27.6688H144.231V28.3168H144.879ZM150.257 28.3168H150.905V27.6688H150.257V28.3168ZM150.746 30.2179C151.591 29.2463 152.865 28.7147 154.685 28.7147V27.4186C152.602 27.4186 150.924 28.0377 149.768 29.3675L150.746 30.2179ZM154.037 28.0667V33.0697H155.333V28.0667H154.037ZM154.78 32.4286C154.303 32.3581 153.854 32.3215 153.434 32.3215V33.6177C153.78 33.6177 154.165 33.6478 154.59 33.7107L154.78 32.4286ZM153.434 32.3215C152.364 32.3215 151.443 32.5945 150.795 33.2532C150.15 33.9099 149.884 34.8403 149.884 35.9214H151.18C151.18 35.0346 151.398 34.4891 151.72 34.1619C152.039 33.8367 152.569 33.6177 153.434 33.6177V32.3215ZM149.884 35.9214V42H151.18V35.9214H149.884ZM150.532 41.3519H144.879V42.6481H150.532V41.3519ZM145.527 42V28.3168H144.231V42H145.527ZM144.879 28.9649H150.257V27.6688H144.879V28.9649ZM149.609 28.3168V29.7927H150.905V28.3168H149.609ZM167.797 29.6926L167.375 30.1852L167.379 30.1884L167.797 29.6926ZM169.698 42V42.6481H170.346V42H169.698ZM164.445 42H163.797V42.6481H164.445V42ZM164.445 40.1989H165.093L163.859 39.9206L164.445 40.1989ZM157.791 41.6998L157.496 42.2769L157.503 42.2808L157.511 42.2845L157.791 41.6998ZM156.065 40.1739L155.506 40.5031L155.512 40.5116L155.517 40.52L156.065 40.1739ZM157.04 34.9208L156.677 34.3842L156.677 34.3842L157.04 34.9208ZM164.019 33.8701V34.5182H164.788L164.658 33.7604L164.019 33.8701ZM159.567 32.5694L159.747 33.1919L159.754 33.1897L159.762 33.1873L159.567 32.5694ZM157.941 33.3448L157.357 33.6268L157.698 34.3313L158.327 33.8656L157.941 33.3448ZM156.14 29.6176L155.799 29.0661L155.302 29.3731L155.556 29.8996L156.14 29.6176ZM158.966 28.4919L159.119 29.1218L159.126 29.1201L158.966 28.4919ZM163.344 38.5229L162.978 37.9881L162.978 37.9881L163.344 38.5229ZM164.044 37.5473L164.657 37.7593L164.693 37.6563V37.5473H164.044ZM164.044 36.5968H164.693V35.9487H164.044V36.5968ZM161.268 38.5479L160.827 39.0228L160.844 39.0391L160.863 39.054L161.268 38.5479ZM162.293 28.7147C164.607 28.7147 166.268 29.2377 167.375 30.1851L168.218 29.2001C166.791 27.9796 164.783 27.4186 162.293 27.4186V28.7147ZM167.379 30.1884C168.454 31.0934 169.05 32.5316 169.05 34.6456H170.346C170.346 32.2903 169.674 30.4265 168.214 29.1969L167.379 30.1884ZM169.05 34.6456V42H170.346V34.6456H169.05ZM169.698 41.3519H164.445V42.6481H169.698V41.3519ZM165.093 42V40.1989H163.797V42H165.093ZM163.859 39.9206C163.348 40.9957 162.335 41.6021 160.567 41.6021V42.8982C162.669 42.8982 164.241 42.1371 165.03 40.4773L163.859 39.9206ZM160.567 41.6021C159.554 41.6021 158.73 41.4305 158.07 41.1152L157.511 42.2845C158.386 42.7029 159.412 42.8982 160.567 42.8982V41.6021ZM158.086 41.1228C157.426 40.7854 156.943 40.3515 156.613 39.8279L155.517 40.52C155.987 41.2638 156.655 41.8471 157.496 42.2769L158.086 41.1228ZM156.623 39.8447C156.302 39.3001 156.137 38.6895 156.137 37.9976H154.841C154.841 38.9066 155.061 39.7469 155.506 40.5031L156.623 39.8447ZM156.137 37.9976C156.137 36.841 156.564 36.026 157.404 35.4573L156.677 34.3842C155.448 35.2164 154.841 36.4526 154.841 37.9976H156.137ZM157.404 35.4573C158.28 34.864 159.692 34.5182 161.743 34.5182V33.2221C159.592 33.2221 157.869 33.5767 156.677 34.3842L157.404 35.4573ZM161.743 34.5182H164.019V33.2221H161.743V34.5182ZM164.658 33.7604C164.538 33.0588 164.179 32.4911 163.58 32.119C163.008 31.7634 162.273 31.6211 161.443 31.6211V32.9172C162.147 32.9172 162.609 33.0418 162.896 33.2199C163.156 33.3814 163.318 33.6142 163.381 33.9799L164.658 33.7604ZM161.443 31.6211C160.755 31.6211 160.064 31.7329 159.372 31.9514L159.762 33.1873C160.337 33.0056 160.897 32.9172 161.443 32.9172V31.6211ZM159.387 31.9469C158.692 32.148 158.077 32.4373 157.555 32.8241L158.327 33.8656C158.705 33.5853 159.174 33.3576 159.747 33.1919L159.387 31.9469ZM158.524 33.0629L156.723 29.3356L155.556 29.8996L157.357 33.6268L158.524 33.0629ZM156.48 30.1691C157.194 29.7284 158.07 29.376 159.119 29.1217L158.814 27.8621C157.661 28.1415 156.653 28.5395 155.799 29.0661L156.48 30.1691ZM159.126 29.1201C160.194 28.8492 161.249 28.7147 162.293 28.7147V27.4186C161.137 27.4186 159.974 27.5677 158.807 27.8638L159.126 29.1201ZM162.268 39.4962C162.793 39.4962 163.281 39.3516 163.71 39.0578L162.978 37.9881C162.774 38.1279 162.544 38.2001 162.268 38.2001V39.4962ZM163.71 39.0578C164.163 38.7481 164.47 38.2978 164.657 37.7593L163.432 37.3354C163.318 37.664 163.159 37.8641 162.978 37.9881L163.71 39.0578ZM164.693 37.5473V36.5968H163.396V37.5473H164.693ZM164.044 35.9487H162.644V37.2448H164.044V35.9487ZM162.644 35.9487C162.017 35.9487 161.433 36.0495 160.99 36.3452C160.5 36.6719 160.27 37.1751 160.27 37.7475H161.566C161.566 37.5527 161.623 37.4806 161.709 37.4237C161.84 37.3358 162.12 37.2448 162.644 37.2448V35.9487ZM160.27 37.7475C160.27 38.2456 160.462 38.6842 160.827 39.0228L161.709 38.073C161.607 37.9781 161.566 37.883 161.566 37.7475H160.27ZM160.863 39.054C161.259 39.3706 161.749 39.4962 162.268 39.4962V38.2001C161.954 38.2001 161.777 38.1255 161.673 38.0419L160.863 39.054ZM194.204 29.5926L193.738 30.0431L193.742 30.047L194.204 29.5926ZM195.705 42V42.6481H196.353V42H195.705ZM190.052 42H189.404V42.6481H190.052V42ZM187.225 33.4199L186.727 33.005L186.722 33.0112L186.717 33.0176L187.225 33.4199ZM186.75 42V42.6481H187.398V42H186.75ZM181.096 42H180.448V42.6481H181.096V42ZM178.27 33.4199L177.772 33.005L177.767 33.0112L177.762 33.0176L178.27 33.4199ZM177.794 42V42.6481H178.443V42H177.794ZM172.141 42H171.493V42.6481H172.141V42ZM172.141 28.3168V27.6688H171.493V28.3168H172.141ZM177.519 28.3168H178.167V27.6688H177.519V28.3168ZM177.519 29.5926H176.871V31.1571L177.978 30.0508L177.519 29.5926ZM183.873 28.592L183.594 29.1769L183.605 29.182L183.873 28.592ZM185.674 30.1429L185.135 30.5024L185.619 31.2283L186.174 30.5553L185.674 30.1429ZM187.675 28.617L187.94 29.2088L187.95 29.2039L187.675 28.617ZM190.252 28.7147C191.759 28.7147 192.897 29.1732 193.738 30.0431L194.67 29.142C193.544 27.9774 192.047 27.4186 190.252 27.4186V28.7147ZM193.742 30.047C194.58 30.8987 195.057 32.2396 195.057 34.1953H196.353C196.353 32.0486 195.83 30.321 194.666 29.1381L193.742 30.047ZM195.057 34.1953V42H196.353V34.1953H195.057ZM195.705 41.3519H190.052V42.6481H195.705V41.3519ZM190.7 42V35.1709H189.404V42H190.7ZM190.7 35.1709C190.7 34.3377 190.568 33.6009 190.214 33.0546C189.828 32.4599 189.231 32.1715 188.526 32.1715V33.4676C188.838 33.4676 189.004 33.571 189.127 33.7601C189.281 33.9977 189.404 34.4365 189.404 35.1709H190.7ZM188.526 32.1715C187.805 32.1715 187.187 32.4529 186.727 33.005L187.723 33.8347C187.93 33.5864 188.179 33.4676 188.526 33.4676V32.1715ZM186.717 33.0176C186.265 33.5884 186.102 34.4005 186.102 35.321H187.398C187.398 34.5072 187.551 34.0518 187.733 33.8221L186.717 33.0176ZM186.102 35.321V42H187.398V35.321H186.102ZM186.75 41.3519H181.096V42.6481H186.75V41.3519ZM181.745 42V35.1709H180.448V42H181.745ZM181.745 35.1709C181.745 34.3377 181.613 33.6009 181.259 33.0546C180.873 32.4599 180.276 32.1715 179.571 32.1715V33.4676C179.883 33.4676 180.049 33.571 180.171 33.7601C180.325 33.9977 180.448 34.4365 180.448 35.1709H181.745ZM179.571 32.1715C178.85 32.1715 178.232 32.4529 177.772 33.005L178.768 33.8347C178.975 33.5864 179.224 33.4676 179.571 33.4676V32.1715ZM177.762 33.0176C177.31 33.5884 177.146 34.4005 177.146 35.321H178.443C178.443 34.5072 178.596 34.0518 178.778 33.8221L177.762 33.0176ZM177.146 35.321V42H178.443V35.321H177.146ZM177.794 41.3519H172.141V42.6481H177.794V41.3519ZM172.789 42V28.3168H171.493V42H172.789ZM172.141 28.9649H177.519V27.6688H172.141V28.9649ZM176.871 28.3168V29.5926H178.167V28.3168H176.871ZM177.978 30.0508C178.862 29.1666 179.984 28.7147 181.397 28.7147V27.4186C179.674 27.4186 178.211 27.984 177.061 29.1343L177.978 30.0508ZM181.397 28.7147C182.23 28.7147 182.958 28.8733 183.594 29.1768L184.152 28.0071C183.321 27.6103 182.398 27.4186 181.397 27.4186V28.7147ZM183.605 29.182C184.224 29.4632 184.732 29.8979 185.135 30.5024L186.213 29.7834C185.683 28.9871 184.99 28.3879 184.141 28.002L183.605 29.182ZM186.174 30.5553C186.661 29.9648 187.248 29.5178 187.94 29.2087L187.411 28.0253C186.535 28.4166 185.788 28.9869 185.174 29.7305L186.174 30.5553ZM187.95 29.2039C188.641 28.8804 189.405 28.7147 190.252 28.7147V27.4186C189.231 27.4186 188.277 27.6198 187.401 28.0301L187.95 29.2039Z" fill="#21252D"/>
<path fill-rule="evenodd" clip-rule="evenodd" d="M35.8559 42.1829L29.4448 48.1387L27.6322 48.411L23.576 32.9179L9.30731 27.7226L53.2352 9.16162L55.3073 9.21301L48.3862 50.9444L35.8559 42.1829ZM46.8425 17.0033L26.7143 30.3793L29.0322 41.3402L29.6673 41.1809L32.0871 32.7226L48.173 17.178L46.8425 17.0033Z" fill="white"/>
</g>
<defs>
<clipPath id="clip0_29_317">
<rect width="210" height="60" fill="white"/>
</clipPath>
</defs>
</svg>
