<svg width="161" height="60" viewBox="0 0 161 60" fill="none" xmlns="http://www.w3.org/2000/svg">
<g clip-path="url(#clip0_238_2068)">
<mask id="path-1-outside-1_238_2068" maskUnits="userSpaceOnUse" x="69.7278" y="22" width="75" height="26" fill="black">
<rect fill="white" x="69.7278" y="22" width="75" height="26"/>
<path d="M86.6129 37.4223V42H70.5283V38.3728L78.5331 29.0673H70.7785V24.4895H86.2127V28.1167L78.2079 37.4223H86.6129ZM102.711 35.1459C102.711 35.2293 102.686 35.6712 102.636 36.4717H93.1299C93.33 36.9887 93.6636 37.3889 94.1305 37.6724C94.5975 37.9392 95.1811 38.0727 95.8816 38.0727C96.4819 38.0727 96.9822 37.9976 97.3825 37.8475C97.7994 37.6974 98.2496 37.4389 98.7333 37.0721L101.685 40.0488C100.351 41.5164 98.358 42.2501 95.7065 42.2501C94.0555 42.2501 92.6046 41.95 91.3539 41.3496C90.1031 40.7326 89.1359 39.8821 88.4521 38.7981C87.7684 37.7141 87.4265 36.4967 87.4265 35.1459C87.4265 33.7784 87.76 32.561 88.4271 31.4937C89.1108 30.4097 90.0364 29.5676 91.2038 28.9672C92.3878 28.3669 93.7136 28.0667 95.1811 28.0667C96.5653 28.0667 97.8244 28.3418 98.9584 28.8922C100.109 29.4425 101.018 30.2513 101.685 31.3186C102.369 32.3859 102.711 33.6617 102.711 35.1459ZM95.2312 31.919C94.6475 31.919 94.1639 32.0774 93.7803 32.3943C93.3967 32.7111 93.1466 33.1614 93.0299 33.7451H97.4325C97.3157 33.1781 97.0656 32.7361 96.682 32.4193C96.2985 32.0857 95.8149 31.919 95.2312 31.919ZM110.257 28.0667C112.658 28.0667 114.493 28.6087 115.76 29.6926C117.028 30.76 117.661 32.4109 117.661 34.6456V42H112.408V40.1989C111.758 41.5664 110.465 42.2501 108.531 42.2501C107.447 42.2501 106.521 42.0667 105.754 41.6998C105.004 41.3163 104.428 40.8076 104.028 40.1739C103.645 39.5235 103.453 38.7981 103.453 37.9976C103.453 36.6468 103.97 35.6212 105.004 34.9208C106.038 34.2204 107.605 33.8701 109.707 33.8701H111.983C111.8 32.8028 110.941 32.2692 109.406 32.2692C108.789 32.2692 108.164 32.3692 107.53 32.5694C106.897 32.7528 106.355 33.0113 105.904 33.3448L104.103 29.6176C104.887 29.134 105.829 28.7588 106.93 28.4919C108.047 28.2084 109.156 28.0667 110.257 28.0667ZM110.232 38.8481C110.632 38.8481 110.991 38.7397 111.308 38.5229C111.624 38.3061 111.858 37.9809 112.008 37.5473V36.5968H110.607C109.456 36.5968 108.881 36.9803 108.881 37.7475C108.881 38.0643 108.998 38.3311 109.231 38.5479C109.481 38.7481 109.815 38.8481 110.232 38.8481ZM120.105 23.4389H125.758V42H120.105V23.4389ZM143.498 28.3168L137.87 42.2752C137.152 44.0596 136.26 45.3103 135.193 46.0274C134.126 46.7445 132.817 47.103 131.266 47.103C130.498 47.103 129.723 46.9863 128.939 46.7528C128.172 46.536 127.563 46.2442 127.113 45.8773L128.989 42C129.273 42.2168 129.59 42.3919 129.94 42.5253C130.307 42.6587 130.657 42.7254 130.99 42.7254C131.607 42.7254 132.074 42.542 132.391 42.1751L126.638 28.3168H132.441L135.268 35.6462L138.145 28.3168H143.498Z"/>
</mask>
<path d="M86.6129 37.4223V42H70.5283V38.3728L78.5331 29.0673H70.7785V24.4895H86.2127V28.1167L78.2079 37.4223H86.6129ZM102.711 35.1459C102.711 35.2293 102.686 35.6712 102.636 36.4717H93.1299C93.33 36.9887 93.6636 37.3889 94.1305 37.6724C94.5975 37.9392 95.1811 38.0727 95.8816 38.0727C96.4819 38.0727 96.9822 37.9976 97.3825 37.8475C97.7994 37.6974 98.2496 37.4389 98.7333 37.0721L101.685 40.0488C100.351 41.5164 98.358 42.2501 95.7065 42.2501C94.0555 42.2501 92.6046 41.95 91.3539 41.3496C90.1031 40.7326 89.1359 39.8821 88.4521 38.7981C87.7684 37.7141 87.4265 36.4967 87.4265 35.1459C87.4265 33.7784 87.76 32.561 88.4271 31.4937C89.1108 30.4097 90.0364 29.5676 91.2038 28.9672C92.3878 28.3669 93.7136 28.0667 95.1811 28.0667C96.5653 28.0667 97.8244 28.3418 98.9584 28.8922C100.109 29.4425 101.018 30.2513 101.685 31.3186C102.369 32.3859 102.711 33.6617 102.711 35.1459ZM95.2312 31.919C94.6475 31.919 94.1639 32.0774 93.7803 32.3943C93.3967 32.7111 93.1466 33.1614 93.0299 33.7451H97.4325C97.3157 33.1781 97.0656 32.7361 96.682 32.4193C96.2985 32.0857 95.8149 31.919 95.2312 31.919ZM110.257 28.0667C112.658 28.0667 114.493 28.6087 115.76 29.6926C117.028 30.76 117.661 32.4109 117.661 34.6456V42H112.408V40.1989C111.758 41.5664 110.465 42.2501 108.531 42.2501C107.447 42.2501 106.521 42.0667 105.754 41.6998C105.004 41.3163 104.428 40.8076 104.028 40.1739C103.645 39.5235 103.453 38.7981 103.453 37.9976C103.453 36.6468 103.97 35.6212 105.004 34.9208C106.038 34.2204 107.605 33.8701 109.707 33.8701H111.983C111.8 32.8028 110.941 32.2692 109.406 32.2692C108.789 32.2692 108.164 32.3692 107.53 32.5694C106.897 32.7528 106.355 33.0113 105.904 33.3448L104.103 29.6176C104.887 29.134 105.829 28.7588 106.93 28.4919C108.047 28.2084 109.156 28.0667 110.257 28.0667ZM110.232 38.8481C110.632 38.8481 110.991 38.7397 111.308 38.5229C111.624 38.3061 111.858 37.9809 112.008 37.5473V36.5968H110.607C109.456 36.5968 108.881 36.9803 108.881 37.7475C108.881 38.0643 108.998 38.3311 109.231 38.5479C109.481 38.7481 109.815 38.8481 110.232 38.8481ZM120.105 23.4389H125.758V42H120.105V23.4389ZM143.498 28.3168L137.87 42.2752C137.152 44.0596 136.26 45.3103 135.193 46.0274C134.126 46.7445 132.817 47.103 131.266 47.103C130.498 47.103 129.723 46.9863 128.939 46.7528C128.172 46.536 127.563 46.2442 127.113 45.8773L128.989 42C129.273 42.2168 129.59 42.3919 129.94 42.5253C130.307 42.6587 130.657 42.7254 130.99 42.7254C131.607 42.7254 132.074 42.542 132.391 42.1751L126.638 28.3168H132.441L135.268 35.6462L138.145 28.3168H143.498Z" fill="white"/>
<path d="M86.6129 37.4223H87.261V36.7742H86.6129V37.4223ZM86.6129 42V42.6481H87.261V42H86.6129ZM70.5283 42H69.8803V42.6481H70.5283V42ZM70.5283 38.3728L70.037 37.9502L69.8803 38.1324V38.3728H70.5283ZM78.5331 29.0673L79.0244 29.4899L79.9454 28.4192H78.5331V29.0673ZM70.7785 29.0673H70.1304V29.7153H70.7785V29.0673ZM70.7785 24.4895V23.8415H70.1304V24.4895H70.7785ZM86.2127 24.4895H86.8608V23.8415H86.2127V24.4895ZM86.2127 28.1167L86.704 28.5393L86.8608 28.3571V28.1167H86.2127ZM78.2079 37.4223L77.7166 36.9996L76.7956 38.0703H78.2079V37.4223ZM85.9649 37.4223V42H87.261V37.4223H85.9649ZM86.6129 41.3519H70.5283V42.6481H86.6129V41.3519ZM71.1764 42V38.3728H69.8803V42H71.1764ZM71.0196 38.7955L79.0244 29.4899L78.0418 28.6447L70.037 37.9502L71.0196 38.7955ZM78.5331 28.4192H70.7785V29.7153H78.5331V28.4192ZM71.4265 29.0673V24.4895H70.1304V29.0673H71.4265ZM70.7785 25.1376H86.2127V23.8415H70.7785V25.1376ZM85.5646 24.4895V28.1167H86.8608V24.4895H85.5646ZM85.7214 27.6941L77.7166 36.9996L78.6992 37.8449L86.704 28.5393L85.7214 27.6941ZM78.2079 38.0703H86.6129V36.7742H78.2079V38.0703ZM102.636 36.4717V37.1198H103.244L103.282 36.5121L102.636 36.4717ZM93.1299 36.4717V35.8236H92.1841L92.5256 36.7056L93.1299 36.4717ZM94.1305 37.6724L93.7942 38.2264L93.8015 38.2308L93.809 38.2351L94.1305 37.6724ZM97.3825 37.8475L97.1629 37.2377L97.1549 37.2407L97.3825 37.8475ZM98.7333 37.0721L99.1934 36.6157L98.7938 36.2127L98.3416 36.5558L98.7333 37.0721ZM101.685 40.0488L102.165 40.4848L102.578 40.0295L102.145 39.5925L101.685 40.0488ZM91.3539 41.3496L91.0671 41.9308L91.0734 41.9338L91.3539 41.3496ZM88.4521 38.7981L89.0002 38.4523L88.4521 38.7981ZM88.4271 31.4937L87.879 31.148L87.8776 31.1503L88.4271 31.4937ZM91.2038 28.9672L90.9107 28.3892L90.9074 28.3909L91.2038 28.9672ZM98.9584 28.8922L98.6755 29.4752L98.6788 29.4768L98.9584 28.8922ZM101.685 31.3186L101.135 31.6621L101.139 31.6682L101.685 31.3186ZM93.7803 32.3943L94.193 32.8939L94.193 32.8939L93.7803 32.3943ZM93.0299 33.7451L92.3944 33.618L92.2394 34.3931H93.0299V33.7451ZM97.4325 33.7451V34.3931H98.2276L98.0672 33.6144L97.4325 33.7451ZM96.682 32.4193L96.2568 32.9083L96.263 32.9137L96.2693 32.9189L96.682 32.4193ZM102.063 35.1459C102.063 35.144 102.063 35.1503 102.062 35.1706C102.061 35.1888 102.06 35.2134 102.059 35.2448C102.056 35.3077 102.051 35.3936 102.045 35.5033C102.032 35.7223 102.014 36.0315 101.989 36.4313L103.282 36.5121C103.331 35.7289 103.359 35.2558 103.359 35.1459H102.063ZM102.636 35.8236H93.1299V37.1198H102.636V35.8236ZM92.5256 36.7056C92.7765 37.3538 93.2031 37.8675 93.7942 38.2264L94.4668 37.1185C94.124 36.9103 93.8836 36.6236 93.7343 36.2378L92.5256 36.7056ZM93.809 38.2351C94.3991 38.5723 95.1016 38.7207 95.8816 38.7207V37.4246C95.2607 37.4246 94.7958 37.3062 94.452 37.1097L93.809 38.2351ZM95.8816 38.7207C96.5306 38.7207 97.114 38.6403 97.61 38.4543L97.1549 37.2407C96.8504 37.3549 96.4332 37.4246 95.8816 37.4246V38.7207ZM97.602 38.4573C98.0988 38.2784 98.6069 37.9813 99.1249 37.5884L98.3416 36.5558C97.8924 36.8965 97.5 37.1164 97.1629 37.2378L97.602 38.4573ZM98.2731 37.5284L101.225 40.5051L102.145 39.5925L99.1934 36.6157L98.2731 37.5284ZM101.206 39.6129C100.032 40.904 98.2399 41.6021 95.7065 41.6021V42.8982C98.4762 42.8982 100.67 42.1287 102.165 40.4848L101.206 39.6129ZM95.7065 41.6021C94.1343 41.6021 92.7824 41.3165 91.6343 40.7654L91.0734 41.9338C92.4268 42.5835 93.9766 42.8982 95.7065 42.8982V41.6021ZM91.6406 40.7684C90.4872 40.1994 89.6146 39.4264 89.0002 38.4523L87.904 39.1438C88.6571 40.3377 89.719 41.2657 91.0671 41.9308L91.6406 40.7684ZM89.0002 38.4523C88.3854 37.4776 88.0746 36.3813 88.0746 35.1459H86.7785C86.7785 36.6122 87.1514 37.9506 87.904 39.1438L89.0002 38.4523ZM88.0746 35.1459C88.0746 33.889 88.3795 32.7926 88.9767 31.8372L87.8776 31.1503C87.1406 32.3294 86.7785 33.6679 86.7785 35.1459H88.0746ZM88.9752 31.8395C89.5956 30.8559 90.4332 30.0923 91.5001 29.5435L90.9074 28.3909C89.6396 29.0429 88.6261 29.9636 87.879 31.148L88.9752 31.8395ZM91.4968 29.5452C92.5808 28.9956 93.8045 28.7147 95.1811 28.7147V27.4186C93.6227 27.4186 92.1948 27.7381 90.9107 28.3892L91.4968 29.5452ZM95.1811 28.7147C96.477 28.7147 97.638 28.9717 98.6755 29.4752L99.2413 28.3091C98.0108 27.712 96.6536 27.4186 95.1811 27.4186V28.7147ZM98.6788 29.4768C99.72 29.9748 100.535 30.7007 101.135 31.6621L102.235 30.9751C101.501 29.802 100.498 28.9102 99.238 28.3075L98.6788 29.4768ZM101.139 31.6682C101.745 32.6144 102.063 33.764 102.063 35.1459H103.359C103.359 33.5593 102.992 32.1575 102.231 30.969L101.139 31.6682ZM95.2312 31.2709C94.5242 31.2709 93.8867 31.4657 93.3676 31.8946L94.193 32.8939C94.441 32.6891 94.7708 32.567 95.2312 32.567V31.2709ZM93.3676 31.8946C92.8477 32.3241 92.5344 32.918 92.3944 33.618L93.6653 33.8722C93.7588 33.4047 93.9458 33.0981 94.193 32.8939L93.3676 31.8946ZM93.0299 34.3931H97.4325V33.097H93.0299V34.3931ZM98.0672 33.6144C97.9258 32.9275 97.6103 32.3455 97.0948 31.9196L96.2693 32.9189C96.5209 33.1267 96.7057 33.4286 96.7977 33.8757L98.0672 33.6144ZM97.1073 31.9302C96.5884 31.4791 95.9465 31.2709 95.2312 31.2709V32.567C95.6832 32.567 96.0085 32.6924 96.2568 32.9083L97.1073 31.9302ZM115.76 29.6926L115.339 30.1852L115.343 30.1884L115.76 29.6926ZM117.661 42V42.6481H118.309V42H117.661ZM112.408 42H111.76V42.6481H112.408V42ZM112.408 40.1989H113.056L111.823 39.9206L112.408 40.1989ZM105.754 41.6998L105.459 42.2769L105.467 42.2808L105.475 42.2845L105.754 41.6998ZM104.028 40.1739L103.47 40.5031L103.475 40.5116L103.48 40.52L104.028 40.1739ZM105.004 34.9208L104.64 34.3842L104.64 34.3842L105.004 34.9208ZM111.983 33.8701V34.5182H112.752L112.622 33.7604L111.983 33.8701ZM107.53 32.5694L107.711 33.1919L107.718 33.1897L107.725 33.1873L107.53 32.5694ZM105.904 33.3448L105.321 33.6268L105.661 34.3313L106.29 33.8656L105.904 33.3448ZM104.103 29.6176L103.763 29.0661L103.265 29.3731L103.52 29.8996L104.103 29.6176ZM106.93 28.4919L107.083 29.1218L107.089 29.1201L106.93 28.4919ZM111.308 38.5229L110.942 37.9881L110.942 37.9881L111.308 38.5229ZM112.008 37.5473L112.62 37.7593L112.656 37.6563V37.5473H112.008ZM112.008 36.5968H112.656V35.9487H112.008V36.5968ZM109.231 38.5479L108.79 39.0228L108.808 39.0391L108.826 39.054L109.231 38.5479ZM110.257 28.7147C112.571 28.7147 114.231 29.2377 115.339 30.1851L116.181 29.2001C114.754 27.9796 112.746 27.4186 110.257 27.4186V28.7147ZM115.343 30.1884C116.417 31.0934 117.013 32.5316 117.013 34.6456H118.309C118.309 32.2903 117.638 30.4265 116.178 29.1969L115.343 30.1884ZM117.013 34.6456V42H118.309V34.6456H117.013ZM117.661 41.3519H112.408V42.6481H117.661V41.3519ZM113.056 42V40.1989H111.76V42H113.056ZM111.823 39.9206C111.312 40.9957 110.299 41.6021 108.531 41.6021V42.8982C110.632 42.8982 112.204 42.1371 112.993 40.4773L111.823 39.9206ZM108.531 41.6021C107.518 41.6021 106.693 41.4305 106.034 41.1152L105.475 42.2845C106.35 42.7029 107.376 42.8982 108.531 42.8982V41.6021ZM106.049 41.1228C105.389 40.7854 104.907 40.3515 104.576 39.8279L103.48 40.52C103.95 41.2638 104.619 41.8471 105.459 42.2769L106.049 41.1228ZM104.586 39.8447C104.265 39.3001 104.101 38.6895 104.101 37.9976H102.805C102.805 38.9066 103.024 39.7469 103.47 40.5031L104.586 39.8447ZM104.101 37.9976C104.101 36.841 104.528 36.026 105.367 35.4573L104.64 34.3842C103.412 35.2164 102.805 36.4526 102.805 37.9976H104.101ZM105.367 35.4573C106.243 34.864 107.656 34.5182 109.707 34.5182V33.2221C107.555 33.2221 105.832 33.5767 104.64 34.3842L105.367 35.4573ZM109.707 34.5182H111.983V33.2221H109.707V34.5182ZM112.622 33.7604C112.501 33.0588 112.142 32.4911 111.543 32.119C110.971 31.7634 110.236 31.6211 109.406 31.6211V32.9172C110.111 32.9172 110.573 33.0418 110.859 33.2199C111.119 33.3814 111.281 33.6142 111.344 33.9799L112.622 33.7604ZM109.406 31.6211C108.718 31.6211 108.027 31.7329 107.335 31.9514L107.725 33.1873C108.301 33.0056 108.861 32.9172 109.406 32.9172V31.6211ZM107.35 31.9469C106.655 32.148 106.041 32.4373 105.519 32.8241L106.29 33.8656C106.669 33.5853 107.138 33.3576 107.711 33.1919L107.35 31.9469ZM106.488 33.0629L104.687 29.3356L103.52 29.8996L105.321 33.6268L106.488 33.0629ZM104.444 30.1691C105.158 29.7284 106.034 29.376 107.083 29.1217L106.777 27.8621C105.625 28.1415 104.616 28.5395 103.763 29.0661L104.444 30.1691ZM107.089 29.1201C108.157 28.8492 109.213 28.7147 110.257 28.7147V27.4186C109.1 27.4186 107.938 27.5677 106.771 27.8638L107.089 29.1201ZM110.232 39.4962C110.757 39.4962 111.244 39.3516 111.674 39.0578L110.942 37.9881C110.737 38.1279 110.507 38.2001 110.232 38.2001V39.4962ZM111.674 39.0578C112.126 38.7481 112.434 38.2978 112.62 37.7593L111.396 37.3354C111.282 37.664 111.123 37.8641 110.942 37.9881L111.674 39.0578ZM112.656 37.5473V36.5968H111.36V37.5473H112.656ZM112.008 35.9487H110.607V37.2448H112.008V35.9487ZM110.607 35.9487C109.98 35.9487 109.397 36.0495 108.953 36.3452C108.463 36.6719 108.233 37.1751 108.233 37.7475H109.529C109.529 37.5527 109.587 37.4806 109.672 37.4237C109.804 37.3358 110.083 37.2448 110.607 37.2448V35.9487ZM108.233 37.7475C108.233 38.2456 108.426 38.6842 108.79 39.0228L109.672 38.073C109.57 37.9781 109.529 37.883 109.529 37.7475H108.233ZM108.826 39.054C109.222 39.3706 109.713 39.4962 110.232 39.4962V38.2001C109.917 38.2001 109.741 38.1255 109.636 38.0419L108.826 39.054ZM120.105 23.4389V22.7909H119.457V23.4389H120.105ZM125.758 23.4389H126.406V22.7909H125.758V23.4389ZM125.758 42V42.6481H126.406V42H125.758ZM120.105 42H119.457V42.6481H120.105V42ZM120.105 24.087H125.758V22.7909H120.105V24.087ZM125.11 23.4389V42H126.406V23.4389H125.11ZM125.758 41.3519H120.105V42.6481H125.758V41.3519ZM120.753 42V23.4389H119.457V42H120.753ZM143.498 28.3168L144.099 28.5592L144.458 27.6688H143.498V28.3168ZM137.87 42.2752L137.268 42.0328L137.268 42.0335L137.87 42.2752ZM135.193 46.0274L135.554 46.5653L135.554 46.5653L135.193 46.0274ZM128.939 46.7528L129.124 46.1317L129.115 46.1292L128.939 46.7528ZM127.113 45.8773L126.53 45.595L126.307 46.0561L126.704 46.3797L127.113 45.8773ZM128.989 42L129.383 41.4852L128.752 41.0027L128.406 41.7177L128.989 42ZM129.94 42.5253L129.709 43.131L129.718 43.1344L129.94 42.5253ZM132.391 42.1751L132.882 42.5987L133.143 42.296L132.99 41.9266L132.391 42.1751ZM126.638 28.3168V27.6688H125.667L126.039 28.5653L126.638 28.3168ZM132.441 28.3168L133.046 28.0836L132.886 27.6688H132.441V28.3168ZM135.268 35.6462L134.663 35.8794L135.263 37.4335L135.871 35.883L135.268 35.6462ZM138.145 28.3168V27.6688H137.703L137.541 28.0801L138.145 28.3168ZM142.897 28.0745L137.268 42.0328L138.471 42.5175L144.099 28.5592L142.897 28.0745ZM137.268 42.0335C136.577 43.7536 135.75 44.8726 134.832 45.4895L135.554 46.5653C136.771 45.7481 137.728 44.3655 138.471 42.5168L137.268 42.0335ZM134.832 45.4895C133.891 46.1211 132.715 46.455 131.266 46.455V47.7511C132.918 47.7511 134.36 47.3679 135.554 46.5653L134.832 45.4895ZM131.266 46.455C130.565 46.455 129.852 46.3485 129.124 46.1318L128.754 47.3739C129.594 47.6241 130.432 47.7511 131.266 47.7511V46.455ZM129.115 46.1292C128.404 45.9281 127.884 45.6692 127.522 45.3749L126.704 46.3797C127.243 46.8192 127.94 47.144 128.763 47.3765L129.115 46.1292ZM127.696 46.1596L129.573 42.2823L128.406 41.7177L126.53 45.595L127.696 46.1596ZM128.596 42.5148C128.931 42.7714 129.303 42.9764 129.709 43.1309L130.17 41.9197C129.876 41.8074 129.614 41.6622 129.383 41.4852L128.596 42.5148ZM129.718 43.1344C130.144 43.2893 130.57 43.3735 130.99 43.3735V42.0774C130.744 42.0774 130.469 42.0282 130.161 41.9163L129.718 43.1344ZM130.99 43.3735C131.741 43.3735 132.41 43.1452 132.882 42.5987L131.901 41.7515C131.739 41.9388 131.474 42.0774 130.99 42.0774V43.3735ZM132.99 41.9266L127.236 28.0683L126.039 28.5653L131.793 42.4236L132.99 41.9266ZM126.638 28.9649H132.441V27.6688H126.638V28.9649ZM131.837 28.55L134.663 35.8794L135.873 35.413L133.046 28.0836L131.837 28.55ZM135.871 35.883L138.748 28.5536L137.541 28.0801L134.665 35.4094L135.871 35.883ZM138.145 28.9649H143.498V27.6688H138.145V28.9649Z" fill="#21252D" mask="url(#path-1-outside-1_238_2068)"/>
<mask id="mask0_238_2068" style="mask-type:luminance" maskUnits="userSpaceOnUse" x="15" y="7" width="45" height="46">
<path d="M59.4207 7.78967H15V52.2104H59.4207V7.78967Z" fill="white"/>
</mask>
<g mask="url(#mask0_238_2068)">
<path fill-rule="evenodd" clip-rule="evenodd" d="M17.8434 12.677L16.1692 12.5883L16.1616 14.2792L16.1607 14.6317C16.1602 14.9062 16.1596 15.3802 16.1589 16.1787C16.1576 17.7758 16.1562 20.6719 16.1562 25.869V26.5365L18.14 28.5373C17.3545 29.0358 16.5653 29.5284 15.7725 30.0153L15.0062 30.4859L15 41.632L24.1501 50.8662L24.7509 50.9056C35.9783 51.6454 47.5252 50.8247 58.3438 47.0605L59.4207 46.6858V33.2922L57.0801 30.9317C57.4789 30.5346 57.8767 30.1343 58.2717 29.7313L58.7335 29.2603V28.5981C58.7335 28.1409 58.7348 25.7471 58.7361 23.4664L58.7391 18.3523L49.3146 8.84729L48.3766 9.16423C38.6361 12.4551 28.1893 13.2248 17.8434 12.677ZM48.8842 10.6924L57.1408 19.0195C57.1408 19.0195 57.1355 27.6826 57.1355 28.5981C56.7429 28.9984 56.3472 29.3968 55.9501 29.792C55.5699 30.1705 55.1884 30.5464 54.8072 30.9186L57.8225 33.9597V45.5368C47.2642 49.2106 35.9438 50.028 24.8549 49.2974L16.5984 40.965L16.6037 31.3917C17.5066 30.8373 18.405 30.2753 19.2987 29.7058C19.7598 29.4118 20.2196 29.1159 20.6783 28.818L17.7543 25.869C17.7543 20.3527 17.7558 17.4293 17.7572 15.9003C17.7585 14.5483 17.7596 14.2864 17.7596 14.2864C18.2918 14.3146 18.8245 14.3395 19.3574 14.3605C29.3125 14.7557 39.4007 13.8965 48.8842 10.6924Z" fill="white"/>
<path fill-rule="evenodd" clip-rule="evenodd" d="M48.884 10.6924C38.893 14.0681 28.2302 14.841 17.7595 14.2865C17.7595 14.2865 17.7542 15.4754 17.7542 25.869L20.6781 28.818C19.3309 29.6933 17.9725 30.5511 16.6036 31.3917L16.5983 40.965L24.8548 49.2974C35.9438 50.0281 47.264 49.2106 57.8226 45.5368V33.9598L54.807 30.9187C55.586 30.1577 56.3669 29.3819 57.1353 28.5982C57.1353 27.6827 57.1406 19.0194 57.1406 19.0194L48.884 10.6924ZM53.9391 27.873V23.2314L53.9338 23.2259C46.7426 25.2513 39.5514 26.0195 32.3602 26.0195C31.3056 26.0195 30.2562 26.0034 29.2014 25.9712V31.1071C30.2668 31.1393 31.3269 31.1554 32.3923 31.1554C36.0943 31.1554 39.7965 30.9513 43.4987 30.4731C38.353 34.6474 33.202 38.295 28.0509 41.599V46.2406C29.4891 46.2997 30.9273 46.3319 32.3655 46.3319C39.7859 46.3319 47.206 45.5101 54.6317 43.3397V38.2039C49.2462 39.7725 43.8715 40.6373 38.4915 40.9974C43.6371 37.1455 48.7881 32.8262 53.9391 27.873Z" fill="#0D0D0D"/>
<path d="M53.9393 23.2313V27.8729C48.7883 32.826 43.6373 37.1454 38.4915 40.9973C43.8715 40.6374 49.2464 39.7724 54.6317 38.2038C54.6317 39.9176 54.6317 41.6258 54.6317 43.3396C47.2062 45.51 39.7859 46.332 32.3657 46.332C30.9275 46.332 29.4893 46.2996 28.0509 46.2407V41.5989C33.202 38.2951 38.353 34.6473 43.4987 30.4731C39.7967 30.9511 36.0945 31.1553 32.3923 31.1553C31.3269 31.1553 30.267 31.1392 29.2016 31.1069C29.2016 29.3932 29.2016 27.6849 29.2016 25.9711C30.2562 26.0033 31.3057 26.0194 32.3604 26.0194C39.5516 26.0194 46.7428 25.2512 53.934 23.2258L53.9393 23.2313Z" fill="white"/>
</g>
</g>
<defs>
<clipPath id="clip0_238_2068">
<rect width="161" height="60" fill="white"/>
</clipPath>
</defs>
</svg>
