<svg width="257" height="60" viewBox="0 0 257 60" fill="none" xmlns="http://www.w3.org/2000/svg">
<mask id="path-1-outside-1_199_2106" maskUnits="userSpaceOnUse" x="69.7278" y="23" width="175" height="21" fill="black">
<rect fill="white" x="69.7278" y="23" width="175" height="21"/>
<path d="M71.1537 24.4895H79.7839C81.735 24.4895 83.4527 24.8481 84.9369 25.5652C86.4378 26.2656 87.5969 27.2745 88.414 28.592C89.2478 29.9094 89.6648 31.4604 89.6648 33.2448C89.6648 35.0292 89.2478 36.5801 88.414 37.8975C87.5969 39.215 86.4378 40.2323 84.9369 40.9494C83.4527 41.6498 81.735 42 79.7839 42H71.1537V24.4895ZM79.5337 37.3972C80.8011 37.3972 81.8101 37.0387 82.5605 36.3216C83.3276 35.5878 83.7112 34.5622 83.7112 33.2448C83.7112 31.9273 83.3276 30.91 82.5605 30.1929C81.8101 29.4592 80.8011 29.0923 79.5337 29.0923H77.0572V37.3972H79.5337ZM106.204 35.1459C106.204 35.2293 106.179 35.6712 106.129 36.4717H96.6232C96.8233 36.9887 97.1569 37.3889 97.6238 37.6724C98.0908 37.9392 98.6744 38.0727 99.3749 38.0727C99.9752 38.0727 100.476 37.9976 100.876 37.8475C101.293 37.6974 101.743 37.4389 102.227 37.0721L105.178 40.0488C103.844 41.5164 101.851 42.2501 99.1998 42.2501C97.5488 42.2501 96.0979 41.95 94.8471 41.3496C93.5964 40.7326 92.6292 39.8821 91.9454 38.7981C91.2617 37.7141 90.9198 36.4967 90.9198 35.1459C90.9198 33.7784 91.2533 32.561 91.9204 31.4937C92.6041 30.4097 93.5297 29.5676 94.6971 28.9672C95.8811 28.3669 97.2069 28.0667 98.6744 28.0667C100.059 28.0667 101.318 28.3418 102.452 28.8922C103.602 29.4425 104.511 30.2513 105.178 31.3186C105.862 32.3859 106.204 33.6617 106.204 35.1459ZM98.7245 31.919C98.1408 31.919 97.6572 32.0774 97.2736 32.3943C96.89 32.7111 96.6399 33.1614 96.5232 33.7451H100.926C100.809 33.1781 100.559 32.7361 100.175 32.4193C99.7918 32.0857 99.3081 31.919 98.7245 31.919ZM116.252 42L114.376 39.0733L112.274 42H106.146L111.324 35.2209L106.296 28.3168H112.675L114.626 31.2186L116.677 28.3168H122.606L117.578 34.9708L122.731 42H116.252ZM130.449 42.4002C128.998 42.4002 127.58 42.2418 126.196 41.925C124.828 41.5914 123.703 41.1495 122.819 40.5992L124.72 36.2966C125.554 36.7802 126.488 37.1721 127.522 37.4723C128.556 37.7558 129.548 37.8975 130.499 37.8975C131.316 37.8975 131.899 37.8225 132.25 37.6724C132.6 37.5056 132.775 37.2638 132.775 36.947C132.775 36.5801 132.541 36.3049 132.074 36.1215C131.624 35.938 130.874 35.7379 129.823 35.5211C128.472 35.2376 127.347 34.9374 126.446 34.6206C125.546 34.2871 124.762 33.7534 124.095 33.0196C123.428 32.2692 123.094 31.2602 123.094 29.9928C123.094 28.8922 123.403 27.8916 124.02 26.991C124.637 26.0905 125.554 25.3817 126.771 24.8648C128.005 24.3478 129.498 24.0893 131.249 24.0893C132.45 24.0893 133.625 24.2227 134.776 24.4895C135.943 24.7397 136.969 25.1149 137.853 25.6152L136.077 29.8928C134.359 29.0256 132.733 28.592 131.199 28.592C129.681 28.592 128.923 28.9589 128.923 29.6926C128.923 30.0429 129.148 30.3097 129.598 30.4931C130.048 30.6599 130.79 30.8433 131.824 31.0435C133.158 31.2936 134.284 31.5854 135.201 31.919C136.119 32.2358 136.911 32.7611 137.578 33.4949C138.262 34.2287 138.603 35.2293 138.603 36.4967C138.603 37.5974 138.295 38.598 137.678 39.4985C137.061 40.3824 136.135 41.0911 134.901 41.6248C133.684 42.1418 132.2 42.4002 130.449 42.4002ZM147.539 42.2501C145.988 42.2501 144.596 41.95 143.362 41.3496C142.144 40.7493 141.186 39.9071 140.485 38.8231C139.801 37.7391 139.46 36.5134 139.46 35.1459C139.46 33.7784 139.801 32.561 140.485 31.4937C141.186 30.4097 142.144 29.5676 143.362 28.9672C144.596 28.3669 145.988 28.0667 147.539 28.0667C149.207 28.0667 150.633 28.4252 151.817 29.1423C153.001 29.8594 153.818 30.8517 154.268 32.1191L149.891 34.2704C149.357 33.0697 148.565 32.4693 147.514 32.4693C146.847 32.4693 146.289 32.7028 145.838 33.1697C145.405 33.6367 145.188 34.2954 145.188 35.1459C145.188 36.0131 145.405 36.6802 145.838 37.1471C146.289 37.614 146.847 37.8475 147.514 37.8475C148.565 37.8475 149.357 37.2472 149.891 36.0464L154.268 38.1977C153.818 39.4652 153.001 40.4574 151.817 41.1745C150.633 41.8916 149.207 42.2501 147.539 42.2501ZM160.953 29.7927C161.954 28.642 163.43 28.0667 165.381 28.0667V33.0697C164.931 33.003 164.514 32.9696 164.13 32.9696C162.196 32.9696 161.228 33.9535 161.228 35.9214V42H155.575V28.3168H160.953V29.7927ZM181.42 35.1459C181.42 35.2293 181.395 35.6712 181.345 36.4717H171.839C172.039 36.9887 172.373 37.3889 172.84 37.6724C173.307 37.9392 173.89 38.0727 174.591 38.0727C175.191 38.0727 175.691 37.9976 176.092 37.8475C176.509 37.6974 176.959 37.4389 177.442 37.0721L180.394 40.0488C179.06 41.5164 177.067 42.2501 174.416 42.2501C172.765 42.2501 171.314 41.95 170.063 41.3496C168.812 40.7326 167.845 39.8821 167.161 38.7981C166.478 37.7141 166.136 36.4967 166.136 35.1459C166.136 33.7784 166.469 32.561 167.136 31.4937C167.82 30.4097 168.746 29.5676 169.913 28.9672C171.097 28.3669 172.423 28.0667 173.89 28.0667C175.274 28.0667 176.534 28.3418 177.668 28.8922C178.818 29.4425 179.727 30.2513 180.394 31.3186C181.078 32.3859 181.42 33.6617 181.42 35.1459ZM173.94 31.919C173.357 31.919 172.873 32.0774 172.489 32.3943C172.106 32.7111 171.856 33.1614 171.739 33.7451H176.142C176.025 33.1781 175.775 32.7361 175.391 32.4193C175.008 32.0857 174.524 31.919 173.94 31.919ZM197.763 35.1459C197.763 35.2293 197.738 35.6712 197.688 36.4717H188.182C188.382 36.9887 188.715 37.3889 189.182 37.6724C189.649 37.9392 190.233 38.0727 190.933 38.0727C191.534 38.0727 192.034 37.9976 192.434 37.8475C192.851 37.6974 193.302 37.4389 193.785 37.0721L196.737 40.0488C195.403 41.5164 193.41 42.2501 190.758 42.2501C189.107 42.2501 187.657 41.95 186.406 41.3496C185.155 40.7326 184.188 39.8821 183.504 38.7981C182.82 37.7141 182.478 36.4967 182.478 35.1459C182.478 33.7784 182.812 32.561 183.479 31.4937C184.163 30.4097 185.088 29.5676 186.256 28.9672C187.44 28.3669 188.766 28.0667 190.233 28.0667C191.617 28.0667 192.876 28.3418 194.01 28.8922C195.161 29.4425 196.07 30.2513 196.737 31.3186C197.421 32.3859 197.763 33.6617 197.763 35.1459ZM190.283 31.919C189.699 31.919 189.216 32.0774 188.832 32.3943C188.449 32.7111 188.199 33.1614 188.082 33.7451H192.484C192.368 33.1781 192.118 32.7361 191.734 32.4193C191.35 32.0857 190.867 31.919 190.283 31.919ZM209.052 28.0667C210.737 28.0667 212.087 28.5753 213.105 29.5926C214.139 30.6099 214.656 32.1441 214.656 34.1953V42H209.002V35.1709C209.002 33.6033 208.444 32.8195 207.326 32.8195C206.693 32.8195 206.176 33.0446 205.775 33.4949C205.392 33.9285 205.2 34.6206 205.2 35.5712V42H199.547V28.3168H204.925V29.6676C205.458 29.134 206.076 28.7337 206.776 28.4669C207.476 28.2001 208.235 28.0667 209.052 28.0667ZM231.914 35.1459C231.914 35.2293 231.889 35.6712 231.839 36.4717H222.333C222.533 36.9887 222.867 37.3889 223.334 37.6724C223.801 37.9392 224.384 38.0727 225.085 38.0727C225.685 38.0727 226.185 37.9976 226.586 37.8475C227.003 37.6974 227.453 37.4389 227.936 37.0721L230.888 40.0488C229.554 41.5164 227.561 42.2501 224.91 42.2501C223.259 42.2501 221.808 41.95 220.557 41.3496C219.306 40.7326 218.339 39.8821 217.655 38.7981C216.972 37.7141 216.63 36.4967 216.63 35.1459C216.63 33.7784 216.963 32.561 217.63 31.4937C218.314 30.4097 219.24 29.5676 220.407 28.9672C221.591 28.3669 222.917 28.0667 224.384 28.0667C225.768 28.0667 227.028 28.3418 228.162 28.8922C229.312 29.4425 230.221 30.2513 230.888 31.3186C231.572 32.3859 231.914 33.6617 231.914 35.1459ZM224.434 31.919C223.851 31.919 223.367 32.0774 222.983 32.3943C222.6 32.7111 222.35 33.1614 222.233 33.7451H226.636C226.519 33.1781 226.269 32.7361 225.885 32.4193C225.502 32.0857 225.018 31.919 224.434 31.919ZM239.076 29.7927C240.077 28.642 241.553 28.0667 243.504 28.0667V33.0697C243.053 33.003 242.637 32.9696 242.253 32.9696C240.319 32.9696 239.351 33.9535 239.351 35.9214V42H233.698V28.3168H239.076V29.7927Z"/>
</mask>
<path d="M71.1537 24.4895H79.7839C81.735 24.4895 83.4527 24.8481 84.9369 25.5652C86.4378 26.2656 87.5969 27.2745 88.414 28.592C89.2478 29.9094 89.6648 31.4604 89.6648 33.2448C89.6648 35.0292 89.2478 36.5801 88.414 37.8975C87.5969 39.215 86.4378 40.2323 84.9369 40.9494C83.4527 41.6498 81.735 42 79.7839 42H71.1537V24.4895ZM79.5337 37.3972C80.8011 37.3972 81.8101 37.0387 82.5605 36.3216C83.3276 35.5878 83.7112 34.5622 83.7112 33.2448C83.7112 31.9273 83.3276 30.91 82.5605 30.1929C81.8101 29.4592 80.8011 29.0923 79.5337 29.0923H77.0572V37.3972H79.5337ZM106.204 35.1459C106.204 35.2293 106.179 35.6712 106.129 36.4717H96.6232C96.8233 36.9887 97.1569 37.3889 97.6238 37.6724C98.0908 37.9392 98.6744 38.0727 99.3749 38.0727C99.9752 38.0727 100.476 37.9976 100.876 37.8475C101.293 37.6974 101.743 37.4389 102.227 37.0721L105.178 40.0488C103.844 41.5164 101.851 42.2501 99.1998 42.2501C97.5488 42.2501 96.0979 41.95 94.8471 41.3496C93.5964 40.7326 92.6292 39.8821 91.9454 38.7981C91.2617 37.7141 90.9198 36.4967 90.9198 35.1459C90.9198 33.7784 91.2533 32.561 91.9204 31.4937C92.6041 30.4097 93.5297 29.5676 94.6971 28.9672C95.8811 28.3669 97.2069 28.0667 98.6744 28.0667C100.059 28.0667 101.318 28.3418 102.452 28.8922C103.602 29.4425 104.511 30.2513 105.178 31.3186C105.862 32.3859 106.204 33.6617 106.204 35.1459ZM98.7245 31.919C98.1408 31.919 97.6572 32.0774 97.2736 32.3943C96.89 32.7111 96.6399 33.1614 96.5232 33.7451H100.926C100.809 33.1781 100.559 32.7361 100.175 32.4193C99.7918 32.0857 99.3081 31.919 98.7245 31.919ZM116.252 42L114.376 39.0733L112.274 42H106.146L111.324 35.2209L106.296 28.3168H112.675L114.626 31.2186L116.677 28.3168H122.606L117.578 34.9708L122.731 42H116.252ZM130.449 42.4002C128.998 42.4002 127.58 42.2418 126.196 41.925C124.828 41.5914 123.703 41.1495 122.819 40.5992L124.72 36.2966C125.554 36.7802 126.488 37.1721 127.522 37.4723C128.556 37.7558 129.548 37.8975 130.499 37.8975C131.316 37.8975 131.899 37.8225 132.25 37.6724C132.6 37.5056 132.775 37.2638 132.775 36.947C132.775 36.5801 132.541 36.3049 132.074 36.1215C131.624 35.938 130.874 35.7379 129.823 35.5211C128.472 35.2376 127.347 34.9374 126.446 34.6206C125.546 34.2871 124.762 33.7534 124.095 33.0196C123.428 32.2692 123.094 31.2602 123.094 29.9928C123.094 28.8922 123.403 27.8916 124.02 26.991C124.637 26.0905 125.554 25.3817 126.771 24.8648C128.005 24.3478 129.498 24.0893 131.249 24.0893C132.45 24.0893 133.625 24.2227 134.776 24.4895C135.943 24.7397 136.969 25.1149 137.853 25.6152L136.077 29.8928C134.359 29.0256 132.733 28.592 131.199 28.592C129.681 28.592 128.923 28.9589 128.923 29.6926C128.923 30.0429 129.148 30.3097 129.598 30.4931C130.048 30.6599 130.79 30.8433 131.824 31.0435C133.158 31.2936 134.284 31.5854 135.201 31.919C136.119 32.2358 136.911 32.7611 137.578 33.4949C138.262 34.2287 138.603 35.2293 138.603 36.4967C138.603 37.5974 138.295 38.598 137.678 39.4985C137.061 40.3824 136.135 41.0911 134.901 41.6248C133.684 42.1418 132.2 42.4002 130.449 42.4002ZM147.539 42.2501C145.988 42.2501 144.596 41.95 143.362 41.3496C142.144 40.7493 141.186 39.9071 140.485 38.8231C139.801 37.7391 139.46 36.5134 139.46 35.1459C139.46 33.7784 139.801 32.561 140.485 31.4937C141.186 30.4097 142.144 29.5676 143.362 28.9672C144.596 28.3669 145.988 28.0667 147.539 28.0667C149.207 28.0667 150.633 28.4252 151.817 29.1423C153.001 29.8594 153.818 30.8517 154.268 32.1191L149.891 34.2704C149.357 33.0697 148.565 32.4693 147.514 32.4693C146.847 32.4693 146.289 32.7028 145.838 33.1697C145.405 33.6367 145.188 34.2954 145.188 35.1459C145.188 36.0131 145.405 36.6802 145.838 37.1471C146.289 37.614 146.847 37.8475 147.514 37.8475C148.565 37.8475 149.357 37.2472 149.891 36.0464L154.268 38.1977C153.818 39.4652 153.001 40.4574 151.817 41.1745C150.633 41.8916 149.207 42.2501 147.539 42.2501ZM160.953 29.7927C161.954 28.642 163.43 28.0667 165.381 28.0667V33.0697C164.931 33.003 164.514 32.9696 164.13 32.9696C162.196 32.9696 161.228 33.9535 161.228 35.9214V42H155.575V28.3168H160.953V29.7927ZM181.42 35.1459C181.42 35.2293 181.395 35.6712 181.345 36.4717H171.839C172.039 36.9887 172.373 37.3889 172.84 37.6724C173.307 37.9392 173.89 38.0727 174.591 38.0727C175.191 38.0727 175.691 37.9976 176.092 37.8475C176.509 37.6974 176.959 37.4389 177.442 37.0721L180.394 40.0488C179.06 41.5164 177.067 42.2501 174.416 42.2501C172.765 42.2501 171.314 41.95 170.063 41.3496C168.812 40.7326 167.845 39.8821 167.161 38.7981C166.478 37.7141 166.136 36.4967 166.136 35.1459C166.136 33.7784 166.469 32.561 167.136 31.4937C167.82 30.4097 168.746 29.5676 169.913 28.9672C171.097 28.3669 172.423 28.0667 173.89 28.0667C175.274 28.0667 176.534 28.3418 177.668 28.8922C178.818 29.4425 179.727 30.2513 180.394 31.3186C181.078 32.3859 181.42 33.6617 181.42 35.1459ZM173.94 31.919C173.357 31.919 172.873 32.0774 172.489 32.3943C172.106 32.7111 171.856 33.1614 171.739 33.7451H176.142C176.025 33.1781 175.775 32.7361 175.391 32.4193C175.008 32.0857 174.524 31.919 173.94 31.919ZM197.763 35.1459C197.763 35.2293 197.738 35.6712 197.688 36.4717H188.182C188.382 36.9887 188.715 37.3889 189.182 37.6724C189.649 37.9392 190.233 38.0727 190.933 38.0727C191.534 38.0727 192.034 37.9976 192.434 37.8475C192.851 37.6974 193.302 37.4389 193.785 37.0721L196.737 40.0488C195.403 41.5164 193.41 42.2501 190.758 42.2501C189.107 42.2501 187.657 41.95 186.406 41.3496C185.155 40.7326 184.188 39.8821 183.504 38.7981C182.82 37.7141 182.478 36.4967 182.478 35.1459C182.478 33.7784 182.812 32.561 183.479 31.4937C184.163 30.4097 185.088 29.5676 186.256 28.9672C187.44 28.3669 188.766 28.0667 190.233 28.0667C191.617 28.0667 192.876 28.3418 194.01 28.8922C195.161 29.4425 196.07 30.2513 196.737 31.3186C197.421 32.3859 197.763 33.6617 197.763 35.1459ZM190.283 31.919C189.699 31.919 189.216 32.0774 188.832 32.3943C188.449 32.7111 188.199 33.1614 188.082 33.7451H192.484C192.368 33.1781 192.118 32.7361 191.734 32.4193C191.35 32.0857 190.867 31.919 190.283 31.919ZM209.052 28.0667C210.737 28.0667 212.087 28.5753 213.105 29.5926C214.139 30.6099 214.656 32.1441 214.656 34.1953V42H209.002V35.1709C209.002 33.6033 208.444 32.8195 207.326 32.8195C206.693 32.8195 206.176 33.0446 205.775 33.4949C205.392 33.9285 205.2 34.6206 205.2 35.5712V42H199.547V28.3168H204.925V29.6676C205.458 29.134 206.076 28.7337 206.776 28.4669C207.476 28.2001 208.235 28.0667 209.052 28.0667ZM231.914 35.1459C231.914 35.2293 231.889 35.6712 231.839 36.4717H222.333C222.533 36.9887 222.867 37.3889 223.334 37.6724C223.801 37.9392 224.384 38.0727 225.085 38.0727C225.685 38.0727 226.185 37.9976 226.586 37.8475C227.003 37.6974 227.453 37.4389 227.936 37.0721L230.888 40.0488C229.554 41.5164 227.561 42.2501 224.91 42.2501C223.259 42.2501 221.808 41.95 220.557 41.3496C219.306 40.7326 218.339 39.8821 217.655 38.7981C216.972 37.7141 216.63 36.4967 216.63 35.1459C216.63 33.7784 216.963 32.561 217.63 31.4937C218.314 30.4097 219.24 29.5676 220.407 28.9672C221.591 28.3669 222.917 28.0667 224.384 28.0667C225.768 28.0667 227.028 28.3418 228.162 28.8922C229.312 29.4425 230.221 30.2513 230.888 31.3186C231.572 32.3859 231.914 33.6617 231.914 35.1459ZM224.434 31.919C223.851 31.919 223.367 32.0774 222.983 32.3943C222.6 32.7111 222.35 33.1614 222.233 33.7451H226.636C226.519 33.1781 226.269 32.7361 225.885 32.4193C225.502 32.0857 225.018 31.919 224.434 31.919ZM239.076 29.7927C240.077 28.642 241.553 28.0667 243.504 28.0667V33.0697C243.053 33.003 242.637 32.9696 242.253 32.9696C240.319 32.9696 239.351 33.9535 239.351 35.9214V42H233.698V28.3168H239.076V29.7927Z" fill="white"/>
<path d="M71.1537 24.4895V23.8415H70.5056V24.4895H71.1537ZM84.9369 25.5652L84.655 26.1488L84.6629 26.1524L84.9369 25.5652ZM88.414 28.592L87.8633 28.9336L87.8664 28.9386L88.414 28.592ZM88.414 37.8975L87.8664 37.551L87.8633 37.556L88.414 37.8975ZM84.9369 40.9494L85.2135 41.5355L85.2163 41.5341L84.9369 40.9494ZM71.1537 42H70.5056V42.6481H71.1537V42ZM82.5605 36.3216L83.0082 36.7901L83.0085 36.7899L82.5605 36.3216ZM82.5605 30.1929L82.1074 30.6563L82.1126 30.6614L82.118 30.6664L82.5605 30.1929ZM77.0572 29.0923V28.4442H76.4092V29.0923H77.0572ZM77.0572 37.3972H76.4092V38.0453H77.0572V37.3972ZM71.1537 25.1376H79.7839V23.8415H71.1537V25.1376ZM79.7839 25.1376C81.6552 25.1376 83.2734 25.4812 84.655 26.1487L85.2189 24.9817C83.632 24.215 81.8149 23.8415 79.7839 23.8415V25.1376ZM84.6629 26.1524C86.0578 26.8034 87.1171 27.7306 87.8633 28.9336L88.9647 28.2504C88.0766 26.8185 86.8178 25.7278 85.211 24.9779L84.6629 26.1524ZM87.8664 28.9386C88.6255 30.138 89.0167 31.5649 89.0167 33.2448H90.3128C90.3128 31.3558 89.8701 29.6809 88.9616 28.2454L87.8664 28.9386ZM89.0167 33.2448C89.0167 34.9246 88.6255 36.3515 87.8664 37.551L88.9616 38.2441C89.8701 36.8086 90.3128 35.1337 90.3128 33.2448H89.0167ZM87.8633 37.556C87.1163 38.7603 86.0551 39.6969 84.6576 40.3646L85.2163 41.5341C86.8205 40.7677 88.0774 39.6697 88.9647 38.2391L87.8633 37.556ZM84.6604 40.3633C83.2774 41.0159 81.6572 41.3519 79.7839 41.3519V42.6481C81.8128 42.6481 83.628 42.2837 85.2135 41.5354L84.6604 40.3633ZM79.7839 41.3519H71.1537V42.6481H79.7839V41.3519ZM71.8018 42V24.4895H70.5056V42H71.8018ZM79.5337 38.0453C80.9289 38.0453 82.1117 37.6468 83.0082 36.7901L82.1128 35.8531C81.5084 36.4306 80.6733 36.7492 79.5337 36.7492V38.0453ZM83.0085 36.7899C83.9329 35.9057 84.3593 34.6936 84.3593 33.2448H83.0631C83.0631 34.4308 82.7224 35.27 82.1126 35.8533L83.0085 36.7899ZM84.3593 33.2448C84.3593 31.7966 83.9331 30.5889 83.0031 29.7195L82.118 30.6664C82.7222 31.2312 83.0631 32.058 83.0631 33.2448H84.3593ZM83.0136 29.7296C82.1177 28.8536 80.9331 28.4442 79.5337 28.4442V29.7403C80.6692 29.7403 81.5024 30.0647 82.1074 30.6563L83.0136 29.7296ZM79.5337 28.4442H77.0572V29.7403H79.5337V28.4442ZM76.4092 29.0923V37.3972H77.7053V29.0923H76.4092ZM77.0572 38.0453H79.5337V36.7492H77.0572V38.0453ZM106.129 36.4717V37.1198H106.738L106.776 36.5121L106.129 36.4717ZM96.6232 36.4717V35.8236H95.6774L96.0189 36.7056L96.6232 36.4717ZM97.6238 37.6724L97.2875 38.2264L97.2948 38.2308L97.3023 38.2351L97.6238 37.6724ZM100.876 37.8475L100.656 37.2377L100.648 37.2407L100.876 37.8475ZM102.227 37.0721L102.687 36.6157L102.287 36.2127L101.835 36.5558L102.227 37.0721ZM105.178 40.0488L105.658 40.4848L106.072 40.0295L105.638 39.5925L105.178 40.0488ZM94.8471 41.3496L94.5604 41.9308L94.5667 41.9338L94.8471 41.3496ZM91.9454 38.7981L92.4935 38.4523L91.9454 38.7981ZM91.9204 31.4937L91.3723 31.148L91.3709 31.1503L91.9204 31.4937ZM94.6971 28.9672L94.404 28.3892L94.4007 28.3909L94.6971 28.9672ZM102.452 28.8922L102.169 29.4752L102.172 29.4768L102.452 28.8922ZM105.178 31.3186L104.629 31.6621L104.633 31.6682L105.178 31.3186ZM97.2736 32.3943L97.6863 32.8939L97.6863 32.8939L97.2736 32.3943ZM96.5232 33.7451L95.8877 33.618L95.7327 34.3931H96.5232V33.7451ZM100.926 33.7451V34.3931H101.721L101.561 33.6144L100.926 33.7451ZM100.175 32.4193L99.7501 32.9083L99.7563 32.9137L99.7626 32.9189L100.175 32.4193ZM105.556 35.1459C105.556 35.144 105.556 35.1503 105.555 35.1706C105.554 35.1888 105.553 35.2134 105.552 35.2448C105.549 35.3077 105.544 35.3936 105.538 35.5033C105.526 35.7223 105.507 36.0315 105.482 36.4313L106.776 36.5121C106.825 35.7289 106.852 35.2558 106.852 35.1459H105.556ZM106.129 35.8236H96.6232V37.1198H106.129V35.8236ZM96.0189 36.7056C96.2698 37.3538 96.6964 37.8675 97.2875 38.2264L97.9601 37.1185C97.6173 36.9103 97.3769 36.6236 97.2276 36.2378L96.0189 36.7056ZM97.3023 38.2351C97.8924 38.5723 98.5949 38.7207 99.3749 38.7207V37.4246C98.754 37.4246 98.2891 37.3062 97.9453 37.1097L97.3023 38.2351ZM99.3749 38.7207C100.024 38.7207 100.607 38.6403 101.103 38.4543L100.648 37.2407C100.344 37.3549 99.9265 37.4246 99.3749 37.4246V38.7207ZM101.095 38.4573C101.592 38.2784 102.1 37.9813 102.618 37.5884L101.835 36.5558C101.386 36.8965 100.993 37.1164 100.656 37.2378L101.095 38.4573ZM101.766 37.5284L104.718 40.5051L105.638 39.5925L102.687 36.6157L101.766 37.5284ZM104.699 39.6129C103.525 40.904 101.733 41.6021 99.1998 41.6021V42.8982C101.969 42.8982 104.163 42.1287 105.658 40.4848L104.699 39.6129ZM99.1998 41.6021C97.6276 41.6021 96.2757 41.3165 95.1276 40.7654L94.5667 41.9338C95.9201 42.5835 97.4699 42.8982 99.1998 42.8982V41.6021ZM95.1339 40.7684C93.9805 40.1994 93.1079 39.4264 92.4935 38.4523L91.3973 39.1438C92.1504 40.3377 93.2123 41.2657 94.5604 41.9308L95.1339 40.7684ZM92.4935 38.4523C91.8787 37.4776 91.5679 36.3813 91.5679 35.1459H90.2717C90.2717 36.6122 90.6447 37.9506 91.3973 39.1438L92.4935 38.4523ZM91.5679 35.1459C91.5679 33.889 91.8728 32.7926 92.47 31.8372L91.3709 31.1503C90.6339 32.3294 90.2717 33.6679 90.2717 35.1459H91.5679ZM92.4685 31.8395C93.0889 30.8559 93.9265 30.0923 94.9934 29.5435L94.4007 28.3909C93.1329 29.0429 92.1194 29.9636 91.3723 31.148L92.4685 31.8395ZM94.9901 29.5452C96.0741 28.9956 97.2978 28.7147 98.6744 28.7147V27.4186C97.116 27.4186 95.6881 27.7381 94.404 28.3892L94.9901 29.5452ZM98.6744 28.7147C99.9703 28.7147 101.131 28.9717 102.169 29.4752L102.735 28.3091C101.504 27.712 100.147 27.4186 98.6744 27.4186V28.7147ZM102.172 29.4768C103.213 29.9748 104.028 30.7007 104.629 31.6621L105.728 30.9751C104.995 29.802 103.991 28.9102 102.731 28.3075L102.172 29.4768ZM104.633 31.6682C105.239 32.6144 105.556 33.764 105.556 35.1459H106.852C106.852 33.5593 106.485 32.1575 105.724 30.969L104.633 31.6682ZM98.7245 31.2709C98.0175 31.2709 97.38 31.4657 96.8609 31.8946L97.6863 32.8939C97.9343 32.6891 98.2641 32.567 98.7245 32.567V31.2709ZM96.8609 31.8946C96.341 32.3241 96.0277 32.918 95.8877 33.618L97.1586 33.8722C97.2521 33.4047 97.4391 33.0981 97.6863 32.8939L96.8609 31.8946ZM96.5232 34.3931H100.926V33.097H96.5232V34.3931ZM101.561 33.6144C101.419 32.9275 101.104 32.3455 100.588 31.9196L99.7626 32.9189C100.014 33.1267 100.199 33.4286 100.291 33.8757L101.561 33.6144ZM100.601 31.9302C100.082 31.4791 99.4398 31.2709 98.7245 31.2709V32.567C99.1765 32.567 99.5018 32.6924 99.7501 32.9083L100.601 31.9302ZM116.252 42L115.706 42.3497L115.897 42.6481H116.252V42ZM114.376 39.0733L114.921 38.7235L114.406 37.9198L113.849 38.6953L114.376 39.0733ZM112.274 42V42.6481H112.607L112.801 42.378L112.274 42ZM106.146 42L105.631 41.6066L104.835 42.6481H106.146V42ZM111.324 35.2209L111.839 35.6143L112.132 35.2302L111.848 34.8394L111.324 35.2209ZM106.296 28.3168V27.6688H105.022L105.772 28.6983L106.296 28.3168ZM112.675 28.3168L113.212 27.9552L113.02 27.6688H112.675V28.3168ZM114.626 31.2186L114.088 31.5802L114.612 32.3601L115.155 31.5926L114.626 31.2186ZM116.677 28.3168V27.6688H116.341L116.148 27.9427L116.677 28.3168ZM122.606 28.3168L123.123 28.7075L123.907 27.6688H122.606V28.3168ZM117.578 34.9708L117.06 34.5801L116.77 34.9649L117.055 35.354L117.578 34.9708ZM122.731 42V42.6481H124.009L123.253 41.6168L122.731 42ZM116.797 41.6503L114.921 38.7235L113.83 39.423L115.706 42.3497L116.797 41.6503ZM113.849 38.6953L111.748 41.622L112.801 42.378L114.902 39.4512L113.849 38.6953ZM112.274 41.3519H106.146V42.6481H112.274V41.3519ZM106.661 42.3934L111.839 35.6143L110.809 34.8276L105.631 41.6066L106.661 42.3934ZM111.848 34.8394L106.82 27.9353L105.772 28.6983L110.8 35.6025L111.848 34.8394ZM106.296 28.9649H112.675V27.6688H106.296V28.9649ZM112.137 28.6784L114.088 31.5802L115.164 30.8569L113.212 27.9552L112.137 28.6784ZM115.155 31.5926L117.206 28.6909L116.148 27.9427L114.097 30.8445L115.155 31.5926ZM116.677 28.9649H122.606V27.6688H116.677V28.9649ZM122.088 27.9261L117.06 34.5801L118.095 35.3615L123.123 28.7075L122.088 27.9261ZM117.055 35.354L122.208 42.3832L123.253 41.6168L118.1 34.5876L117.055 35.354ZM122.731 41.3519H116.252V42.6481H122.731V41.3519ZM126.196 41.925L126.042 42.5546L126.051 42.5567L126.196 41.925ZM122.819 40.5992L122.226 40.3372L121.999 40.8519L122.476 41.1493L122.819 40.5992ZM124.72 36.2966L125.045 35.736L124.42 35.3732L124.127 36.0347L124.72 36.2966ZM127.522 37.4723L127.341 38.0947L127.35 38.0973L127.522 37.4723ZM132.25 37.6724L132.505 38.2681L132.517 38.263L132.528 38.2575L132.25 37.6724ZM132.074 36.1215L131.83 36.7217L131.838 36.7247L132.074 36.1215ZM129.823 35.5211L129.69 36.1554L129.692 36.1558L129.823 35.5211ZM126.446 34.6206L126.221 35.2284L126.231 35.2319L126.446 34.6206ZM124.095 33.0196L123.61 33.4502L123.615 33.4556L124.095 33.0196ZM124.02 26.991L124.554 27.3573L124.554 27.3573L124.02 26.991ZM126.771 24.8648L126.521 24.267L126.518 24.2683L126.771 24.8648ZM134.776 24.4895L134.63 25.1209L134.64 25.1232L134.776 24.4895ZM137.853 25.6152L138.451 25.8637L138.671 25.3339L138.172 25.0512L137.853 25.6152ZM136.077 29.8928L135.785 30.4713L136.408 30.7858L136.675 30.1413L136.077 29.8928ZM129.598 30.4931L129.353 31.0933L129.363 31.0972L129.373 31.1008L129.598 30.4931ZM131.824 31.0435L131.701 31.6797L131.705 31.6804L131.824 31.0435ZM135.201 31.919L134.98 32.5281L134.99 32.5315L135.201 31.919ZM137.578 33.4949L137.098 33.9309L137.104 33.9367L137.578 33.4949ZM137.678 39.4985L138.209 39.8695L138.212 39.8648L137.678 39.4985ZM134.901 41.6248L135.154 42.2213L135.158 42.2196L134.901 41.6248ZM130.449 41.7522C129.045 41.7522 127.676 41.599 126.341 41.2932L126.051 42.5567C127.484 42.8846 128.95 43.0483 130.449 43.0483V41.7522ZM126.35 41.2954C125.027 40.9728 123.97 40.5528 123.161 40.049L122.476 41.1493C123.435 41.7462 124.63 42.2101 126.042 42.5546L126.35 41.2954ZM123.412 40.8611L125.313 36.5585L124.127 36.0347L122.226 40.3372L123.412 40.8611ZM124.395 36.8572C125.279 37.37 126.262 37.7815 127.341 38.0947L127.702 36.8499C126.713 36.5627 125.829 36.1904 125.045 35.736L124.395 36.8572ZM127.35 38.0973C128.433 38.3942 129.483 38.5456 130.499 38.5456V37.2495C129.613 37.2495 128.678 37.1174 127.693 36.8473L127.35 38.0973ZM130.499 38.5456C131.326 38.5456 132.025 38.4739 132.505 38.2681L131.994 37.0768C131.774 37.1711 131.306 37.2495 130.499 37.2495V38.5456ZM132.528 38.2575C132.773 38.141 133.001 37.9773 133.168 37.7461C133.341 37.5076 133.423 37.233 133.423 36.947H132.127C132.127 36.9659 132.124 36.9746 132.124 36.9767C132.123 36.9785 132.122 36.9809 132.119 36.9859C132.111 36.9965 132.077 37.037 131.971 37.0873L132.528 38.2575ZM133.423 36.947C133.423 36.6128 133.312 36.303 133.094 36.0462C132.886 35.8014 132.608 35.6347 132.311 35.5183L131.838 36.7247C132.008 36.7917 132.08 36.8543 132.106 36.8847C132.117 36.8982 132.121 36.9065 132.122 36.9105C132.124 36.9147 132.127 36.9252 132.127 36.947H133.423ZM132.319 35.5213C131.809 35.3137 131.009 35.104 129.954 34.8864L129.692 36.1558C130.739 36.3718 131.439 36.5624 131.83 36.7216L132.319 35.5213ZM129.956 34.8869C128.622 34.6069 127.526 34.3136 126.661 34.0093L126.231 35.2319C127.167 35.5613 128.323 35.8684 129.69 36.1554L129.956 34.8869ZM126.671 34.0129C125.871 33.7166 125.174 33.2433 124.574 32.5837L123.615 33.4556C124.35 34.2636 125.22 34.8575 126.221 35.2283L126.671 34.0129ZM124.579 32.5891C124.043 31.9859 123.742 31.1446 123.742 29.9928H122.446C122.446 31.3759 122.812 32.5524 123.61 33.4502L124.579 32.5891ZM123.742 29.9928C123.742 29.0218 124.012 28.1491 124.554 27.3573L123.485 26.6247C122.793 27.6341 122.446 28.7626 122.446 29.9928H123.742ZM124.554 27.3573C125.088 26.5785 125.897 25.9402 127.025 25.4613L126.518 24.2683C125.211 24.8233 124.186 25.6024 123.485 26.6247L124.554 27.3573ZM127.022 25.4625C128.156 24.9873 129.559 24.7374 131.249 24.7374V23.4412C129.437 23.4412 127.855 23.7083 126.521 24.267L127.022 25.4625ZM131.249 24.7374C132.401 24.7374 133.528 24.8653 134.63 25.1208L134.922 23.8582C133.723 23.5801 132.498 23.4412 131.249 23.4412V24.7374ZM134.64 25.1232C135.754 25.3619 136.716 25.7164 137.534 26.1792L138.172 25.0512C137.222 24.5134 136.133 24.1174 134.912 23.8559L134.64 25.1232ZM137.254 25.3667L135.478 29.6443L136.675 30.1413L138.451 25.8637L137.254 25.3667ZM136.369 29.3143C134.583 28.4127 132.857 27.9439 131.199 27.9439V29.24C132.609 29.24 134.135 29.6385 135.785 30.4713L136.369 29.3143ZM131.199 27.9439C130.409 27.9439 129.722 28.0361 129.21 28.2837C128.945 28.4118 128.704 28.5921 128.531 28.8433C128.355 29.0996 128.275 29.3913 128.275 29.6926H129.571C129.571 29.6272 129.585 29.5978 129.598 29.5789C129.615 29.5549 129.659 29.506 129.774 29.4506C130.021 29.3313 130.472 29.24 131.199 29.24V27.9439ZM128.275 29.6926C128.275 30.0202 128.385 30.3226 128.596 30.5733C128.798 30.8121 129.067 30.9767 129.353 31.0933L129.843 29.893C129.678 29.8261 129.61 29.7656 129.587 29.7375C129.576 29.7252 129.574 29.7189 129.574 29.7175C129.573 29.7162 129.571 29.7095 129.571 29.6926H128.275ZM129.373 31.1008C129.877 31.2874 130.663 31.4788 131.701 31.6797L131.947 30.4072C130.917 30.2078 130.22 30.0324 129.823 29.8854L129.373 31.1008ZM131.705 31.6804C133.017 31.9264 134.106 32.2102 134.98 32.528L135.423 31.3099C134.462 30.9607 133.3 30.6608 131.944 30.4065L131.705 31.6804ZM134.99 32.5315C135.802 32.8121 136.503 33.2756 137.098 33.9308L138.057 33.059C137.319 32.2467 136.435 31.6596 135.413 31.3064L134.99 32.5315ZM137.104 33.9367C137.648 34.5212 137.955 35.3482 137.955 36.4967H139.251C139.251 35.1103 138.875 33.9362 138.052 33.0531L137.104 33.9367ZM137.955 36.4967C137.955 37.4678 137.686 38.3405 137.143 39.1322L138.212 39.8648C138.904 38.8555 139.251 37.727 139.251 36.4967H137.955ZM137.146 39.1275C136.613 39.8911 135.795 40.5323 134.644 41.03L135.158 42.2196C136.476 41.65 137.508 40.8737 138.209 39.8695L137.146 39.1275ZM134.648 41.0283C133.532 41.5021 132.139 41.7522 130.449 41.7522V43.0483C132.26 43.0483 133.836 42.7814 135.154 42.2213L134.648 41.0283ZM143.362 41.3496L143.075 41.9308L143.078 41.9324L143.362 41.3496ZM140.485 38.8231L139.937 39.1689L139.941 39.1748L140.485 38.8231ZM140.485 31.4937L139.941 31.142L139.939 31.1441L140.485 31.4937ZM143.362 28.9672L143.078 28.3844L143.075 28.386L143.362 28.9672ZM151.817 29.1423L151.481 29.6966L151.481 29.6966L151.817 29.1423ZM154.268 32.1191L154.554 32.7007L155.072 32.4461L154.879 31.9021L154.268 32.1191ZM149.891 34.2704L149.299 34.5336L149.572 35.1491L150.177 34.852L149.891 34.2704ZM145.838 33.1697L145.372 32.7198L145.363 32.7288L145.838 33.1697ZM145.838 37.1471L145.363 37.5881L145.372 37.5969L145.838 37.1471ZM149.891 36.0464L150.177 35.4648L149.572 35.1678L149.299 35.7832L149.891 36.0464ZM154.268 38.1977L154.879 38.4147L155.072 37.8707L154.554 37.6161L154.268 38.1977ZM151.817 41.1745L152.153 41.7288L152.153 41.7288L151.817 41.1745ZM147.539 41.6021C146.074 41.6021 144.78 41.319 143.645 40.7669L143.078 41.9324C144.412 42.581 145.903 42.8982 147.539 42.8982V41.6021ZM143.649 40.7684C142.531 40.217 141.663 39.4518 141.029 38.4714L139.941 39.1748C140.708 40.3624 141.758 41.2815 143.075 41.9308L143.649 40.7684ZM141.033 38.4774C140.419 37.5039 140.108 36.3996 140.108 35.1459H138.811C138.811 36.6272 139.184 37.9743 139.937 39.1688L141.033 38.4774ZM140.108 35.1459C140.108 33.8921 140.419 32.798 141.031 31.8433L139.939 31.1441C139.184 32.3241 138.811 33.6647 138.811 35.1459H140.108ZM141.029 31.8454C141.663 30.865 142.531 30.0998 143.649 29.5484L143.075 28.386C141.758 29.0354 140.708 29.9545 139.941 31.142L141.029 31.8454ZM143.645 29.55C144.78 28.9979 146.074 28.7147 147.539 28.7147V27.4186C145.903 27.4186 144.412 27.7358 143.078 28.3845L143.645 29.55ZM147.539 28.7147C149.113 28.7147 150.417 29.0523 151.481 29.6966L152.153 28.588C150.848 27.7981 149.301 27.4186 147.539 27.4186V28.7147ZM151.481 29.6966C152.542 30.3388 153.259 31.2138 153.658 32.336L154.879 31.9021C154.377 30.4895 153.46 29.38 152.153 28.588L151.481 29.6966ZM153.983 31.5375L149.605 33.6888L150.177 34.852L154.554 32.7007L153.983 31.5375ZM150.483 34.0072C150.186 33.3379 149.795 32.7873 149.288 32.4031C148.772 32.0125 148.172 31.8212 147.514 31.8212V33.1174C147.907 33.1174 148.228 33.2263 148.505 33.4361C148.79 33.6522 149.062 34.0021 149.299 34.5336L150.483 34.0072ZM147.514 31.8212C146.677 31.8212 145.948 32.1223 145.372 32.7199L146.305 33.6196C146.629 33.2833 147.018 33.1174 147.514 33.1174V31.8212ZM145.363 32.7288C144.786 33.3511 144.54 34.1877 144.54 35.1459H145.836C145.836 34.4031 146.024 33.9223 146.313 33.6107L145.363 32.7288ZM144.54 35.1459C144.54 36.1168 144.784 36.9636 145.363 37.5881L146.313 36.7061C146.026 36.3967 145.836 35.9094 145.836 35.1459H144.54ZM145.372 37.5969C145.948 38.1945 146.677 38.4956 147.514 38.4956V37.1995C147.018 37.1995 146.629 37.0336 146.305 36.6973L145.372 37.5969ZM147.514 38.4956C148.172 38.4956 148.772 38.3043 149.288 37.9137C149.795 37.5295 150.186 36.9789 150.483 36.3096L149.299 35.7832C149.062 36.3147 148.79 36.6646 148.505 36.8808C148.228 37.0905 147.907 37.1995 147.514 37.1995V38.4956ZM149.605 36.6281L153.983 38.7793L154.554 37.6161L150.177 35.4648L149.605 36.6281ZM153.658 37.9808C153.259 39.103 152.542 39.978 151.481 40.6202L152.153 41.7288C153.46 40.9368 154.377 39.8273 154.879 38.4147L153.658 37.9808ZM151.481 40.6202C150.417 41.2645 149.113 41.6021 147.539 41.6021V42.8982C149.301 42.8982 150.848 42.5187 152.153 41.7288L151.481 40.6202ZM160.953 29.7927H160.305V31.5256L161.442 30.2179L160.953 29.7927ZM165.381 28.0667H166.029V27.4186H165.381V28.0667ZM165.381 33.0697L165.286 33.7107L166.029 33.8208V33.0697H165.381ZM161.228 42V42.6481H161.876V42H161.228ZM155.575 42H154.927V42.6481H155.575V42ZM155.575 28.3168V27.6688H154.927V28.3168H155.575ZM160.953 28.3168H161.601V27.6688H160.953V28.3168ZM161.442 30.2179C162.287 29.2463 163.561 28.7147 165.381 28.7147V27.4186C163.298 27.4186 161.621 28.0377 160.464 29.3675L161.442 30.2179ZM164.733 28.0667V33.0697H166.029V28.0667H164.733ZM165.476 32.4286C165 32.3581 164.551 32.3215 164.13 32.3215V33.6177C164.477 33.6177 164.861 33.6478 165.286 33.7107L165.476 32.4286ZM164.13 32.3215C163.06 32.3215 162.139 32.5945 161.492 33.2532C160.846 33.9099 160.58 34.8403 160.58 35.9214H161.876C161.876 35.0346 162.094 34.4891 162.416 34.1619C162.736 33.8367 163.266 33.6177 164.13 33.6177V32.3215ZM160.58 35.9214V42H161.876V35.9214H160.58ZM161.228 41.3519H155.575V42.6481H161.228V41.3519ZM156.223 42V28.3168H154.927V42H156.223ZM155.575 28.9649H160.953V27.6688H155.575V28.9649ZM160.305 28.3168V29.7927H161.601V28.3168H160.305ZM181.345 36.4717V37.1198H181.954L181.992 36.5121L181.345 36.4717ZM171.839 36.4717V35.8236H170.893L171.235 36.7056L171.839 36.4717ZM172.84 37.6724L172.503 38.2264L172.511 38.2308L172.518 38.2351L172.84 37.6724ZM176.092 37.8475L175.872 37.2377L175.864 37.2407L176.092 37.8475ZM177.442 37.0721L177.903 36.6157L177.503 36.2127L177.051 36.5558L177.442 37.0721ZM180.394 40.0488L180.874 40.4848L181.288 40.0295L180.854 39.5925L180.394 40.0488ZM170.063 41.3496L169.776 41.9308L169.783 41.9338L170.063 41.3496ZM167.161 38.7981L167.709 38.4523L167.161 38.7981ZM167.136 31.4937L166.588 31.148L166.587 31.1503L167.136 31.4937ZM169.913 28.9672L169.62 28.3892L169.617 28.3909L169.913 28.9672ZM177.668 28.8922L177.385 29.4752L177.388 29.4768L177.668 28.8922ZM180.394 31.3186L179.845 31.6621L179.848 31.6682L180.394 31.3186ZM172.489 32.3943L172.902 32.8939L172.902 32.8939L172.489 32.3943ZM171.739 33.7451L171.104 33.618L170.948 34.3931H171.739V33.7451ZM176.142 33.7451V34.3931H176.937L176.776 33.6144L176.142 33.7451ZM175.391 32.4193L174.966 32.9083L174.972 32.9137L174.978 32.9189L175.391 32.4193ZM180.772 35.1459C180.772 35.144 180.772 35.1503 180.771 35.1706C180.77 35.1888 180.769 35.2134 180.768 35.2448C180.765 35.3077 180.76 35.3936 180.754 35.5033C180.742 35.7223 180.723 36.0315 180.698 36.4313L181.992 36.5121C182.04 35.7289 182.068 35.2558 182.068 35.1459H180.772ZM181.345 35.8236H171.839V37.1198H181.345V35.8236ZM171.235 36.7056C171.486 37.3538 171.912 37.8675 172.503 38.2264L173.176 37.1185C172.833 36.9103 172.593 36.6236 172.443 36.2378L171.235 36.7056ZM172.518 38.2351C173.108 38.5723 173.811 38.7207 174.591 38.7207V37.4246C173.97 37.4246 173.505 37.3062 173.161 37.1097L172.518 38.2351ZM174.591 38.7207C175.24 38.7207 175.823 38.6403 176.319 38.4543L175.864 37.2407C175.56 37.3549 175.142 37.4246 174.591 37.4246V38.7207ZM176.311 38.4573C176.808 38.2784 177.316 37.9813 177.834 37.5884L177.051 36.5558C176.602 36.8965 176.209 37.1164 175.872 37.2378L176.311 38.4573ZM176.982 37.5284L179.934 40.5051L180.854 39.5925L177.903 36.6157L176.982 37.5284ZM179.915 39.6129C178.741 40.904 176.949 41.6021 174.416 41.6021V42.8982C177.185 42.8982 179.379 42.1287 180.874 40.4848L179.915 39.6129ZM174.416 41.6021C172.843 41.6021 171.492 41.3165 170.343 40.7654L169.783 41.9338C171.136 42.5835 172.686 42.8982 174.416 42.8982V41.6021ZM170.35 40.7684C169.196 40.1994 168.324 39.4264 167.709 38.4523L166.613 39.1438C167.366 40.3377 168.428 41.2657 169.776 41.9308L170.35 40.7684ZM167.709 38.4523C167.095 37.4776 166.784 36.3813 166.784 35.1459H165.488C165.488 36.6122 165.861 37.9506 166.613 39.1438L167.709 38.4523ZM166.784 35.1459C166.784 33.889 167.089 32.7926 167.686 31.8372L166.587 31.1503C165.85 32.3294 165.488 33.6679 165.488 35.1459H166.784ZM167.684 31.8395C168.305 30.8559 169.142 30.0923 170.209 29.5435L169.617 28.3909C168.349 29.0429 167.335 29.9636 166.588 31.148L167.684 31.8395ZM170.206 29.5452C171.29 28.9956 172.514 28.7147 173.89 28.7147V27.4186C172.332 27.4186 170.904 27.7381 169.62 28.3892L170.206 29.5452ZM173.89 28.7147C175.186 28.7147 176.347 28.9717 177.385 29.4752L177.95 28.3091C176.72 27.712 175.363 27.4186 173.89 27.4186V28.7147ZM177.388 29.4768C178.429 29.9748 179.244 30.7007 179.845 31.6621L180.944 30.9751C180.21 29.802 179.207 28.9102 177.947 28.3075L177.388 29.4768ZM179.848 31.6682C180.455 32.6144 180.772 33.764 180.772 35.1459H182.068C182.068 33.5593 181.701 32.1575 180.94 30.969L179.848 31.6682ZM173.94 31.2709C173.233 31.2709 172.596 31.4657 172.077 31.8946L172.902 32.8939C173.15 32.6891 173.48 32.567 173.94 32.567V31.2709ZM172.077 31.8946C171.557 32.3241 171.244 32.918 171.104 33.618L172.374 33.8722C172.468 33.4047 172.655 33.0981 172.902 32.8939L172.077 31.8946ZM171.739 34.3931H176.142V33.097H171.739V34.3931ZM176.776 33.6144C176.635 32.9275 176.319 32.3455 175.804 31.9196L174.978 32.9189C175.23 33.1267 175.415 33.4286 175.507 33.8757L176.776 33.6144ZM175.816 31.9302C175.298 31.4791 174.656 31.2709 173.94 31.2709V32.567C174.392 32.567 174.718 32.6924 174.966 32.9083L175.816 31.9302ZM197.688 36.4717V37.1198H198.296L198.334 36.5121L197.688 36.4717ZM188.182 36.4717V35.8236H187.236L187.577 36.7056L188.182 36.4717ZM189.182 37.6724L188.846 38.2264L188.853 38.2308L188.861 38.2351L189.182 37.6724ZM192.434 37.8475L192.215 37.2377L192.207 37.2407L192.434 37.8475ZM193.785 37.0721L194.245 36.6157L193.846 36.2127L193.393 36.5558L193.785 37.0721ZM196.737 40.0488L197.216 40.4848L197.63 40.0295L197.197 39.5925L196.737 40.0488ZM186.406 41.3496L186.119 41.9308L186.125 41.9338L186.406 41.3496ZM183.504 38.7981L184.052 38.4523L183.504 38.7981ZM183.479 31.4937L182.931 31.148L182.929 31.1503L183.479 31.4937ZM186.256 28.9672L185.963 28.3892L185.959 28.3909L186.256 28.9672ZM194.01 28.8922L193.727 29.4752L193.731 29.4768L194.01 28.8922ZM196.737 31.3186L196.187 31.6621L196.191 31.6682L196.737 31.3186ZM188.832 32.3943L189.245 32.8939L189.245 32.8939L188.832 32.3943ZM188.082 33.7451L187.446 33.618L187.291 34.3931H188.082V33.7451ZM192.484 33.7451V34.3931H193.279L193.119 33.6144L192.484 33.7451ZM191.734 32.4193L191.309 32.9083L191.315 32.9137L191.321 32.9189L191.734 32.4193ZM197.114 35.1459C197.114 35.144 197.114 35.1503 197.114 35.1706C197.113 35.1888 197.112 35.2134 197.111 35.2448C197.108 35.3077 197.103 35.3936 197.097 35.5033C197.084 35.7223 197.066 36.0315 197.041 36.4313L198.334 36.5121C198.383 35.7289 198.411 35.2558 198.411 35.1459H197.114ZM197.688 35.8236H188.182V37.1198H197.688V35.8236ZM187.577 36.7056C187.828 37.3538 188.255 37.8675 188.846 38.2264L189.519 37.1185C189.176 36.9103 188.936 36.6236 188.786 36.2378L187.577 36.7056ZM188.861 38.2351C189.451 38.5723 190.153 38.7207 190.933 38.7207V37.4246C190.313 37.4246 189.848 37.3062 189.504 37.1097L188.861 38.2351ZM190.933 38.7207C191.583 38.7207 192.166 38.6403 192.662 38.4543L192.207 37.2407C191.902 37.3549 191.485 37.4246 190.933 37.4246V38.7207ZM192.654 38.4573C193.151 38.2784 193.659 37.9813 194.177 37.5884L193.393 36.5558C192.944 36.8965 192.552 37.1164 192.215 37.2378L192.654 38.4573ZM193.325 37.5284L196.277 40.5051L197.197 39.5925L194.245 36.6157L193.325 37.5284ZM196.257 39.6129C195.084 40.904 193.292 41.6021 190.758 41.6021V42.8982C193.528 42.8982 195.722 42.1287 197.216 40.4848L196.257 39.6129ZM190.758 41.6021C189.186 41.6021 187.834 41.3165 186.686 40.7654L186.125 41.9338C187.479 42.5835 189.029 42.8982 190.758 42.8982V41.6021ZM186.692 40.7684C185.539 40.1994 184.667 39.4264 184.052 38.4523L182.956 39.1438C183.709 40.3377 184.771 41.2657 186.119 41.9308L186.692 40.7684ZM184.052 38.4523C183.437 37.4776 183.126 36.3813 183.126 35.1459H181.83C181.83 36.6122 182.203 37.9506 182.956 39.1438L184.052 38.4523ZM183.126 35.1459C183.126 33.889 183.431 32.7926 184.029 31.8372L182.929 31.1503C182.192 32.3294 181.83 33.6679 181.83 35.1459H183.126ZM184.027 31.8395C184.648 30.8559 185.485 30.0923 186.552 29.5435L185.959 28.3909C184.692 29.0429 183.678 29.9636 182.931 31.148L184.027 31.8395ZM186.549 29.5452C187.633 28.9956 188.856 28.7147 190.233 28.7147V27.4186C188.675 27.4186 187.247 27.7381 185.963 28.3892L186.549 29.5452ZM190.233 28.7147C191.529 28.7147 192.69 28.9717 193.727 29.4752L194.293 28.3091C193.063 27.712 191.705 27.4186 190.233 27.4186V28.7147ZM193.731 29.4768C194.772 29.9748 195.586 30.7007 196.187 31.6621L197.286 30.9751C196.553 29.802 195.55 28.9102 194.29 28.3075L193.731 29.4768ZM196.191 31.6682C196.797 32.6144 197.114 33.764 197.114 35.1459H198.411C198.411 33.5593 198.044 32.1575 197.283 30.969L196.191 31.6682ZM190.283 31.2709C189.576 31.2709 188.939 31.4657 188.419 31.8946L189.245 32.8939C189.493 32.6891 189.823 32.567 190.283 32.567V31.2709ZM188.419 31.8946C187.9 32.3241 187.586 32.918 187.446 33.618L188.717 33.8722C188.811 33.4047 188.998 33.0981 189.245 32.8939L188.419 31.8946ZM188.082 34.3931H192.484V33.097H188.082V34.3931ZM193.119 33.6144C192.978 32.9275 192.662 32.3455 192.147 31.9196L191.321 32.9189C191.573 33.1267 191.758 33.4286 191.85 33.8757L193.119 33.6144ZM192.159 31.9302C191.64 31.4791 190.998 31.2709 190.283 31.2709V32.567C190.735 32.567 191.06 32.6924 191.309 32.9083L192.159 31.9302ZM213.105 29.5926L212.646 30.0508L212.65 30.0545L213.105 29.5926ZM214.656 42V42.6481H215.304V42H214.656ZM209.002 42H208.354V42.6481H209.002V42ZM205.775 33.4949L205.291 33.0644L205.29 33.0655L205.775 33.4949ZM205.2 42V42.6481H205.848V42H205.2ZM199.547 42H198.899V42.6481H199.547V42ZM199.547 28.3168V27.6688H198.899V28.3168H199.547ZM204.925 28.3168H205.573V27.6688H204.925V28.3168ZM204.925 29.6676H204.277V31.2322L205.383 30.1259L204.925 29.6676ZM206.776 28.4669L207.007 29.0725L207.007 29.0725L206.776 28.4669ZM209.052 28.7147C210.596 28.7147 211.771 29.1758 212.646 30.0508L213.563 29.1343C212.403 27.9748 210.877 27.4186 209.052 27.4186V28.7147ZM212.65 30.0545C213.517 30.9069 214.008 32.2449 214.008 34.1953H215.304C215.304 32.0433 214.761 30.3128 213.559 29.1306L212.65 30.0545ZM214.008 34.1953V42H215.304V34.1953H214.008ZM214.656 41.3519H209.002V42.6481H214.656V41.3519ZM209.65 42V35.1709H208.354V42H209.65ZM209.65 35.1709C209.65 34.3297 209.504 33.5826 209.111 33.0312C208.689 32.4395 208.056 32.1715 207.326 32.1715V33.4676C207.714 33.4676 207.919 33.5914 208.056 33.7835C208.221 34.016 208.354 34.4445 208.354 35.1709H209.65ZM207.326 32.1715C206.518 32.1715 205.821 32.4678 205.291 33.0644L206.26 33.9255C206.53 33.6215 206.867 33.4676 207.326 33.4676V32.1715ZM205.29 33.0655C204.752 33.6734 204.552 34.5574 204.552 35.5712H205.848C205.848 34.6838 206.031 34.1837 206.261 33.9243L205.29 33.0655ZM204.552 35.5712V42H205.848V35.5712H204.552ZM205.2 41.3519H199.547V42.6481H205.2V41.3519ZM200.195 42V28.3168H198.899V42H200.195ZM199.547 28.9649H204.925V27.6688H199.547V28.9649ZM204.277 28.3168V29.6676H205.573V28.3168H204.277ZM205.383 30.1259C205.853 29.6564 206.392 29.3066 207.007 29.0725L206.545 27.8613C205.759 28.1609 205.064 28.6116 204.467 29.2094L205.383 30.1259ZM207.007 29.0725C207.627 28.8362 208.307 28.7147 209.052 28.7147V27.4186C208.163 27.4186 207.326 27.564 206.545 27.8613L207.007 29.0725ZM231.839 36.4717V37.1198H232.448L232.486 36.5121L231.839 36.4717ZM222.333 36.4717V35.8236H221.387L221.729 36.7056L222.333 36.4717ZM223.334 37.6724L222.997 38.2264L223.005 38.2308L223.012 38.2351L223.334 37.6724ZM226.586 37.8475L226.366 37.2377L226.358 37.2407L226.586 37.8475ZM227.936 37.0721L228.397 36.6157L227.997 36.2127L227.545 36.5558L227.936 37.0721ZM230.888 40.0488L231.368 40.4848L231.782 40.0295L231.348 39.5925L230.888 40.0488ZM220.557 41.3496L220.27 41.9308L220.277 41.9338L220.557 41.3496ZM217.655 38.7981L218.203 38.4523L217.655 38.7981ZM217.63 31.4937L217.082 31.148L217.081 31.1503L217.63 31.4937ZM220.407 28.9672L220.114 28.3892L220.111 28.3909L220.407 28.9672ZM228.162 28.8922L227.879 29.4752L227.882 29.4768L228.162 28.8922ZM230.888 31.3186L230.339 31.6621L230.343 31.6682L230.888 31.3186ZM222.983 32.3943L223.396 32.8939L223.396 32.8939L222.983 32.3943ZM222.233 33.7451L221.598 33.618L221.443 34.3931H222.233V33.7451ZM226.636 33.7451V34.3931H227.431L227.27 33.6144L226.636 33.7451ZM225.885 32.4193L225.46 32.9083L225.466 32.9137L225.472 32.9189L225.885 32.4193ZM231.266 35.1459C231.266 35.144 231.266 35.1503 231.265 35.1706C231.264 35.1888 231.263 35.2134 231.262 35.2448C231.259 35.3077 231.254 35.3936 231.248 35.5033C231.236 35.7223 231.217 36.0315 231.192 36.4313L232.486 36.5121C232.535 35.7289 232.562 35.2558 232.562 35.1459H231.266ZM231.839 35.8236H222.333V37.1198H231.839V35.8236ZM221.729 36.7056C221.98 37.3538 222.406 37.8675 222.997 38.2264L223.67 37.1185C223.327 36.9103 223.087 36.6236 222.937 36.2378L221.729 36.7056ZM223.012 38.2351C223.602 38.5723 224.305 38.7207 225.085 38.7207V37.4246C224.464 37.4246 223.999 37.3062 223.655 37.1097L223.012 38.2351ZM225.085 38.7207C225.734 38.7207 226.317 38.6403 226.813 38.4543L226.358 37.2407C226.054 37.3549 225.636 37.4246 225.085 37.4246V38.7207ZM226.805 38.4573C227.302 38.2784 227.81 37.9813 228.328 37.5884L227.545 36.5558C227.096 36.8965 226.703 37.1164 226.366 37.2378L226.805 38.4573ZM227.476 37.5284L230.428 40.5051L231.348 39.5925L228.397 36.6157L227.476 37.5284ZM230.409 39.6129C229.235 40.904 227.443 41.6021 224.91 41.6021V42.8982C227.679 42.8982 229.873 42.1287 231.368 40.4848L230.409 39.6129ZM224.91 41.6021C223.337 41.6021 221.986 41.3165 220.837 40.7654L220.277 41.9338C221.63 42.5835 223.18 42.8982 224.91 42.8982V41.6021ZM220.844 40.7684C219.69 40.1994 218.818 39.4264 218.203 38.4523L217.107 39.1438C217.86 40.3377 218.922 41.2657 220.27 41.9308L220.844 40.7684ZM218.203 38.4523C217.589 37.4776 217.278 36.3813 217.278 35.1459H215.982C215.982 36.6122 216.355 37.9506 217.107 39.1438L218.203 38.4523ZM217.278 35.1459C217.278 33.889 217.583 32.7926 218.18 31.8372L217.081 31.1503C216.344 32.3294 215.982 33.6679 215.982 35.1459H217.278ZM218.178 31.8395C218.799 30.8559 219.636 30.0923 220.703 29.5435L220.111 28.3909C218.843 29.0429 217.829 29.9636 217.082 31.148L218.178 31.8395ZM220.7 29.5452C221.784 28.9956 223.008 28.7147 224.384 28.7147V27.4186C222.826 27.4186 221.398 27.7381 220.114 28.3892L220.7 29.5452ZM224.384 28.7147C225.68 28.7147 226.841 28.9717 227.879 29.4752L228.445 28.3091C227.214 27.712 225.857 27.4186 224.384 27.4186V28.7147ZM227.882 29.4768C228.923 29.9748 229.738 30.7007 230.339 31.6621L231.438 30.9751C230.705 29.802 229.701 28.9102 228.441 28.3075L227.882 29.4768ZM230.343 31.6682C230.949 32.6144 231.266 33.764 231.266 35.1459H232.562C232.562 33.5593 232.195 32.1575 231.434 30.969L230.343 31.6682ZM224.434 31.2709C223.727 31.2709 223.09 31.4657 222.571 31.8946L223.396 32.8939C223.644 32.6891 223.974 32.567 224.434 32.567V31.2709ZM222.571 31.8946C222.051 32.3241 221.738 32.918 221.598 33.618L222.869 33.8722C222.962 33.4047 223.149 33.0981 223.396 32.8939L222.571 31.8946ZM222.233 34.3931H226.636V33.097H222.233V34.3931ZM227.27 33.6144C227.129 32.9275 226.813 32.3455 226.298 31.9196L225.472 32.9189C225.724 33.1267 225.909 33.4286 226.001 33.8757L227.27 33.6144ZM226.31 31.9302C225.792 31.4791 225.15 31.2709 224.434 31.2709V32.567C224.886 32.567 225.212 32.6924 225.46 32.9083L226.31 31.9302ZM239.076 29.7927H238.428V31.5256L239.565 30.2179L239.076 29.7927ZM243.504 28.0667H244.152V27.4186H243.504V28.0667ZM243.504 33.0697L243.409 33.7107L244.152 33.8208V33.0697H243.504ZM239.351 42V42.6481H239.999V42H239.351ZM233.698 42H233.05V42.6481H233.698V42ZM233.698 28.3168V27.6688H233.05V28.3168H233.698ZM239.076 28.3168H239.724V27.6688H239.076V28.3168ZM239.565 30.2179C240.41 29.2463 241.684 28.7147 243.504 28.7147V27.4186C241.421 27.4186 239.743 28.0377 238.587 29.3675L239.565 30.2179ZM242.856 28.0667V33.0697H244.152V28.0667H242.856ZM243.599 32.4286C243.123 32.3581 242.674 32.3215 242.253 32.3215V33.6177C242.6 33.6177 242.984 33.6478 243.409 33.7107L243.599 32.4286ZM242.253 32.3215C241.183 32.3215 240.262 32.5945 239.615 33.2532C238.969 33.9099 238.703 34.8403 238.703 35.9214H239.999C239.999 35.0346 240.217 34.4891 240.539 34.1619C240.858 33.8367 241.388 33.6177 242.253 33.6177V32.3215ZM238.703 35.9214V42H239.999V35.9214H238.703ZM239.351 41.3519H233.698V42.6481H239.351V41.3519ZM234.346 42V28.3168H233.05V42H234.346ZM233.698 28.9649H239.076V27.6688H233.698V28.9649ZM238.428 28.3168V29.7927H239.724V28.3168H238.428Z" fill="#21252D" mask="url(#path-1-outside-1_199_2106)"/>
<g clip-path="url(#clip0_199_2106)">
<path fill-rule="evenodd" clip-rule="evenodd" d="M43.9054 25.9995C45.4714 25.2063 47.4639 24.0388 49.4588 22.4391C49.8794 23.3264 49.9254 24.1006 49.7087 24.7259C49.5552 25.1665 49.2658 25.5497 48.8853 25.8546C48.4732 26.1841 47.9585 26.424 47.3896 26.5537C46.3102 26.8007 45.0499 26.6564 43.9054 25.9995ZM44.1769 34.1264L46.2498 35.3427C42.0174 37.7524 40.8668 42.2268 39.5 46.5849C38.1334 42.2268 36.9826 37.7524 32.7504 35.3427L34.8232 34.1264C35.0238 34.0494 35.1951 33.91 35.3128 33.728C35.4306 33.546 35.4885 33.3308 35.4785 33.1133C35.2886 29.0318 36.3734 27.2269 37.8368 26.0936C38.3617 25.6877 38.9347 25.4838 39.5 25.4838C40.0653 25.4838 40.6383 25.6877 41.1633 26.0936C42.6267 27.2269 43.7116 29.0318 43.5217 33.1133C43.5116 33.3308 43.5696 33.546 43.6873 33.728C43.805 33.91 43.9764 34.0494 44.1769 34.1264ZM39.5 7.47607C41.896 7.54142 44.2981 8.01393 46.3827 8.93311C47.8263 9.57046 49.1733 10.4123 50.393 11.4191C50.9438 11.8735 51.3973 12.3126 51.897 12.818C53.2445 12.8654 55.2138 11.3447 56.128 9.92181C54.5546 15.1617 47.3746 21.3495 42.4039 23.7172C42.4018 23.7164 42.4004 23.7152 42.3989 23.7141C41.5068 23.0222 40.5035 22.6762 39.5 22.6762C38.4965 22.6762 37.4933 23.0222 36.6012 23.7141C36.5997 23.715 36.5983 23.7165 36.5963 23.7172C31.6254 21.3495 24.4456 15.1617 22.8721 9.92181C23.7862 11.3447 25.7555 12.8654 27.103 12.818C27.6028 12.3128 28.0564 11.8735 28.607 11.4191C29.8267 10.4123 31.1737 9.57046 32.6173 8.93311C34.7021 8.01393 37.1041 7.54142 39.5 7.47607ZM35.0945 25.9995C33.5288 25.2063 31.5361 24.0388 29.5414 22.4391C29.1208 23.3264 29.0747 24.1006 29.2912 24.7259C29.445 25.1665 29.7344 25.5497 30.1147 25.8546C30.527 26.1841 31.0416 26.424 31.6105 26.5537C32.69 26.8007 33.9501 26.6564 35.0945 25.9995Z" fill="white"/>
<path fill-rule="evenodd" clip-rule="evenodd" d="M51.6436 20.4788C52.7418 19.353 53.7095 18.1069 54.4875 16.995L54.8827 17.7506C56.155 20.3362 56.816 22.9114 56.816 25.8095L56.8133 30.4084L56.8372 32.7924C56.9293 38.6452 58.176 44.5668 61 49.9859L55.0914 45.1461L50.9107 52.0376L46.5186 47.8376L39.5 59.4074L32.4814 47.8378L28.0895 52.0378L23.9087 45.1462L18 49.986C20.824 44.567 22.0707 38.6454 22.163 32.7926L22.1869 30.4086L22.1841 25.8097C22.1841 22.9114 22.845 20.3362 24.1176 17.7507L24.5126 16.9952C25.2907 18.1071 26.2582 19.353 27.3566 20.479L27.0136 21.2027C26.3473 22.6082 26.1267 24.1798 26.6457 25.6745C26.9803 26.6372 27.591 27.4628 28.3784 28.093C29.1428 28.705 30.0475 29.1176 30.9947 29.3342C31.6117 29.4753 32.2403 29.5334 32.8649 29.5136C32.7191 30.3528 32.6555 31.2231 32.6514 32.1098L27.0778 35.3799L31.3788 37.829C31.7226 38.0248 32.0498 38.2491 32.3572 38.4996C35.9032 41.7336 38.0351 51.3011 39.5002 55.9744C40.9654 51.3011 43.0972 41.7336 46.6433 38.4996C46.9507 38.249 47.2779 38.0247 47.6217 37.829L51.9227 35.3799L46.3489 32.1098C46.3449 31.2231 46.2812 30.3528 46.1355 29.5136C46.76 29.5334 47.3886 29.4753 48.0056 29.3342C48.9528 29.1176 49.8577 28.705 50.622 28.093C51.4091 27.4628 52.02 26.6372 52.3544 25.6745C52.8737 24.1798 52.6529 22.6084 51.9867 21.2027L51.6437 20.479L51.6436 20.4788Z" fill="white"/>
</g>
<defs>
<clipPath id="clip0_199_2106">
<rect width="43" height="52" fill="white" transform="translate(18 7.47607)"/>
</clipPath>
</defs>
</svg>
