<svg width="203" height="60" viewBox="0 0 203 60" fill="none" xmlns="http://www.w3.org/2000/svg">
<g clip-path="url(#clip0_30_387)">
<path d="M81.8321 35.6462V42H75.9285V35.5712L69.3246 24.4895H75.5533L79.1305 30.5432L82.7326 24.4895H88.436L81.8321 35.6462ZM94.7496 42.2501C93.232 42.2501 91.8645 41.95 90.6471 41.3496C89.4464 40.7326 88.5042 39.8904 87.8204 38.8231C87.1367 37.7391 86.7948 36.5134 86.7948 35.1459C86.7948 33.7784 87.1367 32.561 87.8204 31.4937C88.5042 30.4097 89.4464 29.5676 90.6471 28.9672C91.8645 28.3669 93.232 28.0667 94.7496 28.0667C96.2838 28.0667 97.6513 28.3669 98.852 28.9672C100.069 29.5676 101.012 30.4097 101.679 31.4937C102.362 32.561 102.704 33.7784 102.704 35.1459C102.704 36.5134 102.362 37.7391 101.679 38.8231C101.012 39.8904 100.069 40.7326 98.852 41.3496C97.6513 41.95 96.2838 42.2501 94.7496 42.2501ZM94.7496 37.8475C95.3999 37.8475 95.9336 37.614 96.3505 37.1471C96.7674 36.6635 96.9759 35.9964 96.9759 35.1459C96.9759 34.2954 96.7674 33.6367 96.3505 33.1697C95.9336 32.7028 95.3999 32.4693 94.7496 32.4693C94.0992 32.4693 93.5655 32.7028 93.1486 33.1697C92.7317 33.6367 92.5232 34.2954 92.5232 35.1459C92.5232 35.9964 92.7317 36.6635 93.1486 37.1471C93.5655 37.614 94.0992 37.8475 94.7496 37.8475ZM119.433 28.3168V42H114.054V40.6992C113.554 41.2162 112.97 41.6081 112.303 41.8749C111.636 42.1251 110.928 42.2501 110.177 42.2501C108.443 42.2501 107.05 41.7248 106 40.6742C104.949 39.6069 104.424 38.0059 104.424 35.8713V28.3168H110.077V34.8958C110.077 35.8296 110.227 36.4967 110.527 36.897C110.828 37.2972 111.269 37.4973 111.853 37.4973C112.403 37.4973 112.862 37.2805 113.229 36.8469C113.596 36.3967 113.779 35.6962 113.779 34.7457V28.3168H119.433ZM124.916 29.0673H119.788V24.4895H135.948V29.0673H130.82V42H124.916V29.0673ZM152.02 28.3168V42H146.642V40.6992C146.142 41.2162 145.558 41.6081 144.891 41.8749C144.224 42.1251 143.515 42.2501 142.765 42.2501C141.031 42.2501 139.638 41.7248 138.587 40.6742C137.537 39.6069 137.012 38.0059 137.012 35.8713V28.3168H142.665V34.8958C142.665 35.8296 142.815 36.4967 143.115 36.897C143.415 37.2972 143.857 37.4973 144.441 37.4973C144.991 37.4973 145.45 37.2805 145.817 36.8469C146.184 36.3967 146.367 35.6962 146.367 34.7457V28.3168H152.02ZM163.659 28.0667C164.859 28.0667 165.96 28.3585 166.96 28.9422C167.978 29.5092 168.778 30.3347 169.362 31.4187C169.962 32.486 170.262 33.7284 170.262 35.1459C170.262 36.5634 169.962 37.8142 169.362 38.8981C168.778 39.9821 167.978 40.816 166.96 41.3996C165.96 41.9666 164.859 42.2501 163.659 42.2501C161.974 42.2501 160.723 41.7915 159.906 40.8743V42H154.528V23.4389H160.181V29.2424C160.982 28.4586 162.141 28.0667 163.659 28.0667ZM162.308 37.8475C162.958 37.8475 163.492 37.614 163.909 37.1471C164.326 36.6635 164.534 35.9964 164.534 35.1459C164.534 34.2954 164.326 33.6367 163.909 33.1697C163.492 32.7028 162.958 32.4693 162.308 32.4693C161.657 32.4693 161.124 32.7028 160.707 33.1697C160.29 33.6367 160.081 34.2954 160.081 35.1459C160.081 35.9964 160.29 36.6635 160.707 37.1471C161.124 37.614 161.657 37.8475 162.308 37.8475ZM186.602 35.1459C186.602 35.2293 186.577 35.6712 186.527 36.4717H177.021C177.221 36.9887 177.555 37.3889 178.022 37.6724C178.489 37.9392 179.073 38.0727 179.773 38.0727C180.373 38.0727 180.874 37.9976 181.274 37.8475C181.691 37.6974 182.141 37.4389 182.625 37.0721L185.576 40.0488C184.242 41.5164 182.249 42.2501 179.598 42.2501C177.947 42.2501 176.496 41.95 175.245 41.3496C173.995 40.7326 173.027 39.8821 172.344 38.7981C171.66 37.7141 171.318 36.4967 171.318 35.1459C171.318 33.7784 171.651 32.561 172.319 31.4937C173.002 30.4097 173.928 29.5676 175.095 28.9672C176.279 28.3669 177.605 28.0667 179.073 28.0667C180.457 28.0667 181.716 28.3418 182.85 28.8922C184.001 29.4425 184.909 30.2513 185.576 31.3186C186.26 32.3859 186.602 33.6617 186.602 35.1459ZM179.123 31.919C178.539 31.919 178.055 32.0774 177.672 32.3943C177.288 32.7111 177.038 33.1614 176.921 33.7451H181.324C181.207 33.1781 180.957 32.7361 180.573 32.4193C180.19 32.0857 179.706 31.919 179.123 31.919Z" fill="white"/>
<path d="M81.8321 35.6462L81.2744 35.3161L81.184 35.4688V35.6462H81.8321ZM81.8321 42V42.6481H82.4801V42H81.8321ZM75.9285 42H75.2805V42.6481H75.9285V42ZM75.9285 35.5712H76.5766V35.3927L76.4852 35.2394L75.9285 35.5712ZM69.3246 24.4895V23.8415H68.184L68.7679 24.8213L69.3246 24.4895ZM75.5533 24.4895L76.1112 24.1599L75.9231 23.8415H75.5533V24.4895ZM79.1305 30.5432L78.5725 30.8728L79.1285 31.8137L79.6874 30.8745L79.1305 30.5432ZM82.7326 24.4895V23.8415H82.3641L82.1757 24.1581L82.7326 24.4895ZM88.436 24.4895L88.9937 24.8196L89.5727 23.8415H88.436V24.4895ZM81.184 35.6462V42H82.4801V35.6462H81.184ZM81.8321 41.3519H75.9285V42.6481H81.8321V41.3519ZM76.5766 42V35.5712H75.2805V42H76.5766ZM76.4852 35.2394L69.8813 24.1578L68.7679 24.8213L75.3718 35.9029L76.4852 35.2394ZM69.3246 25.1376H75.5533V23.8415H69.3246V25.1376ZM74.9954 24.8192L78.5725 30.8728L79.6884 30.2135L76.1112 24.1599L74.9954 24.8192ZM79.6874 30.8745L83.2895 24.8209L82.1757 24.1581L78.5735 30.2118L79.6874 30.8745ZM82.7326 25.1376H88.436V23.8415H82.7326V25.1376ZM87.8783 24.1594L81.2744 35.3161L82.3897 35.9763L88.9937 24.8196L87.8783 24.1594ZM90.6471 41.3496L90.3509 41.9261L90.3605 41.9308L90.6471 41.3496ZM87.8204 38.8231L87.2723 39.1689L87.2747 39.1727L87.8204 38.8231ZM87.8204 31.4937L88.3661 31.8433L88.3685 31.8395L87.8204 31.4937ZM90.6471 28.9672L90.3605 28.386L90.3573 28.3876L90.6471 28.9672ZM98.852 28.9672L98.5622 29.5469L98.5654 29.5484L98.852 28.9672ZM101.679 31.4937L101.127 31.8334L101.133 31.8433L101.679 31.4937ZM101.679 38.8231L101.131 38.4774L101.129 38.4796L101.679 38.8231ZM98.852 41.3496L99.1418 41.9293L99.145 41.9277L98.852 41.3496ZM96.3505 37.1471L96.834 37.5788L96.8414 37.5702L96.3505 37.1471ZM93.1486 37.1471L92.6577 37.5703L92.6652 37.5787L93.1486 37.1471ZM94.7496 41.6021C93.3195 41.6021 92.0519 41.3198 90.9337 40.7684L90.3605 41.9308C91.6771 42.5801 93.1444 42.8982 94.7496 42.8982V41.6021ZM90.9433 40.7732C89.8374 40.2049 88.9841 39.4382 88.3661 38.4735L87.2747 39.1727C88.0242 40.3426 89.0553 41.2602 90.3509 41.926L90.9433 40.7732ZM88.3685 38.4774C87.7545 37.5039 87.4429 36.3996 87.4429 35.1459H86.1467C86.1467 36.6272 86.5188 37.9743 87.2723 39.1688L88.3685 38.4774ZM87.4429 35.1459C87.4429 33.8921 87.7545 32.798 88.3661 31.8433L87.2747 31.1441C86.5188 32.3241 86.1467 33.6647 86.1467 35.1459H87.4429ZM88.3685 31.8395C88.9861 30.8604 89.8368 30.0969 90.9369 29.5469L90.3573 28.3876C89.056 29.0382 88.0222 29.9591 87.2723 31.148L88.3685 31.8395ZM90.9337 29.5484C92.0519 28.997 93.3195 28.7147 94.7496 28.7147V27.4186C93.1444 27.4186 91.6771 27.7367 90.3605 28.386L90.9337 29.5484ZM94.7496 28.7147C96.1976 28.7147 97.4635 28.9975 98.5622 29.5469L99.1418 28.3876C97.839 27.7362 96.37 27.4186 94.7496 27.4186V28.7147ZM98.5654 29.5484C99.681 30.0986 100.528 30.8603 101.127 31.8334L102.231 31.1541C101.495 29.9592 100.458 29.0366 99.1386 28.386L98.5654 29.5484ZM101.133 31.8433C101.745 32.798 102.056 33.8921 102.056 35.1459H103.352C103.352 33.6647 102.98 32.3241 102.224 31.1441L101.133 31.8433ZM102.056 35.1459C102.056 36.3996 101.745 37.5039 101.131 38.4774L102.227 39.1688C102.98 37.9743 103.352 36.6272 103.352 35.1459H102.056ZM101.129 38.4796C100.53 39.4384 99.6803 40.2032 98.559 40.7716L99.145 41.9277C100.458 41.2619 101.493 40.3424 102.228 39.1666L101.129 38.4796ZM98.5622 40.77C97.4635 41.3193 96.1976 41.6021 94.7496 41.6021V42.8982C96.37 42.8982 97.839 42.5806 99.1418 41.9292L98.5622 40.77ZM94.7496 38.4956C95.5764 38.4956 96.2887 38.1894 96.8339 37.5787L95.8671 36.7155C95.5785 37.0387 95.2235 37.1995 94.7496 37.1995V38.4956ZM96.8414 37.5702C97.3892 36.9347 97.6239 36.0996 97.6239 35.1459H96.3278C96.3278 35.8932 96.1456 36.3922 95.8597 36.724L96.8414 37.5702ZM97.6239 35.1459C97.6239 34.1938 97.3898 33.3607 96.8339 32.7381L95.8671 33.6013C96.145 33.9126 96.3278 34.397 96.3278 35.1459H97.6239ZM96.8339 32.7381C96.2887 32.1275 95.5764 31.8212 94.7496 31.8212V33.1174C95.2235 33.1174 95.5785 33.2781 95.8671 33.6013L96.8339 32.7381ZM94.7496 31.8212C93.9227 31.8212 93.2104 32.1275 92.6652 32.7381L93.632 33.6013C93.9206 33.2781 94.2756 33.1174 94.7496 33.1174V31.8212ZM92.6652 32.7381C92.1093 33.3607 91.8752 34.1938 91.8752 35.1459H93.1713C93.1713 34.397 93.3541 33.9126 93.632 33.6013L92.6652 32.7381ZM91.8752 35.1459C91.8752 36.0996 92.1099 36.9347 92.6578 37.5702L93.6394 36.724C93.3535 36.3922 93.1713 35.8932 93.1713 35.1459H91.8752ZM92.6652 37.5787C93.2104 38.1894 93.9227 38.4956 94.7496 38.4956V37.1995C94.2756 37.1995 93.9206 37.0387 93.632 36.7155L92.6652 37.5787ZM119.433 28.3168H120.081V27.6688H119.433V28.3168ZM119.433 42V42.6481H120.081V42H119.433ZM114.054 42H113.406V42.6481H114.054V42ZM114.054 40.6992H114.703V39.0977L113.589 40.2486L114.054 40.6992ZM112.303 41.8749L112.531 42.4819L112.544 42.4766L112.303 41.8749ZM106 40.6742L105.538 41.1288L105.541 41.1325L106 40.6742ZM104.424 28.3168V27.6688H103.776V28.3168H104.424ZM110.077 28.3168H110.725V27.6688H110.077V28.3168ZM110.527 36.897L111.046 36.5081L111.046 36.5081L110.527 36.897ZM113.229 36.8469L113.724 37.2656L113.731 37.2563L113.229 36.8469ZM113.779 28.3168V27.6688H113.131V28.3168H113.779ZM118.785 28.3168V42H120.081V28.3168H118.785ZM119.433 41.3519H114.054V42.6481H119.433V41.3519ZM114.703 42V40.6992H113.406V42H114.703ZM113.589 40.2486C113.152 40.7 112.645 41.0404 112.063 41.2732L112.544 42.4766C113.296 42.1758 113.956 41.7324 114.52 41.1499L113.589 40.2486ZM112.076 41.2681C111.485 41.4896 110.854 41.6021 110.177 41.6021V42.8982C111.001 42.8982 111.787 42.7606 112.531 42.4817L112.076 41.2681ZM110.177 41.6021C108.584 41.6021 107.367 41.1247 106.458 40.216L105.541 41.1325C106.734 42.3249 108.302 42.8982 110.177 42.8982V41.6021ZM106.461 40.2196C105.573 39.317 105.072 37.9086 105.072 35.8713H103.776C103.776 38.1033 104.325 39.8968 105.538 41.1288L106.461 40.2196ZM105.072 35.8713V28.3168H103.776V35.8713H105.072ZM104.424 28.9649H110.077V27.6688H104.424V28.9649ZM109.429 28.3168V34.8958H110.725V28.3168H109.429ZM109.429 34.8958C109.429 35.8648 109.578 36.7113 110.009 37.2858L111.046 36.5081C110.876 36.2821 110.725 35.7945 110.725 34.8958H109.429ZM110.009 37.2858C110.453 37.8778 111.104 38.1454 111.853 38.1454V36.8493C111.435 36.8493 111.202 36.7166 111.046 36.5081L110.009 37.2858ZM111.853 38.1454C112.601 38.1454 113.238 37.8393 113.724 37.2655L112.734 36.4283C112.486 36.7218 112.206 36.8493 111.853 36.8493V38.1454ZM113.731 37.2563C114.236 36.6369 114.427 35.7574 114.427 34.7457H113.131C113.131 35.6351 112.956 36.1564 112.727 36.4376L113.731 37.2563ZM114.427 34.7457V28.3168H113.131V34.7457H114.427ZM113.779 28.9649H119.433V27.6688H113.779V28.9649ZM124.916 29.0673H125.564V28.4192H124.916V29.0673ZM119.788 29.0673H119.14V29.7153H119.788V29.0673ZM119.788 24.4895V23.8415H119.14V24.4895H119.788ZM135.948 24.4895H136.596V23.8415H135.948V24.4895ZM135.948 29.0673V29.7153H136.596V29.0673H135.948ZM130.82 29.0673V28.4192H130.171V29.0673H130.82ZM130.82 42V42.6481H131.468V42H130.82ZM124.916 42H124.268V42.6481H124.916V42ZM124.916 28.4192H119.788V29.7153H124.916V28.4192ZM120.436 29.0673V24.4895H119.14V29.0673H120.436ZM119.788 25.1376H135.948V23.8415H119.788V25.1376ZM135.3 24.4895V29.0673H136.596V24.4895H135.3ZM135.948 28.4192H130.82V29.7153H135.948V28.4192ZM130.171 29.0673V42H131.468V29.0673H130.171ZM130.82 41.3519H124.916V42.6481H130.82V41.3519ZM125.564 42V29.0673H124.268V42H125.564ZM152.02 28.3168H152.669V27.6688H152.02V28.3168ZM152.02 42V42.6481H152.669V42H152.02ZM146.642 42H145.994V42.6481H146.642V42ZM146.642 40.6992H147.29V39.0977L146.177 40.2486L146.642 40.6992ZM144.891 41.8749L145.119 42.4819L145.132 42.4766L144.891 41.8749ZM138.587 40.6742L138.126 41.1288L138.129 41.1325L138.587 40.6742ZM137.012 28.3168V27.6688H136.363V28.3168H137.012ZM142.665 28.3168H143.313V27.6688H142.665V28.3168ZM143.115 36.897L143.634 36.5081L143.634 36.5081L143.115 36.897ZM145.817 36.8469L146.312 37.2656L146.319 37.2563L145.817 36.8469ZM146.367 28.3168V27.6688H145.719V28.3168H146.367ZM151.372 28.3168V42H152.669V28.3168H151.372ZM152.02 41.3519H146.642V42.6481H152.02V41.3519ZM147.29 42V40.6992H145.994V42H147.29ZM146.177 40.2486C145.74 40.7 145.233 41.0404 144.651 41.2732L145.132 42.4766C145.884 42.1758 146.544 41.7324 147.108 41.1499L146.177 40.2486ZM144.664 41.2681C144.073 41.4896 143.442 41.6021 142.765 41.6021V42.8982C143.589 42.8982 144.375 42.7606 145.119 42.4817L144.664 41.2681ZM142.765 41.6021C141.171 41.6021 139.954 41.1247 139.046 40.216L138.129 41.1325C139.322 42.3249 140.89 42.8982 142.765 42.8982V41.6021ZM139.049 40.2196C138.161 39.317 137.66 37.9086 137.66 35.8713H136.363C136.363 38.1033 136.913 39.8968 138.126 41.1288L139.049 40.2196ZM137.66 35.8713V28.3168H136.363V35.8713H137.66ZM137.012 28.9649H142.665V27.6688H137.012V28.9649ZM142.017 28.3168V34.8958H143.313V28.3168H142.017ZM142.017 34.8958C142.017 35.8648 142.166 36.7113 142.597 37.2858L143.634 36.5081C143.464 36.2821 143.313 35.7945 143.313 34.8958H142.017ZM142.597 37.2858C143.041 37.8778 143.692 38.1454 144.441 38.1454V36.8493C144.023 36.8493 143.79 36.7166 143.634 36.5081L142.597 37.2858ZM144.441 38.1454C145.189 38.1454 145.826 37.8393 146.312 37.2655L145.322 36.4283C145.074 36.7218 144.794 36.8493 144.441 36.8493V38.1454ZM146.319 37.2563C146.824 36.6369 147.015 35.7574 147.015 34.7457H145.719C145.719 35.6351 145.543 36.1564 145.314 36.4376L146.319 37.2563ZM147.015 34.7457V28.3168H145.719V34.7457H147.015ZM146.367 28.9649H152.02V27.6688H146.367V28.9649ZM166.96 28.9422L166.634 29.5021L166.645 29.5083L166.96 28.9422ZM169.362 31.4187L168.791 31.726L168.797 31.7364L169.362 31.4187ZM169.362 38.8981L168.795 38.5841L168.791 38.5909L169.362 38.8981ZM166.96 41.3996L167.28 41.9635L167.283 41.9617L166.96 41.3996ZM159.906 40.8743L160.39 40.4432L159.258 39.1727V40.8743H159.906ZM159.906 42V42.6481H160.554V42H159.906ZM154.528 42H153.88V42.6481H154.528V42ZM154.528 23.4389V22.7909H153.88V23.4389H154.528ZM160.181 23.4389H160.829V22.7909H160.181V23.4389ZM160.181 29.2424H159.533V30.7839L160.635 29.7054L160.181 29.2424ZM163.909 37.1471L164.392 37.5788L164.399 37.5702L163.909 37.1471ZM160.707 37.1471L160.216 37.5703L160.223 37.5787L160.707 37.1471ZM163.659 28.7147C164.749 28.7147 165.736 28.9783 166.634 29.502L167.287 28.3824C166.184 27.7388 164.97 27.4186 163.659 27.4186V28.7147ZM166.645 29.5083C167.548 30.0116 168.263 30.7443 168.791 31.7259L169.933 31.1114C169.294 29.9251 168.408 29.0068 167.276 28.3761L166.645 29.5083ZM168.797 31.7364C169.335 32.6923 169.614 33.822 169.614 35.1459H170.911C170.911 33.6348 170.59 32.2796 169.927 31.101L168.797 31.7364ZM169.614 35.1459C169.614 36.4696 169.335 37.6094 168.795 38.5842L169.929 39.2121C170.59 38.019 170.911 36.6573 170.911 35.1459H169.614ZM168.791 38.5909C168.262 39.574 167.545 40.3171 166.638 40.8375L167.283 41.9617C168.41 41.3148 169.294 40.3903 169.933 39.2054L168.791 38.5909ZM166.641 40.8358C165.742 41.3451 164.752 41.6021 163.659 41.6021V42.8982C164.966 42.8982 166.178 42.5882 167.28 41.9635L166.641 40.8358ZM163.659 41.6021C162.088 41.6021 161.044 41.1768 160.39 40.4432L159.422 41.3054C160.403 42.4063 161.861 42.8982 163.659 42.8982V41.6021ZM159.258 40.8743V42H160.554V40.8743H159.258ZM159.906 41.3519H154.528V42.6481H159.906V41.3519ZM155.176 42V23.4389H153.88V42H155.176ZM154.528 24.087H160.181V22.7909H154.528V24.087ZM159.533 23.4389V29.2424H160.829V23.4389H159.533ZM160.635 29.7054C161.276 29.0772 162.249 28.7147 163.659 28.7147V27.4186C162.033 27.4186 160.687 27.8399 159.728 28.7793L160.635 29.7054ZM162.308 38.4956C163.135 38.4956 163.847 38.1894 164.392 37.5787L163.425 36.7155C163.137 37.0387 162.782 37.1995 162.308 37.1995V38.4956ZM164.399 37.5702C164.947 36.9347 165.182 36.0996 165.182 35.1459H163.886C163.886 35.8932 163.704 36.3922 163.418 36.724L164.399 37.5702ZM165.182 35.1459C165.182 34.1938 164.948 33.3607 164.392 32.7381L163.425 33.6013C163.703 33.9126 163.886 34.397 163.886 35.1459H165.182ZM164.392 32.7381C163.847 32.1275 163.135 31.8212 162.308 31.8212V33.1174C162.782 33.1174 163.137 33.2781 163.425 33.6013L164.392 32.7381ZM162.308 31.8212C161.481 31.8212 160.769 32.1275 160.223 32.7381L161.19 33.6013C161.479 33.2781 161.834 33.1174 162.308 33.1174V31.8212ZM160.223 32.7381C159.667 33.3607 159.433 34.1938 159.433 35.1459H160.729C160.729 34.397 160.912 33.9126 161.19 33.6013L160.223 32.7381ZM159.433 35.1459C159.433 36.0996 159.668 36.9347 160.216 37.5702L161.198 36.724C160.912 36.3922 160.729 35.8932 160.729 35.1459H159.433ZM160.223 37.5787C160.769 38.1894 161.481 38.4956 162.308 38.4956V37.1995C161.834 37.1995 161.479 37.0387 161.19 36.7155L160.223 37.5787ZM186.527 36.4717V37.1198H187.136L187.174 36.5121L186.527 36.4717ZM177.021 36.4717V35.8236H176.076L176.417 36.7056L177.021 36.4717ZM178.022 37.6724L177.686 38.2264L177.693 38.2308L177.7 38.2351L178.022 37.6724ZM181.274 37.8475L181.054 37.2377L181.046 37.2407L181.274 37.8475ZM182.625 37.0721L183.085 36.6157L182.685 36.2127L182.233 36.5558L182.625 37.0721ZM185.576 40.0488L186.056 40.4848L186.47 40.0295L186.037 39.5925L185.576 40.0488ZM175.245 41.3496L174.959 41.9308L174.965 41.9338L175.245 41.3496ZM172.344 38.7981L172.892 38.4523L172.344 38.7981ZM172.319 31.4937L171.77 31.148L171.769 31.1503L172.319 31.4937ZM175.095 28.9672L174.802 28.3892L174.799 28.3909L175.095 28.9672ZM182.85 28.8922L182.567 29.4752L182.57 29.4768L182.85 28.8922ZM185.576 31.3186L185.027 31.6621L185.031 31.6682L185.576 31.3186ZM177.672 32.3943L178.084 32.8939L178.084 32.8939L177.672 32.3943ZM176.921 33.7451L176.286 33.618L176.131 34.3931H176.921V33.7451ZM181.324 33.7451V34.3931H182.119L181.959 33.6144L181.324 33.7451ZM180.573 32.4193L180.148 32.9083L180.154 32.9137L180.161 32.9189L180.573 32.4193ZM185.954 35.1459C185.954 35.144 185.954 35.1503 185.953 35.1706C185.953 35.1888 185.952 35.2134 185.95 35.2448C185.947 35.3077 185.943 35.3936 185.936 35.5033C185.924 35.7223 185.905 36.0315 185.88 36.4313L187.174 36.5121C187.223 35.7289 187.25 35.2558 187.25 35.1459H185.954ZM186.527 35.8236H177.021V37.1198H186.527V35.8236ZM176.417 36.7056C176.668 37.3538 177.095 37.8675 177.686 38.2264L178.358 37.1185C178.015 36.9103 177.775 36.6236 177.626 36.2378L176.417 36.7056ZM177.7 38.2351C178.291 38.5723 178.993 38.7207 179.773 38.7207V37.4246C179.152 37.4246 178.687 37.3062 178.343 37.1097L177.7 38.2351ZM179.773 38.7207C180.422 38.7207 181.005 38.6403 181.501 38.4543L181.046 37.2407C180.742 37.3549 180.325 37.4246 179.773 37.4246V38.7207ZM181.493 38.4573C181.99 38.2784 182.498 37.9813 183.016 37.5884L182.233 36.5558C181.784 36.8965 181.391 37.1164 181.054 37.2378L181.493 38.4573ZM182.165 37.5284L185.116 40.5051L186.037 39.5925L183.085 36.6157L182.165 37.5284ZM185.097 39.6129C183.923 40.904 182.131 41.6021 179.598 41.6021V42.8982C182.368 42.8982 184.562 42.1287 186.056 40.4848L185.097 39.6129ZM179.598 41.6021C178.026 41.6021 176.674 41.3165 175.526 40.7654L174.965 41.9338C176.318 42.5835 177.868 42.8982 179.598 42.8982V41.6021ZM175.532 40.7684C174.379 40.1994 173.506 39.4264 172.892 38.4523L171.795 39.1438C172.549 40.3377 173.61 41.2657 174.959 41.9308L175.532 40.7684ZM172.892 38.4523C172.277 37.4776 171.966 36.3813 171.966 35.1459H170.67C170.67 36.6122 171.043 37.9506 171.795 39.1438L172.892 38.4523ZM171.966 35.1459C171.966 33.889 172.271 32.7926 172.868 31.8372L171.769 31.1503C171.032 32.3294 170.67 33.6679 170.67 35.1459H171.966ZM172.867 31.8395C173.487 30.8559 174.325 30.0923 175.392 29.5435L174.799 28.3909C173.531 29.0429 172.518 29.9636 171.77 31.148L172.867 31.8395ZM175.388 29.5452C176.472 28.9956 177.696 28.7147 179.073 28.7147V27.4186C177.514 27.4186 176.086 27.7381 174.802 28.3892L175.388 29.5452ZM179.073 28.7147C180.368 28.7147 181.529 28.9717 182.567 29.4752L183.133 28.3091C181.902 27.712 180.545 27.4186 179.073 27.4186V28.7147ZM182.57 29.4768C183.611 29.9748 184.426 30.7007 185.027 31.6621L186.126 30.9751C185.393 29.802 184.39 28.9102 183.129 28.3075L182.57 29.4768ZM185.031 31.6682C185.637 32.6144 185.954 33.764 185.954 35.1459H187.25C187.25 33.5593 186.884 32.1575 186.122 30.969L185.031 31.6682ZM179.123 31.2709C178.416 31.2709 177.778 31.4657 177.259 31.8946L178.084 32.8939C178.332 32.6891 178.662 32.567 179.123 32.567V31.2709ZM177.259 31.8946C176.739 32.3241 176.426 32.918 176.286 33.618L177.557 33.8722C177.65 33.4047 177.837 33.0981 178.084 32.8939L177.259 31.8946ZM176.921 34.3931H181.324V33.097H176.921V34.3931ZM181.959 33.6144C181.817 32.9275 181.502 32.3455 180.986 31.9196L180.161 32.9189C180.412 33.1267 180.597 33.4286 180.689 33.8757L181.959 33.6144ZM180.999 31.9302C180.48 31.4791 179.838 31.2709 179.123 31.2709V32.567C179.575 32.567 179.9 32.6924 180.148 32.9083L180.999 31.9302Z" fill="#21252D"/>
<path fill-rule="evenodd" clip-rule="evenodd" d="M30.7164 37.9802V25.073C35.2985 27.2291 38.8473 29.3119 43.0445 31.5575C39.5827 33.4773 35.2985 35.6314 30.7164 37.9802ZM56.2523 18.6537C55.4619 17.6123 54.1148 16.8017 52.6806 16.5334C48.4651 15.7329 22.1663 15.7306 17.9531 16.5334C16.803 16.749 15.7788 17.2701 14.8991 18.0798C11.1922 21.5204 12.3537 39.971 13.2473 42.9598C13.623 44.2534 14.1087 45.1864 14.7204 45.7988C15.5085 46.6085 16.5876 47.166 17.827 47.416C21.298 48.134 39.1795 48.5354 52.6073 47.5238C53.8444 47.3082 54.9395 46.7328 55.8033 45.8887C59.2306 42.4619 58.997 22.975 56.2523 18.6537Z" fill="white"/>
</g>
<defs>
<clipPath id="clip0_30_387">
<rect width="203" height="60" fill="white"/>
</clipPath>
</defs>
</svg>
