<svg width="207" height="60" viewBox="0 0 207 60" fill="none" xmlns="http://www.w3.org/2000/svg">
<g clip-path="url(#clip0_29_335)">
<path d="M79.8059 42.4002C77.1209 42.4002 75.028 41.6748 73.5271 40.2239C72.0262 38.7731 71.2758 36.7385 71.2758 34.1203V24.4895H77.1793V33.9452C77.1793 35.2293 77.4044 36.1632 77.8547 36.7469C78.3216 37.3305 78.9887 37.6224 79.8559 37.6224C80.7231 37.6224 81.3818 37.3305 81.8321 36.7469C82.299 36.1632 82.5325 35.2293 82.5325 33.9452V24.4895H88.336V34.1203C88.336 36.7385 87.5855 38.7731 86.0846 40.2239C84.5837 41.6748 82.4908 42.4002 79.8059 42.4002ZM100.373 28.0667C102.057 28.0667 103.408 28.5753 104.425 29.5926C105.459 30.6099 105.976 32.1441 105.976 34.1953V42H100.323V35.1709C100.323 33.6033 99.7639 32.8195 98.6466 32.8195C98.0129 32.8195 97.4959 33.0446 97.0957 33.4949C96.7121 33.9285 96.5203 34.6206 96.5203 35.5712V42H90.867V28.3168H96.2452V29.6676C96.7788 29.134 97.3959 28.7337 98.0963 28.4669C98.7967 28.2001 99.5555 28.0667 100.373 28.0667ZM108.431 28.3168H114.085V42H108.431V28.3168ZM111.258 27.2162C110.241 27.2162 109.415 26.9493 108.781 26.4157C108.164 25.8654 107.856 25.1733 107.856 24.3394C107.856 23.5056 108.164 22.8219 108.781 22.2882C109.415 21.7379 110.241 21.4627 111.258 21.4627C112.292 21.4627 113.117 21.7212 113.734 22.2382C114.351 22.7552 114.66 23.4222 114.66 24.2394C114.66 25.1066 114.351 25.8237 113.734 26.3907C113.117 26.941 112.292 27.2162 111.258 27.2162ZM123.294 42.4002C121.843 42.4002 120.426 42.2418 119.042 41.925C117.674 41.5914 116.549 41.1495 115.665 40.5992L117.566 36.2966C118.4 36.7802 119.334 37.1721 120.368 37.4723C121.402 37.7558 122.394 37.8975 123.344 37.8975C124.162 37.8975 124.745 37.8225 125.095 37.6724C125.446 37.5056 125.621 37.2638 125.621 36.947C125.621 36.5801 125.387 36.3049 124.92 36.1215C124.47 35.938 123.72 35.7379 122.669 35.5211C121.318 35.2376 120.192 34.9374 119.292 34.6206C118.391 34.2871 117.608 33.7534 116.941 33.0196C116.273 32.2692 115.94 31.2602 115.94 29.9928C115.94 28.8922 116.248 27.8916 116.866 26.991C117.483 26.0905 118.4 25.3817 119.617 24.8648C120.851 24.3478 122.344 24.0893 124.095 24.0893C125.296 24.0893 126.471 24.2227 127.622 24.4895C128.789 24.7397 129.815 25.1149 130.699 25.6152L128.923 29.8928C127.205 29.0256 125.579 28.592 124.045 28.592C122.527 28.592 121.768 28.9589 121.768 29.6926C121.768 30.0429 121.994 30.3097 122.444 30.4931C122.894 30.6599 123.636 30.8433 124.67 31.0435C126.004 31.2936 127.13 31.5854 128.047 31.919C128.964 32.2358 129.757 32.7611 130.424 33.4949C131.107 34.2287 131.449 35.2293 131.449 36.4967C131.449 37.5974 131.141 38.598 130.524 39.4985C129.907 40.3824 128.981 41.0911 127.747 41.6248C126.53 42.1418 125.045 42.4002 123.294 42.4002ZM156.125 28.3168L151.373 42H145.869L143.793 35.6712L141.642 42H136.139L131.386 28.3168H136.739L139.09 35.5461L141.542 28.3168H146.345L148.721 35.6212L151.173 28.3168H156.125ZM162.855 28.0667C165.257 28.0667 167.091 28.6087 168.359 29.6926C169.626 30.76 170.26 32.4109 170.26 34.6456V42H165.007V40.1989C164.356 41.5664 163.064 42.2501 161.129 42.2501C160.045 42.2501 159.12 42.0667 158.353 41.6998C157.602 41.3163 157.027 40.8076 156.627 40.1739C156.243 39.5235 156.051 38.7981 156.051 37.9976C156.051 36.6468 156.568 35.6212 157.602 34.9208C158.636 34.2204 160.204 33.8701 162.305 33.8701H164.581C164.398 32.8028 163.539 32.2692 162.005 32.2692C161.388 32.2692 160.762 32.3692 160.129 32.5694C159.495 32.7528 158.953 33.0113 158.503 33.3448L156.702 29.6176C157.485 29.134 158.428 28.7588 159.528 28.4919C160.646 28.2084 161.755 28.0667 162.855 28.0667ZM162.83 38.8481C163.231 38.8481 163.589 38.7397 163.906 38.5229C164.223 38.3061 164.456 37.9809 164.606 37.5473V36.5968H163.205C162.055 36.5968 161.479 36.9803 161.479 37.7475C161.479 38.0643 161.596 38.3311 161.83 38.5479C162.08 38.7481 162.413 38.8481 162.83 38.8481ZM181.833 28.0667C183.034 28.0667 184.135 28.3585 185.135 28.9422C186.153 29.5092 186.953 30.3347 187.537 31.4187C188.137 32.5027 188.437 33.7534 188.437 35.1709C188.437 36.5884 188.137 37.8392 187.537 38.9232C186.953 39.9905 186.153 40.816 185.135 41.3996C184.135 41.9666 183.034 42.2501 181.833 42.2501C180.316 42.2501 179.157 41.8582 178.356 41.0744V46.8529H172.703V28.3168H178.081V29.4425C178.898 28.5253 180.149 28.0667 181.833 28.0667ZM180.483 37.8475C181.133 37.8475 181.667 37.614 182.084 37.1471C182.5 36.6802 182.709 36.0214 182.709 35.1709C182.709 34.3204 182.5 33.6617 182.084 33.1947C181.667 32.7111 181.133 32.4693 180.483 32.4693C179.832 32.4693 179.299 32.7111 178.882 33.1947C178.465 33.6617 178.256 34.3204 178.256 35.1709C178.256 36.0214 178.465 36.6802 178.882 37.1471C179.299 37.614 179.832 37.8475 180.483 37.8475Z" fill="white"/>
<path d="M73.5271 40.2239L73.0767 40.6899L73.0767 40.6899L73.5271 40.2239ZM71.2758 24.4895V23.8415H70.6277V24.4895H71.2758ZM77.1793 24.4895H77.8273V23.8415H77.1793V24.4895ZM77.8547 36.7469L77.3415 37.1428L77.3486 37.1517L77.8547 36.7469ZM81.8321 36.7469L81.3259 36.342L81.319 36.351L81.8321 36.7469ZM82.5325 24.4895V23.8415H81.8844V24.4895H82.5325ZM88.336 24.4895H88.984V23.8415H88.336V24.4895ZM86.0846 40.2239L85.6342 39.758L85.6342 39.758L86.0846 40.2239ZM79.8059 41.7522C77.2389 41.7522 75.3258 41.0614 73.9775 39.758L73.0767 40.6899C74.7302 42.2883 77.0029 43.0483 79.8059 43.0483V41.7522ZM73.9775 39.758C72.6334 38.4586 71.9238 36.6102 71.9238 34.1203H70.6277C70.6277 36.8668 71.4191 39.0875 73.0767 40.6899L73.9775 39.758ZM71.9238 34.1203V24.4895H70.6277V34.1203H71.9238ZM71.2758 25.1376H77.1793V23.8415H71.2758V25.1376ZM76.5312 24.4895V33.9452H77.8273V24.4895H76.5312ZM76.5312 33.9452C76.5312 35.2773 76.7595 36.3882 77.3416 37.1427L78.3678 36.351C78.0493 35.9382 77.8273 35.1812 77.8273 33.9452H76.5312ZM77.3486 37.1517C77.9591 37.9148 78.8272 38.2704 79.8559 38.2704V36.9743C79.1502 36.9743 78.6842 36.7463 78.3607 36.342L77.3486 37.1517ZM79.8559 38.2704C80.8841 38.2704 81.7498 37.9145 82.3452 37.1427L81.319 36.351C81.0138 36.7465 80.5621 36.9743 79.8559 36.9743V38.2704ZM82.3381 37.1517C82.9428 36.3958 83.1805 35.2808 83.1805 33.9452H81.8844C81.8844 35.1777 81.6552 35.9305 81.326 36.342L82.3381 37.1517ZM83.1805 33.9452V24.4895H81.8844V33.9452H83.1805ZM82.5325 25.1376H88.336V23.8415H82.5325V25.1376ZM87.6879 24.4895V34.1203H88.984V24.4895H87.6879ZM87.6879 34.1203C87.6879 36.6102 86.9784 38.4586 85.6342 39.758L86.535 40.6899C88.1927 39.0875 88.984 36.8668 88.984 34.1203H87.6879ZM85.6342 39.758C84.2859 41.0614 82.3728 41.7522 79.8059 41.7522V43.0483C82.6088 43.0483 84.8815 42.2883 86.535 40.6899L85.6342 39.758ZM104.425 29.5926L103.967 30.0508L103.971 30.0545L104.425 29.5926ZM105.976 42V42.6481H106.624V42H105.976ZM100.323 42H99.6746V42.6481H100.323V42ZM97.0957 33.4949L96.6113 33.0644L96.6103 33.0655L97.0957 33.4949ZM96.5203 42V42.6481H97.1684V42H96.5203ZM90.867 42H90.2189V42.6481H90.867V42ZM90.867 28.3168V27.6688H90.2189V28.3168H90.867ZM96.2452 28.3168H96.8932V27.6688H96.2452V28.3168ZM96.2452 29.6676H95.5971V31.2322L96.7034 30.1259L96.2452 29.6676ZM98.0963 28.4669L98.327 29.0725L98.327 29.0725L98.0963 28.4669ZM100.373 28.7147C101.917 28.7147 103.092 29.1758 103.967 30.0508L104.883 29.1343C103.724 27.9748 102.197 27.4186 100.373 27.4186V28.7147ZM103.971 30.0545C104.837 30.9069 105.328 32.2449 105.328 34.1953H106.624C106.624 32.0433 106.081 30.3128 104.88 29.1306L103.971 30.0545ZM105.328 34.1953V42H106.624V34.1953H105.328ZM105.976 41.3519H100.323V42.6481H105.976V41.3519ZM100.971 42V35.1709H99.6746V42H100.971ZM100.971 35.1709C100.971 34.3297 100.824 33.5826 100.431 33.0312C100.01 32.4395 99.3762 32.1715 98.6466 32.1715V33.4676C99.0344 33.4676 99.239 33.5914 99.3759 33.7835C99.5416 34.016 99.6746 34.4445 99.6746 35.1709H100.971ZM98.6466 32.1715C97.8387 32.1715 97.1416 32.4678 96.6113 33.0644L97.58 33.9255C97.8502 33.6215 98.1871 33.4676 98.6466 33.4676V32.1715ZM96.6103 33.0655C96.0726 33.6734 95.8723 34.5574 95.8723 35.5712H97.1684C97.1684 34.6838 97.3516 34.1837 97.5811 33.9243L96.6103 33.0655ZM95.8723 35.5712V42H97.1684V35.5712H95.8723ZM96.5203 41.3519H90.867V42.6481H96.5203V41.3519ZM91.515 42V28.3168H90.2189V42H91.515ZM90.867 28.9649H96.2452V27.6688H90.867V28.9649ZM95.5971 28.3168V29.6676H96.8932V28.3168H95.5971ZM96.7034 30.1259C97.1729 29.6564 97.7126 29.3066 98.327 29.0725L97.8656 27.8613C97.0792 28.1609 96.3847 28.6116 95.7869 29.2094L96.7034 30.1259ZM98.327 29.0725C98.9473 28.8362 99.6272 28.7147 100.373 28.7147V27.4186C99.4838 27.4186 98.6461 27.564 97.8656 27.8613L98.327 29.0725ZM108.431 28.3168V27.6688H107.783V28.3168H108.431ZM114.085 28.3168H114.733V27.6688H114.085V28.3168ZM114.085 42V42.6481H114.733V42H114.085ZM108.431 42H107.783V42.6481H108.431V42ZM108.781 26.4157L108.35 26.8993L108.357 26.9055L108.364 26.9114L108.781 26.4157ZM108.781 22.2882L109.205 22.7784L109.206 22.7775L108.781 22.2882ZM113.734 22.2382L113.318 22.7349L113.318 22.7349L113.734 22.2382ZM113.734 26.3907L114.166 26.8744L114.173 26.8679L113.734 26.3907ZM108.431 28.9649H114.085V27.6688H108.431V28.9649ZM113.436 28.3168V42H114.733V28.3168H113.436ZM114.085 41.3519H108.431V42.6481H114.085V41.3519ZM109.079 42V28.3168H107.783V42H109.079ZM111.258 26.5681C110.357 26.5681 109.691 26.3343 109.199 25.92L108.364 26.9114C109.139 27.5644 110.124 27.8642 111.258 27.8642V26.5681ZM109.213 25.932C108.735 25.5059 108.504 24.9903 108.504 24.3394H107.208C107.208 25.3562 107.594 26.2248 108.35 26.8993L109.213 25.932ZM108.504 24.3394C108.504 23.689 108.734 23.1859 109.205 22.7784L108.357 21.7981C107.595 22.4579 107.208 23.3222 107.208 24.3394H108.504ZM109.206 22.7775C109.698 22.3502 110.362 22.1108 111.258 22.1108V20.8147C110.119 20.8147 109.132 21.1256 108.356 21.7989L109.206 22.7775ZM111.258 22.1108C112.184 22.1108 112.848 22.3407 113.318 22.7349L114.151 21.7414C113.387 21.1017 112.4 20.8147 111.258 20.8147V22.1108ZM113.318 22.7349C113.786 23.1266 114.012 23.6106 114.012 24.2394H115.308C115.308 23.2339 114.917 22.3837 114.151 21.7414L113.318 22.7349ZM114.012 24.2394C114.012 24.9324 113.774 25.474 113.296 25.9135L114.173 26.8679C114.929 26.1734 115.308 25.2808 115.308 24.2394H114.012ZM113.303 25.907C112.832 26.3268 112.174 26.5681 111.258 26.5681V27.8642C112.41 27.8642 113.402 27.5552 114.166 26.8743L113.303 25.907ZM119.042 41.925L118.888 42.5546L118.897 42.5567L119.042 41.925ZM115.665 40.5992L115.072 40.3372L114.845 40.8519L115.322 41.1493L115.665 40.5992ZM117.566 36.2966L117.891 35.736L117.265 35.3732L116.973 36.0347L117.566 36.2966ZM120.368 37.4723L120.187 38.0947L120.196 38.0973L120.368 37.4723ZM125.095 37.6724L125.351 38.2681L125.362 38.263L125.374 38.2575L125.095 37.6724ZM124.92 36.1215L124.676 36.7217L124.683 36.7247L124.92 36.1215ZM122.669 35.5211L122.536 36.1554L122.538 36.1558L122.669 35.5211ZM119.292 34.6206L119.067 35.2284L119.077 35.2319L119.292 34.6206ZM116.941 33.0196L116.456 33.4502L116.461 33.4556L116.941 33.0196ZM116.866 26.991L117.4 27.3573L117.4 27.3573L116.866 26.991ZM119.617 24.8648L119.367 24.267L119.364 24.2683L119.617 24.8648ZM127.622 24.4895L127.476 25.1209L127.486 25.1232L127.622 24.4895ZM130.699 25.6152L131.297 25.8637L131.517 25.3339L131.018 25.0512L130.699 25.6152ZM128.923 29.8928L128.631 30.4713L129.254 30.7858L129.521 30.1413L128.923 29.8928ZM122.444 30.4931L122.199 31.0933L122.209 31.0972L122.219 31.1008L122.444 30.4931ZM124.67 31.0435L124.547 31.6797L124.551 31.6804L124.67 31.0435ZM128.047 31.919L127.826 32.5281L127.836 32.5315L128.047 31.919ZM130.424 33.4949L129.944 33.9309L129.949 33.9367L130.424 33.4949ZM130.524 39.4985L131.055 39.8695L131.058 39.8648L130.524 39.4985ZM127.747 41.6248L128 42.2213L128.004 42.2196L127.747 41.6248ZM123.294 41.7522C121.891 41.7522 120.522 41.599 119.186 41.2932L118.897 42.5567C120.33 42.8846 121.796 43.0483 123.294 43.0483V41.7522ZM119.195 41.2954C117.873 40.9728 116.816 40.5528 116.007 40.049L115.322 41.1493C116.281 41.7462 117.476 42.2101 118.888 42.5546L119.195 41.2954ZM116.258 40.8611L118.159 36.5585L116.973 36.0347L115.072 40.3372L116.258 40.8611ZM117.241 36.8572C118.125 37.37 119.108 37.7815 120.187 38.0947L120.548 36.8499C119.559 36.5627 118.674 36.1904 117.891 35.736L117.241 36.8572ZM120.196 38.0973C121.279 38.3942 122.329 38.5456 123.344 38.5456V37.2495C122.459 37.2495 121.524 37.1174 120.539 36.8473L120.196 38.0973ZM123.344 38.5456C124.172 38.5456 124.87 38.4739 125.351 38.2681L124.84 37.0768C124.62 37.1711 124.151 37.2495 123.344 37.2495V38.5456ZM125.374 38.2575C125.619 38.141 125.847 37.9773 126.014 37.7461C126.187 37.5076 126.269 37.233 126.269 36.947H124.973C124.973 36.9659 124.97 36.9746 124.97 36.9767C124.969 36.9785 124.968 36.9809 124.965 36.9859C124.957 36.9965 124.922 37.037 124.817 37.0873L125.374 38.2575ZM126.269 36.947C126.269 36.6128 126.158 36.303 125.94 36.0462C125.732 35.8014 125.454 35.6347 125.157 35.5183L124.683 36.7247C124.854 36.7917 124.926 36.8543 124.951 36.8847C124.963 36.8982 124.966 36.9065 124.968 36.9105C124.969 36.9147 124.973 36.9252 124.973 36.947H126.269ZM125.165 35.5213C124.655 35.3137 123.854 35.104 122.8 34.8864L122.538 36.1558C123.585 36.3718 124.285 36.5624 124.676 36.7216L125.165 35.5213ZM122.802 34.8869C121.468 34.6069 120.372 34.3136 119.507 34.0093L119.077 35.2319C120.013 35.5613 121.168 35.8684 122.536 36.1554L122.802 34.8869ZM119.517 34.0129C118.717 33.7166 118.02 33.2433 117.42 32.5837L116.461 33.4556C117.196 34.2636 118.066 34.8575 119.067 35.2283L119.517 34.0129ZM117.425 32.5891C116.889 31.9859 116.588 31.1446 116.588 29.9928H115.292C115.292 31.3759 115.658 32.5524 116.456 33.4502L117.425 32.5891ZM116.588 29.9928C116.588 29.0218 116.858 28.1491 117.4 27.3573L116.331 26.6247C115.639 27.6341 115.292 28.7626 115.292 29.9928H116.588ZM117.4 27.3573C117.934 26.5785 118.743 25.9402 119.87 25.4613L119.364 24.2683C118.057 24.8233 117.031 25.6024 116.331 26.6247L117.4 27.3573ZM119.868 25.4625C121.002 24.9873 122.404 24.7374 124.095 24.7374V23.4412C122.283 23.4412 120.701 23.7083 119.367 24.267L119.868 25.4625ZM124.095 24.7374C125.247 24.7374 126.374 24.8653 127.476 25.1208L127.768 23.8582C126.569 23.5801 125.344 23.4412 124.095 23.4412V24.7374ZM127.486 25.1232C128.6 25.3619 129.562 25.7164 130.38 26.1792L131.018 25.0512C130.068 24.5134 128.978 24.1174 127.758 23.8559L127.486 25.1232ZM130.1 25.3667L128.324 29.6443L129.521 30.1413L131.297 25.8637L130.1 25.3667ZM129.215 29.3143C127.429 28.4127 125.703 27.9439 124.045 27.9439V29.24C125.455 29.24 126.981 29.6385 128.631 30.4713L129.215 29.3143ZM124.045 27.9439C123.254 27.9439 122.567 28.0361 122.055 28.2837C121.791 28.4118 121.55 28.5921 121.377 28.8433C121.2 29.0996 121.12 29.3913 121.12 29.6926H122.416C122.416 29.6272 122.431 29.5978 122.444 29.5789C122.461 29.5549 122.505 29.506 122.62 29.4506C122.866 29.3313 123.318 29.24 124.045 29.24V27.9439ZM121.12 29.6926C121.12 30.0202 121.23 30.3226 121.442 30.5733C121.643 30.8121 121.913 30.9767 122.199 31.0933L122.688 29.893C122.524 29.8261 122.456 29.7656 122.433 29.7375C122.422 29.7252 122.42 29.7189 122.419 29.7175C122.419 29.7162 122.416 29.7095 122.416 29.6926H121.12ZM122.219 31.1008C122.722 31.2874 123.509 31.4788 124.547 31.6797L124.793 30.4072C123.763 30.2078 123.066 30.0324 122.669 29.8854L122.219 31.1008ZM124.551 31.6804C125.862 31.9264 126.952 32.2102 127.826 32.528L128.269 31.3099C127.308 30.9607 126.146 30.6608 124.79 30.4065L124.551 31.6804ZM127.836 32.5315C128.648 32.8121 129.348 33.2756 129.944 33.9308L130.903 33.059C130.165 32.2467 129.281 31.6596 128.259 31.3064L127.836 32.5315ZM129.949 33.9367C130.494 34.5212 130.801 35.3482 130.801 36.4967H132.097C132.097 35.1103 131.721 33.9362 130.898 33.0531L129.949 33.9367ZM130.801 36.4967C130.801 37.4678 130.532 38.3405 129.989 39.1322L131.058 39.8648C131.75 38.8555 132.097 37.727 132.097 36.4967H130.801ZM129.992 39.1275C129.459 39.8911 128.641 40.5323 127.49 41.03L128.004 42.2196C129.322 41.65 130.354 40.8737 131.055 39.8695L129.992 39.1275ZM127.494 41.0283C126.378 41.5021 124.985 41.7522 123.294 41.7522V43.0483C125.106 43.0483 126.681 42.7814 128 42.2213L127.494 41.0283ZM156.125 28.3168L156.738 28.5295L157.037 27.6688H156.125V28.3168ZM151.373 42V42.6481H151.834L151.985 42.2126L151.373 42ZM145.869 42L145.254 42.202L145.4 42.6481H145.869V42ZM143.793 35.6712L144.409 35.4692L143.804 33.6255L143.18 35.4627L143.793 35.6712ZM141.642 42V42.6481H142.106L142.255 42.2086L141.642 42ZM136.139 42L135.526 42.2126L135.678 42.6481H136.139V42ZM131.386 28.3168V27.6688H130.475L130.774 28.5295L131.386 28.3168ZM136.739 28.3168L137.355 28.1164L137.21 27.6688H136.739V28.3168ZM139.09 35.5461L138.474 35.7466L139.077 37.6019L139.704 35.7543L139.09 35.5461ZM141.542 28.3168V27.6688H141.077L140.928 28.1087L141.542 28.3168ZM146.345 28.3168L146.961 28.1163L146.815 27.6688H146.345V28.3168ZM148.721 35.6212L148.105 35.8217L148.711 37.6865L149.335 35.8274L148.721 35.6212ZM151.173 28.3168V27.6688H150.706L150.558 28.1106L151.173 28.3168ZM155.513 28.1042L150.76 41.7874L151.985 42.2126L156.738 28.5295L155.513 28.1042ZM151.373 41.3519H145.869V42.6481H151.373V41.3519ZM146.485 41.798L144.409 35.4692L143.177 35.8732L145.254 42.202L146.485 41.798ZM143.18 35.4627L141.028 41.7914L142.255 42.2086L144.407 35.8798L143.18 35.4627ZM141.642 41.3519H136.139V42.6481H141.642V41.3519ZM136.751 41.7874L131.998 28.1042L130.774 28.5295L135.526 42.2126L136.751 41.7874ZM131.386 28.9649H136.739V27.6688H131.386V28.9649ZM136.123 28.5173L138.474 35.7466L139.707 35.3457L137.355 28.1164L136.123 28.5173ZM139.704 35.7543L142.155 28.5249L140.928 28.1087L138.477 35.338L139.704 35.7543ZM141.542 28.9649H146.345V27.6688H141.542V28.9649ZM145.728 28.5173L148.105 35.8217L149.337 35.4207L146.961 28.1163L145.728 28.5173ZM149.335 35.8274L151.787 28.523L150.558 28.1106L148.107 35.415L149.335 35.8274ZM151.173 28.9649H156.125V27.6688H151.173V28.9649ZM168.359 29.6926L167.937 30.1852L167.941 30.1884L168.359 29.6926ZM170.26 42V42.6481H170.908V42H170.26ZM165.007 42H164.359V42.6481H165.007V42ZM165.007 40.1989H165.655L164.421 39.9206L165.007 40.1989ZM158.353 41.6998L158.058 42.2769L158.065 42.2808L158.073 42.2845L158.353 41.6998ZM156.627 40.1739L156.068 40.5031L156.073 40.5116L156.079 40.52L156.627 40.1739ZM157.602 34.9208L157.239 34.3842L157.239 34.3842L157.602 34.9208ZM164.581 33.8701V34.5182H165.35L165.22 33.7604L164.581 33.8701ZM160.129 32.5694L160.309 33.1919L160.316 33.1897L160.324 33.1873L160.129 32.5694ZM158.503 33.3448L157.919 33.6268L158.26 34.3313L158.888 33.8656L158.503 33.3448ZM156.702 29.6176L156.361 29.0661L155.864 29.3731L156.118 29.8996L156.702 29.6176ZM159.528 28.4919L159.681 29.1218L159.688 29.1201L159.528 28.4919ZM163.906 38.5229L163.54 37.9881L163.54 37.9881L163.906 38.5229ZM164.606 37.5473L165.219 37.7593L165.254 37.6563V37.5473H164.606ZM164.606 36.5968H165.254V35.9487H164.606V36.5968ZM161.83 38.5479L161.389 39.0228L161.406 39.0391L161.425 39.054L161.83 38.5479ZM162.855 28.7147C165.169 28.7147 166.83 29.2377 167.937 30.1851L168.78 29.2001C167.353 27.9796 165.344 27.4186 162.855 27.4186V28.7147ZM167.941 30.1884C169.016 31.0934 169.612 32.5316 169.612 34.6456H170.908C170.908 32.2903 170.236 30.4265 168.776 29.1969L167.941 30.1884ZM169.612 34.6456V42H170.908V34.6456H169.612ZM170.26 41.3519H165.007V42.6481H170.26V41.3519ZM165.655 42V40.1989H164.359V42H165.655ZM164.421 39.9206C163.91 40.9957 162.897 41.6021 161.129 41.6021V42.8982C163.231 42.8982 164.802 42.1371 165.592 40.4773L164.421 39.9206ZM161.129 41.6021C160.116 41.6021 159.291 41.4305 158.632 41.1152L158.073 42.2845C158.948 42.7029 159.974 42.8982 161.129 42.8982V41.6021ZM158.648 41.1228C157.987 40.7854 157.505 40.3515 157.174 39.8279L156.079 40.52C156.548 41.2638 157.217 41.8471 158.058 42.2769L158.648 41.1228ZM157.185 39.8447C156.864 39.3001 156.699 38.6895 156.699 37.9976H155.403C155.403 38.9066 155.622 39.7469 156.068 40.5031L157.185 39.8447ZM156.699 37.9976C156.699 36.841 157.126 36.026 157.966 35.4573L157.239 34.3842C156.01 35.2164 155.403 36.4526 155.403 37.9976H156.699ZM157.966 35.4573C158.841 34.864 160.254 34.5182 162.305 34.5182V33.2221C160.153 33.2221 158.431 33.5767 157.239 34.3842L157.966 35.4573ZM162.305 34.5182H164.581V33.2221H162.305V34.5182ZM165.22 33.7604C165.099 33.0588 164.741 32.4911 164.142 32.119C163.569 31.7634 162.835 31.6211 162.005 31.6211V32.9172C162.709 32.9172 163.171 33.0418 163.458 33.2199C163.717 33.3814 163.88 33.6142 163.943 33.9799L165.22 33.7604ZM162.005 31.6211C161.317 31.6211 160.625 31.7329 159.934 31.9514L160.324 33.1873C160.899 33.0056 161.459 32.9172 162.005 32.9172V31.6211ZM159.948 31.9469C159.254 32.148 158.639 32.4373 158.117 32.8241L158.888 33.8656C159.267 33.5853 159.736 33.3576 160.309 33.1919L159.948 31.9469ZM159.086 33.0629L157.285 29.3356L156.118 29.8996L157.919 33.6268L159.086 33.0629ZM157.042 30.1691C157.756 29.7284 158.632 29.376 159.681 29.1217L159.376 27.8621C158.223 28.1415 157.215 28.5395 156.361 29.0661L157.042 30.1691ZM159.688 29.1201C160.755 28.8492 161.811 28.7147 162.855 28.7147V27.4186C161.698 27.4186 160.536 27.5677 159.369 27.8638L159.688 29.1201ZM162.83 39.4962C163.355 39.4962 163.842 39.3516 164.272 39.0578L163.54 37.9881C163.336 38.1279 163.106 38.2001 162.83 38.2001V39.4962ZM164.272 39.0578C164.724 38.7481 165.032 38.2978 165.219 37.7593L163.994 37.3354C163.88 37.664 163.721 37.8641 163.54 37.9881L164.272 39.0578ZM165.254 37.5473V36.5968H163.958V37.5473H165.254ZM164.606 35.9487H163.205V37.2448H164.606V35.9487ZM163.205 35.9487C162.579 35.9487 161.995 36.0495 161.551 36.3452C161.061 36.6719 160.831 37.1751 160.831 37.7475H162.128C162.128 37.5527 162.185 37.4806 162.27 37.4237C162.402 37.3358 162.682 37.2448 163.205 37.2448V35.9487ZM160.831 37.7475C160.831 38.2456 161.024 38.6842 161.389 39.0228L162.271 38.073C162.168 37.9781 162.128 37.883 162.128 37.7475H160.831ZM161.425 39.054C161.821 39.3706 162.311 39.4962 162.83 39.4962V38.2001C162.516 38.2001 162.339 38.1255 162.235 38.0419L161.425 39.054ZM185.135 28.9422L184.809 29.5021L184.82 29.5083L185.135 28.9422ZM187.537 31.4187L186.966 31.7259L186.97 31.7327L187.537 31.4187ZM187.537 38.9232L186.97 38.6092L186.968 38.6122L187.537 38.9232ZM185.135 41.3996L185.455 41.9635L185.458 41.9617L185.135 41.3996ZM178.356 41.0744L178.81 40.6114L177.708 39.5329V41.0744H178.356ZM178.356 46.8529V47.501H179.004V46.8529H178.356ZM172.703 46.8529H172.055V47.501H172.703V46.8529ZM172.703 28.3168V27.6688H172.055V28.3168H172.703ZM178.081 28.3168H178.729V27.6688H178.081V28.3168ZM178.081 29.4425H177.433V31.1441L178.565 29.8736L178.081 29.4425ZM182.084 37.1471L182.567 37.5787L182.567 37.5787L182.084 37.1471ZM182.084 33.1947L181.593 33.6179L181.6 33.6264L182.084 33.1947ZM178.882 33.1947L179.365 33.6264L179.373 33.6179L178.882 33.1947ZM178.882 37.1471L178.398 37.5787L178.398 37.5787L178.882 37.1471ZM181.833 28.7147C182.924 28.7147 183.911 28.9783 184.809 29.502L185.462 28.3824C184.359 27.7388 183.144 27.4186 181.833 27.4186V28.7147ZM184.82 29.5083C185.723 30.0116 186.438 30.7443 186.966 31.7259L188.107 31.1114C187.469 29.9251 186.582 29.0068 185.451 28.3761L184.82 29.5083ZM186.97 31.7327C187.51 32.7075 187.789 33.8472 187.789 35.1709H189.085C189.085 33.6596 188.765 32.2979 188.104 31.1047L186.97 31.7327ZM187.789 35.1709C187.789 36.4946 187.51 37.6344 186.97 38.6092L188.104 39.2371C188.765 38.044 189.085 36.6823 189.085 35.1709H187.789ZM186.968 38.6122C186.44 39.5788 185.723 40.3156 184.813 40.8375L185.458 41.9617C186.583 41.3163 187.467 40.4021 188.105 39.2341L186.968 38.6122ZM184.816 40.8358C183.917 41.3451 182.927 41.6021 181.833 41.6021V42.8982C183.141 42.8982 184.352 42.5882 185.455 41.9635L184.816 40.8358ZM181.833 41.6021C180.424 41.6021 179.451 41.2396 178.81 40.6114L177.903 41.5375C178.862 42.4769 180.208 42.8982 181.833 42.8982V41.6021ZM177.708 41.0744V46.8529H179.004V41.0744H177.708ZM178.356 46.2048H172.703V47.501H178.356V46.2048ZM173.351 46.8529V28.3168H172.055V46.8529H173.351ZM172.703 28.9649H178.081V27.6688H172.703V28.9649ZM177.433 28.3168V29.4425H178.729V28.3168H177.433ZM178.565 29.8736C179.219 29.14 180.262 28.7147 181.833 28.7147V27.4186C180.036 27.4186 178.578 27.9105 177.597 29.0114L178.565 29.8736ZM180.483 38.4956C181.309 38.4956 182.022 38.1894 182.567 37.5787L181.6 36.7155C181.312 37.0387 180.957 37.1995 180.483 37.1995V38.4956ZM182.567 37.5787C183.123 36.9561 183.357 36.123 183.357 35.1709H182.061C182.061 35.9198 181.878 36.4042 181.6 36.7155L182.567 37.5787ZM183.357 35.1709C183.357 34.2188 183.123 33.3857 182.567 32.7631L181.6 33.6264C181.878 33.9376 182.061 34.422 182.061 35.1709H183.357ZM182.574 32.7716C182.032 32.1421 181.318 31.8212 180.483 31.8212V33.1174C180.948 33.1174 181.302 33.2801 181.593 33.6179L182.574 32.7716ZM180.483 31.8212C179.648 31.8212 178.933 32.1421 178.391 32.7716L179.373 33.6179C179.664 33.2801 180.017 33.1174 180.483 33.1174V31.8212ZM178.398 32.7631C177.842 33.3857 177.608 34.2188 177.608 35.1709H178.904C178.904 34.422 179.087 33.9376 179.365 33.6264L178.398 32.7631ZM177.608 35.1709C177.608 36.123 177.842 36.9561 178.398 37.5787L179.365 36.7155C179.087 36.4042 178.904 35.9198 178.904 35.1709H177.608ZM178.398 37.5787C178.943 38.1894 179.656 38.4956 180.483 38.4956V37.1995C180.009 37.1995 179.654 37.0387 179.365 36.7155L178.398 37.5787Z" fill="#21252D"/>
<g clip-path="url(#clip1_29_335)">
<path d="M29.0007 17.4622C28.502 17.3904 28.4781 17.3665 28.7155 17.3444C29.1663 17.2727 30.2096 17.3684 30.9456 17.534C32.6531 17.9369 34.195 18.982 35.8326 20.8073L36.2595 21.306L36.8759 21.2103C39.5089 20.7834 42.2137 21.1146 44.4677 22.1597C45.0841 22.4449 46.0575 23.0135 46.1752 23.157C46.2231 23.2048 46.293 23.5121 46.3408 23.8212C46.5064 24.9363 46.4365 25.7661 46.0796 26.4064C45.89 26.7616 45.89 26.8572 46.0078 27.1664C46.1035 27.4037 46.3868 27.5693 46.6481 27.5693C47.2167 27.5693 47.811 26.6677 48.0944 25.411L48.2121 24.9124L48.4256 25.1497C49.6363 26.5021 50.5839 28.3752 50.7274 29.7056L50.7752 30.0607L50.5618 29.7516C50.2067 29.2051 49.8736 28.85 49.4228 28.5408C48.6169 27.9944 47.7613 27.8288 45.5092 27.711C43.4686 27.5932 42.3057 27.4258 41.1686 27.0468C39.2237 26.4064 38.2264 25.5766 35.9264 22.5148C34.9071 21.1624 34.2668 20.4264 33.6246 19.81C32.228 18.4576 30.8278 17.7474 29.0007 17.4622Z" fill="white"/>
<path d="M46.6757 20.4743C46.7235 19.5727 46.8413 18.9802 47.1025 18.4337C47.1982 18.2203 47.2921 18.0308 47.316 18.0308C47.3399 18.0308 47.2921 18.1964 47.2203 18.3859C47.0308 18.9084 47.0069 19.6426 47.1246 20.4743C47.2902 21.5415 47.362 21.685 48.5009 22.846C49.0235 23.3925 49.6399 24.0788 49.8773 24.364L50.2802 24.8866L49.8773 24.5076C49.3786 24.0328 48.2397 23.1312 47.9802 23.0135C47.8146 22.9178 47.7907 22.9178 47.6711 23.0374C47.5754 23.1331 47.5533 23.2748 47.5533 23.9629C47.5294 25.0301 47.3877 25.6944 47.0308 26.3825C46.8413 26.7376 46.8173 26.6677 46.9829 26.2648C47.1007 25.9556 47.1246 25.814 47.1246 24.7946C47.1246 22.7301 46.8873 22.2333 45.441 21.4016C45.0859 21.1882 44.4677 20.8791 44.1125 20.7135C43.7335 20.5479 43.4483 20.4044 43.4722 20.4044C43.5201 20.3565 44.9203 20.7595 45.4649 20.9968C46.2948 21.328 46.4383 21.352 46.5321 21.328C46.6039 21.2581 46.6517 21.0686 46.6757 20.4743Z" fill="white"/>
<path d="M29.974 24.0107C28.9767 22.6344 28.3364 20.5 28.4799 18.9103L28.5278 18.4116L28.7651 18.4595C29.192 18.5312 29.928 18.8146 30.2831 19.0299C31.2326 19.5984 31.6595 20.3823 32.0624 22.3271C32.1802 22.8975 32.3476 23.5599 32.4175 23.7752C32.5353 24.1303 32.9861 24.962 33.367 25.4827C33.6283 25.8618 33.4627 26.0513 32.8683 26.0053C31.9667 25.9078 30.756 25.0779 29.974 24.0107Z" fill="white"/>
<path d="M45.465 34.3295C40.7675 32.4325 39.1078 30.7949 39.1078 28.0183C39.1078 27.6154 39.1317 27.2823 39.1317 27.2823C39.1556 27.2823 39.3212 27.424 39.5347 27.5915C40.4841 28.3514 41.5513 28.6826 44.5174 29.1095C46.2488 29.3707 47.2461 29.5603 48.1477 29.8694C51.0181 30.8188 52.7974 32.7637 53.2243 35.3967C53.342 36.1567 53.2721 37.6029 53.0826 38.3628C52.917 38.9553 52.4423 40.0464 52.3245 40.0703C52.3006 40.0703 52.2527 39.9526 52.2527 39.7612C52.2049 38.7639 51.7063 37.8163 50.8764 37.0803C49.8773 36.2284 48.5967 35.5863 45.465 34.3295Z" fill="white"/>
<path d="M42.1438 35.1116C42.0959 34.7564 41.9782 34.3056 41.9064 34.1143L41.7886 33.7592L42.0021 34.0204C42.3112 34.3756 42.5486 34.8043 42.762 35.3968C42.9276 35.8476 42.9276 35.9892 42.9276 36.7252C42.9276 37.4373 42.9037 37.6029 42.762 38.0059C42.5246 38.6462 42.2394 39.097 41.7647 39.5956C40.911 40.4733 39.7959 40.948 38.2062 41.1615C37.921 41.1854 37.115 41.2572 36.403 41.3032C34.6237 41.3988 33.4369 41.5884 32.3697 41.9674C32.228 42.0152 32.0845 42.0631 32.0606 42.0392C32.0127 41.9913 32.7487 41.5644 33.3412 41.2792C34.171 40.8763 35.0248 40.6628 36.8998 40.3298C37.8253 40.1881 38.7729 39.9968 39.0121 39.9029C41.3618 39.1688 42.5228 37.3435 42.1438 35.1116Z" fill="white"/>
<path d="M44.3021 38.9313C43.6857 37.5789 43.544 36.2983 43.8752 35.0876C43.923 34.9698 43.9709 34.8502 44.0169 34.8502C44.0629 34.8502 44.2064 34.922 44.3499 35.0158C44.6351 35.2053 45.2276 35.5384 46.7456 36.3682C48.6666 37.4115 49.7595 38.2193 50.5176 39.1429C51.1818 39.9489 51.5848 40.8744 51.7743 42.0133C51.8921 42.6537 51.8222 44.1956 51.6566 44.8359C51.134 46.8525 49.949 48.4662 48.2176 49.3917C47.9563 49.5334 47.7429 49.6291 47.719 49.6291C47.695 49.6291 47.7907 49.3917 47.9324 49.1065C48.501 47.8958 48.5727 46.7348 48.1458 45.4284C47.8846 44.6225 47.3399 43.6491 46.2488 42.0115C44.9442 40.1181 44.6351 39.6195 44.3021 38.9313Z" fill="white"/>
<path d="M26.6289 46.192C28.3842 44.7218 30.5426 43.6767 32.5353 43.3455C33.389 43.2038 34.8132 43.2498 35.5952 43.4633C36.8519 43.7963 37.9909 44.5065 38.5852 45.3842C39.1538 46.238 39.415 46.974 39.6763 48.6097C39.772 49.2501 39.8898 49.9143 39.9137 50.056C40.1032 50.9097 40.4822 51.574 40.957 51.9309C41.693 52.4756 42.9736 52.4995 44.2303 52.0266C44.4438 51.9549 44.6333 51.8849 44.6333 51.9089C44.6811 51.9567 44.0408 52.3836 43.6139 52.597C43.0214 52.9061 42.5467 53 41.9064 53C40.7674 53 39.7941 52.4075 39.0121 51.2207C38.8465 50.9833 38.5134 50.2952 38.2282 49.6549C37.3984 47.7339 36.9715 47.1635 35.9982 46.5232C35.1444 45.9785 34.0533 45.8589 33.2234 46.2619C32.1323 46.7845 31.8471 48.1829 32.607 49.0385C32.9162 49.3936 33.4847 49.6788 33.9594 49.7505C34.8371 49.8683 35.597 49.182 35.597 48.3043C35.597 47.7357 35.3836 47.4027 34.815 47.1414C34.0551 46.8084 33.2253 47.1893 33.2492 47.9234C33.2492 48.2325 33.3909 48.4221 33.7 48.5637C33.8895 48.6576 33.8895 48.6576 33.7478 48.6355C33.0597 48.4938 32.8941 47.6401 33.4387 47.0936C34.103 46.4293 35.5032 46.7145 35.9761 47.6382C36.1656 48.0173 36.1895 48.7772 36.0239 49.2519C35.621 50.2952 34.482 50.8417 33.3191 50.5325C32.5353 50.3191 32.2041 50.1057 31.2546 49.1323C29.5931 47.4248 28.9528 47.0917 26.581 46.7366L26.1302 46.6649L26.6289 46.192Z" fill="white"/>
<path fill-rule="evenodd" clip-rule="evenodd" d="M14.15 8.01936C19.6774 14.7335 28.1947 25.1718 28.6216 25.7422C28.9767 26.217 28.8351 26.6678 28.2426 26.999C27.9114 27.1885 27.2232 27.378 26.8902 27.378C26.5111 27.378 26.0603 27.1885 25.7512 26.8794C25.5378 26.6659 24.6123 25.3135 22.5257 22.0641C20.9359 19.5727 19.5835 17.5101 19.5596 17.4862C19.4639 17.4383 19.4639 17.4383 22.3583 22.6106C24.1854 25.86 24.7779 27.0229 24.7779 27.1664C24.7779 27.4755 24.6822 27.6411 24.3031 28.068C23.6628 28.7801 23.3776 29.586 23.1642 31.2714C22.9268 33.1446 22.2865 34.4749 20.4594 36.727C19.3922 38.0555 19.2266 38.2929 18.9653 38.8394C18.6323 39.5036 18.5384 39.8826 18.4906 40.7382C18.4427 41.6398 18.5384 42.2084 18.7997 43.0622C19.0371 43.8221 19.2983 44.3189 19.9387 45.2922C20.4851 46.146 20.8163 46.7863 20.8163 47.0237C20.8163 47.2132 20.8642 47.2132 21.7179 47.0237C23.7585 46.549 25.4421 45.743 26.3676 44.7458C26.938 44.1294 27.0797 43.7963 27.0797 42.9426C27.0797 42.3961 27.0558 42.2783 26.9141 41.9453C26.6767 41.4227 26.2259 40.9958 25.2544 40.3316C23.9738 39.4539 23.4273 38.7418 23.2856 37.7924C23.1679 36.9865 23.3095 36.44 24.0216 34.9459C24.7576 33.404 24.9471 32.7637 25.0649 31.1978C25.1367 30.2006 25.2544 29.7976 25.5396 29.4903C25.8487 29.1573 26.1082 29.0395 26.8442 28.9438C28.0549 28.7782 28.8369 28.4691 29.4533 27.8766C29.9998 27.378 30.2353 26.8794 30.2592 26.1452L30.2831 25.5987L29.974 25.2675C28.859 23.9869 13.414 7 13.3441 7C13.3202 7 13.6992 7.4508 14.15 8.01936ZM21.4327 41.7558C21.694 41.305 21.5505 40.7364 21.1236 40.4512C20.7207 40.1899 20.1043 40.3095 20.1043 40.6646C20.1043 40.7603 20.1521 40.8542 20.2938 40.902C20.5072 41.0198 20.5311 41.1394 20.3655 41.4006C20.1999 41.6619 20.1999 41.8993 20.4134 42.0649C20.7446 42.3243 21.1954 42.1826 21.4327 41.7558Z" fill="white"/>
<path fill-rule="evenodd" clip-rule="evenodd" d="M31.0412 29.2769C30.4727 29.4425 29.9262 30.0589 29.7606 30.6771C29.6649 31.0561 29.7127 31.7443 29.8783 31.9577C30.1396 32.2908 30.377 32.3846 31.0412 32.3846C32.3458 32.3846 33.4608 31.8161 33.5804 31.1279C33.6982 30.5593 33.2014 29.7755 32.5132 29.4204C32.1563 29.229 31.4203 29.1573 31.0412 29.2769ZM32.5592 30.4618C32.7487 30.1766 32.677 29.8693 32.3218 29.6559C31.6815 29.2529 30.7082 29.5841 30.7082 30.2024C30.7082 30.5115 31.2068 30.8427 31.6815 30.8427C31.9907 30.8427 32.4175 30.6532 32.5592 30.4618Z" fill="white"/>
</g>
</g>
<defs>
<clipPath id="clip0_29_335">
<rect width="207" height="60" fill="white"/>
</clipPath>
<clipPath id="clip1_29_335">
<rect width="46" height="46" fill="white" transform="translate(10.3118 7)"/>
</clipPath>
</defs>
</svg>
