<svg width="220" height="60" viewBox="0 0 220 60" fill="none" xmlns="http://www.w3.org/2000/svg">
<mask id="path-1-outside-1_262_2068" maskUnits="userSpaceOnUse" x="70" y="23" width="139" height="25" fill="black">
<rect fill="white" x="70" y="23" width="139" height="25"/>
<path d="M71.4259 42V24.4895H77.3294V42H71.4259ZM89.5019 28.0667C90.5525 28.0667 91.5031 28.2835 92.3536 28.7171C93.2041 29.134 93.8712 29.7927 94.3548 30.6932C94.8551 31.5938 95.1052 32.7611 95.1052 34.1953V42H89.4519V35.1709C89.4519 34.3204 89.3018 33.7201 89.0016 33.3698C88.7014 33.003 88.2928 32.8195 87.7759 32.8195C87.3923 32.8195 87.0337 32.9112 86.7002 33.0947C86.3834 33.2614 86.1249 33.5449 85.9247 33.9452C85.7413 34.3454 85.6496 34.8874 85.6496 35.5712V42H79.9962V28.3168H85.3744V32.3192L84.2988 31.1685C84.8324 30.1346 85.5495 29.3591 86.4501 28.8421C87.3673 28.3252 88.3846 28.0667 89.5019 28.0667ZM102.914 42.2501C101.746 42.2501 100.596 42.1251 99.4615 41.8749C98.3275 41.6248 97.4103 41.2996 96.7099 40.8993L98.2608 37.1721C98.9112 37.5557 99.6617 37.8559 100.512 38.0727C101.379 38.2894 102.222 38.3978 103.039 38.3978C103.722 38.3978 104.181 38.3395 104.415 38.2227C104.665 38.106 104.79 37.9476 104.79 37.7475C104.79 37.5473 104.648 37.4056 104.364 37.3222C104.081 37.2221 103.706 37.1471 103.239 37.0971C102.772 37.047 102.255 36.9887 101.688 36.922C101.138 36.8386 100.579 36.7218 100.012 36.5718C99.4449 36.4217 98.9279 36.1965 98.461 35.8964C97.994 35.5962 97.6188 35.1959 97.3353 34.6956C97.0518 34.1787 96.91 33.5283 96.91 32.7445C96.91 31.8773 97.1685 31.0935 97.6855 30.3931C98.2191 29.6926 99.0029 29.134 100.037 28.7171C101.088 28.2835 102.38 28.0667 103.914 28.0667C104.915 28.0667 105.915 28.1584 106.916 28.3418C107.917 28.5253 108.775 28.8088 109.493 29.1923L107.942 32.9196C107.241 32.536 106.549 32.2775 105.865 32.1441C105.198 31.994 104.573 31.919 103.989 31.919C103.272 31.919 102.78 31.9857 102.513 32.1191C102.263 32.2525 102.138 32.4026 102.138 32.5694C102.138 32.7695 102.28 32.9196 102.563 33.0196C102.847 33.1197 103.222 33.1947 103.689 33.2448C104.156 33.2948 104.665 33.3615 105.215 33.4449C105.782 33.5116 106.341 33.6283 106.891 33.7951C107.458 33.9452 107.975 34.1703 108.442 34.4705C108.909 34.7707 109.284 35.1793 109.568 35.6962C109.851 36.1965 109.993 36.8386 109.993 37.6224C109.993 38.4395 109.734 39.2067 109.217 39.9238C108.7 40.6242 107.917 41.1912 106.866 41.6248C105.815 42.0417 104.498 42.2501 102.914 42.2501ZM118.309 42.2501C116.424 42.2501 114.957 41.7999 113.906 40.8993C112.855 39.9821 112.33 38.5813 112.33 36.6968V25.24H117.983V36.6468C117.983 37.0637 118.092 37.3889 118.309 37.6224C118.542 37.8559 118.826 37.9726 119.159 37.9726C119.643 37.9726 120.068 37.8475 120.435 37.5974L121.786 41.5247C121.352 41.7749 120.827 41.9583 120.21 42.075C119.609 42.1918 118.976 42.2501 118.309 42.2501ZM110.454 33.1947V29.0673H120.785V33.1947H110.454ZM131.49 42V39.5736L131.09 38.9232V34.3204C131.09 33.6533 130.882 33.1447 130.465 32.7945C130.065 32.4443 129.406 32.2692 128.489 32.2692C127.872 32.2692 127.246 32.3692 126.613 32.5694C125.979 32.7528 125.437 33.0113 124.987 33.3448L123.185 29.6176C123.986 29.1173 124.945 28.7337 126.062 28.4669C127.18 28.2001 128.272 28.0667 129.339 28.0667C131.691 28.0667 133.508 28.592 134.792 29.6426C136.093 30.6932 136.744 32.3609 136.744 34.6456V42H131.49ZM127.613 42.2501C126.496 42.2501 125.562 42.0584 124.811 41.6748C124.061 41.2912 123.494 40.7826 123.11 40.1489C122.727 39.4985 122.535 38.7814 122.535 37.9976C122.535 37.1137 122.76 36.3633 123.211 35.7463C123.661 35.1292 124.345 34.6623 125.262 34.3454C126.196 34.0286 127.371 33.8701 128.789 33.8701H131.641V36.5968H129.689C129.089 36.5968 128.647 36.6968 128.364 36.897C128.097 37.0804 127.963 37.3639 127.963 37.7475C127.963 38.0643 128.08 38.3311 128.314 38.5479C128.564 38.7481 128.897 38.8481 129.314 38.8481C129.698 38.8481 130.048 38.7481 130.365 38.5479C130.698 38.3311 130.94 37.9976 131.09 37.5473L131.816 39.2233C131.599 40.2406 131.14 40.9994 130.44 41.4997C129.739 42 128.797 42.2501 127.613 42.2501ZM146.385 47.103C145.034 47.103 143.767 46.9613 142.583 46.6778C141.399 46.3943 140.382 45.969 139.531 45.402L141.432 41.5497C141.966 41.9666 142.641 42.2918 143.459 42.5253C144.292 42.7755 145.076 42.9005 145.81 42.9005C146.977 42.9005 147.811 42.6504 148.311 42.1501C148.812 41.6665 149.062 40.966 149.062 40.0488V38.8981L149.312 34.6456L149.337 30.3931V28.3168H154.715V39.2734C154.715 41.925 153.981 43.8928 152.514 45.1769C151.046 46.461 149.004 47.103 146.385 47.103ZM145.285 41.2496C144.134 41.2496 143.058 40.9827 142.058 40.4491C141.057 39.8987 140.248 39.1316 139.631 38.1477C139.014 37.1638 138.706 35.9964 138.706 34.6456C138.706 33.2948 139.014 32.1274 139.631 31.1435C140.248 30.1596 141.057 29.4008 142.058 28.8672C143.058 28.3335 144.134 28.0667 145.285 28.0667C146.469 28.0667 147.436 28.3001 148.186 28.7671C148.953 29.234 149.52 29.9595 149.887 30.9434C150.254 31.9106 150.438 33.1447 150.438 34.6456C150.438 36.1465 150.254 37.3889 149.887 38.3728C149.52 39.3401 148.953 40.0655 148.186 40.5491C147.436 41.0161 146.469 41.2496 145.285 41.2496ZM146.786 36.8469C147.236 36.8469 147.636 36.7552 147.986 36.5718C148.336 36.3883 148.612 36.1298 148.812 35.7963C149.012 35.4628 149.112 35.0792 149.112 34.6456C149.112 34.1953 149.012 33.8118 148.812 33.4949C148.612 33.1614 148.336 32.9112 147.986 32.7445C147.636 32.561 147.236 32.4693 146.786 32.4693C146.352 32.4693 145.952 32.561 145.585 32.7445C145.235 32.9112 144.951 33.1614 144.734 33.4949C144.534 33.8118 144.434 34.1953 144.434 34.6456C144.434 35.0792 144.534 35.4628 144.734 35.7963C144.951 36.1298 145.235 36.3883 145.585 36.5718C145.952 36.7552 146.352 36.8469 146.786 36.8469ZM157.215 42V28.3168H162.593V32.4443L161.718 31.2686C162.135 30.2013 162.802 29.4008 163.719 28.8672C164.636 28.3335 165.737 28.0667 167.021 28.0667V33.0697C166.771 33.0363 166.546 33.0113 166.346 32.9946C166.162 32.9779 165.97 32.9696 165.77 32.9696C164.92 32.9696 164.219 33.1947 163.669 33.645C163.135 34.0786 162.869 34.8374 162.869 35.9214V42H157.215ZM176.146 42V39.5736L175.746 38.9232V34.3204C175.746 33.6533 175.537 33.1447 175.12 32.7945C174.72 32.4443 174.061 32.2692 173.144 32.2692C172.527 32.2692 171.902 32.3692 171.268 32.5694C170.634 32.7528 170.092 33.0113 169.642 33.3448L167.841 29.6176C168.642 29.1173 169.6 28.7337 170.718 28.4669C171.835 28.2001 172.927 28.0667 173.995 28.0667C176.346 28.0667 178.164 28.592 179.448 29.6426C180.749 30.6932 181.399 32.3609 181.399 34.6456V42H176.146ZM172.269 42.2501C171.151 42.2501 170.217 42.0584 169.467 41.6748C168.717 41.2912 168.15 40.7826 167.766 40.1489C167.382 39.4985 167.191 38.7814 167.191 37.9976C167.191 37.1137 167.416 36.3633 167.866 35.7463C168.316 35.1292 169 34.6623 169.917 34.3454C170.851 34.0286 172.027 33.8701 173.444 33.8701H176.296V36.5968H174.345C173.745 36.5968 173.303 36.6968 173.019 36.897C172.752 37.0804 172.619 37.3639 172.619 37.7475C172.619 38.0643 172.736 38.3311 172.969 38.5479C173.219 38.7481 173.553 38.8481 173.97 38.8481C174.353 38.8481 174.704 38.7481 175.02 38.5479C175.354 38.3311 175.596 37.9976 175.746 37.5473L176.471 39.2233C176.254 40.2406 175.796 40.9994 175.095 41.4997C174.395 42 173.453 42.2501 172.269 42.2501ZM201.953 28.0667C202.987 28.0667 203.913 28.2835 204.73 28.7171C205.564 29.134 206.214 29.7927 206.681 30.6932C207.165 31.5938 207.407 32.7611 207.407 34.1953V42H201.753V35.1709C201.753 34.3204 201.611 33.7201 201.328 33.3698C201.044 33.003 200.677 32.8195 200.227 32.8195C199.894 32.8195 199.594 32.9029 199.327 33.0697C199.06 33.2364 198.843 33.5033 198.676 33.8701C198.526 34.2204 198.451 34.704 198.451 35.321V42H192.798V35.1709C192.798 34.3204 192.664 33.7201 192.398 33.3698C192.131 33.003 191.755 32.8195 191.272 32.8195C190.938 32.8195 190.638 32.9029 190.371 33.0697C190.105 33.2364 189.888 33.5033 189.721 33.8701C189.571 34.2204 189.496 34.704 189.496 35.321V42H183.842V28.3168H189.221V32.2442L188.12 31.1435C188.637 30.1096 189.329 29.3424 190.196 28.8421C191.063 28.3252 192.031 28.0667 193.098 28.0667C194.299 28.0667 195.358 28.3835 196.275 29.0172C197.209 29.6343 197.834 30.6182 198.151 31.969L196.425 31.6938C196.925 30.5598 197.651 29.676 198.601 29.0423C199.568 28.3919 200.686 28.0667 201.953 28.0667Z"/>
</mask>
<path d="M71.4259 42V24.4895H77.3294V42H71.4259ZM89.5019 28.0667C90.5525 28.0667 91.5031 28.2835 92.3536 28.7171C93.2041 29.134 93.8712 29.7927 94.3548 30.6932C94.8551 31.5938 95.1052 32.7611 95.1052 34.1953V42H89.4519V35.1709C89.4519 34.3204 89.3018 33.7201 89.0016 33.3698C88.7014 33.003 88.2928 32.8195 87.7759 32.8195C87.3923 32.8195 87.0337 32.9112 86.7002 33.0947C86.3834 33.2614 86.1249 33.5449 85.9247 33.9452C85.7413 34.3454 85.6496 34.8874 85.6496 35.5712V42H79.9962V28.3168H85.3744V32.3192L84.2988 31.1685C84.8324 30.1346 85.5495 29.3591 86.4501 28.8421C87.3673 28.3252 88.3846 28.0667 89.5019 28.0667ZM102.914 42.2501C101.746 42.2501 100.596 42.1251 99.4615 41.8749C98.3275 41.6248 97.4103 41.2996 96.7099 40.8993L98.2608 37.1721C98.9112 37.5557 99.6617 37.8559 100.512 38.0727C101.379 38.2894 102.222 38.3978 103.039 38.3978C103.722 38.3978 104.181 38.3395 104.415 38.2227C104.665 38.106 104.79 37.9476 104.79 37.7475C104.79 37.5473 104.648 37.4056 104.364 37.3222C104.081 37.2221 103.706 37.1471 103.239 37.0971C102.772 37.047 102.255 36.9887 101.688 36.922C101.138 36.8386 100.579 36.7218 100.012 36.5718C99.4449 36.4217 98.9279 36.1965 98.461 35.8964C97.994 35.5962 97.6188 35.1959 97.3353 34.6956C97.0518 34.1787 96.91 33.5283 96.91 32.7445C96.91 31.8773 97.1685 31.0935 97.6855 30.3931C98.2191 29.6926 99.0029 29.134 100.037 28.7171C101.088 28.2835 102.38 28.0667 103.914 28.0667C104.915 28.0667 105.915 28.1584 106.916 28.3418C107.917 28.5253 108.775 28.8088 109.493 29.1923L107.942 32.9196C107.241 32.536 106.549 32.2775 105.865 32.1441C105.198 31.994 104.573 31.919 103.989 31.919C103.272 31.919 102.78 31.9857 102.513 32.1191C102.263 32.2525 102.138 32.4026 102.138 32.5694C102.138 32.7695 102.28 32.9196 102.563 33.0196C102.847 33.1197 103.222 33.1947 103.689 33.2448C104.156 33.2948 104.665 33.3615 105.215 33.4449C105.782 33.5116 106.341 33.6283 106.891 33.7951C107.458 33.9452 107.975 34.1703 108.442 34.4705C108.909 34.7707 109.284 35.1793 109.568 35.6962C109.851 36.1965 109.993 36.8386 109.993 37.6224C109.993 38.4395 109.734 39.2067 109.217 39.9238C108.7 40.6242 107.917 41.1912 106.866 41.6248C105.815 42.0417 104.498 42.2501 102.914 42.2501ZM118.309 42.2501C116.424 42.2501 114.957 41.7999 113.906 40.8993C112.855 39.9821 112.33 38.5813 112.33 36.6968V25.24H117.983V36.6468C117.983 37.0637 118.092 37.3889 118.309 37.6224C118.542 37.8559 118.826 37.9726 119.159 37.9726C119.643 37.9726 120.068 37.8475 120.435 37.5974L121.786 41.5247C121.352 41.7749 120.827 41.9583 120.21 42.075C119.609 42.1918 118.976 42.2501 118.309 42.2501ZM110.454 33.1947V29.0673H120.785V33.1947H110.454ZM131.49 42V39.5736L131.09 38.9232V34.3204C131.09 33.6533 130.882 33.1447 130.465 32.7945C130.065 32.4443 129.406 32.2692 128.489 32.2692C127.872 32.2692 127.246 32.3692 126.613 32.5694C125.979 32.7528 125.437 33.0113 124.987 33.3448L123.185 29.6176C123.986 29.1173 124.945 28.7337 126.062 28.4669C127.18 28.2001 128.272 28.0667 129.339 28.0667C131.691 28.0667 133.508 28.592 134.792 29.6426C136.093 30.6932 136.744 32.3609 136.744 34.6456V42H131.49ZM127.613 42.2501C126.496 42.2501 125.562 42.0584 124.811 41.6748C124.061 41.2912 123.494 40.7826 123.11 40.1489C122.727 39.4985 122.535 38.7814 122.535 37.9976C122.535 37.1137 122.76 36.3633 123.211 35.7463C123.661 35.1292 124.345 34.6623 125.262 34.3454C126.196 34.0286 127.371 33.8701 128.789 33.8701H131.641V36.5968H129.689C129.089 36.5968 128.647 36.6968 128.364 36.897C128.097 37.0804 127.963 37.3639 127.963 37.7475C127.963 38.0643 128.08 38.3311 128.314 38.5479C128.564 38.7481 128.897 38.8481 129.314 38.8481C129.698 38.8481 130.048 38.7481 130.365 38.5479C130.698 38.3311 130.94 37.9976 131.09 37.5473L131.816 39.2233C131.599 40.2406 131.14 40.9994 130.44 41.4997C129.739 42 128.797 42.2501 127.613 42.2501ZM146.385 47.103C145.034 47.103 143.767 46.9613 142.583 46.6778C141.399 46.3943 140.382 45.969 139.531 45.402L141.432 41.5497C141.966 41.9666 142.641 42.2918 143.459 42.5253C144.292 42.7755 145.076 42.9005 145.81 42.9005C146.977 42.9005 147.811 42.6504 148.311 42.1501C148.812 41.6665 149.062 40.966 149.062 40.0488V38.8981L149.312 34.6456L149.337 30.3931V28.3168H154.715V39.2734C154.715 41.925 153.981 43.8928 152.514 45.1769C151.046 46.461 149.004 47.103 146.385 47.103ZM145.285 41.2496C144.134 41.2496 143.058 40.9827 142.058 40.4491C141.057 39.8987 140.248 39.1316 139.631 38.1477C139.014 37.1638 138.706 35.9964 138.706 34.6456C138.706 33.2948 139.014 32.1274 139.631 31.1435C140.248 30.1596 141.057 29.4008 142.058 28.8672C143.058 28.3335 144.134 28.0667 145.285 28.0667C146.469 28.0667 147.436 28.3001 148.186 28.7671C148.953 29.234 149.52 29.9595 149.887 30.9434C150.254 31.9106 150.438 33.1447 150.438 34.6456C150.438 36.1465 150.254 37.3889 149.887 38.3728C149.52 39.3401 148.953 40.0655 148.186 40.5491C147.436 41.0161 146.469 41.2496 145.285 41.2496ZM146.786 36.8469C147.236 36.8469 147.636 36.7552 147.986 36.5718C148.336 36.3883 148.612 36.1298 148.812 35.7963C149.012 35.4628 149.112 35.0792 149.112 34.6456C149.112 34.1953 149.012 33.8118 148.812 33.4949C148.612 33.1614 148.336 32.9112 147.986 32.7445C147.636 32.561 147.236 32.4693 146.786 32.4693C146.352 32.4693 145.952 32.561 145.585 32.7445C145.235 32.9112 144.951 33.1614 144.734 33.4949C144.534 33.8118 144.434 34.1953 144.434 34.6456C144.434 35.0792 144.534 35.4628 144.734 35.7963C144.951 36.1298 145.235 36.3883 145.585 36.5718C145.952 36.7552 146.352 36.8469 146.786 36.8469ZM157.215 42V28.3168H162.593V32.4443L161.718 31.2686C162.135 30.2013 162.802 29.4008 163.719 28.8672C164.636 28.3335 165.737 28.0667 167.021 28.0667V33.0697C166.771 33.0363 166.546 33.0113 166.346 32.9946C166.162 32.9779 165.97 32.9696 165.77 32.9696C164.92 32.9696 164.219 33.1947 163.669 33.645C163.135 34.0786 162.869 34.8374 162.869 35.9214V42H157.215ZM176.146 42V39.5736L175.746 38.9232V34.3204C175.746 33.6533 175.537 33.1447 175.12 32.7945C174.72 32.4443 174.061 32.2692 173.144 32.2692C172.527 32.2692 171.902 32.3692 171.268 32.5694C170.634 32.7528 170.092 33.0113 169.642 33.3448L167.841 29.6176C168.642 29.1173 169.6 28.7337 170.718 28.4669C171.835 28.2001 172.927 28.0667 173.995 28.0667C176.346 28.0667 178.164 28.592 179.448 29.6426C180.749 30.6932 181.399 32.3609 181.399 34.6456V42H176.146ZM172.269 42.2501C171.151 42.2501 170.217 42.0584 169.467 41.6748C168.717 41.2912 168.15 40.7826 167.766 40.1489C167.382 39.4985 167.191 38.7814 167.191 37.9976C167.191 37.1137 167.416 36.3633 167.866 35.7463C168.316 35.1292 169 34.6623 169.917 34.3454C170.851 34.0286 172.027 33.8701 173.444 33.8701H176.296V36.5968H174.345C173.745 36.5968 173.303 36.6968 173.019 36.897C172.752 37.0804 172.619 37.3639 172.619 37.7475C172.619 38.0643 172.736 38.3311 172.969 38.5479C173.219 38.7481 173.553 38.8481 173.97 38.8481C174.353 38.8481 174.704 38.7481 175.02 38.5479C175.354 38.3311 175.596 37.9976 175.746 37.5473L176.471 39.2233C176.254 40.2406 175.796 40.9994 175.095 41.4997C174.395 42 173.453 42.2501 172.269 42.2501ZM201.953 28.0667C202.987 28.0667 203.913 28.2835 204.73 28.7171C205.564 29.134 206.214 29.7927 206.681 30.6932C207.165 31.5938 207.407 32.7611 207.407 34.1953V42H201.753V35.1709C201.753 34.3204 201.611 33.7201 201.328 33.3698C201.044 33.003 200.677 32.8195 200.227 32.8195C199.894 32.8195 199.594 32.9029 199.327 33.0697C199.06 33.2364 198.843 33.5033 198.676 33.8701C198.526 34.2204 198.451 34.704 198.451 35.321V42H192.798V35.1709C192.798 34.3204 192.664 33.7201 192.398 33.3698C192.131 33.003 191.755 32.8195 191.272 32.8195C190.938 32.8195 190.638 32.9029 190.371 33.0697C190.105 33.2364 189.888 33.5033 189.721 33.8701C189.571 34.2204 189.496 34.704 189.496 35.321V42H183.842V28.3168H189.221V32.2442L188.12 31.1435C188.637 30.1096 189.329 29.3424 190.196 28.8421C191.063 28.3252 192.031 28.0667 193.098 28.0667C194.299 28.0667 195.358 28.3835 196.275 29.0172C197.209 29.6343 197.834 30.6182 198.151 31.969L196.425 31.6938C196.925 30.5598 197.651 29.676 198.601 29.0423C199.568 28.3919 200.686 28.0667 201.953 28.0667Z" fill="white"/>
<path d="M71.4259 42H70.7778V42.6481H71.4259V42ZM71.4259 24.4895V23.8415H70.7778V24.4895H71.4259ZM77.3294 24.4895H77.9774V23.8415H77.3294V24.4895ZM77.3294 42V42.6481H77.9774V42H77.3294ZM72.0739 42V24.4895H70.7778V42H72.0739ZM71.4259 25.1376H77.3294V23.8415H71.4259V25.1376ZM76.6813 24.4895V42H77.9774V24.4895H76.6813ZM77.3294 41.3519H71.4259V42.6481H77.3294V41.3519ZM92.3536 28.7171L92.0592 29.2945L92.0683 29.299L92.3536 28.7171ZM94.3548 30.6932L93.7838 30.9999L93.7883 31.008L94.3548 30.6932ZM95.1052 42V42.6481H95.7533V42H95.1052ZM89.4519 42H88.8038V42.6481H89.4519V42ZM89.0016 33.3698L88.5 33.7802L88.5047 33.786L88.5095 33.7916L89.0016 33.3698ZM86.7002 33.0947L87.0021 33.6683L87.0125 33.6625L86.7002 33.0947ZM85.9247 33.9452L85.3451 33.6554L85.3402 33.6652L85.3356 33.6752L85.9247 33.9452ZM85.6496 42V42.6481H86.2976V42H85.6496ZM79.9962 42H79.3482V42.6481H79.9962V42ZM79.9962 28.3168V27.6688H79.3482V28.3168H79.9962ZM85.3744 28.3168H86.0225V27.6688H85.3744V28.3168ZM85.3744 32.3192L84.901 32.7618L86.0225 33.9615V32.3192H85.3744ZM84.2988 31.1685L83.7229 30.8713L83.5134 31.2773L83.8254 31.6111L84.2988 31.1685ZM86.4501 28.8421L86.1318 28.2776L86.1274 28.2801L86.4501 28.8421ZM89.5019 28.7147C90.4607 28.7147 91.3088 28.9118 92.0593 29.2944L92.6479 28.1397C91.6974 27.6551 90.6444 27.4186 89.5019 27.4186V28.7147ZM92.0683 29.299C92.7874 29.6514 93.359 30.2087 93.7839 30.9999L94.9257 30.3866C94.3833 29.3767 93.6208 28.6165 92.6388 28.1352L92.0683 29.299ZM93.7883 31.008C94.2182 31.7818 94.4572 32.8303 94.4572 34.1953H95.7533C95.7533 32.692 95.492 31.4057 94.9213 30.3785L93.7883 31.008ZM94.4572 34.1953V42H95.7533V34.1953H94.4572ZM95.1052 41.3519H89.4519V42.6481H95.1052V41.3519ZM90.0999 42V35.1709H88.8038V42H90.0999ZM90.0999 35.1709C90.0999 34.2811 89.9502 33.4808 89.4936 32.9481L88.5095 33.7916C88.6533 33.9593 88.8038 34.3597 88.8038 35.1709H90.0999ZM89.5032 32.9595C89.0677 32.4273 88.4672 32.1715 87.7759 32.1715V33.4676C88.1185 33.4676 88.3351 33.5786 88.5 33.7802L89.5032 32.9595ZM87.7759 32.1715C87.284 32.1715 86.8179 32.2904 86.3879 32.5268L87.0125 33.6625C87.2496 33.5321 87.5006 33.4676 87.7759 33.4676V32.1715ZM86.3984 32.5212C85.9344 32.7654 85.5906 33.1644 85.3451 33.6554L86.5044 34.235C86.6592 33.9255 86.8323 33.7575 87.002 33.6682L86.3984 32.5212ZM85.3356 33.6752C85.0978 34.194 85.0015 34.8405 85.0015 35.5712H86.2976C86.2976 34.9343 86.3848 34.4969 86.5139 34.2152L85.3356 33.6752ZM85.0015 35.5712V42H86.2976V35.5712H85.0015ZM85.6496 41.3519H79.9962V42.6481H85.6496V41.3519ZM80.6443 42V28.3168H79.3482V42H80.6443ZM79.9962 28.9649H85.3744V27.6688H79.9962V28.9649ZM84.7264 28.3168V32.3192H86.0225V28.3168H84.7264ZM85.8478 31.8767L84.7722 30.726L83.8254 31.6111L84.901 32.7618L85.8478 31.8767ZM84.8747 31.4658C85.3582 30.5288 85.993 29.8518 86.7727 29.4042L86.1274 28.2801C85.106 28.8665 84.3066 29.7404 83.7229 30.8713L84.8747 31.4658ZM86.7683 29.4067C87.5824 28.9478 88.489 28.7147 89.5019 28.7147V27.4186C88.2801 27.4186 87.1522 27.7025 86.1319 28.2776L86.7683 29.4067ZM99.4615 41.8749L99.322 42.5078L99.4615 41.8749ZM96.7099 40.8993L96.1116 40.6504L95.8919 41.1783L96.3884 41.462L96.7099 40.8993ZM98.2608 37.1721L98.59 36.6139L97.9486 36.2356L97.6625 36.9231L98.2608 37.1721ZM100.512 38.0727L100.352 38.7006L100.355 38.7014L100.512 38.0727ZM104.415 38.2227L104.14 37.6355L104.133 37.6392L104.125 37.6431L104.415 38.2227ZM104.364 37.3222L104.149 37.9333L104.165 37.9391L104.182 37.9439L104.364 37.3222ZM101.688 36.922L101.591 37.5627L101.601 37.5643L101.612 37.5656L101.688 36.922ZM100.012 36.5718L99.846 37.1982L99.846 37.1982L100.012 36.5718ZM98.461 35.8964L98.1105 36.4415L98.1105 36.4415L98.461 35.8964ZM97.3353 34.6956L96.767 35.0073L96.7715 35.0151L97.3353 34.6956ZM97.6855 30.3931L97.1699 30.0003L97.1641 30.0082L97.6855 30.3931ZM100.037 28.7171L100.279 29.3181L100.284 29.3161L100.037 28.7171ZM106.916 28.3418L106.799 28.9793L106.799 28.9793L106.916 28.3418ZM109.493 29.1923L110.091 29.4413L110.317 28.8983L109.798 28.6209L109.493 29.1923ZM107.942 32.9196L107.63 33.488L108.263 33.8344L108.54 33.1685L107.942 32.9196ZM105.865 32.1441L105.723 32.7764L105.732 32.7784L105.741 32.7802L105.865 32.1441ZM102.513 32.1191L102.224 31.5395L102.216 31.5433L102.208 31.5473L102.513 32.1191ZM102.563 33.0196L102.779 32.4085L102.779 32.4085L102.563 33.0196ZM103.689 33.2448L103.758 32.6004L103.758 32.6004L103.689 33.2448ZM105.215 33.4449L105.118 34.0856L105.129 34.0872L105.139 34.0885L105.215 33.4449ZM106.891 33.7951L106.703 34.4153L106.714 34.4186L106.725 34.4216L106.891 33.7951ZM108.442 34.4705L108.792 33.9254L108.792 33.9254L108.442 34.4705ZM109.568 35.6962L108.999 36.0079L109.004 36.0157L109.568 35.6962ZM109.217 39.9238L109.739 40.3086L109.743 40.3027L109.217 39.9238ZM106.866 41.6248L107.105 42.2272L107.113 42.2238L106.866 41.6248ZM102.914 41.6021C101.793 41.6021 100.689 41.4821 99.6011 41.2421L99.322 42.5078C100.502 42.7681 101.7 42.8982 102.914 42.8982V41.6021ZM99.6011 41.2421C98.5055 41.0004 97.6562 40.6937 97.0314 40.3367L96.3884 41.462C97.1645 41.9055 98.1496 42.2492 99.322 42.5078L99.6011 41.2421ZM97.3082 41.1483L98.8592 37.4211L97.6625 36.9231L96.1116 40.6504L97.3082 41.1483ZM97.9316 37.7303C98.6426 38.1496 99.4516 38.4711 100.352 38.7006L100.672 37.4447C99.8717 37.2406 99.1799 36.9618 98.59 36.6139L97.9316 37.7303ZM100.355 38.7014C101.269 38.9298 102.164 39.0459 103.039 39.0459V37.7498C102.279 37.7498 101.49 37.6491 100.669 37.4439L100.355 38.7014ZM103.039 39.0459C103.396 39.0459 103.711 39.0308 103.977 38.9969C104.232 38.9645 104.49 38.9093 104.704 38.8024L104.125 37.6431C104.105 37.6529 104.017 37.6853 103.814 37.7112C103.621 37.7357 103.365 37.7498 103.039 37.7498V39.0459ZM104.689 38.81C105.066 38.634 105.438 38.2946 105.438 37.7475H104.142C104.142 37.7288 104.145 37.7037 104.154 37.6763C104.164 37.6489 104.177 37.6281 104.187 37.6148C104.206 37.591 104.206 37.605 104.14 37.6355L104.689 38.81ZM105.438 37.7475C105.438 37.4752 105.334 37.225 105.142 37.0328C104.966 36.8574 104.747 36.7593 104.547 36.7005L104.182 37.9439C104.265 37.9685 104.259 37.9829 104.225 37.9493C104.206 37.9297 104.182 37.8987 104.165 37.8565C104.147 37.8144 104.142 37.7756 104.142 37.7475H105.438ZM104.58 36.7111C104.231 36.5877 103.8 36.5055 103.308 36.4527L103.17 37.7414C103.611 37.7887 103.931 37.8566 104.149 37.9333L104.58 36.7111ZM103.308 36.4527C102.844 36.403 102.329 36.3448 101.764 36.2783L101.612 37.5656C102.181 37.6325 102.7 37.6911 103.17 37.7414L103.308 36.4527ZM101.785 36.2812C101.259 36.2015 100.723 36.0897 100.178 35.9453L99.846 37.1982C100.434 37.354 101.016 37.4756 101.591 37.5627L101.785 36.2812ZM100.178 35.9453C99.6724 35.8115 99.2183 35.6128 98.8114 35.3512L98.1105 36.4415C98.6375 36.7803 99.2174 37.0318 99.846 37.1982L100.178 35.9453ZM98.8114 35.3512C98.436 35.1099 98.1327 34.7884 97.8991 34.3761L96.7715 35.0151C97.1048 35.6034 97.552 36.0824 98.1105 36.4415L98.8114 35.3512ZM97.9035 34.384C97.6868 33.9889 97.5581 33.4539 97.5581 32.7445H96.262C96.262 33.6026 96.4167 34.3684 96.7671 35.0072L97.9035 34.384ZM97.5581 32.7445C97.5581 32.0164 97.7718 31.3673 98.2069 30.7779L97.1641 30.0082C96.5652 30.8196 96.262 31.7382 96.262 32.7445H97.5581ZM98.201 30.7858C98.6475 30.1998 99.325 29.7029 100.279 29.3181L99.7945 28.116C98.6808 28.5651 97.7908 29.1855 97.17 30.0003L98.201 30.7858ZM100.284 29.3161C101.234 28.9241 102.437 28.7147 103.914 28.7147V27.4186C102.323 27.4186 100.941 27.6429 99.7897 28.118L100.284 29.3161ZM103.914 28.7147C104.875 28.7147 105.836 28.8028 106.799 28.9793L107.033 27.7044C105.994 27.514 104.955 27.4186 103.914 27.4186V28.7147ZM106.799 28.9793C107.75 29.1535 108.542 29.4186 109.187 29.7638L109.798 28.6209C109.009 28.1989 108.084 27.897 107.033 27.7044L106.799 28.9793ZM108.894 28.9434L107.343 32.6706L108.54 33.1685L110.091 29.4413L108.894 28.9434ZM108.253 32.3512C107.502 31.9402 106.748 31.656 105.989 31.5081L105.741 32.7802C106.351 32.8991 106.98 33.1319 107.63 33.488L108.253 32.3512ZM106.008 31.5119C105.302 31.353 104.628 31.2709 103.989 31.2709V32.567C104.518 32.567 105.095 32.635 105.723 32.7764L106.008 31.5119ZM103.989 31.2709C103.613 31.2709 103.28 31.2883 102.995 31.3268C102.719 31.3643 102.449 31.4267 102.224 31.5395L102.803 32.6987C102.845 32.678 102.954 32.6404 103.17 32.6112C103.377 32.583 103.648 32.567 103.989 32.567V31.2709ZM102.208 31.5473C101.901 31.711 101.49 32.0283 101.49 32.5694H102.786C102.786 32.6109 102.778 32.6509 102.764 32.6854C102.751 32.7186 102.736 32.7388 102.73 32.7466C102.724 32.7539 102.725 32.7508 102.74 32.7393C102.755 32.728 102.78 32.7114 102.818 32.6909L102.208 31.5473ZM101.49 32.5694C101.49 32.8406 101.593 33.0859 101.773 33.277C101.94 33.4533 102.15 33.5609 102.348 33.6307L102.779 32.4085C102.739 32.3945 102.716 32.3828 102.706 32.3766C102.696 32.3705 102.702 32.3725 102.716 32.3871C102.73 32.4027 102.75 32.4293 102.765 32.4669C102.781 32.5049 102.786 32.5411 102.786 32.5694H101.49ZM102.348 33.6307C102.697 33.7541 103.128 33.8364 103.62 33.8891L103.758 32.6004C103.317 32.5531 102.996 32.4852 102.779 32.4085L102.348 33.6307ZM103.62 33.8891C104.076 33.938 104.575 34.0034 105.118 34.0856L105.312 32.8041C104.754 32.7196 104.236 32.6516 103.758 32.6004L103.62 33.8891ZM105.139 34.0885C105.668 34.1507 106.189 34.2596 106.703 34.4153L107.079 33.1749C106.492 32.9971 105.896 32.8725 105.291 32.8013L105.139 34.0885ZM106.725 34.4216C107.23 34.5553 107.685 34.7541 108.091 35.0156L108.792 33.9254C108.265 33.5866 107.686 33.335 107.057 33.1686L106.725 34.4216ZM108.091 35.0156C108.462 35.2537 108.765 35.5796 108.999 36.0078L110.136 35.3846C109.804 34.7789 109.356 34.2876 108.792 33.9254L108.091 35.0156ZM109.004 36.0157C109.216 36.3896 109.345 36.9116 109.345 37.6224H110.641C110.641 36.7655 110.487 36.0035 110.131 35.3767L109.004 36.0157ZM109.345 37.6224C109.345 38.2922 109.136 38.9285 108.692 39.5448L109.743 40.3027C110.333 39.4848 110.641 38.5869 110.641 37.6224H109.345ZM108.696 39.5389C108.268 40.1194 107.593 40.6237 106.619 41.0257L107.113 42.2238C108.24 41.7586 109.133 41.129 109.739 40.3086L108.696 39.5389ZM106.627 41.0224C105.676 41.3996 104.447 41.6021 102.914 41.6021V42.8982C104.549 42.8982 105.954 42.6837 107.105 42.2271L106.627 41.0224ZM113.906 40.8993L113.48 41.3876L113.484 41.3914L113.906 40.8993ZM112.33 25.24V24.5919H111.682V25.24H112.33ZM117.983 25.24H118.631V24.5919H117.983V25.24ZM118.309 37.6224L117.834 38.0634L117.842 38.0721L117.85 38.0806L118.309 37.6224ZM120.435 37.5974L121.048 37.3866L120.771 36.5835L120.07 37.0619L120.435 37.5974ZM121.786 41.5247L122.109 42.0861L122.572 41.8191L122.398 41.3139L121.786 41.5247ZM120.21 42.075L120.089 41.4383L120.086 41.4389L120.21 42.075ZM110.454 33.1947H109.806V33.8428H110.454V33.1947ZM110.454 29.0673V28.4192H109.806V29.0673H110.454ZM120.785 29.0673H121.433V28.4192H120.785V29.0673ZM120.785 33.1947V33.8428H121.433V33.1947H120.785ZM118.309 41.6021C116.523 41.6021 115.224 41.1758 114.328 40.4073L113.484 41.3914C114.689 42.4239 116.326 42.8982 118.309 42.8982V41.6021ZM114.332 40.4112C113.467 39.6561 112.978 38.4632 112.978 36.6968H111.682C111.682 38.6993 112.243 40.3081 113.48 41.3875L114.332 40.4112ZM112.978 36.6968V25.24H111.682V36.6968H112.978ZM112.33 25.888H117.983V24.5919H112.33V25.888ZM117.335 25.24V36.6468H118.631V25.24H117.335ZM117.335 36.6468C117.335 37.1754 117.475 37.6767 117.834 38.0634L118.783 37.1814C118.709 37.1011 118.631 36.952 118.631 36.6468H117.335ZM117.85 38.0806C118.207 38.437 118.656 38.6206 119.159 38.6206V37.3245C118.995 37.3245 118.877 37.2747 118.767 37.1641L117.85 38.0806ZM119.159 38.6206C119.761 38.6206 120.316 38.4629 120.8 38.1328L120.07 37.0619C119.82 37.2321 119.525 37.3245 119.159 37.3245V38.6206ZM119.822 37.8081L121.173 41.7355L122.398 41.3139L121.048 37.3866L119.822 37.8081ZM121.462 40.9634C121.105 41.1692 120.652 41.3318 120.089 41.4383L120.33 42.7118C121.001 42.5848 121.599 42.3805 122.109 42.0861L121.462 40.9634ZM120.086 41.4389C119.53 41.547 118.938 41.6021 118.309 41.6021V42.8982C119.013 42.8982 119.689 42.8365 120.333 42.7112L120.086 41.4389ZM111.102 33.1947V29.0673H109.806V33.1947H111.102ZM110.454 29.7153H120.785V28.4192H110.454V29.7153ZM120.137 29.0673V33.1947H121.433V29.0673H120.137ZM120.785 32.5467H110.454V33.8428H120.785V32.5467ZM131.49 42H130.842V42.6481H131.49V42ZM131.49 39.5736H132.139V39.3901L132.042 39.2339L131.49 39.5736ZM131.09 38.9232H130.442V39.1066L130.538 39.2628L131.09 38.9232ZM130.465 32.7945L130.038 33.2823L130.048 33.2907L130.465 32.7945ZM126.613 32.5694L126.793 33.1919L126.8 33.1897L126.808 33.1873L126.613 32.5694ZM124.987 33.3448L124.403 33.6268L124.744 34.3313L125.372 33.8656L124.987 33.3448ZM123.185 29.6176L122.842 29.0681L122.349 29.3761L122.602 29.8996L123.185 29.6176ZM126.062 28.4669L126.213 29.0972L126.213 29.0972L126.062 28.4669ZM134.792 29.6426L134.382 30.1442L134.385 30.1468L134.792 29.6426ZM136.744 42V42.6481H137.392V42H136.744ZM124.811 41.6748L124.517 42.2519L124.517 42.2519L124.811 41.6748ZM123.11 40.1489L122.552 40.4781L122.556 40.4845L123.11 40.1489ZM123.211 35.7463L123.734 36.1283L123.734 36.1283L123.211 35.7463ZM125.262 34.3454L125.054 33.7317L125.05 33.7329L125.262 34.3454ZM131.641 33.8701H132.289V33.2221H131.641V33.8701ZM131.641 36.5968V37.2448H132.289V36.5968H131.641ZM128.364 36.897L128.731 37.431L128.737 37.4264L128.364 36.897ZM128.314 38.5479L127.873 39.0228L127.89 39.0391L127.909 39.054L128.314 38.5479ZM130.365 38.5479L130.711 39.0959L130.718 39.0913L130.365 38.5479ZM131.09 37.5473L131.685 37.2899L131.012 35.7341L130.475 37.3424L131.09 37.5473ZM131.816 39.2233L132.449 39.3584L132.493 39.1559L132.41 38.9659L131.816 39.2233ZM130.44 41.4997L130.063 40.9724L130.063 40.9724L130.44 41.4997ZM132.139 42V39.5736H130.842V42H132.139ZM132.042 39.2339L131.642 38.5835L130.538 39.2628L130.939 39.9132L132.042 39.2339ZM131.738 38.9232V34.3204H130.442V38.9232H131.738ZM131.738 34.3204C131.738 33.5091 131.478 32.799 130.882 32.2983L130.048 33.2907C130.286 33.4904 130.442 33.7976 130.442 34.3204H131.738ZM130.892 32.3068C130.313 31.8008 129.459 31.6211 128.489 31.6211V32.9172C129.353 32.9172 129.816 33.0878 130.038 33.2822L130.892 32.3068ZM128.489 31.6211C127.801 31.6211 127.109 31.7329 126.417 31.9514L126.808 33.1873C127.383 33.0056 127.943 32.9172 128.489 32.9172V31.6211ZM126.432 31.9469C125.737 32.148 125.123 32.4373 124.601 32.8241L125.372 33.8656C125.751 33.5853 126.22 33.3576 126.793 33.1919L126.432 31.9469ZM125.57 33.0629L123.769 29.3356L122.602 29.8996L124.403 33.6268L125.57 33.0629ZM123.529 30.1672C124.259 29.7111 125.149 29.3512 126.213 29.0972L125.912 27.8366C124.74 28.1163 123.713 28.5235 122.842 29.0681L123.529 30.1672ZM126.213 29.0972C127.284 28.8413 128.326 28.7147 129.339 28.7147V27.4186C128.217 27.4186 127.075 27.5589 125.912 27.8366L126.213 29.0972ZM129.339 28.7147C131.602 28.7147 133.254 29.2209 134.382 30.1442L135.203 29.141C133.763 27.963 131.779 27.4186 129.339 27.4186V28.7147ZM134.385 30.1468C135.483 31.0334 136.096 32.4806 136.096 34.6456H137.392C137.392 32.2412 136.703 30.3531 135.2 29.1385L134.385 30.1468ZM136.096 34.6456V42H137.392V34.6456H136.096ZM136.744 41.3519H131.49V42.6481H136.744V41.3519ZM127.613 41.6021C126.566 41.6021 125.741 41.422 125.106 41.0978L124.517 42.2519C125.383 42.6948 126.425 42.8982 127.613 42.8982V41.6021ZM125.106 41.0978C124.448 40.7613 123.978 40.3304 123.665 39.8133L122.556 40.4845C123.01 41.2348 123.674 41.8212 124.517 42.2519L125.106 41.0978ZM123.669 39.8197C123.346 39.2729 123.183 38.6702 123.183 37.9976H121.887C121.887 38.8926 122.108 39.7241 122.552 40.4781L123.669 39.8197ZM123.183 37.9976C123.183 37.2287 123.377 36.6176 123.734 36.1283L122.687 35.3643C122.144 36.109 121.887 36.9988 121.887 37.9976H123.183ZM123.734 36.1283C124.088 35.6438 124.647 35.2433 125.473 34.958L125.05 33.7329C124.042 34.0813 123.234 34.6147 122.687 35.3643L123.734 36.1283ZM125.47 34.9591C126.314 34.6726 127.414 34.5182 128.789 34.5182V33.2221C127.329 33.2221 126.077 33.3845 125.054 33.7317L125.47 34.9591ZM128.789 34.5182H131.641V33.2221H128.789V34.5182ZM130.992 33.8701V36.5968H132.289V33.8701H130.992ZM131.641 35.9487H129.689V37.2448H131.641V35.9487ZM129.689 35.9487C129.042 35.9487 128.437 36.0519 127.99 36.3675L128.737 37.4264C128.857 37.3418 129.136 37.2448 129.689 37.2448V35.9487ZM127.996 36.3629C127.52 36.6908 127.315 37.1957 127.315 37.7475H128.611C128.611 37.5321 128.674 37.47 128.731 37.431L127.996 36.3629ZM127.315 37.7475C127.315 38.2456 127.508 38.6842 127.873 39.0228L128.755 38.073C128.652 37.9781 128.611 37.883 128.611 37.7475H127.315ZM127.909 39.054C128.304 39.3706 128.795 39.4962 129.314 39.4962V38.2001C129 38.2001 128.823 38.1255 128.718 38.0419L127.909 39.054ZM129.314 39.4962C129.817 39.4962 130.288 39.363 130.711 39.0959L130.019 38C129.808 38.1331 129.578 38.2001 129.314 38.2001V39.4962ZM130.718 39.0913C131.197 38.7799 131.518 38.3138 131.705 37.7523L130.475 37.3424C130.362 37.6814 130.2 37.8824 130.012 38.0046L130.718 39.0913ZM130.495 37.8048L131.221 39.4808L132.41 38.9659L131.685 37.2899L130.495 37.8048ZM131.182 39.0883C130.991 39.982 130.606 40.5849 130.063 40.9724L130.816 42.027C131.675 41.4139 132.206 40.4992 132.449 39.3584L131.182 39.0883ZM130.063 40.9724C129.507 41.3696 128.712 41.6021 127.613 41.6021V42.8982C128.883 42.8982 129.972 42.6304 130.816 42.027L130.063 40.9724ZM142.583 46.6778L142.734 46.0476L142.734 46.0476L142.583 46.6778ZM139.531 45.402L138.95 45.1152L138.698 45.6256L139.172 45.9412L139.531 45.402ZM141.432 41.5497L141.831 41.039L141.204 40.5487L140.851 41.2629L141.432 41.5497ZM143.459 42.5253L143.645 41.9045L143.637 41.9022L143.459 42.5253ZM148.311 42.1501L147.861 41.6841L147.853 41.6918L148.311 42.1501ZM149.062 38.8981L148.415 38.8601L148.414 38.8791V38.8981H149.062ZM149.312 34.6456L149.959 34.6837L149.96 34.6666L149.96 34.6494L149.312 34.6456ZM149.337 30.3931L149.985 30.3969V30.3931H149.337ZM149.337 28.3168V27.6688H148.689V28.3168H149.337ZM154.715 28.3168H155.363V27.6688H154.715V28.3168ZM152.514 45.1769L152.087 44.6892L152.087 44.6892L152.514 45.1769ZM142.058 40.4491L141.745 41.017L141.753 41.0209L142.058 40.4491ZM139.631 38.1477L140.18 37.8034L139.631 38.1477ZM139.631 31.1435L140.18 31.4878L140.18 31.4878L139.631 31.1435ZM142.058 28.8672L141.753 28.2953L141.753 28.2953L142.058 28.8672ZM148.186 28.7671L147.844 29.3174L147.849 29.3207L148.186 28.7671ZM149.887 30.9434L149.28 31.1698L149.281 31.1732L149.887 30.9434ZM149.887 38.3728L150.493 38.6027L150.495 38.5993L149.887 38.3728ZM148.186 40.5491L148.529 41.0994L148.532 41.0973L148.186 40.5491ZM147.986 36.5718L148.287 37.1458L148.287 37.1458L147.986 36.5718ZM148.812 35.7963L149.367 36.1297L148.812 35.7963ZM148.812 33.4949L148.256 33.8283L148.26 33.8347L148.264 33.841L148.812 33.4949ZM147.986 32.7445L147.686 33.3185L147.696 33.3243L147.708 33.3296L147.986 32.7445ZM145.585 32.7445L145.863 33.3297L145.875 33.3241L145.585 32.7445ZM144.734 33.4949L144.191 33.1417L144.186 33.1489L144.734 33.4949ZM144.734 35.7963L144.179 36.1297L144.185 36.1397L144.191 36.1495L144.734 35.7963ZM145.585 36.5718L145.284 37.1459L145.295 37.1514L145.585 36.5718ZM146.385 46.455C145.08 46.455 143.863 46.318 142.734 46.0476L142.432 47.308C143.671 47.6046 144.989 47.7511 146.385 47.7511V46.455ZM142.734 46.0476C141.61 45.7785 140.667 45.3802 139.891 44.8628L139.172 45.9412C140.097 46.5579 141.188 47.01 142.432 47.308L142.734 46.0476ZM140.112 45.6888L142.013 41.8365L140.851 41.2629L138.95 45.1152L140.112 45.6888ZM141.033 42.0604C141.647 42.5399 142.403 42.8977 143.281 43.1484L143.637 41.9022C142.88 41.686 142.285 41.3934 141.831 41.039L141.033 42.0604ZM143.272 43.146C144.156 43.411 145.003 43.5486 145.81 43.5486V42.2525C145.15 42.2525 144.429 42.1399 143.645 41.9046L143.272 43.146ZM145.81 43.5486C147.043 43.5486 148.089 43.2888 148.77 42.6083L147.853 41.6918C147.533 42.0119 146.912 42.2525 145.81 42.2525V43.5486ZM148.762 42.616C149.425 41.975 149.71 41.0834 149.71 40.0488H148.414C148.414 40.8487 148.198 41.3579 147.861 41.6841L148.762 42.616ZM149.71 40.0488V38.8981H148.414V40.0488H149.71ZM149.709 38.9362L149.959 34.6837L148.665 34.6076L148.415 38.8601L149.709 38.9362ZM149.96 34.6494L149.985 30.3969L148.689 30.3893L148.664 34.6418L149.96 34.6494ZM149.985 30.3931V28.3168H148.689V30.3931H149.985ZM149.337 28.9649H154.715V27.6688H149.337V28.9649ZM154.067 28.3168V39.2734H155.363V28.3168H154.067ZM154.067 39.2734C154.067 41.8086 153.369 43.568 152.087 44.6892L152.941 45.6646C154.594 44.2176 155.363 42.0414 155.363 39.2734H154.067ZM152.087 44.6892C150.773 45.839 148.901 46.455 146.385 46.455V47.7511C149.106 47.7511 151.32 47.083 152.941 45.6646L152.087 44.6892ZM145.285 40.6015C144.239 40.6015 143.268 40.3601 142.363 39.8773L141.753 41.0209C142.849 41.6054 144.029 41.8976 145.285 41.8976V40.6015ZM142.37 39.8812C141.468 39.385 140.74 38.6955 140.18 37.8034L139.082 38.492C139.757 39.5677 140.646 40.4125 141.745 41.0169L142.37 39.8812ZM140.18 37.8034C139.638 36.9385 139.354 35.8948 139.354 34.6456H138.058C138.058 36.098 138.391 37.389 139.082 38.492L140.18 37.8034ZM139.354 34.6456C139.354 33.3964 139.638 32.3527 140.18 31.4878L139.082 30.7992C138.391 31.9022 138.058 33.1932 138.058 34.6456H139.354ZM140.18 31.4878C140.739 30.5973 141.464 29.9181 142.363 29.439L141.753 28.2953C140.65 28.8836 139.758 29.7219 139.082 30.7992L140.18 31.4878ZM142.363 29.439C143.268 28.9561 144.239 28.7147 145.285 28.7147V27.4186C144.029 27.4186 142.849 27.7109 141.753 28.2953L142.363 29.439ZM145.285 28.7147C146.388 28.7147 147.226 28.9326 147.844 29.3173L148.529 28.2169C147.646 27.6677 146.55 27.4186 145.285 27.4186V28.7147ZM147.849 29.3207C148.472 29.6996 148.955 30.2981 149.28 31.1698L150.495 30.717C150.086 29.6208 149.435 28.7685 148.523 28.2135L147.849 29.3207ZM149.281 31.1732C149.611 32.0419 149.79 33.1909 149.79 34.6456H151.086C151.086 33.0985 150.898 31.7794 150.493 30.7136L149.281 31.1732ZM149.79 34.6456C149.79 36.0996 149.611 37.2588 149.28 38.1464L150.495 38.5993C150.897 37.519 151.086 36.1934 151.086 34.6456H149.79ZM149.281 38.143C148.957 38.998 148.472 39.6027 147.841 40.0009L148.532 41.0973C149.435 40.5283 150.084 39.6821 150.493 38.6027L149.281 38.143ZM147.844 39.9989C147.226 40.3837 146.388 40.6015 145.285 40.6015V41.8976C146.55 41.8976 147.646 41.6485 148.529 41.0994L147.844 39.9989ZM146.786 37.495C147.326 37.495 147.832 37.3843 148.287 37.1458L147.686 35.9977C147.44 36.1261 147.146 36.1989 146.786 36.1989V37.495ZM148.287 37.1458C148.741 36.9081 149.105 36.5671 149.367 36.1297L148.256 35.4629C148.118 35.6925 147.932 35.8685 147.686 35.9977L148.287 37.1458ZM149.367 36.1297C149.635 35.6842 149.76 35.1828 149.76 34.6456H148.464C148.464 34.9756 148.389 35.2413 148.256 35.4629L149.367 36.1297ZM149.76 34.6456C149.76 34.0977 149.637 33.5885 149.36 33.1489L148.264 33.841C148.386 34.035 148.464 34.2929 148.464 34.6456H149.76ZM149.367 33.1615C149.102 32.719 148.731 32.3811 148.265 32.1594L147.708 33.3296C147.942 33.4414 148.121 33.6038 148.256 33.8283L149.367 33.1615ZM148.287 32.1704C147.832 31.932 147.326 31.8212 146.786 31.8212V33.1174C147.146 33.1174 147.44 33.1901 147.686 33.3185L148.287 32.1704ZM146.786 31.8212C146.257 31.8212 145.757 31.9338 145.295 32.1648L145.875 33.3241C146.146 33.1882 146.447 33.1174 146.786 33.1174V31.8212ZM145.306 32.1594C144.845 32.3789 144.471 32.7107 144.191 33.1417L145.278 33.8481C145.431 33.6121 145.624 33.4436 145.863 33.3296L145.306 32.1594ZM144.186 33.1489C143.909 33.5885 143.786 34.0977 143.786 34.6456H145.082C145.082 34.2929 145.16 34.035 145.282 33.841L144.186 33.1489ZM143.786 34.6456C143.786 35.1828 143.911 35.6842 144.179 36.1297L145.29 35.4629C145.157 35.2413 145.082 34.9756 145.082 34.6456H143.786ZM144.191 36.1495C144.468 36.5756 144.835 36.9105 145.284 37.1458L145.886 35.9977C145.634 35.8662 145.434 35.684 145.278 35.4431L144.191 36.1495ZM145.295 37.1514C145.757 37.3824 146.257 37.495 146.786 37.495V36.1989C146.447 36.1989 146.146 36.128 145.875 35.9921L145.295 37.1514ZM157.215 42H156.567V42.6481H157.215V42ZM157.215 28.3168V27.6688H156.567V28.3168H157.215ZM162.593 28.3168H163.241V27.6688H162.593V28.3168ZM162.593 32.4443L162.074 32.8314L163.241 34.3996V32.4443H162.593ZM161.718 31.2686L161.114 31.0328L160.984 31.3675L161.198 31.6556L161.718 31.2686ZM163.719 28.8672L163.393 28.307L163.393 28.307L163.719 28.8672ZM167.021 28.0667H167.669V27.4186H167.021V28.0667ZM167.021 33.0697L166.935 33.712L167.669 33.8099V33.0697H167.021ZM166.346 32.9946L166.287 33.64L166.292 33.6404L166.346 32.9946ZM163.669 33.645L164.078 34.148L164.079 34.1466L163.669 33.645ZM162.869 42V42.6481H163.517V42H162.869ZM157.863 42V28.3168H156.567V42H157.863ZM157.215 28.9649H162.593V27.6688H157.215V28.9649ZM161.945 28.3168V32.4443H163.241V28.3168H161.945ZM163.113 32.0572L162.238 30.8815L161.198 31.6556L162.074 32.8314L163.113 32.0572ZM162.322 31.5044C162.69 30.5618 163.265 29.8813 164.045 29.4273L163.393 28.307C162.339 28.9203 161.58 29.8407 161.114 31.0328L162.322 31.5044ZM164.045 29.4273C164.844 28.9622 165.827 28.7147 167.021 28.7147V27.4186C165.646 27.4186 164.428 27.7048 163.393 28.307L164.045 29.4273ZM166.373 28.0667V33.0697H167.669V28.0667H166.373ZM167.107 32.4273C166.849 32.3929 166.613 32.3666 166.399 32.3488L166.292 33.6404C166.479 33.656 166.693 33.6798 166.935 33.712L167.107 32.4273ZM166.404 32.3492C166.2 32.3306 165.988 32.3215 165.77 32.3215V33.6177C165.952 33.6177 166.125 33.6253 166.287 33.64L166.404 32.3492ZM165.77 32.3215C164.801 32.3215 163.946 32.5808 163.259 33.1434L164.079 34.1466C164.492 33.8087 165.039 33.6177 165.77 33.6177V32.3215ZM163.26 33.142C162.505 33.7555 162.221 34.7549 162.221 35.9214H163.517C163.517 34.9199 163.765 34.4017 164.078 34.148L163.26 33.142ZM162.221 35.9214V42H163.517V35.9214H162.221ZM162.869 41.3519H157.215V42.6481H162.869V41.3519ZM176.146 42H175.498V42.6481H176.146V42ZM176.146 39.5736H176.794V39.3901L176.698 39.2339L176.146 39.5736ZM175.746 38.9232H175.098V39.1066L175.194 39.2628L175.746 38.9232ZM175.12 32.7945L174.694 33.2823L174.704 33.2907L175.12 32.7945ZM171.268 32.5694L171.448 33.1919L171.456 33.1897L171.463 33.1873L171.268 32.5694ZM169.642 33.3448L169.059 33.6268L169.399 34.3313L170.028 33.8656L169.642 33.3448ZM167.841 29.6176L167.498 29.0681L167.005 29.3761L167.258 29.8996L167.841 29.6176ZM170.718 28.4669L170.868 29.0972L170.868 29.0972L170.718 28.4669ZM179.448 29.6426L179.038 30.1442L179.041 30.1468L179.448 29.6426ZM181.399 42V42.6481H182.047V42H181.399ZM169.467 41.6748L169.172 42.2519L169.172 42.2519L169.467 41.6748ZM167.766 40.1489L167.208 40.4781L167.212 40.4845L167.766 40.1489ZM167.866 35.7463L168.39 36.1283L168.39 36.1283L167.866 35.7463ZM169.917 34.3454L169.709 33.7317L169.706 33.7329L169.917 34.3454ZM176.296 33.8701H176.944V33.2221H176.296V33.8701ZM176.296 36.5968V37.2448H176.944V36.5968H176.296ZM173.019 36.897L173.386 37.431L173.393 37.4264L173.019 36.897ZM172.969 38.5479L172.528 39.0228L172.546 39.0391L172.564 39.054L172.969 38.5479ZM175.02 38.5479L175.366 39.0959L175.374 39.0913L175.02 38.5479ZM175.746 37.5473L176.341 37.2899L175.667 35.7341L175.131 37.3424L175.746 37.5473ZM176.471 39.2233L177.105 39.3584L177.148 39.1559L177.066 38.9659L176.471 39.2233ZM175.095 41.4997L174.719 40.9724L174.719 40.9724L175.095 41.4997ZM176.794 42V39.5736H175.498V42H176.794ZM176.698 39.2339L176.298 38.5835L175.194 39.2628L175.594 39.9132L176.698 39.2339ZM176.394 38.9232V34.3204H175.098V38.9232H176.394ZM176.394 34.3204C176.394 33.5091 176.133 32.799 175.537 32.2983L174.704 33.2907C174.941 33.4904 175.098 33.7976 175.098 34.3204H176.394ZM175.547 32.3068C174.969 31.8008 174.114 31.6211 173.144 31.6211V32.9172C174.008 32.9172 174.471 33.0878 174.694 33.2822L175.547 32.3068ZM173.144 31.6211C172.456 31.6211 171.765 31.7329 171.073 31.9514L171.463 33.1873C172.039 33.0056 172.598 32.9172 173.144 32.9172V31.6211ZM171.088 31.9469C170.393 32.148 169.779 32.4373 169.256 32.8241L170.028 33.8656C170.406 33.5853 170.876 33.3576 171.448 33.1919L171.088 31.9469ZM170.226 33.0629L168.425 29.3356L167.258 29.8996L169.059 33.6268L170.226 33.0629ZM168.185 30.1672C168.914 29.7111 169.805 29.3512 170.868 29.0972L170.567 27.8366C169.396 28.1163 168.369 28.5235 167.498 29.0681L168.185 30.1672ZM170.868 29.0972C171.94 28.8413 172.982 28.7147 173.995 28.7147V27.4186C172.873 27.4186 171.73 27.5589 170.567 27.8366L170.868 29.0972ZM173.995 28.7147C176.258 28.7147 177.909 29.2209 179.038 30.1442L179.858 29.141C178.419 27.963 176.434 27.4186 173.995 27.4186V28.7147ZM179.041 30.1468C180.139 31.0334 180.751 32.4806 180.751 34.6456H182.047C182.047 32.2412 181.359 30.3531 179.855 29.1385L179.041 30.1468ZM180.751 34.6456V42H182.047V34.6456H180.751ZM181.399 41.3519H176.146V42.6481H181.399V41.3519ZM172.269 41.6021C171.222 41.6021 170.396 41.422 169.762 41.0978L169.172 42.2519C170.039 42.6948 171.081 42.8982 172.269 42.8982V41.6021ZM169.762 41.0978C169.104 40.7613 168.633 40.3304 168.32 39.8133L167.212 40.4845C167.666 41.2348 168.33 41.8212 169.172 42.2519L169.762 41.0978ZM168.324 39.8197C168.002 39.2729 167.839 38.6702 167.839 37.9976H166.543C166.543 38.8926 166.763 39.7241 167.208 40.4781L168.324 39.8197ZM167.839 37.9976C167.839 37.2287 168.033 36.6176 168.39 36.1283L167.343 35.3643C166.799 36.109 166.543 36.9988 166.543 37.9976H167.839ZM168.39 36.1283C168.743 35.6438 169.303 35.2433 170.129 34.958L169.706 33.7329C168.697 34.0813 167.89 34.6147 167.343 35.3643L168.39 36.1283ZM170.126 34.9591C170.97 34.6726 172.069 34.5182 173.444 34.5182V33.2221C171.984 33.2221 170.732 33.3845 169.709 33.7317L170.126 34.9591ZM173.444 34.5182H176.296V33.2221H173.444V34.5182ZM175.648 33.8701V36.5968H176.944V33.8701H175.648ZM176.296 35.9487H174.345V37.2448H176.296V35.9487ZM174.345 35.9487C173.698 35.9487 173.093 36.0519 172.645 36.3675L173.393 37.4264C173.513 37.3418 173.792 37.2448 174.345 37.2448V35.9487ZM172.652 36.3629C172.175 36.6908 171.971 37.1957 171.971 37.7475H173.267C173.267 37.5321 173.33 37.47 173.386 37.431L172.652 36.3629ZM171.971 37.7475C171.971 38.2456 172.163 38.6842 172.528 39.0228L173.41 38.073C173.308 37.9781 173.267 37.883 173.267 37.7475H171.971ZM172.564 39.054C172.96 39.3706 173.45 39.4962 173.97 39.4962V38.2001C173.655 38.2001 173.479 38.1255 173.374 38.0419L172.564 39.054ZM173.97 39.4962C174.473 39.4962 174.943 39.363 175.366 39.0959L174.674 38C174.464 38.1331 174.234 38.2001 173.97 38.2001V39.4962ZM175.374 39.0913C175.853 38.7799 176.173 38.3138 176.361 37.7523L175.131 37.3424C175.018 37.6814 174.855 37.8824 174.667 38.0046L175.374 39.0913ZM175.151 37.8048L175.876 39.4808L177.066 38.9659L176.341 37.2899L175.151 37.8048ZM175.837 39.0883C175.647 39.982 175.261 40.5849 174.719 40.9724L175.472 42.027C176.33 41.4139 176.862 40.4992 177.105 39.3584L175.837 39.0883ZM174.719 40.9724C174.163 41.3696 173.367 41.6021 172.269 41.6021V42.8982C173.538 42.8982 174.627 42.6304 175.472 42.027L174.719 40.9724ZM204.73 28.7171L204.426 29.2895L204.433 29.2932L204.44 29.2967L204.73 28.7171ZM206.681 30.6932L206.106 30.9916L206.11 30.9999L206.681 30.6932ZM207.407 42V42.6481H208.055V42H207.407ZM201.753 42H201.105V42.6481H201.753V42ZM201.328 33.3698L200.815 33.7661L200.82 33.7719L200.824 33.7776L201.328 33.3698ZM199.327 33.0697L198.983 32.5201L198.983 32.5201L199.327 33.0697ZM198.676 33.8701L198.086 33.6019L198.081 33.6149L198.676 33.8701ZM198.451 42V42.6481H199.099V42H198.451ZM192.798 42H192.15V42.6481H192.798V42ZM192.398 33.3698L191.873 33.751L191.878 33.7568L191.882 33.7626L192.398 33.3698ZM190.371 33.0697L190.028 32.5201L190.028 32.5201L190.371 33.0697ZM189.721 33.8701L189.131 33.6019L189.125 33.6149L189.721 33.8701ZM189.496 42V42.6481H190.144V42H189.496ZM183.842 42H183.194V42.6481H183.842V42ZM183.842 28.3168V27.6688H183.194V28.3168H183.842ZM189.221 28.3168H189.869V27.6688H189.221V28.3168ZM189.221 32.2442L188.762 32.7024L189.869 33.8087V32.2442H189.221ZM188.12 31.1435L187.54 30.8537L187.331 31.2715L187.662 31.6018L188.12 31.1435ZM190.196 28.8421L190.52 29.4035L190.528 29.3988L190.196 28.8421ZM196.275 29.0172L195.906 29.5505L195.918 29.5579L196.275 29.0172ZM198.151 31.969L198.049 32.609L199.002 32.761L198.782 31.821L198.151 31.969ZM196.425 31.6938L195.832 31.4323L195.493 32.2015L196.323 32.3338L196.425 31.6938ZM198.601 29.0423L198.961 29.5815L198.963 29.58L198.601 29.0423ZM201.953 28.7147C202.894 28.7147 203.713 28.9112 204.426 29.2895L205.034 28.1446C204.112 27.6558 203.08 27.4186 201.953 27.4186V28.7147ZM204.44 29.2967C205.141 29.6469 205.696 30.2013 206.106 30.9916L207.256 30.3949C206.732 29.3841 205.987 28.621 205.02 28.1374L204.44 29.2967ZM206.11 30.9999C206.527 31.7758 206.758 32.8274 206.758 34.1953H208.055C208.055 32.6948 207.803 31.4118 207.252 30.3866L206.11 30.9999ZM206.758 34.1953V42H208.055V34.1953H206.758ZM207.407 41.3519H201.753V42.6481H207.407V41.3519ZM202.401 42V35.1709H201.105V42H202.401ZM202.401 35.1709C202.401 34.2863 202.261 33.4929 201.832 32.9621L200.824 33.7776C200.961 33.9472 201.105 34.3545 201.105 35.1709H202.401ZM201.841 32.9736C201.439 32.4534 200.885 32.1715 200.227 32.1715V33.4676C200.47 33.4676 200.65 33.5525 200.815 33.7661L201.841 32.9736ZM200.227 32.1715C199.78 32.1715 199.359 32.2851 198.983 32.5201L199.67 33.6192C199.828 33.5207 200.008 33.4676 200.227 33.4676V32.1715ZM198.983 32.5201C198.582 32.7711 198.291 33.1514 198.086 33.602L199.266 34.1383C199.395 33.8551 199.538 33.7018 199.67 33.6192L198.983 32.5201ZM198.081 33.6149C197.881 34.0804 197.803 34.664 197.803 35.321H199.099C199.099 34.7439 199.171 34.3603 199.272 34.1254L198.081 33.6149ZM197.803 35.321V42H199.099V35.321H197.803ZM198.451 41.3519H192.798V42.6481H198.451V41.3519ZM193.446 42V35.1709H192.15V42H193.446ZM193.446 35.1709C193.446 34.2912 193.315 33.5053 192.913 32.9771L191.882 33.7626C192.013 33.9348 192.15 34.3496 192.15 35.1709H193.446ZM192.922 32.9887C192.524 32.4415 191.947 32.1715 191.272 32.1715V33.4676C191.564 33.4676 191.738 33.5644 191.873 33.751L192.922 32.9887ZM191.272 32.1715C190.824 32.1715 190.404 32.2851 190.028 32.5201L190.715 33.6192C190.872 33.5207 191.052 33.4676 191.272 33.4676V32.1715ZM190.028 32.5201C189.626 32.7711 189.336 33.1514 189.131 33.602L190.311 34.1383C190.44 33.8551 190.583 33.7018 190.715 33.6192L190.028 32.5201ZM189.125 33.6149C188.926 34.0804 188.848 34.664 188.848 35.321H190.144C190.144 34.7439 190.216 34.3603 190.317 34.1254L189.125 33.6149ZM188.848 35.321V42H190.144V35.321H188.848ZM189.496 41.3519H183.842V42.6481H189.496V41.3519ZM184.49 42V28.3168H183.194V42H184.49ZM183.842 28.9649H189.221V27.6688H183.842V28.9649ZM188.573 28.3168V32.2442H189.869V28.3168H188.573ZM189.679 31.7859L188.578 30.6853L187.662 31.6018L188.762 32.7024L189.679 31.7859ZM188.7 31.4333C189.169 30.495 189.779 29.8309 190.52 29.4035L189.872 28.2808C188.879 28.854 188.105 29.7242 187.54 30.8537L188.7 31.4333ZM190.528 29.3988C191.289 28.9451 192.141 28.7147 193.098 28.7147V27.4186C191.921 27.4186 190.838 27.7052 189.864 28.2855L190.528 29.3988ZM193.098 28.7147C194.178 28.7147 195.106 28.9974 195.906 29.5504L196.643 28.4841C195.609 27.7697 194.42 27.4186 193.098 27.4186V28.7147ZM195.918 29.5579C196.682 30.0632 197.231 30.8867 197.52 32.117L198.782 31.821C198.437 30.3497 197.735 29.2054 196.632 28.4765L195.918 29.5579ZM198.253 31.329L196.527 31.0539L196.323 32.3338L198.049 32.609L198.253 31.329ZM197.018 31.9554C197.473 30.9243 198.122 30.1409 198.961 29.5815L198.242 28.503C197.18 29.211 196.378 30.1953 195.832 31.4323L197.018 31.9554ZM198.963 29.58C199.814 29.0078 200.803 28.7147 201.953 28.7147V27.4186C200.569 27.4186 199.323 27.7759 198.24 28.5045L198.963 29.58Z" fill="#21252D" mask="url(#path-1-outside-1_262_2068)"/>
<path fill-rule="evenodd" clip-rule="evenodd" d="M10 16.1704C10 11.0894 14.119 6.9704 19.2 6.9704H46.8C51.8809 6.9704 56 11.0894 56 16.1704V43.7704C56 48.8513 51.8809 52.9704 46.8 52.9704H19.2C14.119 52.9704 10 48.8513 10 43.7704V16.1704ZM19.2 11.5704C16.6595 11.5704 14.6 13.6299 14.6 16.1704V43.7704C14.6 46.311 16.6595 48.3704 19.2 48.3704H46.8C49.3406 48.3704 51.4 46.311 51.4 43.7704V16.1704C51.4 13.6299 49.3406 11.5704 46.8 11.5704H19.2ZM33 23.0704C29.1891 23.0704 26.1 26.1595 26.1 29.9704C26.1 33.7813 29.1891 36.8704 33 36.8704C36.8109 36.8704 39.9 33.7813 39.9 29.9704C39.9 26.1595 36.8109 23.0704 33 23.0704ZM21.5 29.9704C21.5 23.6191 26.6487 18.4704 33 18.4704C39.3512 18.4704 44.5 23.6191 44.5 29.9704C44.5 36.3216 39.3512 41.4704 33 41.4704C26.6487 41.4704 21.5 36.3216 21.5 29.9704ZM45.65 20.7704C47.5553 20.7704 49.1 19.2258 49.1 17.3204C49.1 15.415 47.5553 13.8704 45.65 13.8704C43.7447 13.8704 42.2 15.415 42.2 17.3204C42.2 19.2258 43.7447 20.7704 45.65 20.7704Z" fill="white"/>
</svg>
