<svg width="220" height="60" viewBox="0 0 220 60" fill="none" xmlns="http://www.w3.org/2000/svg">
<g clip-path="url(#clip0_199_2068)">
<mask id="path-1-outside-1_199_2068" maskUnits="userSpaceOnUse" x="69.7278" y="23" width="117" height="21" fill="black">
<rect fill="white" x="69.7278" y="23" width="117" height="21"/>
<path d="M85.1621 32.8445C86.196 33.2281 86.9965 33.7868 87.5635 34.5205C88.1305 35.2543 88.414 36.1382 88.414 37.1721C88.414 38.7064 87.7803 39.8987 86.5129 40.7493C85.2454 41.5831 83.411 42 81.0096 42H71.1537V24.4895H80.5093C82.844 24.4895 84.6034 24.9065 85.7874 25.7403C86.9882 26.5741 87.5885 27.6831 87.5885 29.0673C87.5885 29.8844 87.3801 30.6182 86.9631 31.2686C86.5629 31.919 85.9625 32.4443 85.1621 32.8445ZM76.9572 28.617V31.2186H79.7088C80.9929 31.2186 81.635 30.785 81.635 29.9178C81.635 29.0506 80.9929 28.617 79.7088 28.617H76.9572ZM80.5093 37.8725C81.8101 37.8725 82.4605 37.4139 82.4605 36.4967C82.4605 35.5795 81.8101 35.1209 80.5093 35.1209H76.9572V37.8725H80.5093ZM97.0301 42.4002C95.5792 42.4002 94.1617 42.2418 92.7776 41.925C91.4101 41.5914 90.2844 41.1495 89.4005 40.5992L91.3017 36.2966C92.1355 36.7802 93.0694 37.1721 94.1033 37.4723C95.1373 37.7558 96.1296 37.8975 97.0801 37.8975C97.8973 37.8975 98.481 37.8225 98.8312 37.6724C99.1814 37.5056 99.3565 37.2638 99.3565 36.947C99.3565 36.5801 99.123 36.3049 98.6561 36.1215C98.2058 35.938 97.4553 35.7379 96.4047 35.5211C95.0539 35.2376 93.9282 34.9374 93.0277 34.6206C92.1272 34.2871 91.3434 33.7534 90.6763 33.0196C90.0092 32.2692 89.6757 31.2602 89.6757 29.9928C89.6757 28.8922 89.9842 27.8916 90.6013 26.991C91.2183 26.0905 92.1355 25.3817 93.3529 24.8648C94.587 24.3478 96.0795 24.0893 97.8306 24.0893C99.0313 24.0893 100.207 24.2227 101.358 24.4895C102.525 24.7397 103.551 25.1149 104.435 25.6152L102.658 29.8928C100.941 29.0256 99.3148 28.592 97.7805 28.592C96.263 28.592 95.5042 28.9589 95.5042 29.6926C95.5042 30.0429 95.7293 30.3097 96.1796 30.4931C96.6299 30.6599 97.372 30.8433 98.4059 31.0435C99.74 31.2936 100.866 31.5854 101.783 31.919C102.7 32.2358 103.492 32.7611 104.159 33.4949C104.843 34.2287 105.185 35.2293 105.185 36.4967C105.185 37.5974 104.876 38.598 104.259 39.4985C103.642 40.3824 102.717 41.0911 101.483 41.6248C100.265 42.1418 98.7811 42.4002 97.0301 42.4002ZM115.997 42.4002C114.146 42.4002 112.478 42.0167 110.994 41.2496C109.51 40.4657 108.343 39.3818 107.492 37.9976C106.658 36.5968 106.241 35.0125 106.241 33.2448C106.241 31.477 106.658 29.9011 107.492 28.5169C108.343 27.1161 109.51 26.0321 110.994 25.265C112.478 24.4812 114.146 24.0893 115.997 24.0893C117.698 24.0893 119.216 24.3895 120.55 24.9898C121.884 25.5902 122.985 26.4574 123.852 27.5914L120.125 30.9184C119.041 29.5509 117.765 28.8672 116.297 28.8672C115.063 28.8672 114.071 29.2674 113.32 30.0679C112.57 30.8517 112.195 31.9106 112.195 33.2448C112.195 34.5789 112.57 35.6462 113.32 36.4467C114.071 37.2305 115.063 37.6224 116.297 37.6224C117.765 37.6224 119.041 36.9386 120.125 35.5712L123.852 38.8981C122.985 40.0322 121.884 40.8993 120.55 41.4997C119.216 42.1001 117.698 42.4002 115.997 42.4002ZM130.246 42.2501C129.078 42.2501 127.928 42.1251 126.794 41.8749C125.66 41.6248 124.743 41.2996 124.042 40.8993L125.593 37.1721C126.227 37.5557 126.977 37.8559 127.844 38.0727C128.712 38.2894 129.554 38.3978 130.371 38.3978C131.021 38.3978 131.472 38.3478 131.722 38.2478C131.989 38.131 132.122 37.9643 132.122 37.7475C132.122 37.5307 131.955 37.3806 131.622 37.2972C131.305 37.2138 130.779 37.1304 130.046 37.047C128.928 36.9136 127.978 36.7469 127.194 36.5467C126.41 36.3299 125.718 35.9214 125.118 35.321C124.534 34.7207 124.242 33.8618 124.242 32.7445C124.242 31.8606 124.509 31.0685 125.043 30.368C125.576 29.6676 126.369 29.109 127.419 28.692C128.486 28.2751 129.762 28.0667 131.246 28.0667C132.28 28.0667 133.289 28.1667 134.273 28.3669C135.274 28.5503 136.124 28.8255 136.825 29.1923L135.274 32.9196C134.073 32.2525 132.756 31.919 131.321 31.919C130.087 31.919 129.47 32.1358 129.47 32.5694C129.47 32.7862 129.637 32.9446 129.971 33.0446C130.304 33.128 130.83 33.2114 131.547 33.2948C132.664 33.4282 133.606 33.6033 134.373 33.8201C135.157 34.0369 135.841 34.4455 136.425 35.0458C137.025 35.6462 137.325 36.505 137.325 37.6224C137.325 38.4729 137.058 39.2484 136.525 39.9488C135.991 40.6492 135.19 41.2079 134.123 41.6248C133.056 42.0417 131.763 42.2501 130.246 42.2501ZM146.391 42.2501C144.84 42.2501 143.448 41.95 142.214 41.3496C140.996 40.7493 140.037 39.9071 139.337 38.8231C138.653 37.7391 138.311 36.5134 138.311 35.1459C138.311 33.7784 138.653 32.561 139.337 31.4937C140.037 30.4097 140.996 29.5676 142.214 28.9672C143.448 28.3669 144.84 28.0667 146.391 28.0667C148.059 28.0667 149.485 28.4252 150.669 29.1423C151.853 29.8594 152.67 30.8517 153.12 32.1191L148.743 34.2704C148.209 33.0697 147.417 32.4693 146.366 32.4693C145.699 32.4693 145.14 32.7028 144.69 33.1697C144.257 33.6367 144.04 34.2954 144.04 35.1459C144.04 36.0131 144.257 36.6802 144.69 37.1471C145.14 37.614 145.699 37.8475 146.366 37.8475C147.417 37.8475 148.209 37.2472 148.743 36.0464L153.12 38.1977C152.67 39.4652 151.853 40.4574 150.669 41.1745C149.485 41.8916 148.059 42.2501 146.391 42.2501ZM160.556 28.0667C162.957 28.0667 164.791 28.6087 166.059 29.6926C167.326 30.76 167.96 32.4109 167.96 34.6456V42H162.707V40.1989C162.056 41.5664 160.764 42.2501 158.83 42.2501C157.746 42.2501 156.82 42.0667 156.053 41.6998C155.302 41.3163 154.727 40.8076 154.327 40.1739C153.943 39.5235 153.751 38.7981 153.751 37.9976C153.751 36.6468 154.268 35.6212 155.302 34.9208C156.336 34.2204 157.904 33.8701 160.005 33.8701H162.282C162.098 32.8028 161.239 32.2692 159.705 32.2692C159.088 32.2692 158.463 32.3692 157.829 32.5694C157.195 32.7528 156.653 33.0113 156.203 33.3448L154.402 29.6176C155.186 29.134 156.128 28.7588 157.229 28.4919C158.346 28.2084 159.455 28.0667 160.556 28.0667ZM160.531 38.8481C160.931 38.8481 161.289 38.7397 161.606 38.5229C161.923 38.3061 162.157 37.9809 162.307 37.5473V36.5968H160.906C159.755 36.5968 159.18 36.9803 159.18 37.7475C159.18 38.0643 159.296 38.3311 159.53 38.5479C159.78 38.7481 160.114 38.8481 160.531 38.8481ZM179.909 28.0667C181.593 28.0667 182.944 28.5753 183.961 29.5926C184.995 30.6099 185.512 32.1441 185.512 34.1953V42H179.859V35.1709C179.859 33.6033 179.3 32.8195 178.183 32.8195C177.549 32.8195 177.032 33.0446 176.632 33.4949C176.248 33.9285 176.057 34.6206 176.057 35.5712V42H170.403V28.3168H175.781V29.6676C176.315 29.134 176.932 28.7337 177.633 28.4669C178.333 28.2001 179.092 28.0667 179.909 28.0667Z"/>
</mask>
<path d="M85.1621 32.8445C86.196 33.2281 86.9965 33.7868 87.5635 34.5205C88.1305 35.2543 88.414 36.1382 88.414 37.1721C88.414 38.7064 87.7803 39.8987 86.5129 40.7493C85.2454 41.5831 83.411 42 81.0096 42H71.1537V24.4895H80.5093C82.844 24.4895 84.6034 24.9065 85.7874 25.7403C86.9882 26.5741 87.5885 27.6831 87.5885 29.0673C87.5885 29.8844 87.3801 30.6182 86.9631 31.2686C86.5629 31.919 85.9625 32.4443 85.1621 32.8445ZM76.9572 28.617V31.2186H79.7088C80.9929 31.2186 81.635 30.785 81.635 29.9178C81.635 29.0506 80.9929 28.617 79.7088 28.617H76.9572ZM80.5093 37.8725C81.8101 37.8725 82.4605 37.4139 82.4605 36.4967C82.4605 35.5795 81.8101 35.1209 80.5093 35.1209H76.9572V37.8725H80.5093ZM97.0301 42.4002C95.5792 42.4002 94.1617 42.2418 92.7776 41.925C91.4101 41.5914 90.2844 41.1495 89.4005 40.5992L91.3017 36.2966C92.1355 36.7802 93.0694 37.1721 94.1033 37.4723C95.1373 37.7558 96.1296 37.8975 97.0801 37.8975C97.8973 37.8975 98.481 37.8225 98.8312 37.6724C99.1814 37.5056 99.3565 37.2638 99.3565 36.947C99.3565 36.5801 99.123 36.3049 98.6561 36.1215C98.2058 35.938 97.4553 35.7379 96.4047 35.5211C95.0539 35.2376 93.9282 34.9374 93.0277 34.6206C92.1272 34.2871 91.3434 33.7534 90.6763 33.0196C90.0092 32.2692 89.6757 31.2602 89.6757 29.9928C89.6757 28.8922 89.9842 27.8916 90.6013 26.991C91.2183 26.0905 92.1355 25.3817 93.3529 24.8648C94.587 24.3478 96.0795 24.0893 97.8306 24.0893C99.0313 24.0893 100.207 24.2227 101.358 24.4895C102.525 24.7397 103.551 25.1149 104.435 25.6152L102.658 29.8928C100.941 29.0256 99.3148 28.592 97.7805 28.592C96.263 28.592 95.5042 28.9589 95.5042 29.6926C95.5042 30.0429 95.7293 30.3097 96.1796 30.4931C96.6299 30.6599 97.372 30.8433 98.4059 31.0435C99.74 31.2936 100.866 31.5854 101.783 31.919C102.7 32.2358 103.492 32.7611 104.159 33.4949C104.843 34.2287 105.185 35.2293 105.185 36.4967C105.185 37.5974 104.876 38.598 104.259 39.4985C103.642 40.3824 102.717 41.0911 101.483 41.6248C100.265 42.1418 98.7811 42.4002 97.0301 42.4002ZM115.997 42.4002C114.146 42.4002 112.478 42.0167 110.994 41.2496C109.51 40.4657 108.343 39.3818 107.492 37.9976C106.658 36.5968 106.241 35.0125 106.241 33.2448C106.241 31.477 106.658 29.9011 107.492 28.5169C108.343 27.1161 109.51 26.0321 110.994 25.265C112.478 24.4812 114.146 24.0893 115.997 24.0893C117.698 24.0893 119.216 24.3895 120.55 24.9898C121.884 25.5902 122.985 26.4574 123.852 27.5914L120.125 30.9184C119.041 29.5509 117.765 28.8672 116.297 28.8672C115.063 28.8672 114.071 29.2674 113.32 30.0679C112.57 30.8517 112.195 31.9106 112.195 33.2448C112.195 34.5789 112.57 35.6462 113.32 36.4467C114.071 37.2305 115.063 37.6224 116.297 37.6224C117.765 37.6224 119.041 36.9386 120.125 35.5712L123.852 38.8981C122.985 40.0322 121.884 40.8993 120.55 41.4997C119.216 42.1001 117.698 42.4002 115.997 42.4002ZM130.246 42.2501C129.078 42.2501 127.928 42.1251 126.794 41.8749C125.66 41.6248 124.743 41.2996 124.042 40.8993L125.593 37.1721C126.227 37.5557 126.977 37.8559 127.844 38.0727C128.712 38.2894 129.554 38.3978 130.371 38.3978C131.021 38.3978 131.472 38.3478 131.722 38.2478C131.989 38.131 132.122 37.9643 132.122 37.7475C132.122 37.5307 131.955 37.3806 131.622 37.2972C131.305 37.2138 130.779 37.1304 130.046 37.047C128.928 36.9136 127.978 36.7469 127.194 36.5467C126.41 36.3299 125.718 35.9214 125.118 35.321C124.534 34.7207 124.242 33.8618 124.242 32.7445C124.242 31.8606 124.509 31.0685 125.043 30.368C125.576 29.6676 126.369 29.109 127.419 28.692C128.486 28.2751 129.762 28.0667 131.246 28.0667C132.28 28.0667 133.289 28.1667 134.273 28.3669C135.274 28.5503 136.124 28.8255 136.825 29.1923L135.274 32.9196C134.073 32.2525 132.756 31.919 131.321 31.919C130.087 31.919 129.47 32.1358 129.47 32.5694C129.47 32.7862 129.637 32.9446 129.971 33.0446C130.304 33.128 130.83 33.2114 131.547 33.2948C132.664 33.4282 133.606 33.6033 134.373 33.8201C135.157 34.0369 135.841 34.4455 136.425 35.0458C137.025 35.6462 137.325 36.505 137.325 37.6224C137.325 38.4729 137.058 39.2484 136.525 39.9488C135.991 40.6492 135.19 41.2079 134.123 41.6248C133.056 42.0417 131.763 42.2501 130.246 42.2501ZM146.391 42.2501C144.84 42.2501 143.448 41.95 142.214 41.3496C140.996 40.7493 140.037 39.9071 139.337 38.8231C138.653 37.7391 138.311 36.5134 138.311 35.1459C138.311 33.7784 138.653 32.561 139.337 31.4937C140.037 30.4097 140.996 29.5676 142.214 28.9672C143.448 28.3669 144.84 28.0667 146.391 28.0667C148.059 28.0667 149.485 28.4252 150.669 29.1423C151.853 29.8594 152.67 30.8517 153.12 32.1191L148.743 34.2704C148.209 33.0697 147.417 32.4693 146.366 32.4693C145.699 32.4693 145.14 32.7028 144.69 33.1697C144.257 33.6367 144.04 34.2954 144.04 35.1459C144.04 36.0131 144.257 36.6802 144.69 37.1471C145.14 37.614 145.699 37.8475 146.366 37.8475C147.417 37.8475 148.209 37.2472 148.743 36.0464L153.12 38.1977C152.67 39.4652 151.853 40.4574 150.669 41.1745C149.485 41.8916 148.059 42.2501 146.391 42.2501ZM160.556 28.0667C162.957 28.0667 164.791 28.6087 166.059 29.6926C167.326 30.76 167.96 32.4109 167.96 34.6456V42H162.707V40.1989C162.056 41.5664 160.764 42.2501 158.83 42.2501C157.746 42.2501 156.82 42.0667 156.053 41.6998C155.302 41.3163 154.727 40.8076 154.327 40.1739C153.943 39.5235 153.751 38.7981 153.751 37.9976C153.751 36.6468 154.268 35.6212 155.302 34.9208C156.336 34.2204 157.904 33.8701 160.005 33.8701H162.282C162.098 32.8028 161.239 32.2692 159.705 32.2692C159.088 32.2692 158.463 32.3692 157.829 32.5694C157.195 32.7528 156.653 33.0113 156.203 33.3448L154.402 29.6176C155.186 29.134 156.128 28.7588 157.229 28.4919C158.346 28.2084 159.455 28.0667 160.556 28.0667ZM160.531 38.8481C160.931 38.8481 161.289 38.7397 161.606 38.5229C161.923 38.3061 162.157 37.9809 162.307 37.5473V36.5968H160.906C159.755 36.5968 159.18 36.9803 159.18 37.7475C159.18 38.0643 159.296 38.3311 159.53 38.5479C159.78 38.7481 160.114 38.8481 160.531 38.8481ZM179.909 28.0667C181.593 28.0667 182.944 28.5753 183.961 29.5926C184.995 30.6099 185.512 32.1441 185.512 34.1953V42H179.859V35.1709C179.859 33.6033 179.3 32.8195 178.183 32.8195C177.549 32.8195 177.032 33.0446 176.632 33.4949C176.248 33.9285 176.057 34.6206 176.057 35.5712V42H170.403V28.3168H175.781V29.6676C176.315 29.134 176.932 28.7337 177.633 28.4669C178.333 28.2001 179.092 28.0667 179.909 28.0667Z" fill="white"/>
<path d="M85.1621 32.8445L84.8722 32.2649L83.5366 32.9327L84.9367 33.4521L85.1621 32.8445ZM87.5635 34.5205L88.0763 34.1243L88.0763 34.1243L87.5635 34.5205ZM86.5129 40.7493L86.8691 41.2907L86.874 41.2874L86.5129 40.7493ZM71.1537 42H70.5056V42.6481H71.1537V42ZM71.1537 24.4895V23.8415H70.5056V24.4895H71.1537ZM85.7874 25.7403L85.4143 26.2701L85.4178 26.2726L85.7874 25.7403ZM86.9631 31.2686L86.4175 30.9188L86.4112 30.9289L86.9631 31.2686ZM76.9572 28.617V27.9689H76.3091V28.617H76.9572ZM76.9572 31.2186H76.3091V31.8666H76.9572V31.2186ZM76.9572 35.1209V34.4728H76.3091V35.1209H76.9572ZM76.9572 37.8725H76.3091V38.5206H76.9572V37.8725ZM84.9367 33.4521C85.8787 33.8016 86.5708 34.2958 87.0507 34.9168L88.0763 34.1243C87.4221 33.2777 86.5134 32.6546 85.3875 32.2369L84.9367 33.4521ZM87.0507 34.9168C87.5199 35.524 87.766 36.2642 87.766 37.1721H89.0621C89.0621 36.0122 88.7411 34.9846 88.0763 34.1243L87.0507 34.9168ZM87.766 37.1721C87.766 38.4917 87.2387 39.4817 86.1518 40.2111L86.874 41.2874C88.3219 40.3158 89.0621 38.921 89.0621 37.1721H87.766ZM86.1567 40.2079C85.0401 40.9424 83.3521 41.3519 81.0096 41.3519V42.6481C83.4699 42.6481 85.4508 42.2237 86.8691 41.2906L86.1567 40.2079ZM81.0096 41.3519H71.1537V42.6481H81.0096V41.3519ZM71.8018 42V24.4895H70.5056V42H71.8018ZM71.1537 25.1376H80.5093V23.8415H71.1537V25.1376ZM80.5093 25.1376C82.7854 25.1376 84.3879 25.5473 85.4143 26.2701L86.1606 25.2104C84.8189 24.2656 82.9026 23.8415 80.5093 23.8415V25.1376ZM85.4178 26.2726C86.4557 26.9933 86.9405 27.9092 86.9405 29.0673H88.2366C88.2366 27.4571 87.5206 26.1549 86.1571 25.208L85.4178 26.2726ZM86.9405 29.0673C86.9405 29.768 86.7636 30.379 86.4176 30.9189L87.5087 31.6183C87.9965 30.8574 88.2366 30.0009 88.2366 29.0673H86.9405ZM86.4112 30.9289C86.0845 31.4599 85.5836 31.9092 84.8722 32.2649L85.4519 33.4242C86.3415 32.9793 87.0413 32.3781 87.5151 31.6082L86.4112 30.9289ZM76.3091 28.617V31.2186H77.6052V28.617H76.3091ZM76.9572 31.8666H79.7088V30.5705H76.9572V31.8666ZM79.7088 31.8666C80.4035 31.8666 81.0384 31.753 81.5161 31.4304C82.0391 31.0772 82.283 30.5366 82.283 29.9178H80.9869C80.9869 30.1661 80.9098 30.2759 80.7907 30.3563C80.6264 30.4673 80.2982 30.5705 79.7088 30.5705V31.8666ZM82.283 29.9178C82.283 29.299 82.0391 28.7583 81.5161 28.4051C81.0384 28.0825 80.4035 27.9689 79.7088 27.9689V29.2651C80.2982 29.2651 80.6264 29.3683 80.7907 29.4793C80.9098 29.5596 80.9869 29.6694 80.9869 29.9178H82.283ZM79.7088 27.9689H76.9572V29.2651H79.7088V27.9689ZM80.5093 38.5206C81.2161 38.5206 81.862 38.3996 82.3461 38.0582C82.8717 37.6876 83.1085 37.129 83.1085 36.4967H81.8124C81.8124 36.7816 81.724 36.9109 81.5992 36.9989C81.4329 37.1162 81.1033 37.2245 80.5093 37.2245V38.5206ZM83.1085 36.4967C83.1085 35.8644 82.8717 35.3058 82.3461 34.9352C81.862 34.5939 81.2161 34.4728 80.5093 34.4728V35.7689C81.1033 35.7689 81.4329 35.8772 81.5992 35.9945C81.724 36.0825 81.8124 36.2118 81.8124 36.4967H83.1085ZM80.5093 34.4728H76.9572V35.7689H80.5093V34.4728ZM76.3091 35.1209V37.8725H77.6052V35.1209H76.3091ZM76.9572 38.5206H80.5093V37.2245H76.9572V38.5206ZM92.7776 41.925L92.624 42.5546L92.6329 42.5567L92.7776 41.925ZM89.4005 40.5992L88.8078 40.3372L88.5804 40.8519L89.058 41.1493L89.4005 40.5992ZM91.3017 36.2966L91.6268 35.736L91.0012 35.3732L90.7089 36.0347L91.3017 36.2966ZM94.1033 37.4723L93.9226 38.0947L93.932 38.0973L94.1033 37.4723ZM98.8312 37.6724L99.0865 38.2681L99.0982 38.263L99.1098 38.2575L98.8312 37.6724ZM98.6561 36.1215L98.4115 36.7217L98.4191 36.7247L98.6561 36.1215ZM96.4047 35.5211L96.2716 36.1554L96.2738 36.1558L96.4047 35.5211ZM93.0277 34.6206L92.8026 35.2284L92.8126 35.2319L93.0277 34.6206ZM90.6763 33.0196L90.1919 33.4502L90.1968 33.4556L90.6763 33.0196ZM90.6013 26.991L91.1359 27.3573L91.1359 27.3573L90.6013 26.991ZM93.3529 24.8648L93.1025 24.267L93.0996 24.2683L93.3529 24.8648ZM101.358 24.4895L101.211 25.1209L101.222 25.1232L101.358 24.4895ZM104.435 25.6152L105.033 25.8637L105.253 25.3339L104.754 25.0512L104.435 25.6152ZM102.658 29.8928L102.366 30.4713L102.989 30.7858L103.257 30.1413L102.658 29.8928ZM96.1796 30.4931L95.9351 31.0933L95.9447 31.0972L95.9545 31.1008L96.1796 30.4931ZM98.4059 31.0435L98.2828 31.6797L98.2865 31.6804L98.4059 31.0435ZM101.783 31.919L101.561 32.5281L101.571 32.5315L101.783 31.919ZM104.159 33.4949L103.68 33.9309L103.685 33.9367L104.159 33.4949ZM104.259 39.4985L104.791 39.8695L104.794 39.8648L104.259 39.4985ZM101.483 41.6248L101.736 42.2213L101.74 42.2196L101.483 41.6248ZM97.0301 41.7522C95.6268 41.7522 94.2579 41.599 92.9222 41.2932L92.6329 42.5567C94.0656 42.8846 95.5316 43.0483 97.0301 43.0483V41.7522ZM92.9311 41.2954C91.6085 40.9728 90.5521 40.5528 89.7431 40.049L89.058 41.1493C90.0167 41.7462 91.2116 42.2101 92.624 42.5546L92.9311 41.2954ZM89.9933 40.8611L91.8944 36.5585L90.7089 36.0347L88.8078 40.3372L89.9933 40.8611ZM90.9765 36.8572C91.8608 37.37 92.844 37.7815 93.9227 38.0947L94.284 36.8499C93.2948 36.5627 92.4102 36.1904 91.6268 35.736L90.9765 36.8572ZM93.932 38.0973C95.0148 38.3942 96.0648 38.5456 97.0801 38.5456V37.2495C96.1943 37.2495 95.2598 37.1174 94.2747 36.8473L93.932 38.0973ZM97.0801 38.5456C97.9074 38.5456 98.6061 38.4739 99.0865 38.2681L98.5759 37.0768C98.3558 37.1711 97.8872 37.2495 97.0801 37.2495V38.5456ZM99.1098 38.2575C99.3544 38.141 99.5826 37.9773 99.75 37.7461C99.9227 37.5076 100.005 37.233 100.005 36.947H98.7084C98.7084 36.9659 98.7059 36.9746 98.7053 36.9767C98.7047 36.9785 98.7039 36.9809 98.7003 36.9859C98.6926 36.9965 98.6582 37.037 98.5526 37.0873L99.1098 38.2575ZM100.005 36.947C100.005 36.6128 99.8934 36.303 99.6755 36.0462C99.4678 35.8014 99.1893 35.6347 98.893 35.5183L98.4191 36.7247C98.5898 36.7917 98.6614 36.8543 98.6872 36.8847C98.6987 36.8982 98.7022 36.9065 98.7037 36.9105C98.7052 36.9147 98.7084 36.9252 98.7084 36.947H100.005ZM98.9006 35.5213C98.391 35.3137 97.5902 35.104 96.5357 34.8864L96.2738 36.1558C97.3205 36.3718 98.0206 36.5624 98.4116 36.7216L98.9006 35.5213ZM96.5378 34.8869C95.2037 34.6069 94.1076 34.3136 93.2428 34.0093L92.8126 35.2319C93.7488 35.5613 94.9041 35.8684 96.2716 36.1554L96.5378 34.8869ZM93.2528 34.0129C92.4528 33.7166 91.7554 33.2433 91.1558 32.5837L90.1968 33.4556C90.9313 34.2636 91.8015 34.8575 92.8026 35.2283L93.2528 34.0129ZM91.1607 32.5891C90.6245 31.9859 90.3238 31.1446 90.3238 29.9928H89.0276C89.0276 31.3759 89.3939 32.5524 90.1919 33.4502L91.1607 32.5891ZM90.3238 29.9928C90.3238 29.0218 90.5934 28.1491 91.1359 27.3573L90.0667 26.6247C89.3751 27.6341 89.0276 28.7626 89.0276 29.9928H90.3238ZM91.1359 27.3573C91.6695 26.5785 92.4784 25.9402 93.6062 25.4613L93.0996 24.2683C91.7926 24.8233 90.7671 25.6024 90.0667 26.6247L91.1359 27.3573ZM93.6033 25.4625C94.7377 24.9873 96.1402 24.7374 97.8306 24.7374V23.4412C96.0188 23.4412 94.4363 23.7083 93.1025 24.267L93.6033 25.4625ZM97.8306 24.7374C98.9828 24.7374 100.109 24.8653 101.211 25.1208L101.504 23.8582C100.305 23.5801 99.0797 23.4412 97.8306 23.4412V24.7374ZM101.222 25.1232C102.336 25.3619 103.298 25.7164 104.115 26.1792L104.754 25.0512C103.804 24.5134 102.714 24.1174 101.493 23.8559L101.222 25.1232ZM103.836 25.3667L102.06 29.6443L103.257 30.1413L105.033 25.8637L103.836 25.3667ZM102.951 29.3143C101.165 28.4127 99.4387 27.9439 97.7805 27.9439V29.24C99.1908 29.24 100.717 29.6385 102.366 30.4713L102.951 29.3143ZM97.7805 27.9439C96.9902 27.9439 96.3032 28.0361 95.7912 28.2837C95.5263 28.4118 95.2861 28.5921 95.1129 28.8433C94.9362 29.0996 94.8561 29.3913 94.8561 29.6926H96.1522C96.1522 29.6272 96.167 29.5978 96.18 29.5789C96.1966 29.5549 96.2408 29.506 96.3554 29.4506C96.6021 29.3313 97.0533 29.24 97.7805 29.24V27.9439ZM94.8561 29.6926C94.8561 30.0202 94.9662 30.3226 95.1777 30.5733C95.3792 30.8121 95.6489 30.9767 95.9351 31.0933L96.4241 29.893C96.2601 29.8261 96.192 29.7656 96.1683 29.7375C96.158 29.7252 96.1557 29.7189 96.1552 29.7175C96.1547 29.7162 96.1522 29.7095 96.1522 29.6926H94.8561ZM95.9545 31.1008C96.4582 31.2874 97.245 31.4788 98.2828 31.6797L98.5291 30.4072C97.4989 30.2078 96.8016 30.0324 96.4047 29.8854L95.9545 31.1008ZM98.2865 31.6804C99.5982 31.9264 100.687 32.2102 101.561 32.528L102.004 31.3099C101.044 30.9607 99.8819 30.6608 98.5253 30.4065L98.2865 31.6804ZM101.571 32.5315C102.384 32.8121 103.084 33.2756 103.68 33.9308L104.639 33.059C103.9 32.2467 103.017 31.6596 101.995 31.3064L101.571 32.5315ZM103.685 33.9367C104.23 34.5212 104.537 35.3482 104.537 36.4967H105.833C105.833 35.1103 105.456 33.9362 104.633 33.0531L103.685 33.9367ZM104.537 36.4967C104.537 37.4678 104.267 38.3405 103.725 39.1322L104.794 39.8648C105.486 38.8555 105.833 37.727 105.833 36.4967H104.537ZM103.728 39.1275C103.195 39.8911 102.376 40.5323 101.226 41.03L101.74 42.2196C103.057 41.65 104.09 40.8737 104.791 39.8695L103.728 39.1275ZM101.229 41.0283C100.114 41.5021 98.7208 41.7522 97.0301 41.7522V43.0483C98.8414 43.0483 100.417 42.7814 101.736 42.2213L101.229 41.0283ZM110.994 41.2496L110.691 41.8226L110.697 41.8253L110.994 41.2496ZM107.492 37.9976L106.935 38.3291L106.94 38.3369L107.492 37.9976ZM107.492 28.5169L106.938 28.1806L106.937 28.1825L107.492 28.5169ZM110.994 25.265L111.292 25.8407L111.297 25.8381L110.994 25.265ZM120.55 24.9898L120.284 25.5808L120.284 25.5808L120.55 24.9898ZM123.852 27.5914L124.283 28.0749L124.731 27.6749L124.367 27.1977L123.852 27.5914ZM120.125 30.9184L119.617 31.3209L120.044 31.8594L120.556 31.4018L120.125 30.9184ZM113.32 30.0679L113.789 30.5161L113.793 30.5111L113.32 30.0679ZM113.32 36.4467L112.848 36.8899L112.852 36.8949L113.32 36.4467ZM120.125 35.5712L120.556 35.0877L120.044 34.6301L119.617 35.1686L120.125 35.5712ZM123.852 38.8981L124.367 39.2918L124.731 38.8147L124.283 38.4147L123.852 38.8981ZM120.55 41.4997L120.284 40.9087L120.284 40.9087L120.55 41.4997ZM115.997 41.7522C114.238 41.7522 112.674 41.3885 111.292 40.6738L110.697 41.8253C112.282 42.6449 114.054 43.0483 115.997 43.0483V41.7522ZM111.297 40.6765C109.912 39.945 108.832 38.9403 108.044 37.6583L106.94 38.3369C107.853 39.8233 109.108 40.9865 110.691 41.8226L111.297 40.6765ZM108.049 37.6661C107.28 36.374 106.889 34.906 106.889 33.2448H105.593C105.593 35.119 106.037 36.8196 106.935 38.3291L108.049 37.6661ZM106.889 33.2448C106.889 31.5835 107.28 30.1252 108.047 28.8513L106.937 28.1825C106.037 29.677 105.593 31.3706 105.593 33.2448H106.889ZM108.046 28.8533C108.833 27.5563 109.911 26.5542 111.292 25.8407L110.697 24.6893C109.109 25.51 107.852 26.6759 106.938 28.1806L108.046 28.8533ZM111.297 25.8381C112.678 25.1084 114.24 24.7374 115.997 24.7374V23.4412C114.052 23.4412 112.278 23.854 110.691 24.6919L111.297 25.8381ZM115.997 24.7374C117.621 24.7374 119.046 25.0237 120.284 25.5808L120.816 24.3989C119.385 23.7552 117.775 23.4412 115.997 23.4412V24.7374ZM120.284 25.5808C121.523 26.1382 122.537 26.9386 123.337 27.9851L124.367 27.1977C123.432 25.9761 122.245 25.0422 120.816 24.3989L120.284 25.5808ZM123.42 27.1079L119.693 30.4349L120.556 31.4018L124.283 28.0749L123.42 27.1079ZM120.632 30.5158C119.451 29.026 118.001 28.2191 116.297 28.2191V29.5152C117.529 29.5152 118.63 30.0758 119.617 31.3209L120.632 30.5158ZM116.297 28.2191C114.909 28.2191 113.737 28.6765 112.848 29.6246L113.793 30.5111C114.405 29.8583 115.218 29.5152 116.297 29.5152V28.2191ZM112.852 29.6197C111.961 30.5505 111.547 31.7841 111.547 33.2448H112.843C112.843 32.0372 113.179 31.1529 113.789 30.516L112.852 29.6197ZM111.547 33.2448C111.547 34.706 111.961 35.9445 112.848 36.8899L113.793 36.0034C113.179 35.3479 112.843 34.4518 112.843 33.2448H111.547ZM112.852 36.8949C113.742 37.8243 114.913 38.2704 116.297 38.2704V36.9743C115.213 36.9743 114.4 36.6366 113.789 35.9985L112.852 36.8949ZM116.297 38.2704C118.001 38.2704 119.451 37.4636 120.632 35.9737L119.617 35.1686C118.63 36.4137 117.529 36.9743 116.297 36.9743V38.2704ZM119.693 36.0546L123.42 39.3816L124.283 38.4147L120.556 35.0877L119.693 36.0546ZM123.337 38.5045C122.537 39.5509 121.523 40.3513 120.284 40.9087L120.816 42.0907C122.245 41.4473 123.432 40.5134 124.367 39.2918L123.337 38.5045ZM120.284 40.9087C119.046 41.4658 117.621 41.7522 115.997 41.7522V43.0483C117.775 43.0483 119.385 42.7343 120.816 42.0907L120.284 40.9087ZM126.794 41.8749L126.654 42.5078L126.794 41.8749ZM124.042 40.8993L123.444 40.6504L123.224 41.1783L123.721 41.462L124.042 40.8993ZM125.593 37.1721L125.929 36.6177L125.284 36.2276L124.995 36.9231L125.593 37.1721ZM127.844 38.0727L128.002 37.4439L128.002 37.4439L127.844 38.0727ZM131.722 38.2478L131.962 38.8495L131.972 38.8456L131.981 38.8415L131.722 38.2478ZM131.622 37.2972L131.457 37.924L131.464 37.9259L131.622 37.2972ZM130.046 37.047L129.969 37.6905L129.973 37.691L130.046 37.047ZM127.194 36.5467L127.021 37.1715L127.034 37.1747L127.194 36.5467ZM125.118 35.321L124.653 35.7728L124.66 35.7793L125.118 35.321ZM125.043 30.368L124.527 29.9753L124.527 29.9753L125.043 30.368ZM127.419 28.692L127.183 28.0884L127.18 28.0897L127.419 28.692ZM134.273 28.3669L134.144 29.002L134.156 29.0043L134.273 28.3669ZM136.825 29.1923L137.423 29.4413L137.651 28.8936L137.125 28.6183L136.825 29.1923ZM135.274 32.9196L134.959 33.4861L135.593 33.8385L135.872 33.1685L135.274 32.9196ZM129.971 33.0446L129.784 33.6654L129.799 33.6697L129.813 33.6734L129.971 33.0446ZM131.547 33.2948L131.623 32.6513L131.621 32.6511L131.547 33.2948ZM134.373 33.8201L134.197 34.4438L134.201 34.4447L134.373 33.8201ZM136.425 35.0458L135.96 35.4976L135.966 35.5041L136.425 35.0458ZM136.525 39.9488L137.04 40.3415L137.04 40.3415L136.525 39.9488ZM134.123 41.6248L134.359 42.2284L134.359 42.2284L134.123 41.6248ZM130.246 41.6021C129.125 41.6021 128.021 41.4821 126.933 41.2421L126.654 42.5078C127.834 42.7681 129.032 42.8982 130.246 42.8982V41.6021ZM126.933 41.2421C125.838 41.0004 124.988 40.6937 124.364 40.3367L123.721 41.462C124.497 41.9055 125.482 42.2492 126.654 42.5078L126.933 41.2421ZM124.64 41.1483L126.191 37.4211L124.995 36.9231L123.444 40.6504L124.64 41.1483ZM125.257 37.7265C125.957 38.1497 126.77 38.472 127.687 38.7014L128.002 37.4439C127.185 37.2397 126.497 36.9616 125.929 36.6177L125.257 37.7265ZM127.687 38.7014C128.601 38.9298 129.496 39.0459 130.371 39.0459V37.7498C129.611 37.7498 128.822 37.6491 128.002 37.4439L127.687 38.7014ZM130.371 39.0459C131.019 39.0459 131.584 39.0008 131.962 38.8495L131.481 37.6461C131.359 37.6949 131.023 37.7498 130.371 37.7498V39.0459ZM131.981 38.8415C132.387 38.6639 132.77 38.313 132.77 37.7475H131.474C131.474 37.7341 131.476 37.7128 131.485 37.6878C131.494 37.6626 131.506 37.6431 131.516 37.6303C131.534 37.6074 131.532 37.6232 131.462 37.654L131.981 38.8415ZM132.77 37.7475C132.77 37.4482 132.645 37.1837 132.43 36.9906C132.237 36.8169 131.998 36.7234 131.779 36.6685L131.464 37.9259C131.517 37.939 131.549 37.9515 131.566 37.9595C131.584 37.9676 131.579 37.9679 131.563 37.954C131.546 37.9386 131.521 37.9096 131.501 37.8655C131.48 37.8209 131.474 37.7786 131.474 37.7475H132.77ZM131.787 36.6705C131.421 36.5742 130.855 36.4868 130.119 36.4031L129.973 37.691C130.704 37.7741 131.189 37.8534 131.457 37.9239L131.787 36.6705ZM130.123 36.4036C129.023 36.2723 128.102 36.1098 127.354 35.9188L127.034 37.1747C127.853 37.3839 128.833 37.5549 129.969 37.6905L130.123 36.4036ZM127.367 35.9221C126.696 35.7365 126.101 35.3876 125.576 34.8628L124.66 35.7793C125.335 36.4552 126.125 36.9234 127.021 37.1713L127.367 35.9221ZM125.582 34.8693C125.151 34.4259 124.89 33.7511 124.89 32.7445H123.594C123.594 33.9725 123.917 35.0154 124.653 35.7728L125.582 34.8693ZM124.89 32.7445C124.89 32.0019 125.111 31.3479 125.558 30.7608L124.527 29.9753C123.907 30.789 123.594 31.7193 123.594 32.7445H124.89ZM125.558 30.7608C126.003 30.1772 126.687 29.68 127.658 29.2944L127.18 28.0897C126.051 28.5379 125.15 29.1581 124.527 29.9753L125.558 30.7608ZM127.655 29.2957C128.629 28.9154 129.82 28.7147 131.246 28.7147V27.4186C129.704 27.4186 128.344 27.6349 127.183 28.0884L127.655 29.2957ZM131.246 28.7147C132.238 28.7147 133.204 28.8107 134.144 29.0019L134.402 27.7318C133.375 27.5228 132.322 27.4186 131.246 27.4186V28.7147ZM134.156 29.0043C135.11 29.1792 135.895 29.437 136.524 29.7664L137.125 28.6183C136.354 28.2139 135.437 27.9214 134.39 27.7294L134.156 29.0043ZM136.226 28.9434L134.676 32.6706L135.872 33.1685L137.423 29.4413L136.226 28.9434ZM135.589 32.3531C134.287 31.6301 132.861 31.2709 131.321 31.2709V32.567C132.651 32.567 133.859 32.8749 134.959 33.4861L135.589 32.3531ZM131.321 31.2709C130.684 31.2709 130.133 31.3246 129.718 31.4702C129.508 31.5439 129.289 31.6566 129.116 31.8388C128.929 32.036 128.822 32.2889 128.822 32.5694H130.118C130.118 32.6331 130.089 32.6963 130.056 32.7309C130.038 32.7505 130.049 32.7276 130.148 32.693C130.351 32.6217 130.725 32.567 131.321 32.567V31.2709ZM128.822 32.5694C128.822 32.8672 128.946 33.1274 129.149 33.3206C129.334 33.4966 129.566 33.5998 129.784 33.6654L130.157 32.4239C130.103 32.4078 130.069 32.3931 130.049 32.3829C130.029 32.3727 130.03 32.3702 130.042 32.3809C130.054 32.3929 130.076 32.4181 130.094 32.4578C130.112 32.4984 130.118 32.5381 130.118 32.5694H128.822ZM129.813 33.6734C130.19 33.7675 130.75 33.8546 131.472 33.9385L131.621 32.6511C130.909 32.5682 130.418 32.4886 130.128 32.4159L129.813 33.6734ZM131.47 33.9383C132.566 34.0692 133.473 34.239 134.197 34.4437L134.55 33.1965C133.74 32.9676 132.762 32.7872 131.623 32.6513L131.47 33.9383ZM134.201 34.4447C134.87 34.6299 135.454 34.9772 135.96 35.4976L136.889 34.5941C136.228 33.9138 135.444 33.4439 134.546 33.1955L134.201 34.4447ZM135.966 35.5041C136.41 35.9481 136.677 36.6206 136.677 37.6224H137.973C137.973 36.3895 137.639 35.3443 136.883 34.5876L135.966 35.5041ZM136.677 37.6224C136.677 38.3257 136.46 38.9642 136.009 39.556L137.04 40.3415C137.656 39.5325 137.973 38.6201 137.973 37.6224H136.677ZM136.009 39.556C135.566 40.1373 134.877 40.6347 133.887 41.0211L134.359 42.2284C135.504 41.781 136.416 41.1611 137.04 40.3415L136.009 39.556ZM133.887 41.0211C132.915 41.4009 131.707 41.6021 130.246 41.6021V42.8982C131.819 42.8982 133.196 42.6825 134.359 42.2284L133.887 41.0211ZM142.214 41.3496L141.927 41.9308L141.93 41.9324L142.214 41.3496ZM139.337 38.8231L138.789 39.1689L138.793 39.1748L139.337 38.8231ZM139.337 31.4937L138.793 31.142L138.791 31.1441L139.337 31.4937ZM142.214 28.9672L141.93 28.3844L141.927 28.386L142.214 28.9672ZM150.669 29.1423L150.333 29.6966L150.333 29.6966L150.669 29.1423ZM153.12 32.1191L153.406 32.7007L153.924 32.4461L153.731 31.9021L153.12 32.1191ZM148.743 34.2704L148.15 34.5336L148.424 35.1491L149.028 34.852L148.743 34.2704ZM144.69 33.1697L144.224 32.7198L144.215 32.7288L144.69 33.1697ZM144.69 37.1471L144.215 37.5881L144.224 37.5969L144.69 37.1471ZM148.743 36.0464L149.028 35.4648L148.424 35.1678L148.15 35.7832L148.743 36.0464ZM153.12 38.1977L153.731 38.4147L153.924 37.8707L153.406 37.6161L153.12 38.1977ZM150.669 41.1745L151.005 41.7288L151.005 41.7288L150.669 41.1745ZM146.391 41.6021C144.926 41.6021 143.632 41.319 142.497 40.7669L141.93 41.9324C143.264 42.581 144.755 42.8982 146.391 42.8982V41.6021ZM142.5 40.7684C141.382 40.217 140.515 39.4518 139.881 38.4714L138.793 39.1748C139.56 40.3624 140.61 41.2815 141.927 41.9308L142.5 40.7684ZM139.885 38.4774C139.271 37.5039 138.959 36.3996 138.959 35.1459H137.663C137.663 36.6272 138.035 37.9743 138.789 39.1688L139.885 38.4774ZM138.959 35.1459C138.959 33.8921 139.271 32.798 139.883 31.8433L138.791 31.1441C138.035 32.3241 137.663 33.6647 137.663 35.1459H138.959ZM139.881 31.8454C140.515 30.865 141.382 30.0998 142.5 29.5484L141.927 28.386C140.61 29.0354 139.56 29.9545 138.793 31.142L139.881 31.8454ZM142.497 29.55C143.632 28.9979 144.926 28.7147 146.391 28.7147V27.4186C144.755 27.4186 143.264 27.7358 141.93 28.3845L142.497 29.55ZM146.391 28.7147C147.965 28.7147 149.269 29.0523 150.333 29.6966L151.005 28.588C149.7 27.7981 148.153 27.4186 146.391 27.4186V28.7147ZM150.333 29.6966C151.393 30.3388 152.111 31.2138 152.51 32.336L153.731 31.9021C153.229 30.4895 152.312 29.38 151.005 28.588L150.333 29.6966ZM152.834 31.5375L148.457 33.6888L149.028 34.852L153.406 32.7007L152.834 31.5375ZM149.335 34.0072C149.037 33.3379 148.647 32.7873 148.14 32.4031C147.624 32.0125 147.024 31.8212 146.366 31.8212V33.1174C146.759 33.1174 147.08 33.2263 147.357 33.4361C147.642 33.6522 147.914 34.0021 148.15 34.5336L149.335 34.0072ZM146.366 31.8212C145.529 31.8212 144.8 32.1223 144.224 32.7199L145.157 33.6196C145.481 33.2833 145.869 33.1174 146.366 33.1174V31.8212ZM144.215 32.7288C143.637 33.3511 143.392 34.1877 143.392 35.1459H144.688C144.688 34.4031 144.876 33.9223 145.165 33.6107L144.215 32.7288ZM143.392 35.1459C143.392 36.1168 143.635 36.9636 144.215 37.5881L145.165 36.7061C144.878 36.3967 144.688 35.9094 144.688 35.1459H143.392ZM144.224 37.5969C144.8 38.1945 145.529 38.4956 146.366 38.4956V37.1995C145.869 37.1995 145.481 37.0336 145.157 36.6973L144.224 37.5969ZM146.366 38.4956C147.024 38.4956 147.624 38.3043 148.14 37.9137C148.647 37.5295 149.037 36.9789 149.335 36.3096L148.15 35.7832C147.914 36.3147 147.642 36.6646 147.357 36.8808C147.08 37.0905 146.759 37.1995 146.366 37.1995V38.4956ZM148.457 36.6281L152.834 38.7793L153.406 37.6161L149.028 35.4648L148.457 36.6281ZM152.51 37.9808C152.111 39.103 151.393 39.978 150.333 40.6202L151.005 41.7288C152.312 40.9368 153.229 39.8273 153.731 38.4147L152.51 37.9808ZM150.333 40.6202C149.269 41.2645 147.965 41.6021 146.391 41.6021V42.8982C148.153 42.8982 149.7 42.5187 151.005 41.7288L150.333 40.6202ZM166.059 29.6926L165.638 30.1852L165.641 30.1884L166.059 29.6926ZM167.96 42V42.6481H168.608V42H167.96ZM162.707 42H162.059V42.6481H162.707V42ZM162.707 40.1989H163.355L162.122 39.9206L162.707 40.1989ZM156.053 41.6998L155.758 42.2769L155.766 42.2808L155.773 42.2845L156.053 41.6998ZM154.327 40.1739L153.769 40.5031L153.774 40.5116L153.779 40.52L154.327 40.1739ZM155.302 34.9208L154.939 34.3842L154.939 34.3842L155.302 34.9208ZM162.282 33.8701V34.5182H163.051L162.92 33.7604L162.282 33.8701ZM157.829 32.5694L158.009 33.1919L158.017 33.1897L158.024 33.1873L157.829 32.5694ZM156.203 33.3448L155.619 33.6268L155.96 34.3313L156.589 33.8656L156.203 33.3448ZM154.402 29.6176L154.062 29.0661L153.564 29.3731L153.818 29.8996L154.402 29.6176ZM157.229 28.4919L157.381 29.1218L157.388 29.1201L157.229 28.4919ZM161.606 38.5229L161.24 37.9881L161.24 37.9881L161.606 38.5229ZM162.307 37.5473L162.919 37.7593L162.955 37.6563V37.5473H162.307ZM162.307 36.5968H162.955V35.9487H162.307V36.5968ZM159.53 38.5479L159.089 39.0228L159.106 39.0391L159.125 39.054L159.53 38.5479ZM160.556 28.7147C162.869 28.7147 164.53 29.2377 165.638 30.1851L166.48 29.2001C165.053 27.9796 163.045 27.4186 160.556 27.4186V28.7147ZM165.641 30.1884C166.716 31.0934 167.312 32.5316 167.312 34.6456H168.608C168.608 32.2903 167.936 30.4265 166.476 29.1969L165.641 30.1884ZM167.312 34.6456V42H168.608V34.6456H167.312ZM167.96 41.3519H162.707V42.6481H167.96V41.3519ZM163.355 42V40.1989H162.059V42H163.355ZM162.122 39.9206C161.61 40.9957 160.597 41.6021 158.83 41.6021V42.8982C160.931 42.8982 162.503 42.1371 163.292 40.4773L162.122 39.9206ZM158.83 41.6021C157.817 41.6021 156.992 41.4305 156.332 41.1152L155.773 42.2845C156.648 42.7029 157.674 42.8982 158.83 42.8982V41.6021ZM156.348 41.1228C155.688 40.7854 155.205 40.3515 154.875 39.8279L153.779 40.52C154.249 41.2638 154.917 41.8471 155.758 42.2769L156.348 41.1228ZM154.885 39.8447C154.564 39.3001 154.4 38.6895 154.4 37.9976H153.103C153.103 38.9066 153.323 39.7469 153.769 40.5031L154.885 39.8447ZM154.4 37.9976C154.4 36.841 154.826 36.026 155.666 35.4573L154.939 34.3842C153.711 35.2164 153.103 36.4526 153.103 37.9976H154.4ZM155.666 35.4573C156.542 34.864 157.954 34.5182 160.005 34.5182V33.2221C157.854 33.2221 156.131 33.5767 154.939 34.3842L155.666 35.4573ZM160.005 34.5182H162.282V33.2221H160.005V34.5182ZM162.92 33.7604C162.8 33.0588 162.441 32.4911 161.842 32.119C161.27 31.7634 160.535 31.6211 159.705 31.6211V32.9172C160.409 32.9172 160.871 33.0418 161.158 33.2199C161.418 33.3814 161.58 33.6142 161.643 33.9799L162.92 33.7604ZM159.705 31.6211C159.017 31.6211 158.326 31.7329 157.634 31.9514L158.024 33.1873C158.6 33.0056 159.159 32.9172 159.705 32.9172V31.6211ZM157.649 31.9469C156.954 32.148 156.339 32.4373 155.817 32.8241L156.589 33.8656C156.967 33.5853 157.437 33.3576 158.009 33.1919L157.649 31.9469ZM156.786 33.0629L154.985 29.3356L153.818 29.8996L155.619 33.6268L156.786 33.0629ZM154.742 30.1691C155.456 29.7284 156.332 29.376 157.381 29.1217L157.076 27.8621C155.924 28.1415 154.915 28.5395 154.062 29.0661L154.742 30.1691ZM157.388 29.1201C158.456 28.8492 159.511 28.7147 160.556 28.7147V27.4186C159.399 27.4186 158.236 27.5677 157.069 27.8638L157.388 29.1201ZM160.531 39.4962C161.055 39.4962 161.543 39.3516 161.972 39.0578L161.24 37.9881C161.036 38.1279 160.806 38.2001 160.531 38.2001V39.4962ZM161.972 39.0578C162.425 38.7481 162.733 38.2978 162.919 37.7593L161.694 37.3354C161.58 37.664 161.421 37.8641 161.24 37.9881L161.972 39.0578ZM162.955 37.5473V36.5968H161.659V37.5473H162.955ZM162.307 35.9487H160.906V37.2448H162.307V35.9487ZM160.906 35.9487C160.279 35.9487 159.695 36.0495 159.252 36.3452C158.762 36.6719 158.532 37.1751 158.532 37.7475H159.828C159.828 37.5527 159.885 37.4806 159.971 37.4237C160.102 37.3358 160.382 37.2448 160.906 37.2448V35.9487ZM158.532 37.7475C158.532 38.2456 158.724 38.6842 159.089 39.0228L159.971 38.073C159.869 37.9781 159.828 37.883 159.828 37.7475H158.532ZM159.125 39.054C159.521 39.3706 160.011 39.4962 160.531 39.4962V38.2001C160.216 38.2001 160.039 38.1255 159.935 38.0419L159.125 39.054ZM183.961 29.5926L183.503 30.0508L183.507 30.0545L183.961 29.5926ZM185.512 42V42.6481H186.16V42H185.512ZM179.859 42H179.211V42.6481H179.859V42ZM176.632 33.4949L176.148 33.0644L176.147 33.0655L176.632 33.4949ZM176.057 42V42.6481H176.705V42H176.057ZM170.403 42H169.755V42.6481H170.403V42ZM170.403 28.3168V27.6688H169.755V28.3168H170.403ZM175.781 28.3168H176.429V27.6688H175.781V28.3168ZM175.781 29.6676H175.133V31.2322L176.24 30.1259L175.781 29.6676ZM177.633 28.4669L177.863 29.0725L177.863 29.0725L177.633 28.4669ZM179.909 28.7147C181.453 28.7147 182.628 29.1758 183.503 30.0508L184.42 29.1343C183.26 27.9748 181.733 27.4186 179.909 27.4186V28.7147ZM183.507 30.0545C184.373 30.9069 184.864 32.2449 184.864 34.1953H186.16C186.16 32.0433 185.617 30.3128 184.416 29.1306L183.507 30.0545ZM184.864 34.1953V42H186.16V34.1953H184.864ZM185.512 41.3519H179.859V42.6481H185.512V41.3519ZM180.507 42V35.1709H179.211V42H180.507ZM180.507 35.1709C180.507 34.3297 180.361 33.5826 179.968 33.0312C179.546 32.4395 178.912 32.1715 178.183 32.1715V33.4676C178.571 33.4676 178.775 33.5914 178.912 33.7835C179.078 34.016 179.211 34.4445 179.211 35.1709H180.507ZM178.183 32.1715C177.375 32.1715 176.678 32.4678 176.148 33.0644L177.116 33.9255C177.387 33.6215 177.723 33.4676 178.183 33.4676V32.1715ZM176.147 33.0655C175.609 33.6734 175.409 34.5574 175.409 35.5712H176.705C176.705 34.6838 176.888 34.1837 177.117 33.9243L176.147 33.0655ZM175.409 35.5712V42H176.705V35.5712H175.409ZM176.057 41.3519H170.403V42.6481H176.057V41.3519ZM171.051 42V28.3168H169.755V42H171.051ZM170.403 28.9649H175.781V27.6688H170.403V28.9649ZM175.133 28.3168V29.6676H176.429V28.3168H175.133ZM176.24 30.1259C176.709 29.6564 177.249 29.3066 177.863 29.0725L177.402 27.8613C176.615 28.1609 175.921 28.6116 175.323 29.2094L176.24 30.1259ZM177.863 29.0725C178.484 28.8362 179.163 28.7147 179.909 28.7147V27.4186C179.02 27.4186 178.182 27.564 177.402 27.8613L177.863 29.0725Z" fill="#21252D" mask="url(#path-1-outside-1_199_2068)"/>
<path d="M23.1065 28.8751C23.1065 27.8133 23.9788 26.9411 25.0387 26.9411H28.2977C29.3595 26.9411 30.2686 27.8133 30.2686 28.9138V41.2044C30.6477 41.0903 31.1022 40.9762 31.634 40.8621C32.3535 40.6726 32.8853 40.0285 32.8853 39.2685V24.0188C32.8853 22.9571 33.7576 22.0462 34.8562 22.0462H38.1152C39.177 22.0462 40.086 22.9184 40.086 24.0188V38.1699C40.086 38.1699 40.8828 37.8277 41.6778 37.4872C42.285 37.2222 42.6641 36.6536 42.6641 35.9691V19.089C42.6641 18.0272 43.5364 17.1163 44.5982 17.1163H47.8571C48.9189 17.1163 49.7912 17.9885 49.7912 19.089V33.0119C52.5956 30.9637 55.4774 28.4979 57.7519 25.5388C58.4346 24.6666 58.6241 23.5275 58.245 22.4657C54.0752 10.4787 40.9619 4.10428 28.9841 8.27784C17.0063 12.4514 10.6392 25.5757 14.8073 37.5645C15.2618 38.9299 15.8691 40.2199 16.5886 41.4712C17.1572 42.4576 18.219 43.0262 19.3562 42.9121C19.9635 42.8735 20.7217 42.798 21.6675 42.6839C22.5011 42.6085 23.1084 41.8871 23.1084 41.0517L23.1065 28.8751Z" fill="white"/>
<path d="M23.0293 48.602C33.3013 56.0751 47.6676 53.7988 55.1333 43.5194C57.9764 39.5741 59.5295 34.8319 59.5295 29.9775C59.5295 29.4456 59.4909 28.9157 59.4541 28.3839C51.0794 40.9395 35.5757 46.8189 23.0293 48.602Z" fill="white"/>
</g>
<defs>
<clipPath id="clip0_199_2068">
<rect width="220" height="60" fill="white"/>
</clipPath>
</defs>
</svg>
