<svg width="290" height="60" viewBox="0 0 290 60" fill="none" xmlns="http://www.w3.org/2000/svg">
<g clip-path="url(#clip0_68_1355)">
<path d="M80.2091 42.4002C78.358 42.4002 76.6903 42.0167 75.2061 41.2496C73.7219 40.4657 72.5545 39.3818 71.704 37.9976C70.8702 36.5968 70.4533 35.0125 70.4533 33.2448C70.4533 31.477 70.8702 29.9011 71.704 28.5169C72.5545 27.1161 73.7219 26.0321 75.2061 25.265C76.6903 24.4812 78.358 24.0893 80.2091 24.0893C81.9101 24.0893 83.4277 24.3895 84.7618 24.9898C86.096 25.5902 87.1966 26.4574 88.0638 27.5914L84.3366 30.9184C83.2526 29.5509 81.9768 28.8672 80.5093 28.8672C79.2752 28.8672 78.283 29.2674 77.5325 30.0679C76.7821 30.8517 76.4068 31.9106 76.4068 33.2448C76.4068 34.5789 76.7821 35.6462 77.5325 36.4467C78.283 37.2305 79.2752 37.6224 80.5093 37.6224C81.9768 37.6224 83.2526 36.9386 84.3366 35.5712L88.0638 38.8981C87.1966 40.0322 86.096 40.8993 84.7618 41.4997C83.4277 42.1001 81.9101 42.4002 80.2091 42.4002ZM96.4561 42.2501C94.9385 42.2501 93.5711 41.95 92.3537 41.3496C91.1529 40.7326 90.2107 39.8904 89.527 38.8231C88.8432 37.7391 88.5014 36.5134 88.5014 35.1459C88.5014 33.7784 88.8432 32.561 89.527 31.4937C90.2107 30.4097 91.1529 29.5676 92.3537 28.9672C93.5711 28.3669 94.9385 28.0667 96.4561 28.0667C97.9904 28.0667 99.3579 28.3669 100.559 28.9672C101.776 29.5676 102.718 30.4097 103.385 31.4937C104.069 32.561 104.411 33.7784 104.411 35.1459C104.411 36.5134 104.069 37.7391 103.385 38.8231C102.718 39.8904 101.776 40.7326 100.559 41.3496C99.3579 41.95 97.9904 42.2501 96.4561 42.2501ZM96.4561 37.8475C97.1065 37.8475 97.6402 37.614 98.0571 37.1471C98.474 36.6635 98.6824 35.9964 98.6824 35.1459C98.6824 34.2954 98.474 33.6367 98.0571 33.1697C97.6402 32.7028 97.1065 32.4693 96.4561 32.4693C95.8057 32.4693 95.2721 32.7028 94.8552 33.1697C94.4382 33.6367 94.2298 34.2954 94.2298 35.1459C94.2298 35.9964 94.4382 36.6635 94.8552 37.1471C95.2721 37.614 95.8057 37.8475 96.4561 37.8475ZM106.18 28.3168H111.834V42H106.18V28.3168ZM109.007 27.2162C107.99 27.2162 107.164 26.9493 106.53 26.4157C105.913 25.8654 105.605 25.1733 105.605 24.3394C105.605 23.5056 105.913 22.8219 106.53 22.2882C107.164 21.7379 107.99 21.4627 109.007 21.4627C110.041 21.4627 110.866 21.7212 111.483 22.2382C112.1 22.7552 112.409 23.4222 112.409 24.2394C112.409 25.1066 112.1 25.8237 111.483 26.3907C110.866 26.941 110.041 27.2162 109.007 27.2162ZM123.845 28.0667C125.529 28.0667 126.88 28.5753 127.898 29.5926C128.932 30.6099 129.448 32.1441 129.448 34.1953V42H123.795V35.1709C123.795 33.6033 123.236 32.8195 122.119 32.8195C121.485 32.8195 120.968 33.0446 120.568 33.4949C120.185 33.9285 119.993 34.6206 119.993 35.5712V42H114.339V28.3168H119.718V29.6676C120.251 29.134 120.868 28.7337 121.569 28.4669C122.269 28.2001 123.028 28.0667 123.845 28.0667ZM150.014 28.0667C151.665 28.0667 152.983 28.5753 153.967 29.5926C154.967 30.6099 155.468 32.1441 155.468 34.1953V42H149.814V35.1709C149.814 33.6033 149.306 32.8195 148.288 32.8195C147.755 32.8195 147.321 33.0196 146.988 33.4199C146.671 33.8201 146.512 34.4538 146.512 35.321V42H140.859V35.1709C140.859 33.6033 140.35 32.8195 139.333 32.8195C138.799 32.8195 138.366 33.0196 138.032 33.4199C137.715 33.8201 137.557 34.4538 137.557 35.321V42H131.904V28.3168H137.282V29.5926C138.299 28.5753 139.592 28.0667 141.159 28.0667C142.076 28.0667 142.902 28.2418 143.636 28.592C144.369 28.9255 144.97 29.4425 145.437 30.1429C145.987 29.4759 146.654 28.9672 147.438 28.617C148.222 28.2501 149.081 28.0667 150.014 28.0667ZM164.049 28.0667C166.45 28.0667 168.285 28.6087 169.552 29.6926C170.82 30.76 171.453 32.4109 171.453 34.6456V42H166.2V40.1989C165.55 41.5664 164.257 42.2501 162.323 42.2501C161.239 42.2501 160.313 42.0667 159.546 41.6998C158.796 41.3163 158.22 40.8076 157.82 40.1739C157.437 39.5235 157.245 38.7981 157.245 37.9976C157.245 36.6468 157.762 35.6212 158.796 34.9208C159.83 34.2204 161.397 33.8701 163.499 33.8701H165.775C165.591 32.8028 164.733 32.2692 163.198 32.2692C162.581 32.2692 161.956 32.3692 161.322 32.5694C160.689 32.7528 160.147 33.0113 159.696 33.3448L157.895 29.6176C158.679 29.134 159.621 28.7588 160.722 28.4919C161.839 28.2084 162.948 28.0667 164.049 28.0667ZM164.024 38.8481C164.424 38.8481 164.783 38.7397 165.099 38.5229C165.416 38.3061 165.65 37.9809 165.8 37.5473V36.5968H164.399C163.248 36.5968 162.673 36.9803 162.673 37.7475C162.673 38.0643 162.79 38.3311 163.023 38.5479C163.273 38.7481 163.607 38.8481 164.024 38.8481ZM179.275 29.7927C180.275 28.642 181.751 28.0667 183.702 28.0667V33.0697C183.252 33.003 182.835 32.9696 182.452 32.9696C180.517 32.9696 179.55 33.9535 179.55 35.9214V42H173.897V28.3168H179.275V29.7927ZM191.859 37.7975L190.958 38.7731V42H185.305V23.4389H190.958V32.2942L194.885 28.3168H201.564L195.911 34.2454L202.015 42H195.186L191.859 37.7975ZM217.061 35.1459C217.061 35.2293 217.036 35.6712 216.986 36.4717H207.48C207.681 36.9887 208.014 37.3889 208.481 37.6724C208.948 37.9392 209.532 38.0727 210.232 38.0727C210.832 38.0727 211.333 37.9976 211.733 37.8475C212.15 37.6974 212.6 37.4389 213.084 37.0721L216.036 40.0488C214.701 41.5164 212.709 42.2501 210.057 42.2501C208.406 42.2501 206.955 41.95 205.704 41.3496C204.454 40.7326 203.486 39.8821 202.803 38.7981C202.119 37.7141 201.777 36.4967 201.777 35.1459C201.777 33.7784 202.111 32.561 202.778 31.4937C203.461 30.4097 204.387 29.5676 205.554 28.9672C206.738 28.3669 208.064 28.0667 209.532 28.0667C210.916 28.0667 212.175 28.3418 213.309 28.8922C214.46 29.4425 215.369 30.2513 216.036 31.3186C216.719 32.3859 217.061 33.6617 217.061 35.1459ZM209.582 31.919C208.998 31.919 208.514 32.0774 208.131 32.3943C207.747 32.7111 207.497 33.1614 207.38 33.7451H211.783C211.666 33.1781 211.416 32.7361 211.033 32.4193C210.649 32.0857 210.165 31.919 209.582 31.919ZM228.926 41.5247C228.076 42.0083 226.917 42.2501 225.449 42.2501C223.531 42.2501 222.056 41.7915 221.022 40.8743C219.988 39.9404 219.471 38.5479 219.471 36.6968V33.1947H217.595V29.0673H219.471V25.24H225.124V29.0673H227.926V33.1947H225.124V36.6468C225.124 37.0637 225.232 37.3889 225.449 37.6224C225.666 37.8559 225.95 37.9726 226.3 37.9726C226.783 37.9726 227.209 37.8475 227.575 37.5974L228.926 41.5247ZM237.339 42.2501C235.788 42.2501 234.396 41.95 233.162 41.3496C231.944 40.7493 230.985 39.9071 230.285 38.8231C229.601 37.7391 229.259 36.5134 229.259 35.1459C229.259 33.7784 229.601 32.561 230.285 31.4937C230.985 30.4097 231.944 29.5676 233.162 28.9672C234.396 28.3669 235.788 28.0667 237.339 28.0667C239.007 28.0667 240.433 28.4252 241.617 29.1423C242.801 29.8594 243.618 30.8517 244.068 32.1191L239.691 34.2704C239.157 33.0697 238.365 32.4693 237.314 32.4693C236.647 32.4693 236.088 32.7028 235.638 33.1697C235.205 33.6367 234.988 34.2954 234.988 35.1459C234.988 36.0131 235.205 36.6802 235.638 37.1471C236.088 37.614 236.647 37.8475 237.314 37.8475C238.365 37.8475 239.157 37.2472 239.691 36.0464L244.068 38.1977C243.618 39.4652 242.801 40.4574 241.617 41.1745C240.433 41.8916 239.007 42.2501 237.339 42.2501ZM251.503 28.0667C253.905 28.0667 255.739 28.6087 257.007 29.6926C258.274 30.76 258.908 32.4109 258.908 34.6456V42H253.655V40.1989C253.004 41.5664 251.712 42.2501 249.777 42.2501C248.693 42.2501 247.768 42.0667 247.001 41.6998C246.25 41.3163 245.675 40.8076 245.275 40.1739C244.891 39.5235 244.699 38.7981 244.699 37.9976C244.699 36.6468 245.216 35.6212 246.25 34.9208C247.284 34.2204 248.852 33.8701 250.953 33.8701H253.229C253.046 32.8028 252.187 32.2692 250.653 32.2692C250.036 32.2692 249.411 32.3692 248.777 32.5694C248.143 32.7528 247.601 33.0113 247.151 33.3448L245.35 29.6176C246.134 29.134 247.076 28.7588 248.176 28.4919C249.294 28.2084 250.403 28.0667 251.503 28.0667ZM251.478 38.8481C251.879 38.8481 252.237 38.7397 252.554 38.5229C252.871 38.3061 253.104 37.9809 253.254 37.5473V36.5968H251.854C250.703 36.5968 250.128 36.9803 250.128 37.7475C250.128 38.0643 250.244 38.3311 250.478 38.5479C250.728 38.7481 251.062 38.8481 251.478 38.8481ZM270.482 28.0667C271.682 28.0667 272.783 28.3585 273.784 28.9422C274.801 29.5092 275.601 30.3347 276.185 31.4187C276.785 32.5027 277.086 33.7534 277.086 35.1709C277.086 36.5884 276.785 37.8392 276.185 38.9232C275.601 39.9905 274.801 40.816 273.784 41.3996C272.783 41.9666 271.682 42.2501 270.482 42.2501C268.964 42.2501 267.805 41.8582 267.004 41.0744V46.8529H261.351V28.3168H266.729V29.4425C267.546 28.5253 268.797 28.0667 270.482 28.0667ZM269.131 37.8475C269.781 37.8475 270.315 37.614 270.732 37.1471C271.149 36.6802 271.357 36.0214 271.357 35.1709C271.357 34.3204 271.149 33.6617 270.732 33.1947C270.315 32.7111 269.781 32.4693 269.131 32.4693C268.48 32.4693 267.947 32.7111 267.53 33.1947C267.113 33.6617 266.904 34.3204 266.904 35.1709C266.904 36.0214 267.113 36.6802 267.53 37.1471C267.947 37.614 268.48 37.8475 269.131 37.8475Z" fill="white"/>
<path d="M75.2061 41.2496L74.9035 41.8226L74.9086 41.8253L75.2061 41.2496ZM71.704 37.9976L71.1471 38.3291L71.1519 38.3369L71.704 37.9976ZM71.704 28.5169L71.1501 28.1806L71.1489 28.1825L71.704 28.5169ZM75.2061 25.265L75.5037 25.8407L75.5087 25.8381L75.2061 25.265ZM84.7618 24.9898L84.4959 25.5808L84.4959 25.5808L84.7618 24.9898ZM88.0638 27.5914L88.4954 28.0749L88.9435 27.6749L88.5786 27.1977L88.0638 27.5914ZM84.3366 30.9184L83.8287 31.3209L84.2555 31.8594L84.7681 31.4018L84.3366 30.9184ZM77.5325 30.0679L78.0006 30.5161L78.0053 30.5111L77.5325 30.0679ZM77.5325 36.4467L77.0597 36.8899L77.0644 36.8949L77.5325 36.4467ZM84.3366 35.5712L84.7681 35.0877L84.2555 34.6301L83.8287 35.1686L84.3366 35.5712ZM88.0638 38.8981L88.5786 39.2918L88.9435 38.8147L88.4954 38.4147L88.0638 38.8981ZM84.7618 41.4997L84.4959 40.9087L84.4959 40.9087L84.7618 41.4997ZM80.2091 41.7522C78.4502 41.7522 76.8863 41.3885 75.5037 40.6738L74.9086 41.8253C76.4943 42.6449 78.2658 43.0483 80.2091 43.0483V41.7522ZM75.5087 40.6765C74.1236 39.945 73.0439 38.9403 72.2562 37.6583L71.1519 38.3369C72.0652 39.8233 73.3202 40.9865 74.9035 41.8226L75.5087 40.6765ZM72.2609 37.6661C71.4917 36.374 71.1013 34.906 71.1013 33.2448H69.8052C69.8052 35.119 70.2486 36.8196 71.1472 38.3291L72.2609 37.6661ZM71.1013 33.2448C71.1013 31.5835 71.4918 30.1252 72.2591 28.8513L71.1489 28.1825C70.2486 29.677 69.8052 31.3706 69.8052 33.2448H71.1013ZM72.258 28.8533C73.0454 27.5563 74.1231 26.5542 75.5037 25.8407L74.9086 24.6893C73.3207 25.51 72.0637 26.6759 71.1501 28.1806L72.258 28.8533ZM75.5087 25.8381C76.8904 25.1084 78.4524 24.7374 80.2091 24.7374V23.4412C78.2636 23.4412 76.4903 23.854 74.9035 24.6919L75.5087 25.8381ZM80.2091 24.7374C81.8332 24.7374 83.2579 25.0237 84.4959 25.5808L85.0278 24.3989C83.5975 23.7552 81.987 23.4412 80.2091 23.4412V24.7374ZM84.4959 25.5808C85.7345 26.1382 86.7488 26.9386 87.549 27.9851L88.5786 27.1977C87.6444 25.9761 86.4574 25.0422 85.0278 24.3989L84.4959 25.5808ZM87.6322 27.1079L83.905 30.4349L84.7681 31.4018L88.4954 28.0749L87.6322 27.1079ZM84.8444 30.5158C83.6635 29.026 82.213 28.2191 80.5093 28.2191V29.5152C81.7406 29.5152 82.8417 30.0758 83.8287 31.3209L84.8444 30.5158ZM80.5093 28.2191C79.1207 28.2191 77.9486 28.6765 77.0597 29.6246L78.0053 30.5111C78.6173 29.8583 79.4297 29.5152 80.5093 29.5152V28.2191ZM77.0644 29.6197C76.1732 30.5505 75.7588 31.7841 75.7588 33.2448H77.0549C77.0549 32.0372 77.3909 31.1529 78.0006 30.516L77.0644 29.6197ZM75.7588 33.2448C75.7588 34.706 76.1734 35.9445 77.0597 36.8899L78.0053 36.0034C77.3907 35.3479 77.0549 34.4518 77.0549 33.2448H75.7588ZM77.0644 36.8949C77.9543 37.8243 79.125 38.2704 80.5093 38.2704V36.9743C79.4254 36.9743 78.6116 36.6366 78.0006 35.9985L77.0644 36.8949ZM80.5093 38.2704C82.213 38.2704 83.6635 37.4636 84.8444 35.9737L83.8287 35.1686C82.8417 36.4137 81.7406 36.9743 80.5093 36.9743V38.2704ZM83.905 36.0546L87.6322 39.3816L88.4954 38.4147L84.7681 35.0877L83.905 36.0546ZM87.549 38.5045C86.7488 39.5509 85.7345 40.3513 84.4959 40.9087L85.0278 42.0907C86.4574 41.4473 87.6444 40.5134 88.5786 39.2918L87.549 38.5045ZM84.4959 40.9087C83.2579 41.4658 81.8332 41.7522 80.2091 41.7522V43.0483C81.987 43.0483 83.5975 42.7343 85.0278 42.0907L84.4959 40.9087ZM92.3537 41.3496L92.0574 41.9261L92.067 41.9308L92.3537 41.3496ZM89.527 38.8231L88.9788 39.1689L88.9813 39.1727L89.527 38.8231ZM89.527 31.4937L90.0727 31.8433L90.0751 31.8395L89.527 31.4937ZM92.3537 28.9672L92.067 28.386L92.0638 28.3876L92.3537 28.9672ZM100.559 28.9672L100.269 29.5469L100.272 29.5484L100.559 28.9672ZM103.385 31.4937L102.833 31.8334L102.84 31.8433L103.385 31.4937ZM103.385 38.8231L102.837 38.4774L102.836 38.4796L103.385 38.8231ZM100.559 41.3496L100.848 41.9293L100.852 41.9277L100.559 41.3496ZM98.0571 37.1471L98.5406 37.5788L98.5479 37.5702L98.0571 37.1471ZM94.8552 37.1471L94.3642 37.5703L94.3718 37.5787L94.8552 37.1471ZM96.4561 41.6021C95.0261 41.6021 93.7585 41.3198 92.6403 40.7684L92.067 41.9308C93.3836 42.5801 94.851 42.8982 96.4561 42.8982V41.6021ZM92.6499 40.7732C91.544 40.2049 90.6907 39.4382 90.0727 38.4735L88.9813 39.1727C89.7308 40.3426 90.7619 41.2602 92.0575 41.926L92.6499 40.7732ZM90.0751 38.4774C89.4611 37.5039 89.1494 36.3996 89.1494 35.1459H87.8533C87.8533 36.6272 88.2254 37.9743 88.9789 39.1688L90.0751 38.4774ZM89.1494 35.1459C89.1494 33.8921 89.4611 32.798 90.0727 31.8433L88.9813 31.1441C88.2254 32.3241 87.8533 33.6647 87.8533 35.1459H89.1494ZM90.0751 31.8395C90.6927 30.8604 91.5434 30.0969 92.6435 29.5469L92.0638 28.3876C90.7625 29.0382 89.7288 29.9591 88.9789 31.148L90.0751 31.8395ZM92.6403 29.5484C93.7585 28.997 95.0261 28.7147 96.4561 28.7147V27.4186C94.851 27.4186 93.3836 27.7367 92.067 28.386L92.6403 29.5484ZM96.4561 28.7147C97.9042 28.7147 99.1701 28.9975 100.269 29.5469L100.848 28.3876C99.5456 27.7362 98.0765 27.4186 96.4561 27.4186V28.7147ZM100.272 29.5484C101.388 30.0986 102.235 30.8603 102.833 31.8334L103.937 31.1541C103.202 29.9592 102.164 29.0366 100.845 28.386L100.272 29.5484ZM102.84 31.8433C103.451 32.798 103.763 33.8921 103.763 35.1459H105.059C105.059 33.6647 104.687 32.3241 103.931 31.1441L102.84 31.8433ZM103.763 35.1459C103.763 36.3996 103.451 37.5039 102.837 38.4774L103.933 39.1688C104.687 37.9743 105.059 36.6272 105.059 35.1459H103.763ZM102.836 38.4796C102.236 39.4384 101.387 40.2032 100.266 40.7716L100.852 41.9277C102.165 41.2619 103.2 40.3424 103.935 39.1666L102.836 38.4796ZM100.269 40.77C99.1701 41.3193 97.9042 41.6021 96.4561 41.6021V42.8982C98.0765 42.8982 99.5456 42.5806 100.848 41.9292L100.269 40.77ZM96.4561 38.4956C97.2829 38.4956 97.9953 38.1894 98.5405 37.5787L97.5737 36.7155C97.285 37.0387 96.9301 37.1995 96.4561 37.1995V38.4956ZM98.5479 37.5702C99.0958 36.9347 99.3305 36.0996 99.3305 35.1459H98.0344C98.0344 35.8932 97.8522 36.3922 97.5662 36.724L98.5479 37.5702ZM99.3305 35.1459C99.3305 34.1938 99.0964 33.3607 98.5405 32.7381L97.5737 33.6013C97.8516 33.9126 98.0344 34.397 98.0344 35.1459H99.3305ZM98.5405 32.7381C97.9953 32.1275 97.2829 31.8212 96.4561 31.8212V33.1174C96.9301 33.1174 97.285 33.2781 97.5737 33.6013L98.5405 32.7381ZM96.4561 31.8212C95.6293 31.8212 94.917 32.1275 94.3718 32.7381L95.3386 33.6013C95.6272 33.2781 95.9822 33.1174 96.4561 33.1174V31.8212ZM94.3718 32.7381C93.8158 33.3607 93.5817 34.1938 93.5817 35.1459H94.8778C94.8778 34.397 95.0607 33.9126 95.3386 33.6013L94.3718 32.7381ZM93.5817 35.1459C93.5817 36.0996 93.8165 36.9347 94.3643 37.5702L95.346 36.724C95.06 36.3922 94.8778 35.8932 94.8778 35.1459H93.5817ZM94.3718 37.5787C94.917 38.1894 95.6293 38.4956 96.4561 38.4956V37.1995C95.9822 37.1995 95.6272 37.0387 95.3386 36.7155L94.3718 37.5787ZM106.18 28.3168V27.6688H105.532V28.3168H106.18ZM111.834 28.3168H112.482V27.6688H111.834V28.3168ZM111.834 42V42.6481H112.482V42H111.834ZM106.18 42H105.532V42.6481H106.18V42ZM106.53 26.4157L106.099 26.8993L106.106 26.9055L106.113 26.9114L106.53 26.4157ZM106.53 22.2882L106.954 22.7784L106.955 22.7775L106.53 22.2882ZM111.483 22.2382L111.067 22.7349L111.067 22.7349L111.483 22.2382ZM111.483 26.3907L111.915 26.8744L111.922 26.8679L111.483 26.3907ZM106.18 28.9649H111.834V27.6688H106.18V28.9649ZM111.186 28.3168V42H112.482V28.3168H111.186ZM111.834 41.3519H106.18V42.6481H111.834V41.3519ZM106.828 42V28.3168H105.532V42H106.828ZM109.007 26.5681C108.106 26.5681 107.44 26.3343 106.948 25.92L106.113 26.9114C106.889 27.5644 107.873 27.8642 109.007 27.8642V26.5681ZM106.962 25.932C106.484 25.5059 106.253 24.9903 106.253 24.3394H104.957C104.957 25.3562 105.343 26.2248 106.099 26.8993L106.962 25.932ZM106.253 24.3394C106.253 23.689 106.483 23.1859 106.954 22.7784L106.107 21.7981C105.344 22.4579 104.957 23.3222 104.957 24.3394H106.253ZM106.955 22.7775C107.448 22.3502 108.111 22.1108 109.007 22.1108V20.8147C107.868 20.8147 106.881 21.1256 106.106 21.7989L106.955 22.7775ZM109.007 22.1108C109.933 22.1108 110.597 22.3407 111.067 22.7349L111.9 21.7414C111.136 21.1017 110.149 20.8147 109.007 20.8147V22.1108ZM111.067 22.7349C111.535 23.1266 111.761 23.6106 111.761 24.2394H113.057C113.057 23.2339 112.666 22.3837 111.9 21.7414L111.067 22.7349ZM111.761 24.2394C111.761 24.9324 111.523 25.474 111.045 25.9135L111.922 26.8679C112.678 26.1734 113.057 25.2808 113.057 24.2394H111.761ZM111.052 25.907C110.581 26.3268 109.923 26.5681 109.007 26.5681V27.8642C110.159 27.8642 111.151 27.5552 111.915 26.8743L111.052 25.907ZM127.898 29.5926L127.439 30.0508L127.443 30.0545L127.898 29.5926ZM129.448 42V42.6481H130.097V42H129.448ZM123.795 42H123.147V42.6481H123.795V42ZM120.568 33.4949L120.084 33.0644L120.083 33.0655L120.568 33.4949ZM119.993 42V42.6481H120.641V42H119.993ZM114.339 42H113.691V42.6481H114.339V42ZM114.339 28.3168V27.6688H113.691V28.3168H114.339ZM119.718 28.3168H120.366V27.6688H119.718V28.3168ZM119.718 29.6676H119.07V31.2322L120.176 30.1259L119.718 29.6676ZM121.569 28.4669L121.799 29.0725L121.799 29.0725L121.569 28.4669ZM123.845 28.7147C125.389 28.7147 126.564 29.1758 127.439 30.0508L128.356 29.1343C127.196 27.9748 125.67 27.4186 123.845 27.4186V28.7147ZM127.443 30.0545C128.309 30.9069 128.8 32.2449 128.8 34.1953H130.097C130.097 32.0433 129.554 30.3128 128.352 29.1306L127.443 30.0545ZM128.8 34.1953V42H130.097V34.1953H128.8ZM129.448 41.3519H123.795V42.6481H129.448V41.3519ZM124.443 42V35.1709H123.147V42H124.443ZM124.443 35.1709C124.443 34.3297 124.297 33.5826 123.904 33.0312C123.482 32.4395 122.849 32.1715 122.119 32.1715V33.4676C122.507 33.4676 122.711 33.5914 122.848 33.7835C123.014 34.016 123.147 34.4445 123.147 35.1709H124.443ZM122.119 32.1715C121.311 32.1715 120.614 32.4678 120.084 33.0644L121.053 33.9255C121.323 33.6215 121.66 33.4676 122.119 33.4676V32.1715ZM120.083 33.0655C119.545 33.6734 119.345 34.5574 119.345 35.5712H120.641C120.641 34.6838 120.824 34.1837 121.054 33.9243L120.083 33.0655ZM119.345 35.5712V42H120.641V35.5712H119.345ZM119.993 41.3519H114.339V42.6481H119.993V41.3519ZM114.988 42V28.3168H113.691V42H114.988ZM114.339 28.9649H119.718V27.6688H114.339V28.9649ZM119.07 28.3168V29.6676H120.366V28.3168H119.07ZM120.176 30.1259C120.645 29.6564 121.185 29.3066 121.799 29.0725L121.338 27.8613C120.552 28.1609 119.857 28.6116 119.259 29.2094L120.176 30.1259ZM121.799 29.0725C122.42 28.8362 123.1 28.7147 123.845 28.7147V27.4186C122.956 27.4186 122.119 27.564 121.338 27.8613L121.799 29.0725ZM153.967 29.5926L153.501 30.0431L153.505 30.047L153.967 29.5926ZM155.468 42V42.6481H156.116V42H155.468ZM149.814 42H149.166V42.6481H149.814V42ZM146.988 33.4199L146.49 33.005L146.485 33.0112L146.48 33.0176L146.988 33.4199ZM146.512 42V42.6481H147.16V42H146.512ZM140.859 42H140.211V42.6481H140.859V42ZM138.032 33.4199L137.534 33.005L137.529 33.0112L137.524 33.0176L138.032 33.4199ZM137.557 42V42.6481H138.205V42H137.557ZM131.904 42H131.256V42.6481H131.904V42ZM131.904 28.3168V27.6688H131.256V28.3168H131.904ZM137.282 28.3168H137.93V27.6688H137.282V28.3168ZM137.282 29.5926H136.634V31.1571L137.74 30.0508L137.282 29.5926ZM143.636 28.592L143.356 29.1769L143.368 29.182L143.636 28.592ZM145.437 30.1429L144.898 30.5024L145.381 31.2283L145.937 30.5553L145.437 30.1429ZM147.438 28.617L147.702 29.2088L147.713 29.2039L147.438 28.617ZM150.014 28.7147C151.522 28.7147 152.66 29.1732 153.501 30.0431L154.433 29.142C153.306 27.9774 151.809 27.4186 150.014 27.4186V28.7147ZM153.505 30.047C154.343 30.8987 154.82 32.2396 154.82 34.1953H156.116C156.116 32.0486 155.592 30.321 154.429 29.1381L153.505 30.047ZM154.82 34.1953V42H156.116V34.1953H154.82ZM155.468 41.3519H149.814V42.6481H155.468V41.3519ZM150.462 42V35.1709H149.166V42H150.462ZM150.462 35.1709C150.462 34.3377 150.331 33.6009 149.977 33.0546C149.591 32.4599 148.993 32.1715 148.288 32.1715V33.4676C148.601 33.4676 148.767 33.571 148.889 33.7601C149.043 33.9977 149.166 34.4365 149.166 35.1709H150.462ZM148.288 32.1715C147.568 32.1715 146.95 32.4529 146.49 33.005L147.486 33.8347C147.693 33.5864 147.942 33.4676 148.288 33.4676V32.1715ZM146.48 33.0176C146.028 33.5884 145.864 34.4005 145.864 35.321H147.16C147.16 34.5072 147.314 34.0518 147.496 33.8221L146.48 33.0176ZM145.864 35.321V42H147.16V35.321H145.864ZM146.512 41.3519H140.859V42.6481H146.512V41.3519ZM141.507 42V35.1709H140.211V42H141.507ZM141.507 35.1709C141.507 34.3377 141.376 33.6009 141.021 33.0546C140.635 32.4599 140.038 32.1715 139.333 32.1715V33.4676C139.645 33.4676 139.811 33.571 139.934 33.7601C140.088 33.9977 140.211 34.4365 140.211 35.1709H141.507ZM139.333 32.1715C138.613 32.1715 137.995 32.4529 137.534 33.005L138.53 33.8347C138.737 33.5864 138.986 33.4676 139.333 33.4676V32.1715ZM137.524 33.0176C137.072 33.5884 136.909 34.4005 136.909 35.321H138.205C138.205 34.5072 138.359 34.0518 138.54 33.8221L137.524 33.0176ZM136.909 35.321V42H138.205V35.321H136.909ZM137.557 41.3519H131.904V42.6481H137.557V41.3519ZM132.552 42V28.3168H131.256V42H132.552ZM131.904 28.9649H137.282V27.6688H131.904V28.9649ZM136.634 28.3168V29.5926H137.93V28.3168H136.634ZM137.74 30.0508C138.624 29.1666 139.746 28.7147 141.159 28.7147V27.4186C139.437 27.4186 137.974 27.984 136.824 29.1343L137.74 30.0508ZM141.159 28.7147C141.992 28.7147 142.721 28.8733 143.357 29.1768L143.915 28.0071C143.083 27.6103 142.161 27.4186 141.159 27.4186V28.7147ZM143.368 29.182C143.986 29.4632 144.495 29.8979 144.898 30.5024L145.976 29.7834C145.445 28.9871 144.753 28.3879 143.904 28.002L143.368 29.182ZM145.937 30.5553C146.424 29.9648 147.01 29.5178 147.702 29.2087L147.174 28.0253C146.298 28.4166 145.55 28.9869 144.937 29.7305L145.937 30.5553ZM147.713 29.2039C148.404 28.8804 149.168 28.7147 150.014 28.7147V27.4186C148.993 27.4186 148.04 27.6198 147.163 28.0301L147.713 29.2039ZM169.552 29.6926L169.131 30.1852L169.135 30.1884L169.552 29.6926ZM171.453 42V42.6481H172.101V42H171.453ZM166.2 42H165.552V42.6481H166.2V42ZM166.2 40.1989H166.848L165.615 39.9206L166.2 40.1989ZM159.546 41.6998L159.251 42.2769L159.259 42.2808L159.267 42.2845L159.546 41.6998ZM157.82 40.1739L157.262 40.5031L157.267 40.5116L157.272 40.52L157.82 40.1739ZM158.796 34.9208L158.432 34.3842L158.432 34.3842L158.796 34.9208ZM165.775 33.8701V34.5182H166.544L166.414 33.7604L165.775 33.8701ZM161.322 32.5694L161.502 33.1919L161.51 33.1897L161.517 33.1873L161.322 32.5694ZM159.696 33.3448L159.113 33.6268L159.453 34.3313L160.082 33.8656L159.696 33.3448ZM157.895 29.6176L157.555 29.0661L157.057 29.3731L157.312 29.8996L157.895 29.6176ZM160.722 28.4919L160.875 29.1218L160.881 29.1201L160.722 28.4919ZM165.099 38.5229L164.734 37.9881L164.734 37.9881L165.099 38.5229ZM165.8 37.5473L166.412 37.7593L166.448 37.6563V37.5473H165.8ZM165.8 36.5968H166.448V35.9487H165.8V36.5968ZM163.023 38.5479L162.582 39.0228L162.6 39.0391L162.618 39.054L163.023 38.5479ZM164.049 28.7147C166.363 28.7147 168.023 29.2377 169.131 30.1851L169.973 29.2001C168.546 27.9796 166.538 27.4186 164.049 27.4186V28.7147ZM169.135 30.1884C170.209 31.0934 170.805 32.5316 170.805 34.6456H172.101C172.101 32.2903 171.43 30.4265 169.97 29.1969L169.135 30.1884ZM170.805 34.6456V42H172.101V34.6456H170.805ZM171.453 41.3519H166.2V42.6481H171.453V41.3519ZM166.848 42V40.1989H165.552V42H166.848ZM165.615 39.9206C165.104 40.9957 164.09 41.6021 162.323 41.6021V42.8982C164.424 42.8982 165.996 42.1371 166.785 40.4773L165.615 39.9206ZM162.323 41.6021C161.31 41.6021 160.485 41.4305 159.826 41.1152L159.267 42.2845C160.142 42.7029 161.168 42.8982 162.323 42.8982V41.6021ZM159.841 41.1228C159.181 40.7854 158.699 40.3515 158.368 39.8279L157.272 40.52C157.742 41.2638 158.41 41.8471 159.251 42.2769L159.841 41.1228ZM158.378 39.8447C158.057 39.3001 157.893 38.6895 157.893 37.9976H156.597C156.597 38.9066 156.816 39.7469 157.262 40.5031L158.378 39.8447ZM157.893 37.9976C157.893 36.841 158.32 36.026 159.159 35.4573L158.432 34.3842C157.204 35.2164 156.597 36.4526 156.597 37.9976H157.893ZM159.159 35.4573C160.035 34.864 161.448 34.5182 163.499 34.5182V33.2221C161.347 33.2221 159.624 33.5767 158.432 34.3842L159.159 35.4573ZM163.499 34.5182H165.775V33.2221H163.499V34.5182ZM166.414 33.7604C166.293 33.0588 165.934 32.4911 165.335 32.119C164.763 31.7634 164.028 31.6211 163.198 31.6211V32.9172C163.903 32.9172 164.364 33.0418 164.651 33.2199C164.911 33.3814 165.073 33.6142 165.136 33.9799L166.414 33.7604ZM163.198 31.6211C162.51 31.6211 161.819 31.7329 161.127 31.9514L161.517 33.1873C162.093 33.0056 162.652 32.9172 163.198 32.9172V31.6211ZM161.142 31.9469C160.447 32.148 159.833 32.4373 159.311 32.8241L160.082 33.8656C160.46 33.5853 160.93 33.3576 161.502 33.1919L161.142 31.9469ZM160.28 33.0629L158.479 29.3356L157.312 29.8996L159.113 33.6268L160.28 33.0629ZM158.235 30.1691C158.95 29.7284 159.826 29.376 160.875 29.1217L160.569 27.8621C159.417 28.1415 158.408 28.5395 157.555 29.0661L158.235 30.1691ZM160.881 29.1201C161.949 28.8492 163.004 28.7147 164.049 28.7147V27.4186C162.892 27.4186 161.729 27.5677 160.562 27.8638L160.881 29.1201ZM164.024 39.4962C164.549 39.4962 165.036 39.3516 165.465 39.0578L164.734 37.9881C164.529 38.1279 164.299 38.2001 164.024 38.2001V39.4962ZM165.465 39.0578C165.918 38.7481 166.226 38.2978 166.412 37.7593L165.187 37.3354C165.074 37.664 164.915 37.8641 164.734 37.9881L165.465 39.0578ZM166.448 37.5473V36.5968H165.152V37.5473H166.448ZM165.8 35.9487H164.399V37.2448H165.8V35.9487ZM164.399 35.9487C163.772 35.9487 163.189 36.0495 162.745 36.3452C162.255 36.6719 162.025 37.1751 162.025 37.7475H163.321C163.321 37.5527 163.379 37.4806 163.464 37.4237C163.596 37.3358 163.875 37.2448 164.399 37.2448V35.9487ZM162.025 37.7475C162.025 38.2456 162.218 38.6842 162.582 39.0228L163.464 38.073C163.362 37.9781 163.321 37.883 163.321 37.7475H162.025ZM162.618 39.054C163.014 39.3706 163.505 39.4962 164.024 39.4962V38.2001C163.709 38.2001 163.533 38.1255 163.428 38.0419L162.618 39.054ZM179.275 29.7927H178.627V31.5256L179.764 30.2179L179.275 29.7927ZM183.702 28.0667H184.35V27.4186H183.702V28.0667ZM183.702 33.0697L183.607 33.7107L184.35 33.8208V33.0697H183.702ZM179.55 42V42.6481H180.198V42H179.55ZM173.897 42H173.248V42.6481H173.897V42ZM173.897 28.3168V27.6688H173.248V28.3168H173.897ZM179.275 28.3168H179.923V27.6688H179.275V28.3168ZM179.764 30.2179C180.609 29.2463 181.883 28.7147 183.702 28.7147V27.4186C181.62 27.4186 179.942 28.0377 178.786 29.3675L179.764 30.2179ZM183.054 28.0667V33.0697H184.35V28.0667H183.054ZM183.797 32.4286C183.321 32.3581 182.872 32.3215 182.452 32.3215V33.6177C182.798 33.6177 183.183 33.6478 183.607 33.7107L183.797 32.4286ZM182.452 32.3215C181.382 32.3215 180.461 32.5945 179.813 33.2532C179.168 33.9099 178.902 34.8403 178.902 35.9214H180.198C180.198 35.0346 180.416 34.4891 180.737 34.1619C181.057 33.8367 181.587 33.6177 182.452 33.6177V32.3215ZM178.902 35.9214V42H180.198V35.9214H178.902ZM179.55 41.3519H173.897V42.6481H179.55V41.3519ZM174.545 42V28.3168H173.248V42H174.545ZM173.897 28.9649H179.275V27.6688H173.897V28.9649ZM178.627 28.3168V29.7927H179.923V28.3168H178.627ZM191.859 37.7975L192.367 37.3952L191.896 36.8011L191.382 37.3579L191.859 37.7975ZM190.958 38.7731L190.482 38.3335L190.31 38.5197V38.7731H190.958ZM190.958 42V42.6481H191.606V42H190.958ZM185.305 42H184.657V42.6481H185.305V42ZM185.305 23.4389V22.7909H184.657V23.4389H185.305ZM190.958 23.4389H191.606V22.7909H190.958V23.4389ZM190.958 32.2942H190.31V33.8729L191.419 32.7495L190.958 32.2942ZM194.885 28.3168V27.6688H194.615L194.424 27.8615L194.885 28.3168ZM201.564 28.3168L202.033 28.7641L203.078 27.6688H201.564V28.3168ZM195.911 34.2454L195.442 33.7981L195.054 34.2047L195.402 34.6462L195.911 34.2454ZM202.015 42V42.6481H203.349L202.524 41.5992L202.015 42ZM195.186 42L194.678 42.4023L194.872 42.6481H195.186V42ZM191.382 37.3579L190.482 38.3335L191.434 39.2126L192.335 38.2371L191.382 37.3579ZM190.31 38.7731V42H191.606V38.7731H190.31ZM190.958 41.3519H185.305V42.6481H190.958V41.3519ZM185.953 42V23.4389H184.657V42H185.953ZM185.305 24.087H190.958V22.7909H185.305V24.087ZM190.31 23.4389V32.2942H191.606V23.4389H190.31ZM191.419 32.7495L195.347 28.7722L194.424 27.8615L190.497 31.8389L191.419 32.7495ZM194.885 28.9649H201.564V27.6688H194.885V28.9649ZM201.095 27.8696L195.442 33.7981L196.38 34.6926L202.033 28.7641L201.095 27.8696ZM195.402 34.6462L201.505 42.4008L202.524 41.5992L196.42 33.8445L195.402 34.6462ZM202.015 41.3519H195.186V42.6481H202.015V41.3519ZM195.694 41.5977L192.367 37.3952L191.351 38.1997L194.678 42.4023L195.694 41.5977ZM216.986 36.4717V37.1198H217.595L217.633 36.5121L216.986 36.4717ZM207.48 36.4717V35.8236H206.535L206.876 36.7056L207.48 36.4717ZM208.481 37.6724L208.145 38.2264L208.152 38.2308L208.16 38.2351L208.481 37.6724ZM211.733 37.8475L211.513 37.2377L211.505 37.2407L211.733 37.8475ZM213.084 37.0721L213.544 36.6157L213.144 36.2127L212.692 36.5558L213.084 37.0721ZM216.036 40.0488L216.515 40.4848L216.929 40.0295L216.496 39.5925L216.036 40.0488ZM205.704 41.3496L205.418 41.9308L205.424 41.9338L205.704 41.3496ZM202.803 38.7981L203.351 38.4523L202.803 38.7981ZM202.778 31.4937L202.23 31.148L202.228 31.1503L202.778 31.4937ZM205.554 28.9672L205.261 28.3892L205.258 28.3909L205.554 28.9672ZM213.309 28.8922L213.026 29.4752L213.029 29.4768L213.309 28.8922ZM216.036 31.3186L215.486 31.6621L215.49 31.6682L216.036 31.3186ZM208.131 32.3943L208.544 32.8939L208.544 32.8939L208.131 32.3943ZM207.38 33.7451L206.745 33.618L206.59 34.3931H207.38V33.7451ZM211.783 33.7451V34.3931H212.578L212.418 33.6144L211.783 33.7451ZM211.033 32.4193L210.607 32.9083L210.614 32.9137L210.62 32.9189L211.033 32.4193ZM216.413 35.1459C216.413 35.144 216.413 35.1503 216.412 35.1706C216.412 35.1888 216.411 35.2134 216.409 35.2448C216.406 35.3077 216.402 35.3936 216.395 35.5033C216.383 35.7223 216.364 36.0315 216.339 36.4313L217.633 36.5121C217.682 35.7289 217.709 35.2558 217.709 35.1459H216.413ZM216.986 35.8236H207.48V37.1198H216.986V35.8236ZM206.876 36.7056C207.127 37.3538 207.554 37.8675 208.145 38.2264L208.817 37.1185C208.475 36.9103 208.234 36.6236 208.085 36.2378L206.876 36.7056ZM208.16 38.2351C208.75 38.5723 209.452 38.7207 210.232 38.7207V37.4246C209.611 37.4246 209.146 37.3062 208.803 37.1097L208.16 38.2351ZM210.232 38.7207C210.881 38.7207 211.465 38.6403 211.961 38.4543L211.505 37.2407C211.201 37.3549 210.784 37.4246 210.232 37.4246V38.7207ZM211.953 38.4573C212.449 38.2784 212.957 37.9813 213.475 37.5884L212.692 36.5558C212.243 36.8965 211.851 37.1164 211.513 37.2378L211.953 38.4573ZM212.624 37.5284L215.575 40.5051L216.496 39.5925L213.544 36.6157L212.624 37.5284ZM215.556 39.6129C214.382 40.904 212.59 41.6021 210.057 41.6021V42.8982C212.827 42.8982 215.021 42.1287 216.515 40.4848L215.556 39.6129ZM210.057 41.6021C208.485 41.6021 207.133 41.3165 205.985 40.7654L205.424 41.9338C206.777 42.5835 208.327 42.8982 210.057 42.8982V41.6021ZM205.991 40.7684C204.838 40.1994 203.965 39.4264 203.351 38.4523L202.255 39.1438C203.008 40.3377 204.07 41.2657 205.418 41.9308L205.991 40.7684ZM203.351 38.4523C202.736 37.4776 202.425 36.3813 202.425 35.1459H201.129C201.129 36.6122 201.502 37.9506 202.255 39.1438L203.351 38.4523ZM202.425 35.1459C202.425 33.889 202.73 32.7926 203.327 31.8372L202.228 31.1503C201.491 32.3294 201.129 33.6679 201.129 35.1459H202.425ZM203.326 31.8395C203.946 30.8559 204.784 30.0923 205.851 29.5435L205.258 28.3909C203.99 29.0429 202.977 29.9636 202.23 31.148L203.326 31.8395ZM205.847 29.5452C206.931 28.9956 208.155 28.7147 209.532 28.7147V27.4186C207.973 27.4186 206.545 27.7381 205.261 28.3892L205.847 29.5452ZM209.532 28.7147C210.828 28.7147 211.989 28.9717 213.026 29.4752L213.592 28.3091C212.361 27.712 211.004 27.4186 209.532 27.4186V28.7147ZM213.029 29.4768C214.071 29.9748 214.885 30.7007 215.486 31.6621L216.585 30.9751C215.852 29.802 214.849 28.9102 213.589 28.3075L213.029 29.4768ZM215.49 31.6682C216.096 32.6144 216.413 33.764 216.413 35.1459H217.709C217.709 33.5593 217.343 32.1575 216.581 30.969L215.49 31.6682ZM209.582 31.2709C208.875 31.2709 208.237 31.4657 207.718 31.8946L208.544 32.8939C208.792 32.6891 209.121 32.567 209.582 32.567V31.2709ZM207.718 31.8946C207.198 32.3241 206.885 32.918 206.745 33.618L208.016 33.8722C208.109 33.4047 208.296 33.0981 208.544 32.8939L207.718 31.8946ZM207.38 34.3931H211.783V33.097H207.38V34.3931ZM212.418 33.6144C212.276 32.9275 211.961 32.3455 211.445 31.9196L210.62 32.9189C210.871 33.1267 211.056 33.4286 211.148 33.8757L212.418 33.6144ZM211.458 31.9302C210.939 31.4791 210.297 31.2709 209.582 31.2709V32.567C210.034 32.567 210.359 32.6924 210.607 32.9083L211.458 31.9302ZM228.926 41.5247L229.247 42.0881L229.714 41.8223L229.539 41.3139L228.926 41.5247ZM221.022 40.8743L220.587 41.3553L220.592 41.3591L221.022 40.8743ZM219.471 33.1947H220.119V32.5467H219.471V33.1947ZM217.595 33.1947H216.946V33.8428H217.595V33.1947ZM217.595 29.0673V28.4192H216.946V29.0673H217.595ZM219.471 29.0673V29.7153H220.119V29.0673H219.471ZM219.471 25.24V24.5919H218.823V25.24H219.471ZM225.124 25.24H225.772V24.5919H225.124V25.24ZM225.124 29.0673H224.476V29.7153H225.124V29.0673ZM227.926 29.0673H228.574V28.4192H227.926V29.0673ZM227.926 33.1947V33.8428H228.574V33.1947H227.926ZM225.124 33.1947V32.5467H224.476V33.1947H225.124ZM225.449 37.6224L224.974 38.0634L224.974 38.0634L225.449 37.6224ZM227.575 37.5974L228.188 37.3866L227.912 36.5835L227.21 37.0619L227.575 37.5974ZM228.606 40.9614C227.89 41.3685 226.856 41.6021 225.449 41.6021V42.8982C226.977 42.8982 228.262 42.6482 229.247 42.0881L228.606 40.9614ZM225.449 41.6021C223.628 41.6021 222.328 41.1669 221.452 40.3895L220.592 41.3591C221.783 42.4162 223.434 42.8982 225.449 42.8982V41.6021ZM221.456 40.3934C220.599 39.6192 220.119 38.428 220.119 36.6968H218.823C218.823 38.6679 219.376 40.2616 220.587 41.3553L221.456 40.3934ZM220.119 36.6968V33.1947H218.823V36.6968H220.119ZM219.471 32.5467H217.595V33.8428H219.471V32.5467ZM218.243 33.1947V29.0673H216.946V33.1947H218.243ZM217.595 29.7153H219.471V28.4192H217.595V29.7153ZM220.119 29.0673V25.24H218.823V29.0673H220.119ZM219.471 25.888H225.124V24.5919H219.471V25.888ZM224.476 25.24V29.0673H225.772V25.24H224.476ZM225.124 29.7153H227.926V28.4192H225.124V29.7153ZM227.278 29.0673V33.1947H228.574V29.0673H227.278ZM227.926 32.5467H225.124V33.8428H227.926V32.5467ZM224.476 33.1947V36.6468H225.772V33.1947H224.476ZM224.476 36.6468C224.476 37.1754 224.615 37.6767 224.974 38.0634L225.924 37.1814C225.85 37.1011 225.772 36.952 225.772 36.6468H224.476ZM224.974 38.0634C225.327 38.4428 225.789 38.6206 226.3 38.6206V37.3245C226.11 37.3245 226.005 37.2689 225.924 37.1814L224.974 38.0634ZM226.3 38.6206C226.901 38.6206 227.456 38.4629 227.941 38.1328L227.21 37.0619C226.961 37.2321 226.665 37.3245 226.3 37.3245V38.6206ZM226.963 37.8081L228.313 41.7355L229.539 41.3139L228.188 37.3866L226.963 37.8081ZM233.162 41.3496L232.875 41.9308L232.878 41.9324L233.162 41.3496ZM230.285 38.8231L229.737 39.1689L229.741 39.1748L230.285 38.8231ZM230.285 31.4937L229.741 31.142L229.739 31.1441L230.285 31.4937ZM233.162 28.9672L232.878 28.3844L232.875 28.386L233.162 28.9672ZM241.617 29.1423L241.281 29.6966L241.281 29.6966L241.617 29.1423ZM244.068 32.1191L244.354 32.7007L244.872 32.4461L244.679 31.9021L244.068 32.1191ZM239.691 34.2704L239.098 34.5336L239.372 35.1491L239.976 34.852L239.691 34.2704ZM235.638 33.1697L235.172 32.7198L235.163 32.7288L235.638 33.1697ZM235.638 37.1471L235.163 37.5881L235.172 37.5969L235.638 37.1471ZM239.691 36.0464L239.976 35.4648L239.372 35.1678L239.098 35.7832L239.691 36.0464ZM244.068 38.1977L244.679 38.4147L244.872 37.8707L244.354 37.6161L244.068 38.1977ZM241.617 41.1745L241.952 41.7288L241.952 41.7288L241.617 41.1745ZM237.339 41.6021C235.874 41.6021 234.58 41.319 233.445 40.7669L232.878 41.9324C234.211 42.581 235.703 42.8982 237.339 42.8982V41.6021ZM233.448 40.7684C232.33 40.217 231.463 39.4518 230.829 38.4714L229.741 39.1748C230.508 40.3624 231.558 41.2815 232.875 41.9308L233.448 40.7684ZM230.833 38.4774C230.219 37.5039 229.907 36.3996 229.907 35.1459H228.611C228.611 36.6272 228.983 37.9743 229.737 39.1688L230.833 38.4774ZM229.907 35.1459C229.907 33.8921 230.219 32.798 230.831 31.8433L229.739 31.1441C228.983 32.3241 228.611 33.6647 228.611 35.1459H229.907ZM230.829 31.8454C231.463 30.865 232.33 30.0998 233.448 29.5484L232.875 28.386C231.558 29.0354 230.508 29.9545 229.741 31.142L230.829 31.8454ZM233.445 29.55C234.58 28.9979 235.874 28.7147 237.339 28.7147V27.4186C235.703 27.4186 234.211 27.7358 232.878 28.3845L233.445 29.55ZM237.339 28.7147C238.913 28.7147 240.217 29.0523 241.281 29.6966L241.952 28.588C240.648 27.7981 239.101 27.4186 237.339 27.4186V28.7147ZM241.281 29.6966C242.341 30.3388 243.059 31.2138 243.457 32.336L244.679 31.9021C244.177 30.4895 243.26 29.38 241.952 28.588L241.281 29.6966ZM243.782 31.5375L239.405 33.6888L239.976 34.852L244.354 32.7007L243.782 31.5375ZM240.283 34.0072C239.985 33.3379 239.595 32.7873 239.088 32.4031C238.572 32.0125 237.972 31.8212 237.314 31.8212V33.1174C237.707 33.1174 238.028 33.2263 238.305 33.4361C238.59 33.6522 238.862 34.0021 239.098 34.5336L240.283 34.0072ZM237.314 31.8212C236.477 31.8212 235.748 32.1223 235.172 32.7199L236.105 33.6196C236.429 33.2833 236.817 33.1174 237.314 33.1174V31.8212ZM235.163 32.7288C234.585 33.3511 234.34 34.1877 234.34 35.1459H235.636C235.636 34.4031 235.824 33.9223 236.113 33.6107L235.163 32.7288ZM234.34 35.1459C234.34 36.1168 234.583 36.9636 235.163 37.5881L236.113 36.7061C235.826 36.3967 235.636 35.9094 235.636 35.1459H234.34ZM235.172 37.5969C235.748 38.1945 236.477 38.4956 237.314 38.4956V37.1995C236.817 37.1995 236.429 37.0336 236.105 36.6973L235.172 37.5969ZM237.314 38.4956C237.972 38.4956 238.572 38.3043 239.088 37.9137C239.595 37.5295 239.985 36.9789 240.283 36.3096L239.098 35.7832C238.862 36.3147 238.59 36.6646 238.305 36.8808C238.028 37.0905 237.707 37.1995 237.314 37.1995V38.4956ZM239.405 36.6281L243.782 38.7793L244.354 37.6161L239.976 35.4648L239.405 36.6281ZM243.457 37.9808C243.059 39.103 242.341 39.978 241.281 40.6202L241.952 41.7288C243.26 40.9368 244.177 39.8273 244.679 38.4147L243.457 37.9808ZM241.281 40.6202C240.217 41.2645 238.913 41.6021 237.339 41.6021V42.8982C239.101 42.8982 240.648 42.5187 241.952 41.7288L241.281 40.6202ZM257.007 29.6926L256.586 30.1852L256.589 30.1884L257.007 29.6926ZM258.908 42V42.6481H259.556V42H258.908ZM253.655 42H253.007V42.6481H253.655V42ZM253.655 40.1989H254.303L253.069 39.9206L253.655 40.1989ZM247.001 41.6998L246.706 42.2769L246.713 42.2808L246.721 42.2845L247.001 41.6998ZM245.275 40.1739L244.717 40.5031L244.722 40.5116L244.727 40.52L245.275 40.1739ZM246.25 34.9208L245.887 34.3842L245.887 34.3842L246.25 34.9208ZM253.229 33.8701V34.5182H253.998L253.868 33.7604L253.229 33.8701ZM248.777 32.5694L248.957 33.1919L248.965 33.1897L248.972 33.1873L248.777 32.5694ZM247.151 33.3448L246.567 33.6268L246.908 34.3313L247.537 33.8656L247.151 33.3448ZM245.35 29.6176L245.009 29.0661L244.512 29.3731L244.766 29.8996L245.35 29.6176ZM248.176 28.4919L248.329 29.1218L248.336 29.1201L248.176 28.4919ZM252.554 38.5229L252.188 37.9881L252.188 37.9881L252.554 38.5229ZM253.254 37.5473L253.867 37.7593L253.903 37.6563V37.5473H253.254ZM253.254 36.5968H253.903V35.9487H253.254V36.5968ZM250.478 38.5479L250.037 39.0228L250.054 39.0391L250.073 39.054L250.478 38.5479ZM251.503 28.7147C253.817 28.7147 255.478 29.2377 256.586 30.1851L257.428 29.2001C256.001 27.9796 253.993 27.4186 251.503 27.4186V28.7147ZM256.589 30.1884C257.664 31.0934 258.26 32.5316 258.26 34.6456H259.556C259.556 32.2903 258.884 30.4265 257.424 29.1969L256.589 30.1884ZM258.26 34.6456V42H259.556V34.6456H258.26ZM258.908 41.3519H253.655V42.6481H258.908V41.3519ZM254.303 42V40.1989H253.007V42H254.303ZM253.069 39.9206C252.558 40.9957 251.545 41.6021 249.777 41.6021V42.8982C251.879 42.8982 253.451 42.1371 254.24 40.4773L253.069 39.9206ZM249.777 41.6021C248.764 41.6021 247.94 41.4305 247.28 41.1152L246.721 42.2845C247.596 42.7029 248.622 42.8982 249.777 42.8982V41.6021ZM247.296 41.1228C246.636 40.7854 246.153 40.3515 245.823 39.8279L244.727 40.52C245.197 41.2638 245.865 41.8471 246.706 42.2769L247.296 41.1228ZM245.833 39.8447C245.512 39.3001 245.347 38.6895 245.347 37.9976H244.051C244.051 38.9066 244.271 39.7469 244.717 40.5031L245.833 39.8447ZM245.347 37.9976C245.347 36.841 245.774 36.026 246.614 35.4573L245.887 34.3842C244.658 35.2164 244.051 36.4526 244.051 37.9976H245.347ZM246.614 35.4573C247.49 34.864 248.902 34.5182 250.953 34.5182V33.2221C248.802 33.2221 247.079 33.5767 245.887 34.3842L246.614 35.4573ZM250.953 34.5182H253.229V33.2221H250.953V34.5182ZM253.868 33.7604C253.748 33.0588 253.389 32.4911 252.79 32.119C252.218 31.7634 251.483 31.6211 250.653 31.6211V32.9172C251.357 32.9172 251.819 33.0418 252.106 33.2199C252.366 33.3814 252.528 33.6142 252.591 33.9799L253.868 33.7604ZM250.653 31.6211C249.965 31.6211 249.274 31.7329 248.582 31.9514L248.972 33.1873C249.547 33.0056 250.107 32.9172 250.653 32.9172V31.6211ZM248.597 31.9469C247.902 32.148 247.287 32.4373 246.765 32.8241L247.537 33.8656C247.915 33.5853 248.384 33.3576 248.957 33.1919L248.597 31.9469ZM247.734 33.0629L245.933 29.3356L244.766 29.8996L246.567 33.6268L247.734 33.0629ZM245.69 30.1691C246.404 29.7284 247.28 29.376 248.329 29.1217L248.024 27.8621C246.871 28.1415 245.863 28.5395 245.009 29.0661L245.69 30.1691ZM248.336 29.1201C249.404 28.8492 250.459 28.7147 251.503 28.7147V27.4186C250.347 27.4186 249.184 27.5677 248.017 27.8638L248.336 29.1201ZM251.478 39.4962C252.003 39.4962 252.491 39.3516 252.92 39.0578L252.188 37.9881C251.984 38.1279 251.754 38.2001 251.478 38.2001V39.4962ZM252.92 39.0578C253.373 38.7481 253.68 38.2978 253.867 37.7593L252.642 37.3354C252.528 37.664 252.369 37.8641 252.188 37.9881L252.92 39.0578ZM253.903 37.5473V36.5968H252.606V37.5473H253.903ZM253.254 35.9487H251.854V37.2448H253.254V35.9487ZM251.854 35.9487C251.227 35.9487 250.643 36.0495 250.2 36.3452C249.71 36.6719 249.48 37.1751 249.48 37.7475H250.776C250.776 37.5527 250.833 37.4806 250.919 37.4237C251.05 37.3358 251.33 37.2448 251.854 37.2448V35.9487ZM249.48 37.7475C249.48 38.2456 249.672 38.6842 250.037 39.0228L250.919 38.073C250.817 37.9781 250.776 37.883 250.776 37.7475H249.48ZM250.073 39.054C250.469 39.3706 250.959 39.4962 251.478 39.4962V38.2001C251.164 38.2001 250.987 38.1255 250.883 38.0419L250.073 39.054ZM273.784 28.9422L273.457 29.5021L273.468 29.5083L273.784 28.9422ZM276.185 31.4187L275.614 31.7259L275.618 31.7327L276.185 31.4187ZM276.185 38.9232L275.618 38.6092L275.616 38.6122L276.185 38.9232ZM273.784 41.3996L274.103 41.9635L274.106 41.9617L273.784 41.3996ZM267.004 41.0744L267.458 40.6114L266.356 39.5329V41.0744H267.004ZM267.004 46.8529V47.501H267.653V46.8529H267.004ZM261.351 46.8529H260.703V47.501H261.351V46.8529ZM261.351 28.3168V27.6688H260.703V28.3168H261.351ZM266.729 28.3168H267.377V27.6688H266.729V28.3168ZM266.729 29.4425H266.081V31.1441L267.213 29.8736L266.729 29.4425ZM270.732 37.1471L271.215 37.5787L271.215 37.5787L270.732 37.1471ZM270.732 33.1947L270.241 33.6179L270.248 33.6264L270.732 33.1947ZM267.53 33.1947L268.013 33.6264L268.021 33.6179L267.53 33.1947ZM267.53 37.1471L267.046 37.5787L267.046 37.5787L267.53 37.1471ZM270.482 28.7147C271.572 28.7147 272.559 28.9783 273.457 29.502L274.11 28.3824C273.007 27.7388 271.793 27.4186 270.482 27.4186V28.7147ZM273.468 29.5083C274.371 30.0116 275.086 30.7443 275.614 31.7259L276.756 31.1114C276.117 29.9251 275.231 29.0068 274.099 28.3761L273.468 29.5083ZM275.618 31.7327C276.158 32.7075 276.437 33.8472 276.437 35.1709H277.734C277.734 33.6596 277.413 32.2979 276.752 31.1047L275.618 31.7327ZM276.437 35.1709C276.437 36.4946 276.158 37.6344 275.618 38.6092L276.752 39.2371C277.413 38.044 277.734 36.6823 277.734 35.1709H276.437ZM275.616 38.6122C275.088 39.5788 274.371 40.3156 273.461 40.8375L274.106 41.9617C275.231 41.3163 276.115 40.4021 276.754 39.2341L275.616 38.6122ZM273.464 40.8358C272.565 41.3451 271.575 41.6021 270.482 41.6021V42.8982C271.789 42.8982 273.001 42.5882 274.103 41.9635L273.464 40.8358ZM270.482 41.6021C269.072 41.6021 268.099 41.2396 267.458 40.6114L266.551 41.5375C267.511 42.4769 268.856 42.8982 270.482 42.8982V41.6021ZM266.356 41.0744V46.8529H267.653V41.0744H266.356ZM267.004 46.2048H261.351V47.501H267.004V46.2048ZM261.999 46.8529V28.3168H260.703V46.8529H261.999ZM261.351 28.9649H266.729V27.6688H261.351V28.9649ZM266.081 28.3168V29.4425H267.377V28.3168H266.081ZM267.213 29.8736C267.867 29.14 268.911 28.7147 270.482 28.7147V27.4186C268.684 27.4186 267.226 27.9105 266.245 29.0114L267.213 29.8736ZM269.131 38.4956C269.958 38.4956 270.67 38.1894 271.215 37.5787L270.248 36.7155C269.96 37.0387 269.605 37.1995 269.131 37.1995V38.4956ZM271.215 37.5787C271.771 36.9561 272.005 36.123 272.005 35.1709H270.709C270.709 35.9198 270.526 36.4042 270.248 36.7155L271.215 37.5787ZM272.005 35.1709C272.005 34.2188 271.771 33.3857 271.215 32.7631L270.248 33.6264C270.526 33.9376 270.709 34.422 270.709 35.1709H272.005ZM271.223 32.7716C270.68 32.1421 269.966 31.8212 269.131 31.8212V33.1174C269.597 33.1174 269.95 33.2801 270.241 33.6179L271.223 32.7716ZM269.131 31.8212C268.296 31.8212 267.582 32.1421 267.039 32.7716L268.021 33.6179C268.312 33.2801 268.665 33.1174 269.131 33.1174V31.8212ZM267.046 32.7631C266.49 33.3857 266.256 34.2188 266.256 35.1709H267.552C267.552 34.422 267.735 33.9376 268.013 33.6264L267.046 32.7631ZM266.256 35.1709C266.256 36.123 266.49 36.9561 267.046 37.5787L268.013 36.7155C267.735 36.4042 267.552 35.9198 267.552 35.1709H266.256ZM267.046 37.5787C267.592 38.1894 268.304 38.4956 269.131 38.4956V37.1995C268.657 37.1995 268.302 37.0387 268.013 36.7155L267.046 37.5787Z" fill="#21252D"/>
<path d="M53.7101 35.1001C52.8954 35.5979 51.9449 35.6885 51.2208 35.2811C50.3155 34.738 49.7724 33.516 49.7724 31.8413V26.7269C49.7724 24.2829 48.822 22.5177 47.1926 22.0651C44.4317 21.2504 42.3497 24.645 41.5803 25.9122L36.6922 33.7423V24.1018C36.647 21.8841 35.9228 20.5715 34.565 20.1642C33.6598 19.8926 32.302 20.0284 30.9894 22.0199L20.0817 39.4903C18.6334 36.7294 17.864 33.6517 17.864 30.5288C17.864 19.9832 26.3276 11.429 36.6922 11.429C47.0568 11.429 55.5205 19.9832 55.5205 30.5288V30.5741V30.6193C55.611 32.656 54.9774 34.2854 53.7101 35.1001ZM59.6844 30.5288V30.4835V30.4383C59.6392 17.6296 49.3198 7.1745 36.6922 7.1745C24.0193 7.1745 13.7 17.6296 13.7 30.5288C13.7 43.3827 24.0193 53.8831 36.6922 53.8831C42.5308 53.8831 48.0525 51.6653 52.307 47.6372C53.1669 46.8225 53.2122 45.5099 52.3975 44.65C51.6281 43.79 50.3156 43.7448 49.4556 44.5142C49.4556 44.5142 49.4556 44.5142 49.4103 44.5595C45.9706 47.8182 41.354 49.6739 36.6017 49.6739C31.0347 49.6739 26.0561 47.2298 22.6163 43.3374L32.4378 27.5869V34.8738C32.4378 38.3588 33.7956 39.4903 34.9271 39.8071C36.0586 40.124 37.7785 39.8977 39.6341 36.9558L45.0201 28.2205C45.2011 27.949 45.3369 27.6774 45.518 27.4963V31.9319C45.518 35.1906 46.8305 37.8157 49.0935 39.083C51.1302 40.2597 53.7101 40.124 55.8373 38.8114C58.4624 37.0915 59.8655 34.1043 59.6844 30.5288Z" fill="white"/>
</g>
<defs>
<clipPath id="clip0_68_1355">
<rect width="290" height="60" fill="white"/>
</clipPath>
</defs>
</svg>
