<svg width="207" height="60" viewBox="0 0 207 60" fill="none" xmlns="http://www.w3.org/2000/svg">
<g clip-path="url(#clip0_47_286)">
<path d="M79.5837 24.4895C81.2014 24.4895 82.6105 24.7564 83.8113 25.29C85.012 25.8237 85.9375 26.5908 86.5879 27.5914C87.2383 28.592 87.5635 29.7594 87.5635 31.0935C87.5635 32.4276 87.2383 33.595 86.5879 34.5956C85.9375 35.5962 85.012 36.3633 83.8113 36.897C82.6105 37.4306 81.2014 37.6974 79.5837 37.6974H77.0572V42H71.1537V24.4895H79.5837ZM79.2085 33.1447C80.009 33.1447 80.6093 32.9696 81.0096 32.6194C81.4098 32.2525 81.6099 31.7439 81.6099 31.0935C81.6099 30.4431 81.4098 29.9428 81.0096 29.5926C80.6093 29.2257 80.009 29.0423 79.2085 29.0423H77.0572V33.1447H79.2085ZM89.5688 28.3168H95.2222V42H89.5688V28.3168ZM92.3955 27.2162C91.3782 27.2162 90.5527 26.9493 89.919 26.4157C89.302 25.8654 88.9935 25.1733 88.9935 24.3394C88.9935 23.5056 89.302 22.8219 89.919 22.2882C90.5527 21.7379 91.3782 21.4627 92.3955 21.4627C93.4294 21.4627 94.2549 21.7212 94.872 22.2382C95.489 22.7552 95.7975 23.4222 95.7975 24.2394C95.7975 25.1066 95.489 25.8237 94.872 26.3907C94.2549 26.941 93.4294 27.2162 92.3955 27.2162ZM107.234 28.0667C108.918 28.0667 110.269 28.5753 111.286 29.5926C112.32 30.6099 112.837 32.1441 112.837 34.1953V42H107.184V35.1709C107.184 33.6033 106.625 32.8195 105.508 32.8195C104.874 32.8195 104.357 33.0446 103.957 33.4949C103.573 33.9285 103.381 34.6206 103.381 35.5712V42H97.728V28.3168H103.106V29.6676C103.64 29.134 104.257 28.7337 104.957 28.4669C105.658 28.2001 106.416 28.0667 107.234 28.0667ZM121.846 37.7975L120.946 38.7731V42H115.292V23.4389H120.946V32.2942L124.873 28.3168H131.552L125.899 34.2454L132.002 42H125.173L121.846 37.7975ZM139.829 42.4002C138.378 42.4002 136.961 42.2418 135.577 41.925C134.209 41.5914 133.083 41.1495 132.2 40.5992L134.101 36.2966C134.935 36.7802 135.868 37.1721 136.902 37.4723C137.936 37.7558 138.929 37.8975 139.879 37.8975C140.696 37.8975 141.28 37.8225 141.63 37.6724C141.98 37.5056 142.155 37.2638 142.155 36.947C142.155 36.5801 141.922 36.3049 141.455 36.1215C141.005 35.938 140.254 35.7379 139.204 35.5211C137.853 35.2376 136.727 34.9374 135.827 34.6206C134.926 34.2871 134.142 33.7534 133.475 33.0196C132.808 32.2692 132.475 31.2602 132.475 29.9928C132.475 28.8922 132.783 27.8916 133.4 26.991C134.017 26.0905 134.935 25.3817 136.152 24.8648C137.386 24.3478 138.879 24.0893 140.63 24.0893C141.83 24.0893 143.006 24.2227 144.157 24.4895C145.324 24.7397 146.35 25.1149 147.234 25.6152L145.457 29.8928C143.74 29.0256 142.114 28.592 140.58 28.592C139.062 28.592 138.303 28.9589 138.303 29.6926C138.303 30.0429 138.528 30.3097 138.979 30.4931C139.429 30.6599 140.171 30.8433 141.205 31.0435C142.539 31.2936 143.665 31.5854 144.582 31.919C145.499 32.2358 146.291 32.7611 146.958 33.4949C147.642 34.2287 147.984 35.2293 147.984 36.4967C147.984 37.5974 147.675 38.598 147.058 39.4985C146.441 40.3824 145.516 41.0911 144.282 41.6248C143.064 42.1418 141.58 42.4002 139.829 42.4002ZM155.694 28.0667C158.096 28.0667 159.93 28.6087 161.198 29.6926C162.465 30.76 163.099 32.4109 163.099 34.6456V42H157.846V40.1989C157.195 41.5664 155.903 42.2501 153.968 42.2501C152.884 42.2501 151.959 42.0667 151.192 41.6998C150.441 41.3163 149.866 40.8076 149.466 40.1739C149.082 39.5235 148.89 38.7981 148.89 37.9976C148.89 36.6468 149.407 35.6212 150.441 34.9208C151.475 34.2204 153.043 33.8701 155.144 33.8701H157.42C157.237 32.8028 156.378 32.2692 154.844 32.2692C154.227 32.2692 153.601 32.3692 152.968 32.5694C152.334 32.7528 151.792 33.0113 151.342 33.3448L149.541 29.6176C150.324 29.134 151.267 28.7588 152.367 28.4919C153.485 28.2084 154.594 28.0667 155.694 28.0667ZM155.669 38.8481C156.069 38.8481 156.428 38.7397 156.745 38.5229C157.062 38.3061 157.295 37.9809 157.445 37.5473V36.5968H156.044C154.894 36.5968 154.318 36.9803 154.318 37.7475C154.318 38.0643 154.435 38.3311 154.669 38.5479C154.919 38.7481 155.252 38.8481 155.669 38.8481ZM165.542 23.4389H171.195V42H165.542V23.4389ZM188.26 35.1459C188.26 35.2293 188.235 35.6712 188.185 36.4717H178.679C178.879 36.9887 179.213 37.3889 179.68 37.6724C180.147 37.9392 180.73 38.0727 181.431 38.0727C182.031 38.0727 182.531 37.9976 182.932 37.8475C183.349 37.6974 183.799 37.4389 184.282 37.0721L187.234 40.0488C185.9 41.5164 183.907 42.2501 181.256 42.2501C179.605 42.2501 178.154 41.95 176.903 41.3496C175.652 40.7326 174.685 39.8821 174.001 38.7981C173.318 37.7141 172.976 36.4967 172.976 35.1459C172.976 33.7784 173.309 32.561 173.976 31.4937C174.66 30.4097 175.586 29.5676 176.753 28.9672C177.937 28.3669 179.263 28.0667 180.73 28.0667C182.114 28.0667 183.374 28.3418 184.508 28.8922C185.658 29.4425 186.567 30.2513 187.234 31.3186C187.918 32.3859 188.26 33.6617 188.26 35.1459ZM180.78 31.919C180.197 31.919 179.713 32.0774 179.329 32.3943C178.946 32.7111 178.696 33.1614 178.579 33.7451H182.982C182.865 33.1781 182.615 32.7361 182.231 32.4193C181.848 32.0857 181.364 31.919 180.78 31.919Z" fill="white"/>
<path d="M83.8113 25.29L83.5481 25.8822L83.5481 25.8822L83.8113 25.29ZM86.5879 27.5914L86.0446 27.9446L86.0446 27.9446L86.5879 27.5914ZM86.5879 34.5956L86.0446 34.2424L86.0446 34.2424L86.5879 34.5956ZM83.8113 36.897L83.5481 36.3048L83.5481 36.3048L83.8113 36.897ZM77.0572 37.6974V37.0494H76.4092V37.6974H77.0572ZM77.0572 42V42.6481H77.7053V42H77.0572ZM71.1537 42H70.5056V42.6481H71.1537V42ZM71.1537 24.4895V23.8415H70.5056V24.4895H71.1537ZM81.0096 32.6194L81.4363 33.1071L81.442 33.1022L81.4475 33.0971L81.0096 32.6194ZM81.0096 29.5926L80.5717 30.0703L80.5772 30.0754L80.5828 30.0803L81.0096 29.5926ZM77.0572 29.0423V28.3942H76.4092V29.0423H77.0572ZM77.0572 33.1447H76.4092V33.7928H77.0572V33.1447ZM79.5837 25.1376C81.1311 25.1376 82.447 25.3929 83.5481 25.8822L84.0745 24.6978C82.7741 24.1199 81.2716 23.8415 79.5837 23.8415V25.1376ZM83.5481 25.8822C84.6463 26.3703 85.4693 27.0596 86.0446 27.9446L87.1313 27.2382C86.4058 26.122 85.3777 25.277 84.0745 24.6978L83.5481 25.8822ZM86.0446 27.9446C86.6187 28.8279 86.9154 29.8694 86.9154 31.0935H88.2116C88.2116 29.6493 87.8579 28.356 87.1313 27.2382L86.0446 27.9446ZM86.9154 31.0935C86.9154 32.3175 86.6187 33.359 86.0446 34.2424L87.1313 34.9488C87.8579 33.8309 88.2116 32.5377 88.2116 31.0935H86.9154ZM86.0446 34.2424C85.4693 35.1274 84.6463 35.8167 83.5481 36.3048L84.0745 37.4892C85.3777 36.9099 86.4058 36.065 87.1313 34.9488L86.0446 34.2424ZM83.5481 36.3048C82.447 36.7941 81.1311 37.0494 79.5837 37.0494V38.3455C81.2716 38.3455 82.7741 38.0671 84.0745 37.4892L83.5481 36.3048ZM79.5837 37.0494H77.0572V38.3455H79.5837V37.0494ZM76.4092 37.6974V42H77.7053V37.6974H76.4092ZM77.0572 41.3519H71.1537V42.6481H77.0572V41.3519ZM71.8018 42V24.4895H70.5056V42H71.8018ZM71.1537 25.1376H79.5837V23.8415H71.1537V25.1376ZM79.2085 33.7928C80.0892 33.7928 80.8708 33.602 81.4363 33.1071L80.5828 32.1317C80.3479 32.3372 79.9288 32.4967 79.2085 32.4967V33.7928ZM81.4475 33.0971C82.0079 32.5834 82.258 31.8865 82.258 31.0935H80.9619C80.9619 31.6013 80.8117 31.9216 80.5717 32.1417L81.4475 33.0971ZM82.258 31.0935C82.258 30.3015 82.008 29.6051 81.4363 29.1049L80.5828 30.0803C80.8116 30.2805 80.9619 30.5847 80.9619 31.0935H82.258ZM81.4475 29.1149C80.8818 28.5963 80.0956 28.3942 79.2085 28.3942V29.6903C79.9224 29.6903 80.3369 29.8551 80.5717 30.0703L81.4475 29.1149ZM79.2085 28.3942H77.0572V29.6903H79.2085V28.3942ZM76.4092 29.0423V33.1447H77.7053V29.0423H76.4092ZM77.0572 33.7928H79.2085V32.4967H77.0572V33.7928ZM89.5688 28.3168V27.6688H88.9207V28.3168H89.5688ZM95.2222 28.3168H95.8702V27.6688H95.2222V28.3168ZM95.2222 42V42.6481H95.8702V42H95.2222ZM89.5688 42H88.9207V42.6481H89.5688V42ZM89.919 26.4157L89.4877 26.8993L89.4945 26.9055L89.5016 26.9114L89.919 26.4157ZM89.919 22.2882L90.3429 22.7784L90.3439 22.7775L89.919 22.2882ZM94.872 22.2382L94.4558 22.7349L94.4558 22.7349L94.872 22.2382ZM94.872 26.3907L95.3034 26.8744L95.3105 26.8679L94.872 26.3907ZM89.5688 28.9649H95.2222V27.6688H89.5688V28.9649ZM94.5741 28.3168V42H95.8702V28.3168H94.5741ZM95.2222 41.3519H89.5688V42.6481H95.2222V41.3519ZM90.2169 42V28.3168H88.9207V42H90.2169ZM92.3955 26.5681C91.4949 26.5681 90.8284 26.3343 90.3364 25.92L89.5016 26.9114C90.277 27.5644 91.2615 27.8642 92.3955 27.8642V26.5681ZM90.3504 25.932C89.8725 25.5059 89.6415 24.9903 89.6415 24.3394H88.3454C88.3454 25.3562 88.7314 26.2248 89.4877 26.8993L90.3504 25.932ZM89.6415 24.3394C89.6415 23.689 89.8718 23.1859 90.3429 22.7784L89.4951 21.7981C88.7321 22.4579 88.3454 23.3222 88.3454 24.3394H89.6415ZM90.3439 22.7775C90.836 22.3502 91.4998 22.1108 92.3955 22.1108V20.8147C91.2567 20.8147 90.2694 21.1256 89.4941 21.7989L90.3439 22.7775ZM92.3955 22.1108C93.3214 22.1108 93.9853 22.3407 94.4558 22.7349L95.2882 21.7414C94.5246 21.1017 93.5375 20.8147 92.3955 20.8147V22.1108ZM94.4558 22.7349C94.9233 23.1266 95.1495 23.6106 95.1495 24.2394H96.4456C96.4456 23.2339 96.0547 22.3837 95.2882 21.7414L94.4558 22.7349ZM95.1495 24.2394C95.1495 24.9324 94.9118 25.474 94.4335 25.9135L95.3105 26.8679C96.0662 26.1734 96.4456 25.2808 96.4456 24.2394H95.1495ZM94.4406 25.907C93.9699 26.3268 93.3117 26.5681 92.3955 26.5681V27.8642C93.5471 27.8642 94.5399 27.5552 95.3033 26.8743L94.4406 25.907ZM111.286 29.5926L110.828 30.0508L110.832 30.0545L111.286 29.5926ZM112.837 42V42.6481H113.485V42H112.837ZM107.184 42H106.536V42.6481H107.184V42ZM103.957 33.4949L103.472 33.0644L103.471 33.0655L103.957 33.4949ZM103.381 42V42.6481H104.029V42H103.381ZM97.728 42H97.0799V42.6481H97.728V42ZM97.728 28.3168V27.6688H97.0799V28.3168H97.728ZM103.106 28.3168H103.754V27.6688H103.106V28.3168ZM103.106 29.6676H102.458V31.2322L103.564 30.1259L103.106 29.6676ZM104.957 28.4669L105.188 29.0725L105.188 29.0725L104.957 28.4669ZM107.234 28.7147C108.778 28.7147 109.953 29.1758 110.828 30.0508L111.744 29.1343C110.585 27.9748 109.058 27.4186 107.234 27.4186V28.7147ZM110.832 30.0545C111.698 30.9069 112.189 32.2449 112.189 34.1953H113.485C113.485 32.0433 112.942 30.3128 111.741 29.1306L110.832 30.0545ZM112.189 34.1953V42H113.485V34.1953H112.189ZM112.837 41.3519H107.184V42.6481H112.837V41.3519ZM107.832 42V35.1709H106.536V42H107.832ZM107.832 35.1709C107.832 34.3297 107.685 33.5826 107.292 33.0312C106.871 32.4395 106.237 32.1715 105.508 32.1715V33.4676C105.895 33.4676 106.1 33.5914 106.237 33.7835C106.403 34.016 106.536 34.4445 106.536 35.1709H107.832ZM105.508 32.1715C104.7 32.1715 104.003 32.4678 103.472 33.0644L104.441 33.9255C104.711 33.6215 105.048 33.4676 105.508 33.4676V32.1715ZM103.471 33.0655C102.934 33.6734 102.733 34.5574 102.733 35.5712H104.029C104.029 34.6838 104.213 34.1837 104.442 33.9243L103.471 33.0655ZM102.733 35.5712V42H104.029V35.5712H102.733ZM103.381 41.3519H97.728V42.6481H103.381V41.3519ZM98.376 42V28.3168H97.0799V42H98.376ZM97.728 28.9649H103.106V27.6688H97.728V28.9649ZM102.458 28.3168V29.6676H103.754V28.3168H102.458ZM103.564 30.1259C104.034 29.6564 104.574 29.3066 105.188 29.0725L104.727 27.8613C103.94 28.1609 103.246 28.6116 102.648 29.2094L103.564 30.1259ZM105.188 29.0725C105.808 28.8362 106.488 28.7147 107.234 28.7147V27.4186C106.345 27.4186 105.507 27.564 104.727 27.8613L105.188 29.0725ZM121.846 37.7975L122.354 37.3952L121.884 36.8011L121.37 37.3579L121.846 37.7975ZM120.946 38.7731L120.469 38.3335L120.297 38.5197V38.7731H120.946ZM120.946 42V42.6481H121.594V42H120.946ZM115.292 42H114.644V42.6481H115.292V42ZM115.292 23.4389V22.7909H114.644V23.4389H115.292ZM120.946 23.4389H121.594V22.7909H120.946V23.4389ZM120.946 32.2942H120.297V33.8729L121.407 32.7495L120.946 32.2942ZM124.873 28.3168V27.6688H124.602L124.412 27.8615L124.873 28.3168ZM131.552 28.3168L132.021 28.7641L133.065 27.6688H131.552V28.3168ZM125.899 34.2454L125.43 33.7981L125.042 34.2047L125.389 34.6462L125.899 34.2454ZM132.002 42V42.6481H133.337L132.511 41.5992L132.002 42ZM125.173 42L124.665 42.4023L124.86 42.6481H125.173V42ZM121.37 37.3579L120.469 38.3335L121.422 39.2126L122.322 38.2371L121.37 37.3579ZM120.297 38.7731V42H121.594V38.7731H120.297ZM120.946 41.3519H115.292V42.6481H120.946V41.3519ZM115.94 42V23.4389H114.644V42H115.94ZM115.292 24.087H120.946V22.7909H115.292V24.087ZM120.297 23.4389V32.2942H121.594V23.4389H120.297ZM121.407 32.7495L125.334 28.7722L124.412 27.8615L120.484 31.8389L121.407 32.7495ZM124.873 28.9649H131.552V27.6688H124.873V28.9649ZM131.083 27.8696L125.43 33.7981L126.368 34.6926L132.021 28.7641L131.083 27.8696ZM125.389 34.6462L131.493 42.4008L132.511 41.5992L126.408 33.8445L125.389 34.6462ZM132.002 41.3519H125.173V42.6481H132.002V41.3519ZM125.681 41.5977L122.354 37.3952L121.338 38.1997L124.665 42.4023L125.681 41.5977ZM135.577 41.925L135.423 42.5546L135.432 42.5567L135.577 41.925ZM132.2 40.5992L131.607 40.3372L131.379 40.8519L131.857 41.1493L132.2 40.5992ZM134.101 36.2966L134.426 35.736L133.8 35.3732L133.508 36.0347L134.101 36.2966ZM136.902 37.4723L136.722 38.0947L136.731 38.0973L136.902 37.4723ZM141.63 37.6724L141.885 38.2681L141.897 38.263L141.909 38.2575L141.63 37.6724ZM141.455 36.1215L141.211 36.7217L141.218 36.7247L141.455 36.1215ZM139.204 35.5211L139.071 36.1554L139.073 36.1558L139.204 35.5211ZM135.827 34.6206L135.602 35.2284L135.612 35.2319L135.827 34.6206ZM133.475 33.0196L132.991 33.4502L132.996 33.4556L133.475 33.0196ZM133.4 26.991L133.935 27.3573L133.935 27.3573L133.4 26.991ZM136.152 24.8648L135.902 24.267L135.899 24.2683L136.152 24.8648ZM144.157 24.4895L144.01 25.1209L144.021 25.1232L144.157 24.4895ZM147.234 25.6152L147.832 25.8637L148.052 25.3339L147.553 25.0512L147.234 25.6152ZM145.457 29.8928L145.165 30.4713L145.788 30.7858L146.056 30.1413L145.457 29.8928ZM138.979 30.4931L138.734 31.0933L138.744 31.0972L138.754 31.1008L138.979 30.4931ZM141.205 31.0435L141.082 31.6797L141.085 31.6804L141.205 31.0435ZM144.582 31.919L144.36 32.5281L144.37 32.5315L144.582 31.919ZM146.958 33.4949L146.479 33.9309L146.484 33.9367L146.958 33.4949ZM147.058 39.4985L147.59 39.8695L147.593 39.8648L147.058 39.4985ZM144.282 41.6248L144.535 42.2213L144.539 42.2196L144.282 41.6248ZM139.829 41.7522C138.426 41.7522 137.057 41.599 135.721 41.2932L135.432 42.5567C136.865 42.8846 138.331 43.0483 139.829 43.0483V41.7522ZM135.73 41.2954C134.408 40.9728 133.351 40.5528 132.542 40.049L131.857 41.1493C132.816 41.7462 134.011 42.2101 135.423 42.5546L135.73 41.2954ZM132.792 40.8611L134.693 36.5585L133.508 36.0347L131.607 40.3372L132.792 40.8611ZM133.776 36.8572C134.66 37.37 135.643 37.7815 136.722 38.0947L137.083 36.8499C136.094 36.5627 135.209 36.1904 134.426 35.736L133.776 36.8572ZM136.731 38.0973C137.814 38.3942 138.864 38.5456 139.879 38.5456V37.2495C138.993 37.2495 138.059 37.1174 137.074 36.8473L136.731 38.0973ZM139.879 38.5456C140.706 38.5456 141.405 38.4739 141.885 38.2681L141.375 37.0768C141.155 37.1711 140.686 37.2495 139.879 37.2495V38.5456ZM141.909 38.2575C142.153 38.141 142.382 37.9773 142.549 37.7461C142.722 37.5076 142.804 37.233 142.804 36.947H141.507C141.507 36.9659 141.505 36.9746 141.504 36.9767C141.504 36.9785 141.503 36.9809 141.499 36.9859C141.492 36.9965 141.457 37.037 141.352 37.0873L141.909 38.2575ZM142.804 36.947C142.804 36.6128 142.692 36.303 142.475 36.0462C142.267 35.8014 141.988 35.6347 141.692 35.5183L141.218 36.7247C141.389 36.7917 141.46 36.8543 141.486 36.8847C141.498 36.8982 141.501 36.9065 141.503 36.9105C141.504 36.9147 141.507 36.9252 141.507 36.947H142.804ZM141.7 35.5213C141.19 35.3137 140.389 35.104 139.335 34.8864L139.073 36.1558C140.119 36.3718 140.82 36.5624 141.211 36.7216L141.7 35.5213ZM139.337 34.8869C138.003 34.6069 136.907 34.3136 136.042 34.0093L135.612 35.2319C136.548 35.5613 137.703 35.8684 139.071 36.1554L139.337 34.8869ZM136.052 34.0129C135.252 33.7166 134.554 33.2433 133.955 32.5837L132.996 33.4556C133.73 34.2636 134.601 34.8575 135.602 35.2283L136.052 34.0129ZM133.96 32.5891C133.424 31.9859 133.123 31.1446 133.123 29.9928H131.827C131.827 31.3759 132.193 32.5524 132.991 33.4502L133.96 32.5891ZM133.123 29.9928C133.123 29.0218 133.392 28.1491 133.935 27.3573L132.866 26.6247C132.174 27.6341 131.827 28.7626 131.827 29.9928H133.123ZM133.935 27.3573C134.468 26.5785 135.277 25.9402 136.405 25.4613L135.899 24.2683C134.592 24.8233 133.566 25.6024 132.866 26.6247L133.935 27.3573ZM136.402 25.4625C137.537 24.9873 138.939 24.7374 140.63 24.7374V23.4412C138.818 23.4412 137.235 23.7083 135.902 24.267L136.402 25.4625ZM140.63 24.7374C141.782 24.7374 142.908 24.8653 144.01 25.1208L144.303 23.8582C143.104 23.5801 141.879 23.4412 140.63 23.4412V24.7374ZM144.021 25.1232C145.135 25.3619 146.097 25.7164 146.914 26.1792L147.553 25.0512C146.603 24.5134 145.513 24.1174 144.292 23.8559L144.021 25.1232ZM146.635 25.3667L144.859 29.6443L146.056 30.1413L147.832 25.8637L146.635 25.3667ZM145.75 29.3143C143.964 28.4127 142.238 27.9439 140.58 27.9439V29.24C141.99 29.24 143.516 29.6385 145.165 30.4713L145.75 29.3143ZM140.58 27.9439C139.789 27.9439 139.102 28.0361 138.59 28.2837C138.325 28.4118 138.085 28.5921 137.912 28.8433C137.735 29.0996 137.655 29.3913 137.655 29.6926H138.951C138.951 29.6272 138.966 29.5978 138.979 29.5789C138.996 29.5549 139.04 29.506 139.154 29.4506C139.401 29.3313 139.852 29.24 140.58 29.24V27.9439ZM137.655 29.6926C137.655 30.0202 137.765 30.3226 137.977 30.5733C138.178 30.8121 138.448 30.9767 138.734 31.0933L139.223 29.893C139.059 29.8261 138.991 29.7656 138.967 29.7375C138.957 29.7252 138.955 29.7189 138.954 29.7175C138.954 29.7162 138.951 29.7095 138.951 29.6926H137.655ZM138.754 31.1008C139.257 31.2874 140.044 31.4788 141.082 31.6797L141.328 30.4072C140.298 30.2078 139.601 30.0324 139.204 29.8854L138.754 31.1008ZM141.085 31.6804C142.397 31.9264 143.486 32.2102 144.36 32.528L144.803 31.3099C143.843 30.9607 142.681 30.6608 141.324 30.4065L141.085 31.6804ZM144.37 32.5315C145.183 32.8121 145.883 33.2756 146.479 33.9308L147.438 33.059C146.699 32.2467 145.816 31.6596 144.794 31.3064L144.37 32.5315ZM146.484 33.9367C147.029 34.5212 147.336 35.3482 147.336 36.4967H148.632C148.632 35.1103 148.255 33.9362 147.432 33.0531L146.484 33.9367ZM147.336 36.4967C147.336 37.4678 147.066 38.3405 146.524 39.1322L147.593 39.8648C148.285 38.8555 148.632 37.727 148.632 36.4967H147.336ZM146.527 39.1275C145.994 39.8911 145.175 40.5323 144.025 41.03L144.539 42.2196C145.856 41.65 146.889 40.8737 147.59 39.8695L146.527 39.1275ZM144.028 41.0283C142.913 41.5021 141.52 41.7522 139.829 41.7522V43.0483C141.64 43.0483 143.216 42.7814 144.535 42.2213L144.028 41.0283ZM161.198 29.6926L160.776 30.1852L160.78 30.1884L161.198 29.6926ZM163.099 42V42.6481H163.747V42H163.099ZM157.846 42H157.197V42.6481H157.846V42ZM157.846 40.1989H158.494L157.26 39.9206L157.846 40.1989ZM151.192 41.6998L150.897 42.2769L150.904 42.2808L150.912 42.2845L151.192 41.6998ZM149.466 40.1739L148.907 40.5031L148.912 40.5116L148.918 40.52L149.466 40.1739ZM150.441 34.9208L150.078 34.3842L150.078 34.3842L150.441 34.9208ZM157.42 33.8701V34.5182H158.189L158.059 33.7604L157.42 33.8701ZM152.968 32.5694L153.148 33.1919L153.155 33.1897L153.163 33.1873L152.968 32.5694ZM151.342 33.3448L150.758 33.6268L151.099 34.3313L151.727 33.8656L151.342 33.3448ZM149.541 29.6176L149.2 29.0661L148.703 29.3731L148.957 29.8996L149.541 29.6176ZM152.367 28.4919L152.52 29.1218L152.527 29.1201L152.367 28.4919ZM156.745 38.5229L156.379 37.9881L156.379 37.9881L156.745 38.5229ZM157.445 37.5473L158.058 37.7593L158.093 37.6563V37.5473H157.445ZM157.445 36.5968H158.093V35.9487H157.445V36.5968ZM154.669 38.5479L154.228 39.0228L154.245 39.0391L154.264 39.054L154.669 38.5479ZM155.694 28.7147C158.008 28.7147 159.669 29.2377 160.776 30.1851L161.619 29.2001C160.192 27.9796 158.183 27.4186 155.694 27.4186V28.7147ZM160.78 30.1884C161.855 31.0934 162.451 32.5316 162.451 34.6456H163.747C163.747 32.2903 163.075 30.4265 161.615 29.1969L160.78 30.1884ZM162.451 34.6456V42H163.747V34.6456H162.451ZM163.099 41.3519H157.846V42.6481H163.099V41.3519ZM158.494 42V40.1989H157.197V42H158.494ZM157.26 39.9206C156.749 40.9957 155.736 41.6021 153.968 41.6021V42.8982C156.07 42.8982 157.641 42.1371 158.431 40.4773L157.26 39.9206ZM153.968 41.6021C152.955 41.6021 152.13 41.4305 151.471 41.1152L150.912 42.2845C151.787 42.7029 152.813 42.8982 153.968 42.8982V41.6021ZM151.486 41.1228C150.826 40.7854 150.344 40.3515 150.013 39.8279L148.918 40.52C149.387 41.2638 150.056 41.8471 150.897 42.2769L151.486 41.1228ZM150.024 39.8447C149.703 39.3001 149.538 38.6895 149.538 37.9976H148.242C148.242 38.9066 148.461 39.7469 148.907 40.5031L150.024 39.8447ZM149.538 37.9976C149.538 36.841 149.965 36.026 150.805 35.4573L150.078 34.3842C148.849 35.2164 148.242 36.4526 148.242 37.9976H149.538ZM150.805 35.4573C151.68 34.864 153.093 34.5182 155.144 34.5182V33.2221C152.992 33.2221 151.27 33.5767 150.078 34.3842L150.805 35.4573ZM155.144 34.5182H157.42V33.2221H155.144V34.5182ZM158.059 33.7604C157.938 33.0588 157.58 32.4911 156.981 32.119C156.408 31.7634 155.674 31.6211 154.844 31.6211V32.9172C155.548 32.9172 156.01 33.0418 156.297 33.2199C156.556 33.3814 156.719 33.6142 156.782 33.9799L158.059 33.7604ZM154.844 31.6211C154.156 31.6211 153.464 31.7329 152.772 31.9514L153.163 33.1873C153.738 33.0056 154.298 32.9172 154.844 32.9172V31.6211ZM152.787 31.9469C152.093 32.148 151.478 32.4373 150.956 32.8241L151.727 33.8656C152.106 33.5853 152.575 33.3576 153.148 33.1919L152.787 31.9469ZM151.925 33.0629L150.124 29.3356L148.957 29.8996L150.758 33.6268L151.925 33.0629ZM149.881 30.1691C150.595 29.7284 151.471 29.376 152.52 29.1217L152.215 27.8621C151.062 28.1415 150.054 28.5395 149.2 29.0661L149.881 30.1691ZM152.527 29.1201C153.594 28.8492 154.65 28.7147 155.694 28.7147V27.4186C154.537 27.4186 153.375 27.5677 152.208 27.8638L152.527 29.1201ZM155.669 39.4962C156.194 39.4962 156.681 39.3516 157.111 39.0578L156.379 37.9881C156.175 38.1279 155.945 38.2001 155.669 38.2001V39.4962ZM157.111 39.0578C157.563 38.7481 157.871 38.2978 158.058 37.7593L156.833 37.3354C156.719 37.664 156.56 37.8641 156.379 37.9881L157.111 39.0578ZM158.093 37.5473V36.5968H156.797V37.5473H158.093ZM157.445 35.9487H156.044V37.2448H157.445V35.9487ZM156.044 35.9487C155.418 35.9487 154.834 36.0495 154.39 36.3452C153.9 36.6719 153.67 37.1751 153.67 37.7475H154.966C154.966 37.5527 155.024 37.4806 155.109 37.4237C155.241 37.3358 155.521 37.2448 156.044 37.2448V35.9487ZM153.67 37.7475C153.67 38.2456 153.863 38.6842 154.228 39.0228L155.11 38.073C155.007 37.9781 154.966 37.883 154.966 37.7475H153.67ZM154.264 39.054C154.66 39.3706 155.15 39.4962 155.669 39.4962V38.2001C155.355 38.2001 155.178 38.1255 155.073 38.0419L154.264 39.054ZM165.542 23.4389V22.7909H164.894V23.4389H165.542ZM171.195 23.4389H171.843V22.7909H171.195V23.4389ZM171.195 42V42.6481H171.843V42H171.195ZM165.542 42H164.894V42.6481H165.542V42ZM165.542 24.087H171.195V22.7909H165.542V24.087ZM170.547 23.4389V42H171.843V23.4389H170.547ZM171.195 41.3519H165.542V42.6481H171.195V41.3519ZM166.19 42V23.4389H164.894V42H166.19ZM188.185 36.4717V37.1198H188.794L188.832 36.5121L188.185 36.4717ZM178.679 36.4717V35.8236H177.733L178.075 36.7056L178.679 36.4717ZM179.68 37.6724L179.343 38.2264L179.351 38.2308L179.358 38.2351L179.68 37.6724ZM182.932 37.8475L182.712 37.2377L182.704 37.2407L182.932 37.8475ZM184.282 37.0721L184.743 36.6157L184.343 36.2127L183.891 36.5558L184.282 37.0721ZM187.234 40.0488L187.714 40.4848L188.128 40.0295L187.694 39.5925L187.234 40.0488ZM176.903 41.3496L176.616 41.9308L176.623 41.9338L176.903 41.3496ZM174.001 38.7981L174.549 38.4523L174.001 38.7981ZM173.976 31.4937L173.428 31.148L173.427 31.1503L173.976 31.4937ZM176.753 28.9672L176.46 28.3892L176.457 28.3909L176.753 28.9672ZM184.508 28.8922L184.225 29.4752L184.228 29.4768L184.508 28.8922ZM187.234 31.3186L186.685 31.6621L186.688 31.6682L187.234 31.3186ZM179.329 32.3943L179.742 32.8939L179.742 32.8939L179.329 32.3943ZM178.579 33.7451L177.944 33.618L177.789 34.3931H178.579V33.7451ZM182.982 33.7451V34.3931H183.777L183.616 33.6144L182.982 33.7451ZM182.231 32.4193L181.806 32.9083L181.812 32.9137L181.818 32.9189L182.231 32.4193ZM187.612 35.1459C187.612 35.144 187.612 35.1503 187.611 35.1706C187.61 35.1888 187.609 35.2134 187.608 35.2448C187.605 35.3077 187.6 35.3936 187.594 35.5033C187.582 35.7223 187.563 36.0315 187.538 36.4313L188.832 36.5121C188.88 35.7289 188.908 35.2558 188.908 35.1459H187.612ZM188.185 35.8236H178.679V37.1198H188.185V35.8236ZM178.075 36.7056C178.326 37.3538 178.752 37.8675 179.343 38.2264L180.016 37.1185C179.673 36.9103 179.433 36.6236 179.283 36.2378L178.075 36.7056ZM179.358 38.2351C179.948 38.5723 180.651 38.7207 181.431 38.7207V37.4246C180.81 37.4246 180.345 37.3062 180.001 37.1097L179.358 38.2351ZM181.431 38.7207C182.08 38.7207 182.663 38.6403 183.159 38.4543L182.704 37.2407C182.4 37.3549 181.982 37.4246 181.431 37.4246V38.7207ZM183.151 38.4573C183.648 38.2784 184.156 37.9813 184.674 37.5884L183.891 36.5558C183.442 36.8965 183.049 37.1164 182.712 37.2378L183.151 38.4573ZM183.822 37.5284L186.774 40.5051L187.694 39.5925L184.743 36.6157L183.822 37.5284ZM186.755 39.6129C185.581 40.904 183.789 41.6021 181.256 41.6021V42.8982C184.025 42.8982 186.219 42.1287 187.714 40.4848L186.755 39.6129ZM181.256 41.6021C179.683 41.6021 178.332 41.3165 177.183 40.7654L176.623 41.9338C177.976 42.5835 179.526 42.8982 181.256 42.8982V41.6021ZM177.19 40.7684C176.036 40.1994 175.164 39.4264 174.549 38.4523L173.453 39.1438C174.206 40.3377 175.268 41.2657 176.616 41.9308L177.19 40.7684ZM174.549 38.4523C173.935 37.4776 173.624 36.3813 173.624 35.1459H172.328C172.328 36.6122 172.701 37.9506 173.453 39.1438L174.549 38.4523ZM173.624 35.1459C173.624 33.889 173.929 32.7926 174.526 31.8372L173.427 31.1503C172.69 32.3294 172.328 33.6679 172.328 35.1459H173.624ZM174.524 31.8395C175.145 30.8559 175.982 30.0923 177.049 29.5435L176.457 28.3909C175.189 29.0429 174.175 29.9636 173.428 31.148L174.524 31.8395ZM177.046 29.5452C178.13 28.9956 179.354 28.7147 180.73 28.7147V27.4186C179.172 27.4186 177.744 27.7381 176.46 28.3892L177.046 29.5452ZM180.73 28.7147C182.026 28.7147 183.187 28.9717 184.225 29.4752L184.79 28.3091C183.56 27.712 182.203 27.4186 180.73 27.4186V28.7147ZM184.228 29.4768C185.269 29.9748 186.084 30.7007 186.685 31.6621L187.784 30.9751C187.05 29.802 186.047 28.9102 184.787 28.3075L184.228 29.4768ZM186.688 31.6682C187.295 32.6144 187.612 33.764 187.612 35.1459H188.908C188.908 33.5593 188.541 32.1575 187.78 30.969L186.688 31.6682ZM180.78 31.2709C180.073 31.2709 179.436 31.4657 178.917 31.8946L179.742 32.8939C179.99 32.6891 180.32 32.567 180.78 32.567V31.2709ZM178.917 31.8946C178.397 32.3241 178.084 32.918 177.944 33.618L179.214 33.8722C179.308 33.4047 179.495 33.0981 179.742 32.8939L178.917 31.8946ZM178.579 34.3931H182.982V33.097H178.579V34.3931ZM183.616 33.6144C183.475 32.9275 183.159 32.3455 182.644 31.9196L181.818 32.9189C182.07 33.1267 182.255 33.4286 182.347 33.8757L183.616 33.6144ZM182.656 31.9302C182.138 31.4791 181.496 31.2709 180.78 31.2709V32.567C181.232 32.567 181.558 32.6924 181.806 32.9083L182.656 31.9302Z" fill="#21252D"/>
<mask id="mask0_47_286" style="mask-type:luminance" maskUnits="userSpaceOnUse" x="6" y="3" width="60" height="60">
<path d="M65.3589 3.97607H6.35892V62.9761H65.3589V3.97607Z" fill="white"/>
</mask>
<g mask="url(#mask0_47_286)">
<path d="M53.092 18.9245C53.3033 19.1959 53.3416 19.5494 53.4345 19.8716C53.664 20.7606 53.9463 21.635 54.1776 22.5238C54.2542 22.7114 54.2542 22.9938 54.4891 23.0612C55.4856 23.4511 56.531 23.7133 57.5073 24.1558C56.4601 24.5931 55.2978 24.828 54.316 25.3763C53.8935 26.5621 53.5437 27.7753 53.1739 28.9793C52.6366 27.8026 52.3798 26.5148 51.9335 25.2999C50.8769 24.9009 49.806 24.5476 48.7514 24.1432C49.7952 23.7133 50.8825 23.3981 51.939 23.0011C52.3251 21.6441 52.7276 20.2888 53.092 18.9245Z" fill="white"/>
</g>
<mask id="mask1_47_286" style="mask-type:luminance" maskUnits="userSpaceOnUse" x="6" y="3" width="60" height="60">
<path d="M65.3589 3.97607H6.35892V62.9761H65.3589V3.97607Z" fill="white"/>
</mask>
<g mask="url(#mask1_47_286)">
<path d="M25.1724 22.684C25.409 22.4892 25.7498 22.5765 26.0321 22.5474C28.0247 22.5785 30.0211 22.5165 32.0139 22.5748C32.7789 22.6823 32.7189 23.9082 31.9538 23.9519C29.8009 23.9701 27.6459 23.9701 25.4929 23.9519C24.8719 23.9208 24.6132 23.0064 25.1724 22.684Z" fill="white"/>
</g>
<mask id="mask2_47_286" style="mask-type:luminance" maskUnits="userSpaceOnUse" x="6" y="3" width="60" height="60">
<path d="M65.3589 3.97607H6.35892V62.9761H65.3589V3.97607Z" fill="white"/>
</mask>
<g mask="url(#mask2_47_286)">
<path d="M39.3871 22.6567C39.6311 22.4945 39.9517 22.5766 40.2287 22.5475C42.176 22.5694 44.1231 22.5365 46.0684 22.5602C46.613 22.542 46.9864 23.2796 46.5985 23.6878C46.4 23.9939 46.0066 23.9645 45.6895 23.9702C43.6967 23.9483 41.7041 23.9792 39.7113 23.9573C39.0393 23.9681 38.7734 22.9682 39.3871 22.6567Z" fill="white"/>
</g>
<mask id="mask3_47_286" style="mask-type:luminance" maskUnits="userSpaceOnUse" x="6" y="3" width="60" height="60">
<path d="M65.3589 3.97607H6.35892V62.9761H65.3589V3.97607Z" fill="white"/>
</mask>
<g mask="url(#mask3_47_286)">
<path d="M27.7424 26.1647C28.6531 25.7878 29.8151 26.5053 29.8244 27.5053C29.8408 29.5145 29.8226 31.5236 29.8334 33.5345C29.9227 34.4234 29.0957 35.2466 28.2104 35.1682C27.3708 35.1629 26.664 34.3651 26.7168 33.5363C26.7131 31.5945 26.7131 29.6528 26.7168 27.7129C26.6785 27.0409 27.1175 26.398 27.7424 26.1647Z" fill="white"/>
</g>
<mask id="mask4_47_286" style="mask-type:luminance" maskUnits="userSpaceOnUse" x="6" y="3" width="60" height="60">
<path d="M65.3589 3.97607H6.35892V62.9761H65.3589V3.97607Z" fill="white"/>
</mask>
<g mask="url(#mask4_47_286)">
<path d="M42.8498 26.5169C43.4982 26.3018 44.2506 26.5679 44.6259 27.1344C44.9426 27.5606 44.8935 28.1162 44.8973 28.6171C44.879 30.4332 44.9081 32.251 44.8863 34.067C44.8863 35.0105 43.857 35.7719 42.9555 35.5078C42.3052 35.3475 41.7713 34.7391 41.777 34.058C41.7642 32.0616 41.777 30.0634 41.7697 28.067C41.7241 27.3802 42.2067 26.7282 42.8498 26.5169Z" fill="white"/>
</g>
<mask id="mask5_47_286" style="mask-type:luminance" maskUnits="userSpaceOnUse" x="6" y="3" width="60" height="60">
<path d="M65.3589 3.97607H6.35892V62.9761H65.3589V3.97607Z" fill="white"/>
</mask>
<g mask="url(#mask5_47_286)">
<path d="M20.2613 30.1724C22.2339 29.7353 24.3415 31.2016 24.6365 33.1943C24.9097 34.657 24.2012 36.2271 22.9297 36.9957C21.5636 37.8773 19.6127 37.7024 18.4452 36.564C17.4086 35.6441 16.9825 34.1103 17.3923 32.7863C17.7605 31.4674 18.9152 30.4183 20.2613 30.1724Z" fill="white"/>
</g>
<mask id="mask6_47_286" style="mask-type:luminance" maskUnits="userSpaceOnUse" x="6" y="3" width="60" height="60">
<path d="M65.3589 3.97607H6.35892V62.9761H65.3589V3.97607Z" fill="white"/>
</mask>
<g mask="url(#mask6_47_286)">
<path d="M49.9593 30.1692C51.7862 29.7812 53.7389 30.9998 54.227 32.794C54.657 34.2239 54.125 35.8724 52.9319 36.7722C51.6952 37.7686 49.8081 37.8195 48.5221 36.8888C47.3472 36.0799 46.6987 34.5663 46.9848 33.1602C47.2361 31.6791 48.4784 30.4296 49.9593 30.1692Z" fill="white"/>
</g>
<mask id="mask7_47_286" style="mask-type:luminance" maskUnits="userSpaceOnUse" x="6" y="3" width="60" height="60">
<path d="M65.3589 3.97607H6.35892V62.9761H65.3589V3.97607Z" fill="white"/>
</mask>
<g mask="url(#mask7_47_286)">
<path d="M28.269 40.349C28.6424 40.0867 29.1397 40.1761 29.4802 40.4493C31.1177 41.6169 33.1396 42.1778 35.1377 42.2251C37.666 42.2981 40.1487 41.5495 42.3945 40.4328C42.8973 40.1395 43.5841 40.3527 43.8408 40.8719C44.1505 41.3891 43.8645 42.0996 43.3235 42.3254C40.5256 43.7389 37.3617 44.564 34.2142 44.2871C32.0739 44.0831 29.9245 43.4164 28.1941 42.1121C27.5658 41.706 27.6223 40.7079 28.269 40.349Z" fill="white"/>
</g>
</g>
<defs>
<clipPath id="clip0_47_286">
<rect width="207" height="60" fill="white"/>
</clipPath>
</defs>
</svg>
