<svg width="220" height="60" viewBox="0 0 220 60" fill="none" xmlns="http://www.w3.org/2000/svg">
<mask id="path-1-outside-1_263_2068" maskUnits="userSpaceOnUse" x="69" y="20" width="95" height="23" fill="black">
<rect fill="white" x="69" y="20" width="95" height="23"/>
<path d="M75.2281 29.0673H70.1001V24.4895H86.2597V29.0673H81.1317V42H75.2281V29.0673ZM87.3737 28.3168H93.027V42H87.3737V28.3168ZM90.2004 27.2162C89.1831 27.2162 88.3576 26.9493 87.7239 26.4157C87.1068 25.8654 86.7983 25.1733 86.7983 24.3394C86.7983 23.5056 87.1068 22.8219 87.7239 22.2882C88.3576 21.7379 89.1831 21.4627 90.2004 21.4627C91.2343 21.4627 92.0598 21.7212 92.6768 22.2382C93.2939 22.7552 93.6024 23.4222 93.6024 24.2394C93.6024 25.1066 93.2939 25.8237 92.6768 26.3907C92.0598 26.941 91.2343 27.2162 90.2004 27.2162ZM102.087 37.7975L101.186 38.7731V42H95.5328V23.4389H101.186V32.2942L105.114 28.3168H111.793L106.139 34.2454L112.243 42H105.414L102.087 37.7975ZM117.587 29.0673H112.459V24.4895H128.619V29.0673H123.491V42H117.587V29.0673ZM135.839 42.2501C134.321 42.2501 132.953 41.95 131.736 41.3496C130.535 40.7326 129.593 39.8904 128.909 38.8231C128.226 37.7391 127.884 36.5134 127.884 35.1459C127.884 33.7784 128.226 32.561 128.909 31.4937C129.593 30.4097 130.535 29.5676 131.736 28.9672C132.953 28.3669 134.321 28.0667 135.839 28.0667C137.373 28.0667 138.74 28.3669 139.941 28.9672C141.158 29.5676 142.101 30.4097 142.768 31.4937C143.451 32.561 143.793 33.7784 143.793 35.1459C143.793 36.5134 143.451 37.7391 142.768 38.8231C142.101 39.8904 141.158 40.7326 139.941 41.3496C138.74 41.95 137.373 42.2501 135.839 42.2501ZM135.839 37.8475C136.489 37.8475 137.023 37.614 137.44 37.1471C137.856 36.6635 138.065 35.9964 138.065 35.1459C138.065 34.2954 137.856 33.6367 137.44 33.1697C137.023 32.7028 136.489 32.4693 135.839 32.4693C135.188 32.4693 134.655 32.7028 134.238 33.1697C133.821 33.6367 133.612 34.2954 133.612 35.1459C133.612 35.9964 133.821 36.6635 134.238 37.1471C134.655 37.614 135.188 37.8475 135.839 37.8475ZM152.117 37.7975L151.216 38.7731V42H145.563V23.4389H151.216V32.2942L155.143 28.3168H161.822L156.169 34.2454L162.273 42H155.444L152.117 37.7975Z"/>
</mask>
<path d="M75.2281 29.0673H70.1001V24.4895H86.2597V29.0673H81.1317V42H75.2281V29.0673ZM87.3737 28.3168H93.027V42H87.3737V28.3168ZM90.2004 27.2162C89.1831 27.2162 88.3576 26.9493 87.7239 26.4157C87.1068 25.8654 86.7983 25.1733 86.7983 24.3394C86.7983 23.5056 87.1068 22.8219 87.7239 22.2882C88.3576 21.7379 89.1831 21.4627 90.2004 21.4627C91.2343 21.4627 92.0598 21.7212 92.6768 22.2382C93.2939 22.7552 93.6024 23.4222 93.6024 24.2394C93.6024 25.1066 93.2939 25.8237 92.6768 26.3907C92.0598 26.941 91.2343 27.2162 90.2004 27.2162ZM102.087 37.7975L101.186 38.7731V42H95.5328V23.4389H101.186V32.2942L105.114 28.3168H111.793L106.139 34.2454L112.243 42H105.414L102.087 37.7975ZM117.587 29.0673H112.459V24.4895H128.619V29.0673H123.491V42H117.587V29.0673ZM135.839 42.2501C134.321 42.2501 132.953 41.95 131.736 41.3496C130.535 40.7326 129.593 39.8904 128.909 38.8231C128.226 37.7391 127.884 36.5134 127.884 35.1459C127.884 33.7784 128.226 32.561 128.909 31.4937C129.593 30.4097 130.535 29.5676 131.736 28.9672C132.953 28.3669 134.321 28.0667 135.839 28.0667C137.373 28.0667 138.74 28.3669 139.941 28.9672C141.158 29.5676 142.101 30.4097 142.768 31.4937C143.451 32.561 143.793 33.7784 143.793 35.1459C143.793 36.5134 143.451 37.7391 142.768 38.8231C142.101 39.8904 141.158 40.7326 139.941 41.3496C138.74 41.95 137.373 42.2501 135.839 42.2501ZM135.839 37.8475C136.489 37.8475 137.023 37.614 137.44 37.1471C137.856 36.6635 138.065 35.9964 138.065 35.1459C138.065 34.2954 137.856 33.6367 137.44 33.1697C137.023 32.7028 136.489 32.4693 135.839 32.4693C135.188 32.4693 134.655 32.7028 134.238 33.1697C133.821 33.6367 133.612 34.2954 133.612 35.1459C133.612 35.9964 133.821 36.6635 134.238 37.1471C134.655 37.614 135.188 37.8475 135.839 37.8475ZM152.117 37.7975L151.216 38.7731V42H145.563V23.4389H151.216V32.2942L155.143 28.3168H161.822L156.169 34.2454L162.273 42H155.444L152.117 37.7975Z" fill="white"/>
<path d="M75.2281 29.0673H75.8762V28.4192H75.2281V29.0673ZM70.1001 29.0673H69.452V29.7153H70.1001V29.0673ZM70.1001 24.4895V23.8415H69.452V24.4895H70.1001ZM86.2597 24.4895H86.9078V23.8415H86.2597V24.4895ZM86.2597 29.0673V29.7153H86.9078V29.0673H86.2597ZM81.1317 29.0673V28.4192H80.4836V29.0673H81.1317ZM81.1317 42V42.6481H81.7797V42H81.1317ZM75.2281 42H74.5801V42.6481H75.2281V42ZM75.2281 28.4192H70.1001V29.7153H75.2281V28.4192ZM70.7481 29.0673V24.4895H69.452V29.0673H70.7481ZM70.1001 25.1376H86.2597V23.8415H70.1001V25.1376ZM85.6117 24.4895V29.0673H86.9078V24.4895H85.6117ZM86.2597 28.4192H81.1317V29.7153H86.2597V28.4192ZM80.4836 29.0673V42H81.7797V29.0673H80.4836ZM81.1317 41.3519H75.2281V42.6481H81.1317V41.3519ZM75.8762 42V29.0673H74.5801V42H75.8762ZM87.3737 28.3168V27.6688H86.7256V28.3168H87.3737ZM93.027 28.3168H93.6751V27.6688H93.027V28.3168ZM93.027 42V42.6481H93.6751V42H93.027ZM87.3737 42H86.7256V42.6481H87.3737V42ZM87.7239 26.4157L87.2925 26.8993L87.2994 26.9055L87.3064 26.9114L87.7239 26.4157ZM87.7239 22.2882L88.1478 22.7784L88.1488 22.7775L87.7239 22.2882ZM92.6768 22.2382L92.2606 22.7349L92.2606 22.7349L92.6768 22.2382ZM92.6768 26.3907L93.1082 26.8744L93.1153 26.8679L92.6768 26.3907ZM87.3737 28.9649H93.027V27.6688H87.3737V28.9649ZM92.379 28.3168V42H93.6751V28.3168H92.379ZM93.027 41.3519H87.3737V42.6481H93.027V41.3519ZM88.0217 42V28.3168H86.7256V42H88.0217ZM90.2004 26.5681C89.2998 26.5681 88.6333 26.3343 88.1413 25.92L87.3064 26.9114C88.0819 27.5644 89.0664 27.8642 90.2004 27.8642V26.5681ZM88.1552 25.932C87.6774 25.5059 87.4464 24.9903 87.4464 24.3394H86.1503C86.1503 25.3562 86.5363 26.2248 87.2925 26.8993L88.1552 25.932ZM87.4464 24.3394C87.4464 23.689 87.6767 23.1859 88.1478 22.7784L87.2999 21.7981C86.537 22.4579 86.1503 23.3222 86.1503 24.3394H87.4464ZM88.1488 22.7775C88.6409 22.3502 89.3046 22.1108 90.2004 22.1108V20.8147C89.0615 20.8147 88.0743 21.1256 87.299 21.7989L88.1488 22.7775ZM90.2004 22.1108C91.1263 22.1108 91.7901 22.3407 92.2606 22.7349L93.093 21.7414C92.3294 21.1017 91.3423 20.8147 90.2004 20.8147V22.1108ZM92.2606 22.7349C92.7282 23.1266 92.9543 23.6106 92.9543 24.2394H94.2504C94.2504 23.2339 93.8596 22.3837 93.093 21.7414L92.2606 22.7349ZM92.9543 24.2394C92.9543 24.9324 92.7166 25.474 92.2383 25.9135L93.1153 26.8679C93.8711 26.1734 94.2504 25.2808 94.2504 24.2394H92.9543ZM92.2455 25.907C91.7748 26.3268 91.1166 26.5681 90.2004 26.5681V27.8642C91.352 27.8642 92.3448 27.5552 93.1082 26.8743L92.2455 25.907ZM102.087 37.7975L102.595 37.3952L102.125 36.8011L101.611 37.3579L102.087 37.7975ZM101.186 38.7731L100.71 38.3335L100.538 38.5197V38.7731H101.186ZM101.186 42V42.6481H101.834V42H101.186ZM95.5328 42H94.8848V42.6481H95.5328V42ZM95.5328 23.4389V22.7909H94.8848V23.4389H95.5328ZM101.186 23.4389H101.834V22.7909H101.186V23.4389ZM101.186 32.2942H100.538V33.8729L101.647 32.7495L101.186 32.2942ZM105.114 28.3168V27.6688H104.843L104.652 27.8615L105.114 28.3168ZM111.793 28.3168L112.262 28.7641L113.306 27.6688H111.793V28.3168ZM106.139 34.2454L105.67 33.7981L105.282 34.2047L105.63 34.6462L106.139 34.2454ZM112.243 42V42.6481H113.578L112.752 41.5992L112.243 42ZM105.414 42L104.906 42.4023L105.1 42.6481H105.414V42ZM101.611 37.3579L100.71 38.3335L101.662 39.2126L102.563 38.2371L101.611 37.3579ZM100.538 38.7731V42H101.834V38.7731H100.538ZM101.186 41.3519H95.5328V42.6481H101.186V41.3519ZM96.1809 42V23.4389H94.8848V42H96.1809ZM95.5328 24.087H101.186V22.7909H95.5328V24.087ZM100.538 23.4389V32.2942H101.834V23.4389H100.538ZM101.647 32.7495L105.575 28.7722L104.652 27.8615L100.725 31.8389L101.647 32.7495ZM105.114 28.9649H111.793V27.6688H105.114V28.9649ZM111.324 27.8696L105.67 33.7981L106.608 34.6926L112.262 28.7641L111.324 27.8696ZM105.63 34.6462L111.734 42.4008L112.752 41.5992L106.648 33.8445L105.63 34.6462ZM112.243 41.3519H105.414V42.6481H112.243V41.3519ZM105.922 41.5977L102.595 37.3952L101.579 38.1997L104.906 42.4023L105.922 41.5977ZM117.587 29.0673H118.235V28.4192H117.587V29.0673ZM112.459 29.0673H111.811V29.7153H112.459V29.0673ZM112.459 24.4895V23.8415H111.811V24.4895H112.459ZM128.619 24.4895H129.267V23.8415H128.619V24.4895ZM128.619 29.0673V29.7153H129.267V29.0673H128.619ZM123.491 29.0673V28.4192H122.843V29.0673H123.491ZM123.491 42V42.6481H124.139V42H123.491ZM117.587 42H116.939V42.6481H117.587V42ZM117.587 28.4192H112.459V29.7153H117.587V28.4192ZM113.107 29.0673V24.4895H111.811V29.0673H113.107ZM112.459 25.1376H128.619V23.8415H112.459V25.1376ZM127.971 24.4895V29.0673H129.267V24.4895H127.971ZM128.619 28.4192H123.491V29.7153H128.619V28.4192ZM122.843 29.0673V42H124.139V29.0673H122.843ZM123.491 41.3519H117.587V42.6481H123.491V41.3519ZM118.235 42V29.0673H116.939V42H118.235ZM131.736 41.3496L131.44 41.9261L131.449 41.9308L131.736 41.3496ZM128.909 38.8231L128.361 39.1689L128.364 39.1727L128.909 38.8231ZM128.909 31.4937L129.455 31.8433L129.458 31.8395L128.909 31.4937ZM131.736 28.9672L131.449 28.386L131.446 28.3876L131.736 28.9672ZM139.941 28.9672L139.651 29.5469L139.654 29.5484L139.941 28.9672ZM142.768 31.4937L142.216 31.8334L142.222 31.8433L142.768 31.4937ZM142.768 38.8231L142.22 38.4774L142.218 38.4796L142.768 38.8231ZM139.941 41.3496L140.231 41.9293L140.234 41.9277L139.941 41.3496ZM137.44 37.1471L137.923 37.5788L137.93 37.5702L137.44 37.1471ZM134.238 37.1471L133.747 37.5703L133.754 37.5787L134.238 37.1471ZM135.839 41.6021C134.409 41.6021 133.141 41.3198 132.023 40.7684L131.449 41.9308C132.766 42.5801 134.233 42.8982 135.839 42.8982V41.6021ZM132.032 40.7732C130.926 40.2049 130.073 39.4382 129.455 38.4735L128.364 39.1727C129.113 40.3426 130.144 41.2602 131.44 41.926L132.032 40.7732ZM129.458 38.4774C128.844 37.5039 128.532 36.3996 128.532 35.1459H127.236C127.236 36.6272 127.608 37.9743 128.361 39.1688L129.458 38.4774ZM128.532 35.1459C128.532 33.8921 128.843 32.798 129.455 31.8433L128.364 31.1441C127.608 32.3241 127.236 33.6647 127.236 35.1459H128.532ZM129.458 31.8395C130.075 30.8604 130.926 30.0969 132.026 29.5469L131.446 28.3876C130.145 29.0382 129.111 29.9591 128.361 31.148L129.458 31.8395ZM132.023 29.5484C133.141 28.997 134.409 28.7147 135.839 28.7147V27.4186C134.233 27.4186 132.766 27.7367 131.449 28.386L132.023 29.5484ZM135.839 28.7147C137.287 28.7147 138.553 28.9975 139.651 29.5469L140.231 28.3876C138.928 27.7362 137.459 27.4186 135.839 27.4186V28.7147ZM139.654 29.5484C140.77 30.0986 141.617 30.8603 142.216 31.8334L143.32 31.1541C142.584 29.9592 141.547 29.0366 140.228 28.386L139.654 29.5484ZM142.222 31.8433C142.834 32.798 143.145 33.8921 143.145 35.1459H144.441C144.441 33.6647 144.069 32.3241 143.313 31.1441L142.222 31.8433ZM143.145 35.1459C143.145 36.3996 142.834 37.5039 142.22 38.4774L143.316 39.1688C144.069 37.9743 144.441 36.6272 144.441 35.1459H143.145ZM142.218 38.4796C141.619 39.4384 140.769 40.2032 139.648 40.7716L140.234 41.9277C141.547 41.2619 142.582 40.3424 143.317 39.1666L142.218 38.4796ZM139.651 40.77C138.553 41.3193 137.287 41.6021 135.839 41.6021V42.8982C137.459 42.8982 138.928 42.5806 140.231 41.9292L139.651 40.77ZM135.839 38.4956C136.665 38.4956 137.378 38.1894 137.923 37.5787L136.956 36.7155C136.667 37.0387 136.313 37.1995 135.839 37.1995V38.4956ZM137.93 37.5702C138.478 36.9347 138.713 36.0996 138.713 35.1459H137.417C137.417 35.8932 137.235 36.3922 136.949 36.724L137.93 37.5702ZM138.713 35.1459C138.713 34.1938 138.479 33.3607 137.923 32.7381L136.956 33.6013C137.234 33.9126 137.417 34.397 137.417 35.1459H138.713ZM137.923 32.7381C137.378 32.1275 136.665 31.8212 135.839 31.8212V33.1174C136.313 33.1174 136.667 33.2781 136.956 33.6013L137.923 32.7381ZM135.839 31.8212C135.012 31.8212 134.299 32.1275 133.754 32.7381L134.721 33.6013C135.01 33.2781 135.365 33.1174 135.839 33.1174V31.8212ZM133.754 32.7381C133.198 33.3607 132.964 34.1938 132.964 35.1459H134.26C134.26 34.397 134.443 33.9126 134.721 33.6013L133.754 32.7381ZM132.964 35.1459C132.964 36.0996 133.199 36.9347 133.747 37.5702L134.728 36.724C134.442 36.3922 134.26 35.8932 134.26 35.1459H132.964ZM133.754 37.5787C134.299 38.1894 135.012 38.4956 135.839 38.4956V37.1995C135.365 37.1995 135.01 37.0387 134.721 36.7155L133.754 37.5787ZM152.117 37.7975L152.625 37.3952L152.154 36.8011L151.64 37.3579L152.117 37.7975ZM151.216 38.7731L150.74 38.3335L150.568 38.5197V38.7731H151.216ZM151.216 42V42.6481H151.864V42H151.216ZM145.563 42H144.915V42.6481H145.563V42ZM145.563 23.4389V22.7909H144.915V23.4389H145.563ZM151.216 23.4389H151.864V22.7909H151.216V23.4389ZM151.216 32.2942H150.568V33.8729L151.677 32.7495L151.216 32.2942ZM155.143 28.3168V27.6688H154.873L154.682 27.8615L155.143 28.3168ZM161.822 28.3168L162.291 28.7641L163.336 27.6688H161.822V28.3168ZM156.169 34.2454L155.7 33.7981L155.312 34.2047L155.66 34.6462L156.169 34.2454ZM162.273 42V42.6481H163.608L162.782 41.5992L162.273 42ZM155.444 42L154.936 42.4023L155.13 42.6481H155.444V42ZM151.64 37.3579L150.74 38.3335L151.692 39.2126L152.593 38.2371L151.64 37.3579ZM150.568 38.7731V42H151.864V38.7731H150.568ZM151.216 41.3519H145.563V42.6481H151.216V41.3519ZM146.211 42V23.4389H144.915V42H146.211ZM145.563 24.087H151.216V22.7909H145.563V24.087ZM150.568 23.4389V32.2942H151.864V23.4389H150.568ZM151.677 32.7495L155.605 28.7722L154.682 27.8615L150.755 31.8389L151.677 32.7495ZM155.143 28.9649H161.822V27.6688H155.143V28.9649ZM161.353 27.8696L155.7 33.7981L156.638 34.6926L162.291 28.7641L161.353 27.8696ZM155.66 34.6462L161.763 42.4008L162.782 41.5992L156.678 33.8445L155.66 34.6462ZM162.273 41.3519H155.444V42.6481H162.273V41.3519ZM155.952 41.5977L152.625 37.3952L151.609 38.1997L154.936 42.4023L155.952 41.5977Z" fill="#21252D" mask="url(#path-1-outside-1_263_2068)"/>
<path d="M34.9947 7.03835C37.5059 7 39.9987 7.01994 42.49 7C42.5729 10.1157 43.8369 12.9199 45.8481 14.997L45.845 14.9939C48.0095 16.9437 50.8261 18.2078 53.931 18.4225L53.9739 18.4256V26.1511C51.0408 26.0774 48.2826 25.4009 45.7959 24.2381L45.9217 24.2903C44.719 23.7119 43.7019 23.1183 42.7355 22.4555L42.8153 22.5077C42.7968 28.1055 42.8337 33.7032 42.7769 39.281C42.6189 42.1236 41.6739 44.7161 40.1583 46.8807L40.189 46.8331C37.6547 50.4627 33.5496 52.8451 28.8815 52.9862H28.86C28.6713 52.9954 28.4489 53 28.2249 53C25.571 53 23.0905 52.2606 20.9765 50.9766L21.0379 51.0119C17.1905 48.697 14.5366 44.7361 14.0457 40.1293L14.0396 40.0664C14.0012 39.1077 13.9828 38.1489 14.0212 37.21C14.7728 29.8788 20.9152 24.2074 28.3814 24.2074C29.2205 24.2074 30.0428 24.2795 30.842 24.4161L30.7561 24.4038C30.7945 27.2402 30.6794 30.0782 30.6794 32.9147C30.0305 32.68 29.2819 32.5435 28.501 32.5435C25.6354 32.5435 23.1978 34.3751 22.2958 36.9324L22.282 36.9784C22.078 37.6334 21.9599 38.3866 21.9599 39.1659C21.9599 39.482 21.9798 39.7949 22.0166 40.1017L22.0136 40.0649C22.5229 43.2036 25.2136 45.5721 28.4581 45.5721C28.5517 45.5721 28.6437 45.5706 28.7358 45.566H28.722C30.9663 45.4985 32.9145 44.2912 34.016 42.5071L34.0313 42.4795C34.4409 41.9088 34.7216 41.2185 34.8152 40.4684L34.8167 40.4469C35.0085 37.0152 34.9318 33.6035 34.9502 30.1718C34.9686 22.4463 34.9318 14.7393 34.9885 7.03375L34.9947 7.03835Z" fill="white"/>
</svg>
