<svg width="187" height="60" viewBox="0 0 187 60" fill="none" xmlns="http://www.w3.org/2000/svg">
<g clip-path="url(#clip0_29_329)">
<path d="M75.2281 29.0673H70.1001V24.4895H86.2597V29.0673H81.1317V42H75.2281V29.0673ZM110.2 28.3168L105.447 42H99.9435L97.8672 35.6712L95.716 42H90.2127L85.4598 28.3168H90.813L93.1644 35.5461L95.6159 28.3168H100.419L102.795 35.6212L105.247 28.3168H110.2ZM111.289 28.3168H116.943V42H111.289V28.3168ZM114.116 27.2162C113.099 27.2162 112.273 26.9493 111.64 26.4157C111.022 25.8654 110.714 25.1733 110.714 24.3394C110.714 23.5056 111.022 22.8219 111.64 22.2882C112.273 21.7379 113.099 21.4627 114.116 21.4627C115.15 21.4627 115.975 21.7212 116.592 22.2382C117.21 22.7552 117.518 23.4222 117.518 24.2394C117.518 25.1066 117.21 25.8237 116.592 26.3907C115.975 26.941 115.15 27.2162 114.116 27.2162ZM129.53 41.5247C128.679 42.0083 127.52 42.2501 126.052 42.2501C124.135 42.2501 122.659 41.7915 121.625 40.8743C120.591 39.9404 120.074 38.5479 120.074 36.6968V33.1947H118.198V29.0673H120.074V25.24H125.727V29.0673H128.529V33.1947H125.727V36.6468C125.727 37.0637 125.836 37.3889 126.052 37.6224C126.269 37.8559 126.553 37.9726 126.903 37.9726C127.387 37.9726 127.812 37.8475 128.179 37.5974L129.53 41.5247ZM140.791 41.5247C139.941 42.0083 138.782 42.2501 137.314 42.2501C135.396 42.2501 133.92 41.7915 132.886 40.8743C131.852 39.9404 131.335 38.5479 131.335 36.6968V33.1947H129.459V29.0673H131.335V25.24H136.989V29.0673H139.791V33.1947H136.989V36.6468C136.989 37.0637 137.097 37.3889 137.314 37.6224C137.531 37.8559 137.814 37.9726 138.165 37.9726C138.648 37.9726 139.073 37.8475 139.44 37.5974L140.791 41.5247ZM156.408 35.1459C156.408 35.2293 156.383 35.6712 156.333 36.4717H146.828C147.028 36.9887 147.361 37.3889 147.828 37.6724C148.295 37.9392 148.879 38.0727 149.579 38.0727C150.18 38.0727 150.68 37.9976 151.08 37.8475C151.497 37.6974 151.947 37.4389 152.431 37.0721L155.383 40.0488C154.049 41.5164 152.056 42.2501 149.404 42.2501C147.753 42.2501 146.302 41.95 145.051 41.3496C143.801 40.7326 142.833 39.8821 142.15 38.7981C141.466 37.7141 141.124 36.4967 141.124 35.1459C141.124 33.7784 141.458 32.561 142.125 31.4937C142.808 30.4097 143.734 29.5676 144.901 28.9672C146.085 28.3669 147.411 28.0667 148.879 28.0667C150.263 28.0667 151.522 28.3418 152.656 28.8922C153.807 29.4425 154.716 30.2513 155.383 31.3186C156.066 32.3859 156.408 33.6617 156.408 35.1459ZM148.929 31.919C148.345 31.919 147.861 32.0774 147.478 32.3943C147.094 32.7111 146.844 33.1614 146.727 33.7451H151.13C151.013 33.1781 150.763 32.7361 150.38 32.4193C149.996 32.0857 149.512 31.919 148.929 31.919ZM163.571 29.7927C164.571 28.642 166.047 28.0667 167.998 28.0667V33.0697C167.548 33.003 167.131 32.9696 166.747 32.9696C164.813 32.9696 163.846 33.9535 163.846 35.9214V42H158.192V28.3168H163.571V29.7927Z" fill="white"/>
<path d="M75.2281 29.0673H75.8762V28.4192H75.2281V29.0673ZM70.1001 29.0673H69.452V29.7153H70.1001V29.0673ZM70.1001 24.4895V23.8415H69.452V24.4895H70.1001ZM86.2597 24.4895H86.9078V23.8415H86.2597V24.4895ZM86.2597 29.0673V29.7153H86.9078V29.0673H86.2597ZM81.1317 29.0673V28.4192H80.4836V29.0673H81.1317ZM81.1317 42V42.6481H81.7797V42H81.1317ZM75.2281 42H74.5801V42.6481H75.2281V42ZM75.2281 28.4192H70.1001V29.7153H75.2281V28.4192ZM70.7481 29.0673V24.4895H69.452V29.0673H70.7481ZM70.1001 25.1376H86.2597V23.8415H70.1001V25.1376ZM85.6117 24.4895V29.0673H86.9078V24.4895H85.6117ZM86.2597 28.4192H81.1317V29.7153H86.2597V28.4192ZM80.4836 29.0673V42H81.7797V29.0673H80.4836ZM81.1317 41.3519H75.2281V42.6481H81.1317V41.3519ZM75.8762 42V29.0673H74.5801V42H75.8762ZM110.2 28.3168L110.812 28.5295L111.111 27.6688H110.2V28.3168ZM105.447 42V42.6481H105.908L106.059 42.2126L105.447 42ZM99.9435 42L99.3277 42.202L99.474 42.6481H99.9435V42ZM97.8672 35.6712L98.483 35.4692L97.8781 33.6255L97.2537 35.4627L97.8672 35.6712ZM95.716 42V42.6481H96.1801L96.3295 42.2086L95.716 42ZM90.2127 42L89.6005 42.2126L89.7517 42.6481H90.2127V42ZM85.4598 28.3168V27.6688H84.5487L84.8476 28.5295L85.4598 28.3168ZM90.813 28.3168L91.4293 28.1164L91.2837 27.6688H90.813V28.3168ZM93.1644 35.5461L92.5482 35.7466L93.1516 37.6019L93.7782 35.7543L93.1644 35.5461ZM95.6159 28.3168V27.6688H95.1513L95.0022 28.1087L95.6159 28.3168ZM100.419 28.3168L101.035 28.1163L100.889 27.6688H100.419V28.3168ZM102.795 35.6212L102.179 35.8217L102.786 37.6865L103.41 35.8274L102.795 35.6212ZM105.247 28.3168V27.6688H104.781L104.632 28.1106L105.247 28.3168ZM109.587 28.1042L104.835 41.7874L106.059 42.2126L110.812 28.5295L109.587 28.1042ZM105.447 41.3519H99.9435V42.6481H105.447V41.3519ZM100.559 41.798L98.483 35.4692L97.2515 35.8732L99.3277 42.202L100.559 41.798ZM97.2537 35.4627L95.1024 41.7914L96.3295 42.2086L98.4808 35.8798L97.2537 35.4627ZM95.716 41.3519H90.2127V42.6481H95.716V41.3519ZM90.8248 41.7874L86.072 28.1042L84.8476 28.5295L89.6005 42.2126L90.8248 41.7874ZM85.4598 28.9649H90.813V27.6688H85.4598V28.9649ZM90.1967 28.5173L92.5482 35.7466L93.7807 35.3457L91.4293 28.1164L90.1967 28.5173ZM93.7782 35.7543L96.2296 28.5249L95.0022 28.1087L92.5507 35.338L93.7782 35.7543ZM95.6159 28.9649H100.419V27.6688H95.6159V28.9649ZM99.8025 28.5173L102.179 35.8217L103.411 35.4207L101.035 28.1163L99.8025 28.5173ZM103.41 35.8274L105.861 28.523L104.632 28.1106L102.181 35.415L103.41 35.8274ZM105.247 28.9649H110.2V27.6688H105.247V28.9649ZM111.289 28.3168V27.6688H110.641V28.3168H111.289ZM116.943 28.3168H117.591V27.6688H116.943V28.3168ZM116.943 42V42.6481H117.591V42H116.943ZM111.289 42H110.641V42.6481H111.289V42ZM111.64 26.4157L111.208 26.8993L111.215 26.9055L111.222 26.9114L111.64 26.4157ZM111.64 22.2882L112.063 22.7784L112.064 22.7775L111.64 22.2882ZM116.592 22.2382L116.176 22.7349L116.176 22.7349L116.592 22.2382ZM116.592 26.3907L117.024 26.8744L117.031 26.8679L116.592 26.3907ZM111.289 28.9649H116.943V27.6688H111.289V28.9649ZM116.295 28.3168V42H117.591V28.3168H116.295ZM116.943 41.3519H111.289V42.6481H116.943V41.3519ZM111.937 42V28.3168H110.641V42H111.937ZM114.116 26.5681C113.215 26.5681 112.549 26.3343 112.057 25.92L111.222 26.9114C111.998 27.5644 112.982 27.8642 114.116 27.8642V26.5681ZM112.071 25.932C111.593 25.5059 111.362 24.9903 111.362 24.3394H110.066C110.066 25.3562 110.452 26.2248 111.208 26.8993L112.071 25.932ZM111.362 24.3394C111.362 23.689 111.592 23.1859 112.063 22.7784L111.216 21.7981C110.453 22.4579 110.066 23.3222 110.066 24.3394H111.362ZM112.064 22.7775C112.557 22.3502 113.22 22.1108 114.116 22.1108V20.8147C112.977 20.8147 111.99 21.1256 111.215 21.7989L112.064 22.7775ZM114.116 22.1108C115.042 22.1108 115.706 22.3407 116.176 22.7349L117.009 21.7414C116.245 21.1017 115.258 20.8147 114.116 20.8147V22.1108ZM116.176 22.7349C116.644 23.1266 116.87 23.6106 116.87 24.2394H118.166C118.166 23.2339 117.775 22.3837 117.009 21.7414L116.176 22.7349ZM116.87 24.2394C116.87 24.9324 116.632 25.474 116.154 25.9135L117.031 26.8679C117.787 26.1734 118.166 25.2808 118.166 24.2394H116.87ZM116.161 25.907C115.69 26.3268 115.032 26.5681 114.116 26.5681V27.8642C115.268 27.8642 116.26 27.5552 117.024 26.8743L116.161 25.907ZM129.53 41.5247L129.85 42.0881L130.317 41.8223L130.142 41.3139L129.53 41.5247ZM121.625 40.8743L121.19 41.3553L121.195 41.3591L121.625 40.8743ZM120.074 33.1947H120.722V32.5467H120.074V33.1947ZM118.198 33.1947H117.55V33.8428H118.198V33.1947ZM118.198 29.0673V28.4192H117.55V29.0673H118.198ZM120.074 29.0673V29.7153H120.722V29.0673H120.074ZM120.074 25.24V24.5919H119.426V25.24H120.074ZM125.727 25.24H126.375V24.5919H125.727V25.24ZM125.727 29.0673H125.079V29.7153H125.727V29.0673ZM128.529 29.0673H129.177V28.4192H128.529V29.0673ZM128.529 33.1947V33.8428H129.177V33.1947H128.529ZM125.727 33.1947V32.5467H125.079V33.1947H125.727ZM126.052 37.6224L125.578 38.0634L125.578 38.0634L126.052 37.6224ZM128.179 37.5974L128.792 37.3866L128.515 36.5835L127.814 37.0619L128.179 37.5974ZM129.209 40.9614C128.493 41.3685 127.46 41.6021 126.052 41.6021V42.8982C127.58 42.8982 128.865 42.6482 129.85 42.0881L129.209 40.9614ZM126.052 41.6021C124.232 41.6021 122.931 41.1669 122.055 40.3895L121.195 41.3591C122.386 42.4162 124.038 42.8982 126.052 42.8982V41.6021ZM122.059 40.3934C121.202 39.6192 120.722 38.428 120.722 36.6968H119.426C119.426 38.6679 119.98 40.2616 121.19 41.3553L122.059 40.3934ZM120.722 36.6968V33.1947H119.426V36.6968H120.722ZM120.074 32.5467H118.198V33.8428H120.074V32.5467ZM118.846 33.1947V29.0673H117.55V33.1947H118.846ZM118.198 29.7153H120.074V28.4192H118.198V29.7153ZM120.722 29.0673V25.24H119.426V29.0673H120.722ZM120.074 25.888H125.727V24.5919H120.074V25.888ZM125.079 25.24V29.0673H126.375V25.24H125.079ZM125.727 29.7153H128.529V28.4192H125.727V29.7153ZM127.881 29.0673V33.1947H129.177V29.0673H127.881ZM128.529 32.5467H125.727V33.8428H128.529V32.5467ZM125.079 33.1947V36.6468H126.375V33.1947H125.079ZM125.079 36.6468C125.079 37.1754 125.219 37.6767 125.578 38.0634L126.527 37.1814C126.453 37.1011 126.375 36.952 126.375 36.6468H125.079ZM125.578 38.0634C125.93 38.4428 126.392 38.6206 126.903 38.6206V37.3245C126.713 37.3245 126.609 37.2689 126.527 37.1814L125.578 38.0634ZM126.903 38.6206C127.505 38.6206 128.06 38.4629 128.544 38.1328L127.814 37.0619C127.564 37.2321 127.268 37.3245 126.903 37.3245V38.6206ZM127.566 37.8081L128.917 41.7355L130.142 41.3139L128.792 37.3866L127.566 37.8081ZM140.791 41.5247L141.111 42.0881L141.579 41.8223L141.404 41.3139L140.791 41.5247ZM132.886 40.8743L132.452 41.3553L132.456 41.3591L132.886 40.8743ZM131.335 33.1947H131.984V32.5467H131.335V33.1947ZM129.459 33.1947H128.811V33.8428H129.459V33.1947ZM129.459 29.0673V28.4192H128.811V29.0673H129.459ZM131.335 29.0673V29.7153H131.984V29.0673H131.335ZM131.335 25.24V24.5919H130.687V25.24H131.335ZM136.989 25.24H137.637V24.5919H136.989V25.24ZM136.989 29.0673H136.341V29.7153H136.989V29.0673ZM139.791 29.0673H140.439V28.4192H139.791V29.0673ZM139.791 33.1947V33.8428H140.439V33.1947H139.791ZM136.989 33.1947V32.5467H136.341V33.1947H136.989ZM137.314 37.6224L136.839 38.0634L136.839 38.0634L137.314 37.6224ZM139.44 37.5974L140.053 37.3866L139.777 36.5835L139.075 37.0619L139.44 37.5974ZM140.471 40.9614C139.755 41.3685 138.721 41.6021 137.314 41.6021V42.8982C138.842 42.8982 140.126 42.6482 141.111 42.0881L140.471 40.9614ZM137.314 41.6021C135.493 41.6021 134.193 41.1669 133.316 40.3895L132.456 41.3591C133.648 42.4162 135.299 42.8982 137.314 42.8982V41.6021ZM133.321 40.3934C132.464 39.6192 131.984 38.428 131.984 36.6968H130.687C130.687 38.6679 131.241 40.2616 132.452 41.3553L133.321 40.3934ZM131.984 36.6968V33.1947H130.687V36.6968H131.984ZM131.335 32.5467H129.459V33.8428H131.335V32.5467ZM130.107 33.1947V29.0673H128.811V33.1947H130.107ZM129.459 29.7153H131.335V28.4192H129.459V29.7153ZM131.984 29.0673V25.24H130.687V29.0673H131.984ZM131.335 25.888H136.989V24.5919H131.335V25.888ZM136.341 25.24V29.0673H137.637V25.24H136.341ZM136.989 29.7153H139.791V28.4192H136.989V29.7153ZM139.142 29.0673V33.1947H140.439V29.0673H139.142ZM139.791 32.5467H136.989V33.8428H139.791V32.5467ZM136.341 33.1947V36.6468H137.637V33.1947H136.341ZM136.341 36.6468C136.341 37.1754 136.48 37.6767 136.839 38.0634L137.789 37.1814C137.714 37.1011 137.637 36.952 137.637 36.6468H136.341ZM136.839 38.0634C137.191 38.4428 137.654 38.6206 138.165 38.6206V37.3245C137.975 37.3245 137.87 37.2689 137.789 37.1814L136.839 38.0634ZM138.165 38.6206C138.766 38.6206 139.321 38.4629 139.805 38.1328L139.075 37.0619C138.826 37.2321 138.53 37.3245 138.165 37.3245V38.6206ZM138.827 37.8081L140.178 41.7355L141.404 41.3139L140.053 37.3866L138.827 37.8081ZM156.333 36.4717V37.1198H156.942L156.98 36.5121L156.333 36.4717ZM146.828 36.4717V35.8236H145.882L146.223 36.7056L146.828 36.4717ZM147.828 37.6724L147.492 38.2264L147.499 38.2308L147.507 38.2351L147.828 37.6724ZM151.08 37.8475L150.861 37.2377L150.853 37.2407L151.08 37.8475ZM152.431 37.0721L152.891 36.6157L152.491 36.2127L152.039 36.5558L152.431 37.0721ZM155.383 40.0488L155.862 40.4848L156.276 40.0295L155.843 39.5925L155.383 40.0488ZM145.051 41.3496L144.765 41.9308L144.771 41.9338L145.051 41.3496ZM142.15 38.7981L142.698 38.4523L142.15 38.7981ZM142.125 31.4937L141.577 31.148L141.575 31.1503L142.125 31.4937ZM144.901 28.9672L144.608 28.3892L144.605 28.3909L144.901 28.9672ZM152.656 28.8922L152.373 29.4752L152.376 29.4768L152.656 28.8922ZM155.383 31.3186L154.833 31.6621L154.837 31.6682L155.383 31.3186ZM147.478 32.3943L147.891 32.8939L147.891 32.8939L147.478 32.3943ZM146.727 33.7451L146.092 33.618L145.937 34.3931H146.727V33.7451ZM151.13 33.7451V34.3931H151.925L151.765 33.6144L151.13 33.7451ZM150.38 32.4193L149.954 32.9083L149.961 32.9137L149.967 32.9189L150.38 32.4193ZM155.76 35.1459C155.76 35.144 155.76 35.1503 155.759 35.1706C155.759 35.1888 155.758 35.2134 155.756 35.2448C155.753 35.3077 155.749 35.3936 155.742 35.5033C155.73 35.7223 155.711 36.0315 155.686 36.4313L156.98 36.5121C157.029 35.7289 157.056 35.2558 157.056 35.1459H155.76ZM156.333 35.8236H146.828V37.1198H156.333V35.8236ZM146.223 36.7056C146.474 37.3538 146.901 37.8675 147.492 38.2264L148.164 37.1185C147.822 36.9103 147.581 36.6236 147.432 36.2378L146.223 36.7056ZM147.507 38.2351C148.097 38.5723 148.799 38.7207 149.579 38.7207V37.4246C148.958 37.4246 148.493 37.3062 148.15 37.1097L147.507 38.2351ZM149.579 38.7207C150.228 38.7207 150.812 38.6403 151.308 38.4543L150.853 37.2407C150.548 37.3549 150.131 37.4246 149.579 37.4246V38.7207ZM151.3 38.4573C151.796 38.2784 152.305 37.9813 152.823 37.5884L152.039 36.5558C151.59 36.8965 151.198 37.1164 150.861 37.2378L151.3 38.4573ZM151.971 37.5284L154.922 40.5051L155.843 39.5925L152.891 36.6157L151.971 37.5284ZM154.903 39.6129C153.729 40.904 151.938 41.6021 149.404 41.6021V42.8982C152.174 42.8982 154.368 42.1287 155.862 40.4848L154.903 39.6129ZM149.404 41.6021C147.832 41.6021 146.48 41.3165 145.332 40.7654L144.771 41.9338C146.124 42.5835 147.674 42.8982 149.404 42.8982V41.6021ZM145.338 40.7684C144.185 40.1994 143.312 39.4264 142.698 38.4523L141.602 39.1438C142.355 40.3377 143.417 41.2657 144.765 41.9308L145.338 40.7684ZM142.698 38.4523C142.083 37.4776 141.772 36.3813 141.772 35.1459H140.476C140.476 36.6122 140.849 37.9506 141.602 39.1438L142.698 38.4523ZM141.772 35.1459C141.772 33.889 142.077 32.7926 142.674 31.8372L141.575 31.1503C140.838 32.3294 140.476 33.6679 140.476 35.1459H141.772ZM142.673 31.8395C143.293 30.8559 144.131 30.0923 145.198 29.5435L144.605 28.3909C143.337 29.0429 142.324 29.9636 141.577 31.148L142.673 31.8395ZM145.194 29.5452C146.278 28.9956 147.502 28.7147 148.879 28.7147V27.4186C147.32 27.4186 145.892 27.7381 144.608 28.3892L145.194 29.5452ZM148.879 28.7147C150.175 28.7147 151.336 28.9717 152.373 29.4752L152.939 28.3091C151.708 27.712 150.351 27.4186 148.879 27.4186V28.7147ZM152.376 29.4768C153.418 29.9748 154.232 30.7007 154.833 31.6621L155.932 30.9751C155.199 29.802 154.196 28.9102 152.936 28.3075L152.376 29.4768ZM154.837 31.6682C155.443 32.6144 155.76 33.764 155.76 35.1459H157.056C157.056 33.5593 156.69 32.1575 155.928 30.969L154.837 31.6682ZM148.929 31.2709C148.222 31.2709 147.584 31.4657 147.065 31.8946L147.891 32.8939C148.139 32.6891 148.468 32.567 148.929 32.567V31.2709ZM147.065 31.8946C146.545 32.3241 146.232 32.918 146.092 33.618L147.363 33.8722C147.456 33.4047 147.643 33.0981 147.891 32.8939L147.065 31.8946ZM146.727 34.3931H151.13V33.097H146.727V34.3931ZM151.765 33.6144C151.623 32.9275 151.308 32.3455 150.792 31.9196L149.967 32.9189C150.219 33.1267 150.403 33.4286 150.495 33.8757L151.765 33.6144ZM150.805 31.9302C150.286 31.4791 149.644 31.2709 148.929 31.2709V32.567C149.381 32.567 149.706 32.6924 149.954 32.9083L150.805 31.9302ZM163.571 29.7927H162.922V31.5256L164.06 30.2179L163.571 29.7927ZM167.998 28.0667H168.646V27.4186H167.998V28.0667ZM167.998 33.0697L167.903 33.7107L168.646 33.8208V33.0697H167.998ZM163.846 42V42.6481H164.494V42H163.846ZM158.192 42H157.544V42.6481H158.192V42ZM158.192 28.3168V27.6688H157.544V28.3168H158.192ZM163.571 28.3168H164.219V27.6688H163.571V28.3168ZM164.06 30.2179C164.904 29.2463 166.178 28.7147 167.998 28.7147V27.4186C165.916 27.4186 164.238 28.0377 163.082 29.3675L164.06 30.2179ZM167.35 28.0667V33.0697H168.646V28.0667H167.35ZM168.093 32.4286C167.617 32.3581 167.168 32.3215 166.747 32.3215V33.6177C167.094 33.6177 167.479 33.6478 167.903 33.7107L168.093 32.4286ZM166.747 32.3215C165.677 32.3215 164.757 32.5945 164.109 33.2532C163.463 33.9099 163.198 34.8403 163.198 35.9214H164.494C164.494 35.0346 164.712 34.4891 165.033 34.1619C165.353 33.8367 165.883 33.6177 166.747 33.6177V32.3215ZM163.198 35.9214V42H164.494V35.9214H163.198ZM163.846 41.3519H158.192V42.6481H163.846V41.3519ZM158.84 42V28.3168H157.544V42H158.84ZM158.192 28.9649H163.571V27.6688H158.192V28.9649ZM162.922 28.3168V29.7927H164.219V28.3168H162.922Z" fill="#21252D"/>
<path d="M49.536 9.20898H56.5929L41.1797 26.8213L59.3118 50.7909H45.1179L33.9928 36.2572L21.2783 50.7909H14.2114L30.6942 31.9491L13.3118 9.20898H27.8654L37.9111 22.4932L49.536 9.20898ZM47.0571 46.5727H50.9654L25.7364 13.2072H21.5382L47.0571 46.5727Z" fill="white"/>
</g>
<defs>
<clipPath id="clip0_29_329">
<rect width="187" height="60" fill="white"/>
</clipPath>
</defs>
</svg>
